<?xml version="1.0" encoding="utf-8"?>
<!-- Generator: Adobe Illustrator 27.1.1, SVG Export Plug-In . SVG Version: 6.00 Build 0)  -->
<svg version="1.1" id="Capa_1" xmlns="http://www.w3.org/2000/svg" xmlns:xlink="http://www.w3.org/1999/xlink" x="0px" y="0px"
	 viewBox="0 0 300 260" style="enable-background:new 0 0 300 260;" xml:space="preserve">
<style type="text/css">
	.st0{fill:#BA007C;}
</style>
<g>
	<path class="st0" d="M284.2,32.3H14.5C8.7,32.3,4,37,4,42.8v175.4c0,5.8,4.7,10.5,10.5,10.5h269.7c5.8,0,10.5-4.7,10.5-10.5V42.8
		C294.7,37,290,32.3,284.2,32.3z M265.2,46.3l-115.9,66.9L33.3,46.3H265.2z M275.2,214.7H23.5c-2.4,0-4.4-2-4.4-4.4V53.8l127.8,73.8
		c0.3,0.1,0.6,0,0.8,0.1c0.6,0.3,1.1,0.3,1.8,0.2c0.5,0,0.9,0,1.3-0.2c0.2-0.1,0.4,0,0.6-0.1l128.1-74v156.5
		C279.6,212.7,277.6,214.7,275.2,214.7z"/>
	<path class="st0" d="M202,128.9c-2.5-2.5-6.5-2.5-8.9,0l-0.7,0.7c-2.5,2.5-2.5,6.5,0,8.9l60.2,60.2c2.5,2.5,6.4,2.5,8.9,0l0.7-0.7
		c2.5-2.5,2.5-6.5,0-8.9L202,128.9z"/>
	<path class="st0" d="M105.6,128.9c-2.5-2.5-6.5-2.5-8.9,0l-60.2,60.2c-2.5,2.5-2.5,6.5,0,8.9l0.7,0.7c2.5,2.5,6.4,2.5,8.9,0
		l60.2-60.2c2.5-2.5,2.5-6.5,0-8.9L105.6,128.9z"/>
</g>
</svg>
