<?xml version="1.0" encoding="utf-8"?>
<!-- Generator: Adobe Illustrator 27.7.0, SVG Export Plug-In . SVG Version: 6.00 Build 0)  -->
<svg version="1.1" id="Capa_1" xmlns="http://www.w3.org/2000/svg" xmlns:xlink="http://www.w3.org/1999/xlink" x="0px" y="0px"
	 viewBox="0 0 715 312" style="enable-background:new 0 0 715 312;" xml:space="preserve">
<style type="text/css">
	.st0{fill:#009BDB;}
	.st1{fill:url(#SVGID_1_);}
	.st2{fill:#BA007C;}
	.st3{fill:url(#SVGID_00000032644648668440241820000000436284339078994090_);}
	.st4{fill:url(#SVGID_00000111900956637857820620000004069060063491181994_);}
</style>
<g>
	<path class="st0" d="M505.4,197.1C504.7,135,454.1,84.9,391.9,84.9c-62.2,0-112.7,50.1-113.5,112.2h0V312h29.1V197.1l0,0
		c0.7-45.9,38.2-82.9,84.3-82.9s83.6,36.8,84.3,82.7l0,0.2V312h29.1L505.4,197.1L505.4,197.1z"/>
	<rect x="517.3" y="0" class="st0" width="29.1" height="312"/>
	<g>
		<polygon class="st0" points="568.1,181.5 546.4,200.9 670.6,312 714,312 		"/>
	</g>
	<linearGradient id="SVGID_1_" gradientUnits="userSpaceOnUse" x1="679.92" y1="68.7851" x2="600.179" y2="206.9004">
		<stop  offset="0.6198" style="stop-color:#009BDB"/>
		<stop  offset="1" style="stop-color:#027691"/>
	</linearGradient>
	<polygon class="st1" points="671.5,89 568,181.6 589.8,200.9 715,89 	"/>
	<g>
		<path class="st2" d="M113.5,84.9c-33.4,0-63.5,14.5-84.2,37.4V0H0.1v193.3C0.1,195,0,196.7,0,198.5C0,261.1,50.8,312,113.5,312
			c62.7,0,113.5-50.8,113.5-113.5S176.2,84.9,113.5,84.9z M113.5,282.7c-46.5,0-84.2-37.7-84.2-84.2s37.7-84.2,84.2-84.2
			s84.2,37.7,84.2,84.2S160,282.7,113.5,282.7z"/>
		<g>
			
				<linearGradient id="SVGID_00000118392091107722384410000017927772326675074740_" gradientUnits="userSpaceOnUse" x1="0" y1="196.1809" x2="0.13" y2="196.1809">
				<stop  offset="0" style="stop-color:#700156"/>
				<stop  offset="0.3459" style="stop-color:#BA007C"/>
			</linearGradient>
			<path style="fill:url(#SVGID_00000118392091107722384410000017927772326675074740_);" d="M0.1,199.1v-5.7
				C0.1,195,0,196.7,0,198.5c0,0.2,0,0.4,0,0.6H0.1z"/>
			
				<linearGradient id="SVGID_00000016755852571962138700000003915628704053668739_" gradientUnits="userSpaceOnUse" x1="29.2623" y1="141.9991" x2="227.0133" y2="141.9991">
				<stop  offset="0" style="stop-color:#700156"/>
				<stop  offset="0.3459" style="stop-color:#BA007C"/>
			</linearGradient>
			<path style="fill:url(#SVGID_00000016755852571962138700000003915628704053668739_);" d="M29.3,199.1L29.3,199.1
				c0-0.2,0-0.4,0-0.6c0-46.5,37.7-84.2,84.2-84.2s84.2,37.7,84.2,84.2c0,0.2,0,0.4,0,0.6H227c0-0.2,0-0.4,0-0.6
				c0-62.7-50.8-113.5-113.5-113.5c-33.4,0-63.5,14.5-84.2,37.4V199.1z"/>
		</g>
	</g>
	<rect x="278.3" y="89.6" class="st0" width="29.1" height="222.4"/>
	<rect x="237.3" y="89.6" class="st0" width="29.1" height="222.4"/>
	<rect x="237.4" y="89.6" class="st0" width="29.1" height="222.4"/>
</g>
</svg>
