<?xml version="1.0" encoding="utf-8"?>
<!-- Generator: Adobe Illustrator 27.1.1, SVG Export Plug-In . SVG Version: 6.00 Build 0)  -->
<svg version="1.1" id="Capa_1" xmlns="http://www.w3.org/2000/svg" xmlns:xlink="http://www.w3.org/1999/xlink" x="0px" y="0px"
	 viewBox="0 0 300 300" style="enable-background:new 0 0 300 300;" xml:space="preserve">
<style type="text/css">
	.st0{fill:#009BDB;}
	.st1{fill-rule:evenodd;clip-rule:evenodd;fill:#009BDB;}
</style>
<g>
	<g>
		<path class="st0" d="M297,148.8C297,67.3,231,1.3,149.5,1.3S2,67.3,2,148.8c0,80.3,64.2,145.6,144.1,147.4h6.8
			C232.8,294.4,297,229.1,297,148.8z M9,148.8C9,71.2,71.9,8.2,149.5,8.2S290,71.2,290,148.8s-62.9,140.5-140.5,140.5
			S9,226.4,9,148.8z"/>
	</g>
	<g>
		<rect x="111.7" y="132" class="st1" width="85.1" height="4.3"/>
		<rect x="111.7" y="149.3" class="st1" width="85.1" height="4.3"/>
		<rect x="111.7" y="165.1" class="st1" width="85.1" height="4.3"/>
		<rect x="111.7" y="182.4" class="st1" width="85.1" height="4.3"/>
		<rect x="111.7" y="199.7" class="st1" width="85.1" height="4.3"/>
		<path class="st1" d="M95.7,224.4V65.5h73.2v43.9h43.9v115H95.7z M173.1,68.5l36.7,36.7l0,0l0,0H173L173.1,68.5
			C173,68.5,173.1,68.5,173.1,68.5L173.1,68.5z M91.5,61.3v167.2h125.4V106.4l-45.1-45.1C171.8,61.3,91.5,61.3,91.5,61.3z"/>
		<g>
			<path class="st0" d="M133.2,120.3v-4.5c-2.2-0.3-4.1-0.8-5.5-1.5c-1.4-0.7-2.6-1.9-3.6-3.5s-1.6-3.6-1.8-5.9l4.5-0.8
				c0.3,2.4,1,4.2,1.8,5.3c1.3,1.6,2.8,2.5,4.5,2.7V97.7c-1.8-0.3-3.7-1.1-5.7-2.1c-1.4-0.8-2.5-1.9-3.3-3.3s-1.2-3-1.2-4.8
				c0-3.2,1.1-5.8,3.4-7.8c1.5-1.3,3.8-2.1,6.7-2.4v-2.1h2.6v2.1c2.6,0.2,4.7,1,6.2,2.3c2,1.6,3.1,3.9,3.5,6.7L141,87
				c-0.3-1.8-0.8-3.1-1.7-4.1c-0.8-0.9-2-1.6-3.5-1.9v13c2.3,0.6,3.8,1,4.5,1.3c1.4,0.6,2.5,1.4,3.4,2.2c0.9,0.9,1.6,1.9,2,3.1
				c0.5,1.2,0.7,2.5,0.7,3.9c0,3.1-1,5.7-3,7.8c-2,2.1-4.5,3.2-7.7,3.3v4.5h-2.5V120.3z M133.2,81c-1.7,0.3-3.1,1-4.1,2.1
				s-1.5,2.5-1.5,4s0.4,2.8,1.3,3.8c0.9,1,2.3,1.9,4.4,2.5L133.2,81L133.2,81z M135.9,112c1.7-0.2,3.2-1,4.3-2.3s1.7-2.9,1.7-4.8
				c0-1.6-0.4-2.9-1.2-3.9s-2.4-1.9-4.8-2.7V112z"/>
		</g>
	</g>
</g>
</svg>
