<?xml version="1.0" encoding="utf-8"?>
<!-- Generator: Adobe Illustrator 27.1.1, SVG Export Plug-In . SVG Version: 6.00 Build 0)  -->
<svg version="1.1" id="Capa_1" xmlns="http://www.w3.org/2000/svg" xmlns:xlink="http://www.w3.org/1999/xlink" x="0px" y="0px"
	 viewBox="0 0 300 300" style="enable-background:new 0 0 300 300;" xml:space="preserve">
<style type="text/css">
	.st0{fill:#F7F7F8;}
	.st1{fill-rule:evenodd;clip-rule:evenodd;fill:#F7F7F8;}
</style>
<g>
	<g>
		<path class="st0" d="M297,148.8C297,67.3,231,1.3,149.5,1.3S2,67.3,2,148.8c0,80.3,64.2,145.6,144.1,147.4h6.8
			C232.8,294.4,297,229.1,297,148.8z M9,148.8C9,71.2,71.9,8.2,149.5,8.2C227.1,8.2,290,71.2,290,148.8s-62.9,140.5-140.5,140.5
			C71.9,289.3,9,226.4,9,148.8z"/>
	</g>
	<g>
		<path class="st1" d="M122.7,173.7h52.1c3.6,0,6.5,3,6.5,6.6c0,3.7-2.9,6.6-6.5,6.6h-39.1c-1.2,0-2.2,1-2.2,2.2
			c0,1.2,1,2.2,2.2,2.2h39.1c6,0,10.9-5,10.9-11.1c0-6.1-4.9-11.1-10.9-11.1h-52.1c-3.9,0-7.8,1.1-11.2,3.1l-61.5,30.1
			c-1.1,0.5-1.6,1.8-1.1,2.9c0.5,1.1,1.7,1.6,2.9,1.2c0.1,0,0.1-0.1,0.2-0.1l61.6-30.2C116.4,174.6,119.5,173.7,122.7,173.7z"/>
		<path class="st1" d="M232.6,152c-2,0-3.9,0.5-5.6,1.6l-37,21.4c-1,0.6-1.4,1.9-0.8,3c0.6,1,1.9,1.4,3,0.8l37.1-21.4
			c1-0.6,2.2-1,3.3-0.9c3.6,0,6.5,2.9,6.5,6.5c-0.1,1.9-0.9,3.8-2.3,5.1l-59.3,43.7c-1.1,0.9-2.5,1.3-3.9,1.3h-40.4
			c-22.1,0-40.1,6.8-53.4,20.3c-0.9,0.8-0.9,2.2-0.1,3.1c0.8,0.9,2.2,0.9,3.1,0.1c0,0,0,0,0.1-0.1c12.5-12.6,29.4-19,50.4-19h40.4
			c2.3,0,4.6-0.8,6.5-2.2l59.5-43.8l0.3-0.2c2.3-2.2,3.6-5.2,3.7-8.3C243.4,156.8,238.5,152,232.6,152z"/>
		<path class="st1" d="M220.3,73.8l2.2,11.1h2.9l-2.9-14.4L149,84.9c-0.1,0-0.1,0,0,0h14.3L220.3,73.8z"/>
		<path class="st0" d="M220.3,73.8l2.2,11.1h2.9l-2.9-14.4L149,84.9c-0.1,0-0.1,0,0,0h14.3L220.3,73.8z"/>
		<path class="st1" d="M203.9,58.3l4.2,10.6l2.8-0.6l-5.5-13.7l-73.8,30.2c0,0,0,0,0,0h7.3L203.9,58.3z"/>
		<path class="st0" d="M203.9,58.3l4.2,10.6l2.8-0.6l-5.5-13.7l-73.8,30.2c0,0,0,0,0,0h7.3L203.9,58.3z"/>
		<path class="st1" d="M232.7,142.7h-117V92.1h117V142.7z M235.5,89.2H112.9v56.2h122.5V89.2z"/>
		<path class="st0" d="M232.7,142.7h-117V92.1h117V142.7z M235.5,89.2H112.9v56.2h122.5V89.2z"/>
		<path class="st1" d="M174.9,107.8c4,0,7.3,4.3,7.3,9.5c0,5.3-3.3,9.5-7.3,9.5c-4,0-7.3-4.3-7.3-9.5
			C167.6,112.1,170.9,107.8,174.9,107.8z M174.9,129.6c5.6,0,10.1-5.5,10.1-12.3s-4.5-12.3-10.1-12.3c-5.6,0-10.1,5.5-10.1,12.3
			S169.3,129.6,174.9,129.6z"/>
		<path class="st0" d="M174.9,107.8c4,0,7.3,4.3,7.3,9.5c0,5.3-3.3,9.5-7.3,9.5c-4,0-7.3-4.3-7.3-9.5
			C167.6,112.1,170.9,107.8,174.9,107.8z M174.9,129.6c5.6,0,10.1-5.5,10.1-12.3c0-6.8-4.5-12.3-10.1-12.3
			c-5.6,0-10.1,5.5-10.1,12.3C164.8,124.1,169.3,129.6,174.9,129.6z"/>
		<path class="st1" d="M138.9,114.8c1.6,0,2.9,1.1,2.9,2.5c0,1.4-1.3,2.5-2.9,2.5c-1.6,0-2.9-1.1-2.9-2.5
			C136,116,137.3,114.8,138.9,114.8z M137.3,122.2c3.1,0.7,6.3-0.8,7.1-3.5c0.3-0.9,0.3-1.8,0-2.7c-0.5-1.7-2-3-4-3.5
			c-3.1-0.7-6.3,0.8-7.1,3.5c-0.3,0.9-0.3,1.8,0,2.7C133.8,120.4,135.4,121.8,137.3,122.2z"/>
		<path class="st0" d="M138.9,114.8c1.6,0,2.9,1.1,2.9,2.5c0,1.4-1.3,2.5-2.9,2.5s-2.9-1.1-2.9-2.5C136,116,137.3,114.8,138.9,114.8
			z M137.3,122.2c3.1,0.7,6.3-0.8,7.1-3.5c0.3-0.9,0.3-1.8,0-2.7c-0.5-1.7-2-3-4-3.5c-3.1-0.7-6.3,0.8-7.1,3.5
			c-0.3,0.9-0.3,1.8,0,2.7C133.8,120.4,135.4,121.8,137.3,122.2z"/>
		<path class="st1" d="M209.5,114.9c1.6,0,2.9,1.1,2.9,2.5c0,1.4-1.3,2.5-2.9,2.5c-1.6,0-2.9-1.1-2.9-2.5
			C206.6,116,207.9,114.9,209.5,114.9z M210.7,122.3c2.7-0.6,4.6-2.7,4.6-5.2c0-1.7-1-3.2-2.6-4.1c-2.7-1.5-6.3-0.8-8,1.6
			c-0.6,0.8-0.9,1.7-0.9,2.7c0,2.8,2.6,5,5.8,5C209.9,122.4,210.3,122.4,210.7,122.3z"/>
		<path class="st0" d="M209.5,114.9c1.6,0,2.9,1.1,2.9,2.5c0,1.4-1.3,2.5-2.9,2.5s-2.9-1.1-2.9-2.5
			C206.6,116,207.9,114.9,209.5,114.9z M210.7,122.3c2.7-0.6,4.6-2.7,4.6-5.2c0-1.7-1-3.2-2.6-4.1c-2.7-1.5-6.3-0.8-8,1.6
			c-0.6,0.8-0.9,1.7-0.9,2.7c0,2.8,2.6,5,5.8,5C209.9,122.4,210.3,122.4,210.7,122.3z"/>
		<path class="st1" d="M124.4,104.6l4-3.9h94.5l2.6,2.5v28.3l-2.6,2.5h-94.5l-4-3.9V104.6z M224,136.8l4.2-4.2v-30.6l-4.2-4.2h-96.9
			l-5.6,5.6v27.8l5.6,5.6H224z"/>
		<path class="st0" d="M124.4,104.6l4-3.9h94.5l2.6,2.5v28.3l-2.6,2.5h-94.5l-4-3.9V104.6z M224,136.8l4.2-4.2v-30.6l-4.2-4.2h-96.9
			l-5.6,5.6v27.8l5.6,5.6H224z"/>
	</g>
</g>
</svg>
