<?xml version="1.0" encoding="utf-8"?>
<!-- Generator: Adobe Illustrator 27.1.1, SVG Export Plug-In . SVG Version: 6.00 Build 0)  -->
<svg version="1.1" id="Capa_1" xmlns="http://www.w3.org/2000/svg" xmlns:xlink="http://www.w3.org/1999/xlink" x="0px" y="0px"
	 viewBox="0 0 300 300" style="enable-background:new 0 0 300 300;" xml:space="preserve">
<style type="text/css">
	.st0{fill:#4D4D4D;}
	.st1{fill:#BA007C;}
</style>
<g>
	<g>
		<g>
			<path class="st0" d="M34.5,160l2.5-1.5c1.8,3.3,3.8,4.9,6.1,4.9c1,0,1.9-0.2,2.8-0.7c0.9-0.5,1.5-1.1,2-1.9
				c0.5-0.8,0.7-1.6,0.7-2.5c0-1-0.3-2-1-2.9c-0.9-1.3-2.6-2.9-5.1-4.7c-2.5-1.9-4-3.2-4.6-4c-1-1.4-1.6-2.9-1.6-4.5
				c0-1.3,0.3-2.5,0.9-3.5c0.6-1.1,1.5-1.9,2.6-2.5c1.1-0.6,2.3-0.9,3.6-0.9c1.4,0,2.7,0.3,3.9,1c1.2,0.7,2.5,2,3.8,3.8l-2.4,1.8
				c-1.1-1.5-2.1-2.4-2.8-2.9c-0.8-0.5-1.6-0.7-2.6-0.7c-1.2,0-2.2,0.4-2.9,1.1c-0.8,0.7-1.1,1.6-1.1,2.7c0,0.6,0.1,1.3,0.4,1.9
				c0.3,0.6,0.8,1.3,1.5,2c0.4,0.4,1.7,1.4,3.8,3c2.6,1.9,4.3,3.6,5.3,5c1,1.5,1.4,3,1.4,4.4c0,2.1-0.8,4-2.4,5.6
				c-1.6,1.6-3.6,2.4-5.9,2.4c-1.8,0-3.4-0.5-4.9-1.4C37.1,163.9,35.8,162.3,34.5,160z"/>
			<path class="st0" d="M58.1,136H75v2.9h-14v9.3h13.9v2.9H61.1v11.6h13.9v2.9H58.1V136z"/>
			<path class="st0" d="M78.8,165.5L83,136h0.5l12,24.3l11.9-24.3h0.5l4.3,29.6h-2.9l-2.9-21.1l-10.5,21.1h-0.8l-10.6-21.3
				l-2.9,21.3H78.8z"/>
			<path class="st0" d="M117.5,136h3v29.6h-3V136z"/>
			<path class="st0" d="M127.3,165.5V136h0.6l19.7,22.7V136h2.9v29.6h-0.7l-19.5-22.4v22.4H127.3z"/>
			<path class="st0" d="M157.8,136h3v17.8c0,2.1,0,3.4,0.1,4c0.1,1.2,0.5,2.1,1,2.9c0.5,0.8,1.4,1.4,2.5,2c1.1,0.5,2.2,0.8,3.4,0.8
				c1,0,1.9-0.2,2.8-0.6c0.9-0.4,1.6-1,2.3-1.7c0.6-0.7,1-1.6,1.3-2.7c0.2-0.8,0.3-2.3,0.3-4.6V136h3v17.8c0,2.6-0.3,4.8-0.8,6.4
				c-0.5,1.6-1.5,3-3.1,4.2c-1.5,1.2-3.4,1.8-5.6,1.8c-2.4,0-4.4-0.6-6.1-1.7c-1.7-1.1-2.8-2.6-3.4-4.5c-0.4-1.2-0.5-3.2-0.5-6.2
				V136z"/>
			<path class="st0" d="M184.7,136h16.9v2.9h-14v9.3h13.9v2.9h-13.9v11.6h13.9v2.9h-16.8V136z"/>
			<path class="st0" d="M204.5,136h3.2l9.8,22.8l10-22.8h3.2l-12.9,29.6h-0.6L204.5,136z"/>
			<path class="st0" d="M249.7,135.2c4.5,0,8.2,1.5,11.2,4.5c3,3,4.5,6.7,4.5,11c0,4.3-1.5,8-4.5,11c-3,3-6.7,4.5-11,4.5
				c-4.4,0-8.1-1.5-11.1-4.5c-3-3-4.5-6.6-4.5-10.9c0-2.8,0.7-5.5,2.1-7.9c1.4-2.4,3.2-4.3,5.6-5.7
				C244.4,135.9,246.9,135.2,249.7,135.2z M249.8,138.1c-2.2,0-4.3,0.6-6.2,1.7c-2,1.1-3.5,2.7-4.6,4.6c-1.1,1.9-1.6,4.1-1.6,6.5
				c0,3.5,1.2,6.5,3.7,8.9c2.4,2.4,5.4,3.6,8.8,3.6c2.3,0,4.4-0.6,6.4-1.7c2-1.1,3.5-2.6,4.6-4.6s1.6-4.1,1.6-6.4
				c0-2.3-0.5-4.5-1.6-6.4c-1.1-1.9-2.6-3.4-4.6-4.6C254.2,138.7,252.1,138.1,249.8,138.1z"/>
		</g>
	</g>
	<g>
		<path class="st1" d="M297,148.3c0-81.2-65.8-147-147-147S3,67.1,3,148.3c0,80.1,64,145.1,143.6,146.9h6.8
			C233,293.4,297,228.3,297,148.3z M10,148.3c0-77.3,62.7-140,140-140c77.3,0,140,62.7,140,140s-62.7,140-140,140
			C72.7,288.3,10,225.6,10,148.3z"/>
	</g>
</g>
</svg>
