<?xml version="1.0" encoding="utf-8"?>
<!-- Generator: Adobe Illustrator 27.1.1, SVG Export Plug-In . SVG Version: 6.00 Build 0)  -->
<svg version="1.1" id="Capa_1" xmlns="http://www.w3.org/2000/svg" xmlns:xlink="http://www.w3.org/1999/xlink" x="0px" y="0px"
	 viewBox="0 0 300 260" style="enable-background:new 0 0 300 260;" xml:space="preserve">
<style type="text/css">
	.st0{fill:#BA007C;}
</style>
<g>
	<path class="st0" d="M203,153.5c-3-1.4-17.1-8.6-19.9-9.5c-2.7-1-4.6-1.4-6.5,1.4c-1.9,3-7.4,9.5-9.2,11.4
		c-1.6,1.9-3.4,2.1-6.3,0.7c-3-1.4-12.3-4.5-23.4-14.5c-8.6-7.7-14.4-17.4-16.2-20.2c-1.7-3-0.2-4.5,1.3-5.9c1.3-1.3,3-3.4,4.4-5.1
		c1.4-1.7,1.9-3,3-4.9c0.9-1.9,0.5-3.7-0.2-5.1c-0.7-1.3-6.3-15.7-8.9-21.5c-2.1-4.9-4.5-5-6.5-5c-1.8-0.1-3.7-0.1-5.7-0.1
		c-1.9,0-5.1,0.7-7.8,3.7c-2.7,3-10.2,10-10.2,24.4c0,14.4,10.4,28.3,11.8,30.2c1.4,1.9,20.1,32.4,49.6,44.1
		c24.6,9.7,29.6,7.9,34.9,7.3c5.3-0.6,17.1-7,19.6-13.9c2.4-6.8,2.4-12.7,1.7-13.9C207.8,155.7,205.8,155,203,153.5z"/>
	<path class="st0" d="M149.9,12.7C85.5,12.7,33.2,65,33.2,129.4c0,21.2,5.6,41.1,15.5,58.2l-16.7,60.7L94.3,232
		c16.5,9,35.5,14.1,55.7,14.1c64.4,0,116.7-52.2,116.7-116.7S214.4,12.7,149.9,12.7z M149.9,226.2c-19.4,0-37.4-5.7-52.6-15.5
		l-37,9.6l9.7-36c-10.8-15.6-17.1-34.5-17.1-54.9c0-53.5,43.4-96.8,96.8-96.8c53.5,0,96.8,43.4,96.8,96.8S203.4,226.2,149.9,226.2z"
		/>
</g>
</svg>
