<?xml version="1.0" encoding="utf-8"?>
<!-- Generator: Adobe Illustrator 27.1.1, SVG Export Plug-In . SVG Version: 6.00 Build 0)  -->
<svg version="1.1" id="Capa_1" xmlns="http://www.w3.org/2000/svg" xmlns:xlink="http://www.w3.org/1999/xlink" x="0px" y="0px"
	 viewBox="0 0 300 300" style="enable-background:new 0 0 300 300;" xml:space="preserve">
<style type="text/css">
	.st0{fill:#009BDB;}
	.st1{fill:#4D4D4D;}
</style>
<g>
	<path class="st0" d="M242,92.7c0-50.7-41.1-91.8-91.8-91.8S58.4,42,58.4,92.7c0,50,40,90.6,89.7,91.8h4.2
		C202,183.3,242,142.7,242,92.7z M62.7,92.7c0-48.3,39.2-87.5,87.5-87.5c48.3,0,87.5,39.2,87.5,87.5s-39.2,87.5-87.5,87.5
		C101.9,180.2,62.7,141,62.7,92.7z"/>
	<g>
		<path class="st1" d="M71,210l10.4,22.3H79l-3.5-7.3h-9.6l-3.5,7.3h-2.5L70.4,210H71z M70.7,214.7l-3.8,8.1h7.6L70.7,214.7z"/>
		<path class="st1" d="M84.5,215.8h2.1v3c0.8-1.1,1.8-2,2.8-2.5s2.1-0.8,3.4-0.8c1.2,0,2.3,0.3,3.3,0.9c1,0.6,1.7,1.5,2.1,2.5
			c0.5,1.1,0.7,2.7,0.7,4.9v8.5h-2.1v-7.9c0-1.9-0.1-3.2-0.2-3.8c-0.2-1.1-0.7-1.9-1.4-2.5c-0.7-0.6-1.6-0.8-2.7-0.8
			c-1.3,0-2.4,0.4-3.4,1.3c-1,0.8-1.7,1.9-2,3.1c-0.2,0.8-0.3,2.3-0.3,4.5v6h-2.1V215.8z"/>
		<path class="st1" d="M105.2,209.7h2.1v6.1h3.4v1.8h-3.4v14.6h-2.1v-14.6h-2.9v-1.8h2.9V209.7z"/>
		<path class="st1" d="M114.6,209c0.5,0,0.9,0.2,1.2,0.5c0.3,0.3,0.5,0.8,0.5,1.2c0,0.5-0.2,0.9-0.5,1.2c-0.3,0.3-0.8,0.5-1.2,0.5
			c-0.5,0-0.9-0.2-1.2-0.5c-0.3-0.3-0.5-0.8-0.5-1.2c0-0.5,0.2-0.9,0.5-1.2C113.7,209.2,114.1,209,114.6,209z M113.6,215.8h2.1v16.5
			h-2.1V215.8z"/>
		<path class="st1" d="M134.3,215.8h2.1v13.1c0,2.3-0.2,4-0.6,5.1c-0.6,1.5-1.5,2.7-2.9,3.5c-1.4,0.8-3,1.2-4.9,1.2
			c-1.4,0-2.7-0.2-3.8-0.6c-1.1-0.4-2-0.9-2.7-1.6c-0.7-0.7-1.4-1.7-2-3h2.3c0.6,1.1,1.4,1.9,2.4,2.4c1,0.5,2.2,0.8,3.7,0.8
			c1.4,0,2.7-0.3,3.7-0.8c1-0.5,1.7-1.2,2.1-2c0.4-0.8,0.6-2.1,0.6-3.9v-0.8c-0.8,1-1.8,1.8-2.9,2.3c-1.2,0.5-2.4,0.8-3.7,0.8
			c-1.5,0-2.9-0.4-4.3-1.1c-1.3-0.8-2.4-1.8-3.1-3c-0.7-1.3-1.1-2.7-1.1-4.2c0-1.5,0.4-2.9,1.1-4.3c0.8-1.3,1.8-2.4,3.1-3.1
			c1.3-0.8,2.7-1.1,4.2-1.1c1.2,0,2.4,0.3,3.4,0.8c1.1,0.5,2.1,1.3,3.1,2.5V215.8z M128,217.4c-1.2,0-2.3,0.3-3.3,0.9
			c-1,0.6-1.8,1.4-2.4,2.4c-0.6,1-0.9,2.1-0.9,3.3c0,1.8,0.6,3.3,1.8,4.5c1.2,1.2,2.8,1.8,4.7,1.8c1.9,0,3.5-0.6,4.7-1.8
			c1.2-1.2,1.8-2.7,1.8-4.6c0-1.2-0.3-2.3-0.8-3.3c-0.5-1-1.3-1.7-2.3-2.3S129.2,217.4,128,217.4z"/>
		<path class="st1" d="M140.7,215.8h2.1v7.7c0,1.9,0.1,3.2,0.3,3.9c0.3,1,0.9,1.8,1.7,2.4c0.9,0.6,1.9,0.9,3.1,0.9s2.2-0.3,3-0.9
			c0.8-0.6,1.4-1.3,1.7-2.2c0.2-0.6,0.3-2,0.3-4v-7.7h2.2v8.1c0,2.3-0.3,4-0.8,5.1s-1.3,2.1-2.4,2.7c-1.1,0.7-2.4,1-4,1
			s-2.9-0.3-4-1s-1.9-1.6-2.4-2.7c-0.5-1.2-0.8-2.9-0.8-5.3V215.8z M144.9,209.3c0.5,0,0.9,0.2,1.2,0.5c0.3,0.3,0.5,0.8,0.5,1.2
			c0,0.5-0.2,0.9-0.5,1.2c-0.3,0.3-0.8,0.5-1.2,0.5c-0.5,0-0.9-0.2-1.2-0.5c-0.3-0.3-0.5-0.8-0.5-1.2c0-0.5,0.2-0.9,0.5-1.2
			C144,209.4,144.4,209.3,144.9,209.3z M151,209.3c0.5,0,0.9,0.2,1.2,0.5c0.3,0.3,0.5,0.8,0.5,1.2c0,0.5-0.2,0.9-0.5,1.2
			c-0.3,0.3-0.8,0.5-1.2,0.5c-0.5,0-0.9-0.2-1.2-0.5c-0.3-0.3-0.5-0.8-0.5-1.2c0-0.5,0.2-0.9,0.5-1.2
			C150.1,209.4,150.6,209.3,151,209.3z"/>
		<path class="st1" d="M173.6,226.8l1.8,0.9c-0.6,1.1-1.3,2.1-2,2.8c-0.8,0.7-1.6,1.2-2.6,1.6c-1,0.4-2,0.6-3.3,0.6
			c-2.7,0-4.8-0.9-6.3-2.6c-1.5-1.8-2.3-3.8-2.3-6c0-2.1,0.6-3.9,1.9-5.6c1.6-2.1,3.8-3.1,6.5-3.1c2.8,0,5,1.1,6.7,3.2
			c1.2,1.5,1.8,3.4,1.8,5.6h-14.8c0,1.9,0.7,3.5,1.8,4.7c1.2,1.2,2.6,1.8,4.4,1.8c0.8,0,1.7-0.1,2.4-0.4c0.8-0.3,1.5-0.7,2-1.2
			C172.4,228.6,173,227.8,173.6,226.8z M173.6,222.3c-0.3-1.1-0.7-2-1.2-2.7c-0.5-0.7-1.3-1.2-2.1-1.6c-0.9-0.4-1.8-0.6-2.8-0.6
			c-1.6,0-3,0.5-4.2,1.6c-0.8,0.8-1.5,1.9-1.9,3.4H173.6z"/>
		<path class="st1" d="M196.3,209.4v22.8h-2.1v-2.8c-0.9,1.1-1.9,1.9-3,2.4c-1.1,0.5-2.3,0.8-3.6,0.8c-2.3,0-4.3-0.8-6-2.5
			c-1.6-1.7-2.5-3.7-2.5-6.2c0-2.4,0.8-4.4,2.5-6.1c1.7-1.7,3.7-2.5,6-2.5c1.4,0,2.6,0.3,3.7,0.9c1.1,0.6,2.1,1.4,2.9,2.6v-9.4
			H196.3z M187.9,217.4c-1.2,0-2.3,0.3-3.3,0.9c-1,0.6-1.8,1.4-2.4,2.4c-0.6,1-0.9,2.2-0.9,3.3c0,1.2,0.3,2.3,0.9,3.3
			c0.6,1.1,1.4,1.9,2.4,2.5c1,0.6,2.1,0.9,3.2,0.9c1.2,0,2.3-0.3,3.3-0.9c1-0.6,1.8-1.4,2.4-2.4c0.6-1,0.8-2.1,0.8-3.4
			c0-1.9-0.6-3.5-1.9-4.8C191.2,218,189.7,217.4,187.9,217.4z"/>
		<path class="st1" d="M217.5,215.8v16.5h-2.1v-2.8c-0.9,1.1-1.9,1.9-3,2.4c-1.1,0.5-2.3,0.8-3.6,0.8c-2.3,0-4.3-0.8-6-2.5
			c-1.6-1.7-2.5-3.7-2.5-6.2c0-2.4,0.8-4.4,2.5-6.1c1.7-1.7,3.7-2.5,6-2.5c1.4,0,2.6,0.3,3.7,0.9c1.1,0.6,2.1,1.4,2.9,2.6v-3H217.5z
			 M209.1,217.4c-1.2,0-2.3,0.3-3.3,0.9c-1,0.6-1.8,1.4-2.4,2.4c-0.6,1-0.9,2.2-0.9,3.3c0,1.2,0.3,2.3,0.9,3.3
			c0.6,1.1,1.4,1.9,2.4,2.5c1,0.6,2.1,0.9,3.2,0.9c1.2,0,2.3-0.3,3.3-0.9c1-0.6,1.8-1.4,2.4-2.4c0.6-1,0.8-2.1,0.8-3.4
			c0-1.9-0.6-3.5-1.9-4.8C212.4,218,210.9,217.4,209.1,217.4z"/>
		<path class="st1" d="M238.7,209.4v22.8h-2.1v-2.8c-0.9,1.1-1.9,1.9-3,2.4c-1.1,0.5-2.3,0.8-3.6,0.8c-2.3,0-4.3-0.8-6-2.5
			c-1.6-1.7-2.5-3.7-2.5-6.2c0-2.4,0.8-4.4,2.5-6.1c1.7-1.7,3.7-2.5,6-2.5c1.4,0,2.6,0.3,3.7,0.9c1.1,0.6,2.1,1.4,2.9,2.6v-9.4
			H238.7z M230.3,217.4c-1.2,0-2.3,0.3-3.3,0.9c-1,0.6-1.8,1.4-2.4,2.4c-0.6,1-0.9,2.2-0.9,3.3c0,1.2,0.3,2.3,0.9,3.3
			c0.6,1.1,1.4,1.9,2.4,2.5c1,0.6,2.1,0.9,3.2,0.9c1.2,0,2.3-0.3,3.3-0.9c1-0.6,1.8-1.4,2.4-2.4c0.6-1,0.8-2.1,0.8-3.4
			c0-1.9-0.6-3.5-1.9-4.8C233.6,218,232.1,217.4,230.3,217.4z"/>
		<path class="st1" d="M29.8,243.9h1.7v18.5h-1.7V243.9z"/>
		<path class="st1" d="M48.4,249.1v13.4h-1.7v-2.3c-0.7,0.9-1.5,1.5-2.4,2s-1.9,0.7-2.9,0.7c-1.9,0-3.5-0.7-4.9-2.1
			c-1.3-1.4-2-3-2-5c0-1.9,0.7-3.6,2-4.9c1.4-1.4,3-2.1,4.9-2.1c1.1,0,2.1,0.2,3,0.7s1.7,1.2,2.3,2.1v-2.5H48.4z M41.6,250.4
			c-1,0-1.8,0.2-2.7,0.7c-0.8,0.5-1.5,1.1-1.9,2c-0.5,0.9-0.7,1.8-0.7,2.7c0,0.9,0.2,1.8,0.7,2.7c0.5,0.9,1.1,1.5,1.9,2
			c0.8,0.5,1.7,0.7,2.6,0.7c0.9,0,1.8-0.2,2.7-0.7c0.8-0.5,1.5-1.1,1.9-1.9c0.5-0.8,0.7-1.7,0.7-2.7c0-1.5-0.5-2.8-1.5-3.9
			C44.3,250.9,43,250.4,41.6,250.4z"/>
		<path class="st1" d="M52.4,262.4v-18.5h1.7v7.5c0.7-0.9,1.5-1.5,2.4-2c0.9-0.4,1.9-0.7,2.9-0.7c1.9,0,3.5,0.7,4.8,2.1
			c1.3,1.4,2,3,2,5c0,1.9-0.7,3.6-2,5c-1.4,1.4-3,2.1-4.9,2.1c-1.1,0-2.1-0.2-3-0.7c-0.9-0.5-1.7-1.2-2.3-2.1v2.5H52.4z M59.3,261.1
			c1,0,1.8-0.2,2.6-0.7c0.8-0.5,1.5-1.1,1.9-2c0.5-0.9,0.7-1.8,0.7-2.7c0-0.9-0.2-1.9-0.7-2.7c-0.5-0.9-1.1-1.5-1.9-2
			c-0.8-0.5-1.7-0.7-2.6-0.7c-0.9,0-1.8,0.2-2.7,0.7c-0.8,0.5-1.5,1.1-1.9,1.9c-0.5,0.8-0.7,1.7-0.7,2.7c0,1.5,0.5,2.8,1.5,3.9
			C56.6,260.6,57.8,261.1,59.3,261.1z"/>
		<path class="st1" d="M75.8,248.7c2.1,0,3.8,0.7,5.1,2.2c1.2,1.4,1.8,3,1.8,4.8c0,1.9-0.7,3.5-2,4.9c-1.3,1.4-3,2.1-5,2.1
			c-2.1,0-3.7-0.7-5-2.1c-1.3-1.4-2-3-2-4.9c0-1.9,0.6-3.5,1.8-4.8C72,249.5,73.7,248.7,75.8,248.7z M75.8,250.4
			c-1.4,0-2.7,0.5-3.7,1.6c-1,1.1-1.5,2.3-1.5,3.8c0,1,0.2,1.9,0.7,2.7c0.5,0.8,1.1,1.5,1.9,1.9c0.8,0.5,1.7,0.7,2.6,0.7
			s1.8-0.2,2.6-0.7c0.8-0.5,1.4-1.1,1.9-1.9c0.5-0.8,0.7-1.7,0.7-2.7c0-1.5-0.5-2.8-1.5-3.8C78.5,250.9,77.2,250.4,75.8,250.4z"/>
		<path class="st1" d="M85.3,249.1h1.8v2c0.5-0.8,1.1-1.3,1.7-1.7c0.6-0.4,1.2-0.6,1.8-0.6c0.5,0,1,0.2,1.5,0.5l-0.9,1.5
			c-0.4-0.2-0.7-0.2-0.9-0.2c-0.6,0-1.1,0.2-1.7,0.7c-0.5,0.5-0.9,1.2-1.2,2.2c-0.2,0.8-0.3,2.3-0.3,4.6v4.5h-1.8V249.1z"/>
		<path class="st1" d="M106.9,249.1v13.4h-1.7v-2.3c-0.7,0.9-1.5,1.5-2.4,2s-1.9,0.7-2.9,0.7c-1.9,0-3.5-0.7-4.8-2.1
			c-1.3-1.4-2-3-2-5c0-1.9,0.7-3.6,2-4.9c1.4-1.4,3-2.1,4.9-2.1c1.1,0,2.1,0.2,3,0.7c0.9,0.5,1.7,1.2,2.3,2.1v-2.5H106.9z
			 M100,250.4c-1,0-1.8,0.2-2.7,0.7c-0.8,0.5-1.5,1.1-1.9,2c-0.5,0.9-0.7,1.8-0.7,2.7c0,0.9,0.2,1.8,0.7,2.7c0.5,0.9,1.1,1.5,1.9,2
			c0.8,0.5,1.7,0.7,2.6,0.7c0.9,0,1.8-0.2,2.7-0.7s1.5-1.1,1.9-1.9c0.5-0.8,0.7-1.7,0.7-2.7c0-1.5-0.5-2.8-1.5-3.9
			C102.7,250.9,101.5,250.4,100,250.4z"/>
		<path class="st1" d="M110.5,243.9h1.7v18.5h-1.7V243.9z"/>
		<path class="st1" d="M122.7,249.1h1.7v2.3c0.6-0.9,1.2-1.5,1.8-1.9c0.9-0.5,1.8-0.8,2.7-0.8c0.6,0,1.3,0.1,1.8,0.4
			c0.6,0.3,1.1,0.6,1.4,1c0.4,0.4,0.7,1,1,1.8c0.6-1,1.3-1.8,2.1-2.4c0.9-0.5,1.8-0.8,2.8-0.8c0.9,0,1.7,0.2,2.4,0.7
			c0.7,0.5,1.2,1.1,1.6,2c0.3,0.8,0.5,2.1,0.5,3.8v7.3H141v-7.3c0-1.4-0.1-2.4-0.3-3c-0.2-0.5-0.6-1-1-1.3c-0.5-0.3-1.1-0.5-1.8-0.5
			c-0.8,0-1.6,0.2-2.3,0.7c-0.7,0.5-1.2,1.1-1.5,2c-0.3,0.8-0.5,2.2-0.5,4.1v5.2h-1.7v-6.8c0-1.6-0.1-2.7-0.3-3.3
			c-0.2-0.6-0.6-1-1.1-1.4c-0.5-0.3-1.1-0.5-1.8-0.5c-0.8,0-1.5,0.2-2.2,0.7c-0.7,0.5-1.2,1.1-1.5,1.9c-0.3,0.8-0.5,2.1-0.5,3.7v5.7
			h-1.7V249.1z"/>
		<path class="st1" d="M147.8,242.8h2.6l-3.6,3.8h-1.7L147.8,242.8z M146.1,249.1h1.7v13.4h-1.7V249.1z"/>
		<path class="st1" d="M151.4,249.1h1.7v2.4c0.7-0.9,1.5-1.6,2.3-2.1c0.8-0.5,1.7-0.7,2.7-0.7c1,0,1.9,0.3,2.7,0.8
			c0.8,0.5,1.3,1.2,1.7,2.1c0.4,0.9,0.6,2.2,0.6,4v6.9h-1.7v-6.4c0-1.5-0.1-2.6-0.2-3.1c-0.2-0.9-0.6-1.6-1.1-2
			c-0.6-0.4-1.3-0.7-2.2-0.7c-1,0-2,0.3-2.8,1s-1.4,1.5-1.6,2.6c-0.2,0.7-0.2,1.9-0.2,3.6v4.9h-1.7V249.1z"/>
		<path class="st1" d="M167.4,243.6c0.4,0,0.7,0.1,1,0.4c0.3,0.3,0.4,0.6,0.4,1c0,0.4-0.1,0.7-0.4,1c-0.3,0.3-0.6,0.4-1,0.4
			c-0.4,0-0.7-0.1-1-0.4c-0.3-0.3-0.4-0.6-0.4-1c0-0.4,0.1-0.7,0.4-1C166.6,243.7,167,243.6,167.4,243.6z M166.5,249.1h1.7v13.4
			h-1.7V249.1z"/>
		<path class="st1" d="M171.8,249.1h1.7v2.3c0.6-0.9,1.2-1.5,1.8-1.9c0.9-0.5,1.8-0.8,2.7-0.8c0.6,0,1.3,0.1,1.8,0.4
			c0.6,0.3,1.1,0.6,1.4,1s0.7,1,1,1.8c0.6-1,1.3-1.8,2.1-2.4c0.9-0.5,1.8-0.8,2.8-0.8c0.9,0,1.7,0.2,2.4,0.7s1.2,1.1,1.6,2
			c0.3,0.8,0.5,2.1,0.5,3.8v7.3H190v-7.3c0-1.4-0.1-2.4-0.3-3c-0.2-0.5-0.6-1-1-1.3c-0.5-0.3-1.1-0.5-1.8-0.5
			c-0.8,0-1.6,0.2-2.3,0.7c-0.7,0.5-1.2,1.1-1.5,2c-0.3,0.8-0.5,2.2-0.5,4.1v5.2h-1.7v-6.8c0-1.6-0.1-2.7-0.3-3.3
			c-0.2-0.6-0.6-1-1.1-1.4c-0.5-0.3-1.1-0.5-1.8-0.5c-0.8,0-1.5,0.2-2.2,0.7c-0.7,0.5-1.2,1.1-1.5,1.9c-0.3,0.8-0.5,2.1-0.5,3.7v5.7
			h-1.7V249.1z"/>
		<path class="st1" d="M208.7,249.1v13.4H207v-2.3c-0.7,0.9-1.5,1.5-2.4,2s-1.9,0.7-2.9,0.7c-1.9,0-3.5-0.7-4.9-2.1
			c-1.3-1.4-2-3-2-5c0-1.9,0.7-3.6,2-4.9c1.4-1.4,3-2.1,4.9-2.1c1.1,0,2.1,0.2,3,0.7c0.9,0.5,1.7,1.2,2.3,2.1v-2.5H208.7z
			 M201.9,250.4c-1,0-1.8,0.2-2.7,0.7c-0.8,0.5-1.5,1.1-1.9,2c-0.5,0.9-0.7,1.8-0.7,2.7c0,0.9,0.2,1.8,0.7,2.7
			c0.5,0.9,1.1,1.5,1.9,2c0.8,0.5,1.7,0.7,2.6,0.7c0.9,0,1.8-0.2,2.7-0.7c0.8-0.5,1.5-1.1,1.9-1.9c0.5-0.8,0.7-1.7,0.7-2.7
			c0-1.5-0.5-2.8-1.5-3.9C204.6,250.9,203.4,250.4,201.9,250.4z"/>
		<path class="st1" d="M232.9,243.9v18.5h-1.7v-2.3c-0.7,0.9-1.5,1.5-2.4,2s-1.9,0.7-2.9,0.7c-1.9,0-3.5-0.7-4.9-2.1
			c-1.3-1.4-2-3-2-5c0-1.9,0.7-3.6,2-4.9c1.4-1.4,3-2.1,4.9-2.1c1.1,0,2.1,0.2,3,0.7s1.7,1.2,2.3,2.1v-7.6H232.9z M226.1,250.4
			c-1,0-1.8,0.2-2.7,0.7c-0.8,0.5-1.5,1.1-1.9,2c-0.5,0.9-0.7,1.8-0.7,2.7c0,0.9,0.2,1.8,0.7,2.7c0.5,0.9,1.1,1.5,1.9,2
			c0.8,0.5,1.7,0.7,2.6,0.7c0.9,0,1.8-0.2,2.7-0.7c0.8-0.5,1.5-1.1,1.9-1.9c0.5-0.8,0.7-1.7,0.7-2.7c0-1.5-0.5-2.8-1.5-3.9
			C228.8,250.9,227.5,250.4,226.1,250.4z"/>
		<path class="st1" d="M248.1,258l1.5,0.8c-0.5,0.9-1,1.7-1.6,2.3c-0.6,0.6-1.3,1-2.1,1.3c-0.8,0.3-1.7,0.4-2.6,0.4
			c-2.2,0-3.9-0.7-5.1-2.1c-1.2-1.4-1.8-3-1.8-4.8c0-1.7,0.5-3.2,1.6-4.5c1.3-1.7,3.1-2.5,5.3-2.5c2.3,0,4.1,0.9,5.5,2.6
			c1,1.2,1.5,2.7,1.5,4.6h-12c0,1.6,0.5,2.8,1.5,3.8c1,1,2.1,1.5,3.6,1.5c0.7,0,1.3-0.1,2-0.4s1.2-0.6,1.6-0.9
			C247.1,259.5,247.6,258.9,248.1,258z M248.1,254.4c-0.2-0.9-0.6-1.7-1-2.2c-0.4-0.6-1-1-1.7-1.3c-0.7-0.3-1.5-0.5-2.3-0.5
			c-1.3,0-2.4,0.4-3.4,1.3c-0.7,0.6-1.2,1.5-1.6,2.8H248.1z"/>
		<path class="st1" d="M261.6,248.5h-1.8c0.3-1.5,1-2.6,1.9-3.4c1-0.8,2.1-1.2,3.4-1.2c0.9,0,1.8,0.2,2.6,0.6c0.8,0.4,1.4,1,1.9,1.7
			c0.4,0.7,0.7,1.5,0.7,2.3c0,1.6-0.8,2.8-2.3,3.7c0.9,0.4,1.6,0.9,2.1,1.5c0.8,1,1.2,2,1.2,3.2c0,1-0.3,2-0.8,2.9
			c-0.5,0.9-1.3,1.6-2.2,2.2c-0.9,0.5-2,0.8-3.1,0.8c-1.6,0-2.9-0.5-3.9-1.3c-1-0.9-1.7-2.2-2-4h1.8c0.3,1.2,0.8,2,1.3,2.5
			c0.7,0.7,1.7,1,2.9,1c1.3,0,2.4-0.4,3.2-1.2c0.8-0.8,1.2-1.7,1.2-2.8c0-0.7-0.2-1.4-0.6-2c-0.4-0.6-0.9-1.1-1.6-1.4
			c-0.7-0.3-1.7-0.5-3.1-0.6v-1.7c0.8,0,1.6-0.1,2.3-0.4c0.7-0.3,1.2-0.7,1.5-1.1c0.3-0.5,0.5-0.9,0.5-1.5c0-0.8-0.3-1.5-0.9-2
			c-0.6-0.6-1.4-0.9-2.4-0.9c-0.8,0-1.5,0.2-2,0.7C262.5,246.8,262,247.5,261.6,248.5z"/>
		<path class="st1" d="M114.1,279.3h1.7v2.3c0.6-0.9,1.2-1.5,1.8-1.9c0.9-0.5,1.8-0.8,2.7-0.8c0.6,0,1.3,0.1,1.8,0.4
			c0.6,0.3,1.1,0.6,1.4,1c0.4,0.4,0.7,1,1,1.8c0.6-1,1.3-1.8,2.1-2.4c0.9-0.5,1.8-0.8,2.8-0.8c0.9,0,1.7,0.2,2.4,0.7
			c0.7,0.5,1.2,1.1,1.6,2c0.3,0.8,0.5,2.1,0.5,3.8v7.3h-1.8v-7.3c0-1.4-0.1-2.4-0.3-3c-0.2-0.5-0.6-1-1-1.3
			c-0.5-0.3-1.1-0.5-1.8-0.5c-0.8,0-1.6,0.2-2.3,0.7c-0.7,0.5-1.2,1.1-1.5,2c-0.3,0.8-0.5,2.2-0.5,4.1v5.2h-1.7v-6.8
			c0-1.6-0.1-2.7-0.3-3.3c-0.2-0.6-0.6-1-1.1-1.4s-1.1-0.5-1.8-0.5c-0.8,0-1.5,0.2-2.2,0.7c-0.7,0.5-1.2,1.1-1.5,1.9
			c-0.3,0.8-0.5,2.1-0.5,3.7v5.7h-1.7V279.3z"/>
		<path class="st1" d="M149,288.2l1.5,0.8c-0.5,0.9-1,1.7-1.6,2.3c-0.6,0.6-1.3,1-2.1,1.3c-0.8,0.3-1.7,0.4-2.6,0.4
			c-2.2,0-3.9-0.7-5.1-2.1c-1.2-1.4-1.8-3-1.8-4.9c0-1.7,0.5-3.2,1.6-4.5c1.3-1.7,3.1-2.5,5.3-2.5c2.3,0,4.1,0.9,5.5,2.6
			c1,1.2,1.5,2.7,1.5,4.6h-12c0,1.6,0.5,2.8,1.5,3.8c1,1,2.1,1.5,3.6,1.5c0.7,0,1.3-0.1,2-0.4c0.6-0.2,1.2-0.6,1.6-0.9
			C148,289.7,148.5,289.1,149,288.2z M149,284.6c-0.2-0.9-0.6-1.7-1-2.2c-0.4-0.5-1-1-1.7-1.3c-0.7-0.3-1.5-0.5-2.3-0.5
			c-1.3,0-2.4,0.4-3.4,1.3c-0.7,0.6-1.2,1.5-1.6,2.8H149z"/>
		<path class="st1" d="M160.9,280.7l-1.1,1.1c-0.9-0.9-1.8-1.3-2.7-1.3c-0.6,0-1,0.2-1.4,0.6c-0.4,0.4-0.6,0.8-0.6,1.3
			c0,0.4,0.2,0.8,0.5,1.2c0.3,0.4,1,0.9,2.1,1.4c1.3,0.7,2.2,1.3,2.6,1.9c0.5,0.6,0.7,1.3,0.7,2.1c0,1.1-0.4,2-1.2,2.8
			c-0.8,0.8-1.7,1.1-2.9,1.1c-0.8,0-1.5-0.2-2.2-0.5c-0.7-0.3-1.3-0.8-1.7-1.4l1.1-1.2c0.9,1,1.8,1.5,2.8,1.5c0.7,0,1.3-0.2,1.8-0.7
			c0.5-0.4,0.7-1,0.7-1.6c0-0.5-0.2-0.9-0.5-1.3c-0.3-0.4-1-0.9-2.2-1.4c-1.2-0.6-2-1.2-2.5-1.8c-0.4-0.6-0.7-1.3-0.7-2.1
			c0-1,0.3-1.9,1-2.5c0.7-0.7,1.6-1,2.6-1C158.4,278.9,159.6,279.5,160.9,280.7z"/>
		<path class="st1" d="M175.2,288.2l1.5,0.8c-0.5,0.9-1,1.7-1.6,2.3c-0.6,0.6-1.3,1-2.1,1.3c-0.8,0.3-1.7,0.4-2.6,0.4
			c-2.2,0-3.9-0.7-5.1-2.1c-1.2-1.4-1.8-3-1.8-4.9c0-1.7,0.5-3.2,1.6-4.5c1.3-1.7,3.1-2.5,5.3-2.5c2.3,0,4.1,0.9,5.5,2.6
			c1,1.2,1.5,2.7,1.5,4.6h-12c0,1.6,0.5,2.8,1.5,3.8c1,1,2.1,1.5,3.6,1.5c0.7,0,1.3-0.1,2-0.4c0.6-0.2,1.2-0.6,1.6-0.9
			C174.1,289.7,174.6,289.1,175.2,288.2z M175.2,284.6c-0.2-0.9-0.6-1.7-1-2.2c-0.4-0.5-1-1-1.7-1.3c-0.7-0.3-1.5-0.5-2.3-0.5
			c-1.3,0-2.4,0.4-3.4,1.3c-0.7,0.6-1.2,1.5-1.6,2.8H175.2z"/>
		<path class="st1" d="M187,280.7l-1.1,1.1c-0.9-0.9-1.8-1.3-2.7-1.3c-0.6,0-1,0.2-1.4,0.6c-0.4,0.4-0.6,0.8-0.6,1.3
			c0,0.4,0.2,0.8,0.5,1.2c0.3,0.4,1,0.9,2.1,1.4c1.3,0.7,2.2,1.3,2.6,1.9c0.5,0.6,0.7,1.3,0.7,2.1c0,1.1-0.4,2-1.2,2.8
			c-0.8,0.8-1.7,1.1-2.9,1.1c-0.8,0-1.5-0.2-2.2-0.5c-0.7-0.3-1.3-0.8-1.7-1.4l1.1-1.2c0.9,1,1.8,1.5,2.8,1.5c0.7,0,1.3-0.2,1.8-0.7
			c0.5-0.4,0.7-1,0.7-1.6c0-0.5-0.2-0.9-0.5-1.3c-0.3-0.4-1-0.9-2.2-1.4c-1.2-0.6-2-1.2-2.5-1.8c-0.4-0.6-0.7-1.3-0.7-2.1
			c0-1,0.3-1.9,1-2.5c0.7-0.7,1.6-1,2.6-1C184.5,278.9,185.7,279.5,187,280.7z"/>
	</g>
	<path class="st0" d="M181.7,52.7V58c0,4.3-3.4,7.8-7.6,7.8c-4.2,0-7.6-3.5-7.6-7.8v-5.4h-32.6V58c0,4.3-3.4,7.8-7.6,7.8
		c-4.2,0-7.6-3.5-7.6-7.8v-5.3c-7.5,1.1-13.3,7.6-13.3,15.4v58.6c0,8.6,7,15.6,15.6,15.6h58.6c8.6,0,15.6-7,15.6-15.6V68.1
		C195,60.3,189.3,53.8,181.7,52.7z M186.7,126.7c0,3.9-3.2,7.2-7.2,7.2h-58.6c-3.9,0-7.2-3.2-7.2-7.2V79.4h73V126.7z M126.2,62.7
		c-2.6,0-4.7-2.2-4.7-4.8V47.9c0-2.6,2.1-4.8,4.7-4.8c2.6,0,4.7,2.2,4.7,4.8V58C130.9,60.6,128.8,62.7,126.2,62.7z M174.1,62.7
		c-2.6,0-4.7-2.2-4.7-4.8V47.9c0-2.6,2.1-4.8,4.7-4.8c2.6,0,4.7,2.2,4.7,4.8V58C178.8,60.6,176.7,62.7,174.1,62.7z M174.1,91.2
		c-1.8-0.9-4.3-0.5-5.5,0.9L148,116.6l-10.1-10.2H128l0.3,0.3l16.9,17.1c0.7,0.8,1.9,1.2,3.2,1.2h0.1c1.3,0,2.5-0.6,3.2-1.4
		l23.7-28.2C176.5,94.1,176,92.2,174.1,91.2z"/>
</g>
</svg>
