<?xml version="1.0" encoding="utf-8"?>
<!-- Generator: Adobe Illustrator 27.1.1, SVG Export Plug-In . SVG Version: 6.00 Build 0)  -->
<svg version="1.1" id="Capa_1" xmlns="http://www.w3.org/2000/svg" xmlns:xlink="http://www.w3.org/1999/xlink" x="0px" y="0px"
	 viewBox="0 0 300 300" style="enable-background:new 0 0 300 300;" xml:space="preserve">
<style type="text/css">
	.st0{fill:#009BDB;}
	.st1{fill:#4D4D4D;}
</style>
<g>
	<path class="st0" d="M242,92.7c0-50.7-41.1-91.8-91.8-91.8S58.3,42,58.3,92.7c0,50,40,90.6,89.7,91.8h4.2
		C202,183.3,242,142.7,242,92.7z M62.7,92.7c0-48.3,39.2-87.5,87.5-87.5c48.3,0,87.5,39.2,87.5,87.5s-39.2,87.5-87.5,87.5
		C101.8,180.2,62.7,141,62.7,92.7z"/>
	<g>
		<path class="st1" d="M55.4,210h4.4c1.8,0,3.1,0.2,4.1,0.6c0.9,0.4,1.7,1.1,2.2,1.9c0.6,0.9,0.8,1.8,0.8,2.9c0,1-0.2,1.9-0.7,2.7
			s-1.2,1.5-2.1,2c1.2,0.4,2,0.9,2.7,1.4c0.6,0.5,1.1,1.2,1.5,1.9s0.5,1.6,0.5,2.4c0,1.8-0.7,3.3-2,4.5c-1.3,1.2-3.1,1.9-5.3,1.9
			h-6.1V210z M57.6,212.2v7.1h1.3c1.5,0,2.7-0.1,3.4-0.4c0.7-0.3,1.3-0.7,1.7-1.4c0.4-0.6,0.6-1.3,0.6-2.1c0-1-0.4-1.8-1.1-2.4
			s-1.8-0.9-3.4-0.9H57.6z M57.6,221.5v8.5h2.8c1.6,0,2.8-0.2,3.6-0.5c0.8-0.3,1.4-0.8,1.8-1.5c0.5-0.7,0.7-1.4,0.7-2.2
			c0-1-0.3-1.9-1-2.6c-0.6-0.7-1.5-1.2-2.7-1.5c-0.8-0.2-2.1-0.3-4-0.3H57.6z"/>
		<path class="st1" d="M72.5,215.8h2.1v7.7c0,1.9,0.1,3.2,0.3,3.9c0.3,1,0.9,1.8,1.7,2.4c0.9,0.6,1.9,0.9,3.1,0.9s2.2-0.3,3-0.9
			c0.8-0.6,1.4-1.3,1.7-2.2c0.2-0.6,0.3-2,0.3-4v-7.7h2.2v8.1c0,2.3-0.3,4-0.8,5.1c-0.5,1.1-1.3,2.1-2.4,2.7c-1.1,0.7-2.4,1-4,1
			c-1.6,0-2.9-0.3-4-1s-1.9-1.6-2.4-2.7c-0.5-1.2-0.8-2.9-0.8-5.3V215.8z"/>
		<path class="st1" d="M105.5,226.8l1.8,0.9c-0.6,1.1-1.3,2.1-2,2.8c-0.8,0.7-1.6,1.2-2.6,1.6c-1,0.4-2,0.6-3.3,0.6
			c-2.7,0-4.8-0.9-6.3-2.6c-1.5-1.8-2.3-3.8-2.3-6c0-2.1,0.6-3.9,1.9-5.6c1.6-2.1,3.8-3.1,6.5-3.1c2.8,0,5,1.1,6.7,3.2
			c1.2,1.5,1.8,3.4,1.8,5.6H93c0,1.9,0.7,3.5,1.8,4.7c1.2,1.2,2.6,1.8,4.4,1.8c0.8,0,1.7-0.1,2.4-0.4c0.8-0.3,1.5-0.7,2-1.2
			C104.2,228.6,104.8,227.8,105.5,226.8z M105.5,222.3c-0.3-1.1-0.7-2-1.2-2.7c-0.5-0.7-1.3-1.2-2.1-1.6c-0.9-0.4-1.8-0.6-2.8-0.6
			c-1.6,0-3,0.5-4.2,1.6c-0.8,0.8-1.5,1.9-1.9,3.4H105.5z"/>
		<path class="st1" d="M111.8,215.8h2.1v3c0.8-1.1,1.8-2,2.8-2.5c1-0.6,2.1-0.8,3.4-0.8c1.2,0,2.3,0.3,3.3,0.9
			c1,0.6,1.7,1.5,2.1,2.5c0.5,1.1,0.7,2.7,0.7,4.9v8.5H124v-7.9c0-1.9-0.1-3.2-0.2-3.8c-0.2-1.1-0.7-1.9-1.4-2.5s-1.6-0.8-2.7-0.8
			c-1.3,0-2.4,0.4-3.4,1.3c-1,0.8-1.7,1.9-2,3.1c-0.2,0.8-0.3,2.3-0.3,4.5v6h-2.1V215.8z"/>
		<path class="st1" d="M139.2,209.4h2.1v9.3c0.9-1.1,1.8-2,2.8-2.5s2.1-0.8,3.3-0.8c1.2,0,2.3,0.3,3.3,0.9c1,0.6,1.7,1.5,2.1,2.5
			c0.5,1.1,0.7,2.7,0.7,5v8.5h-2.1v-7.9c0-1.9-0.1-3.2-0.2-3.8c-0.3-1.1-0.7-1.9-1.4-2.5c-0.7-0.6-1.6-0.8-2.7-0.8
			c-1.3,0-2.4,0.4-3.4,1.3c-1,0.8-1.7,1.9-2,3.1c-0.2,0.8-0.3,2.3-0.3,4.5v6h-2.1V209.4z"/>
		<path class="st1" d="M158.9,209c0.5,0,0.9,0.2,1.2,0.5c0.3,0.3,0.5,0.8,0.5,1.2c0,0.5-0.2,0.9-0.5,1.2c-0.3,0.3-0.8,0.5-1.2,0.5
			c-0.5,0-0.9-0.2-1.2-0.5c-0.3-0.3-0.5-0.8-0.5-1.2c0-0.5,0.2-0.9,0.5-1.2C158,209.2,158.4,209,158.9,209z M157.8,215.8h2.1v16.5
			h-2.1V215.8z"/>
		<path class="st1" d="M172.6,217.6l-1.4,1.4c-1.1-1.1-2.2-1.6-3.3-1.6c-0.7,0-1.3,0.2-1.8,0.7c-0.5,0.5-0.7,1-0.7,1.6
			c0,0.5,0.2,1,0.6,1.5c0.4,0.5,1.3,1.1,2.5,1.7c1.6,0.8,2.6,1.6,3.2,2.4c0.6,0.8,0.8,1.6,0.8,2.6c0,1.4-0.5,2.5-1.4,3.4
			c-0.9,0.9-2.1,1.4-3.6,1.4c-0.9,0-1.9-0.2-2.7-0.6c-0.9-0.4-1.6-1-2.1-1.7l1.3-1.5c1.1,1.2,2.2,1.8,3.4,1.8c0.9,0,1.6-0.3,2.2-0.8
			c0.6-0.5,0.9-1.2,0.9-1.9c0-0.6-0.2-1.1-0.6-1.6c-0.4-0.5-1.3-1-2.7-1.8c-1.5-0.8-2.5-1.5-3-2.3c-0.5-0.7-0.8-1.6-0.8-2.6
			c0-1.3,0.4-2.3,1.3-3.1c0.9-0.8,1.9-1.2,3.2-1.2C169.6,215.3,171.1,216.1,172.6,217.6z"/>
		<path class="st1" d="M178.2,209.7h2.1v6.1h3.4v1.8h-3.4v14.6h-2.1v-14.6h-2.9v-1.8h2.9V209.7z"/>
		<path class="st1" d="M194.7,215.3c2.5,0,4.6,0.9,6.3,2.8c1.5,1.7,2.3,3.7,2.3,5.9c0,2.3-0.8,4.3-2.4,6c-1.6,1.7-3.7,2.6-6.2,2.6
			c-2.5,0-4.6-0.9-6.2-2.6c-1.6-1.7-2.4-3.7-2.4-6c0-2.3,0.8-4.3,2.3-5.9C190,216.3,192.1,215.3,194.7,215.3z M194.6,217.4
			c-1.8,0-3.3,0.7-4.5,2c-1.3,1.3-1.9,2.9-1.9,4.7c0,1.2,0.3,2.3,0.9,3.3c0.6,1,1.4,1.8,2.3,2.4c1,0.6,2.1,0.8,3.2,0.8
			s2.3-0.3,3.2-0.8c1-0.6,1.8-1.4,2.3-2.4c0.6-1,0.9-2.1,0.9-3.3c0-1.8-0.6-3.4-1.9-4.7C197.9,218.1,196.4,217.4,194.6,217.4z"/>
		<path class="st1" d="M206.4,215.8h2.2v2.4c0.6-0.9,1.3-1.7,2-2.1c0.7-0.5,1.5-0.7,2.2-0.7c0.6,0,1.2,0.2,1.9,0.6l-1.1,1.8
			c-0.4-0.2-0.8-0.3-1.1-0.3c-0.7,0-1.4,0.3-2,0.9c-0.7,0.6-1.2,1.5-1.5,2.7c-0.3,0.9-0.4,2.8-0.4,5.7v5.6h-2.2V215.8z"/>
		<path class="st1" d="M217.2,209c0.5,0,0.9,0.2,1.2,0.5c0.3,0.3,0.5,0.8,0.5,1.2c0,0.5-0.2,0.9-0.5,1.2c-0.3,0.3-0.8,0.5-1.2,0.5
			c-0.5,0-0.9-0.2-1.2-0.5c-0.3-0.3-0.5-0.8-0.5-1.2c0-0.5,0.2-0.9,0.5-1.2C216.3,209.2,216.7,209,217.2,209z M216.2,215.8h2.1v16.5
			h-2.1V215.8z"/>
		<path class="st1" d="M239.1,215.8v16.5H237v-2.8c-0.9,1.1-1.9,1.9-3,2.4c-1.1,0.5-2.3,0.8-3.6,0.8c-2.3,0-4.3-0.8-6-2.5
			c-1.6-1.7-2.5-3.7-2.5-6.2c0-2.4,0.8-4.4,2.5-6.1c1.7-1.7,3.7-2.5,6-2.5c1.4,0,2.6,0.3,3.7,0.9c1.1,0.6,2.1,1.4,2.9,2.6v-3H239.1z
			 M230.6,217.4c-1.2,0-2.3,0.3-3.3,0.9c-1,0.6-1.8,1.4-2.4,2.4c-0.6,1-0.9,2.2-0.9,3.3c0,1.2,0.3,2.3,0.9,3.3
			c0.6,1.1,1.4,1.9,2.4,2.5c1,0.6,2.1,0.9,3.2,0.9c1.2,0,2.3-0.3,3.3-0.9c1-0.6,1.8-1.4,2.4-2.4c0.6-1,0.8-2.1,0.8-3.4
			c0-1.9-0.6-3.5-1.9-4.8C234,218,232.4,217.4,230.6,217.4z"/>
		<path class="st1" d="M243.5,209.4h2.1v22.8h-2.1V209.4z"/>
		<path class="st1" d="M108.2,251.8l-1.4,0.8c-1.2-1.6-2.8-2.3-4.8-2.3c-1.6,0-3,0.5-4.1,1.6c-1.1,1-1.6,2.3-1.6,3.8
			c0,1,0.2,1.9,0.7,2.8c0.5,0.9,1.2,1.5,2,2s1.8,0.7,2.9,0.7c2,0,3.6-0.8,4.8-2.3l1.4,0.9c-0.6,1-1.5,1.7-2.6,2.2
			c-1.1,0.5-2.3,0.8-3.7,0.8c-2.1,0-3.9-0.7-5.3-2c-1.4-1.3-2.1-3-2.1-4.9c0-1.3,0.3-2.5,1-3.6c0.7-1.1,1.5-2,2.7-2.6
			c1.1-0.6,2.4-0.9,3.8-0.9c0.9,0,1.7,0.1,2.6,0.4c0.8,0.3,1.5,0.6,2.1,1.1C107.3,250.6,107.8,251.2,108.2,251.8z"/>
		<path class="st1" d="M110.8,249.1h1.8v2c0.5-0.8,1.1-1.3,1.7-1.7c0.6-0.4,1.2-0.6,1.8-0.6c0.5,0,1,0.2,1.5,0.5l-0.9,1.5
			c-0.4-0.2-0.7-0.2-0.9-0.2c-0.6,0-1.1,0.2-1.7,0.7c-0.5,0.5-0.9,1.2-1.2,2.2c-0.2,0.8-0.3,2.3-0.3,4.6v4.5h-1.8V249.1z"/>
		<path class="st1" d="M130.2,258l1.4,0.8c-0.5,0.9-1,1.7-1.6,2.3c-0.6,0.6-1.3,1-2.1,1.3c-0.8,0.3-1.7,0.4-2.6,0.4
			c-2.2,0-3.9-0.7-5.1-2.1c-1.2-1.4-1.8-3-1.8-4.8c0-1.7,0.5-3.2,1.6-4.5c1.3-1.7,3.1-2.5,5.3-2.5c2.3,0,4.1,0.9,5.5,2.6
			c1,1.2,1.5,2.7,1.5,4.6h-12c0,1.6,0.5,2.8,1.5,3.8c1,1,2.1,1.5,3.6,1.5c0.7,0,1.3-0.1,2-0.4c0.6-0.2,1.2-0.6,1.6-0.9
			C129.2,259.5,129.7,258.9,130.2,258z M130.2,254.4c-0.2-0.9-0.6-1.7-1-2.2c-0.4-0.6-1-1-1.7-1.3c-0.7-0.3-1.5-0.5-2.3-0.5
			c-1.3,0-2.4,0.4-3.4,1.3c-0.7,0.6-1.2,1.5-1.6,2.8H130.2z"/>
		<path class="st1" d="M148.7,243.9v18.5H147v-2.3c-0.7,0.9-1.5,1.5-2.4,2c-0.9,0.4-1.9,0.7-2.9,0.7c-1.9,0-3.5-0.7-4.8-2.1
			c-1.3-1.4-2-3-2-5c0-1.9,0.7-3.6,2-4.9c1.4-1.4,3-2.1,4.9-2.1c1.1,0,2.1,0.2,3,0.7c0.9,0.5,1.7,1.2,2.3,2.1v-7.6H148.7z
			 M141.8,250.4c-1,0-1.8,0.2-2.7,0.7c-0.8,0.5-1.5,1.1-1.9,2c-0.5,0.9-0.7,1.8-0.7,2.7c0,0.9,0.2,1.8,0.7,2.7
			c0.5,0.9,1.1,1.5,1.9,2c0.8,0.5,1.7,0.7,2.6,0.7c0.9,0,1.8-0.2,2.7-0.7c0.8-0.5,1.5-1.1,1.9-1.9c0.5-0.8,0.7-1.7,0.7-2.7
			c0-1.5-0.5-2.8-1.5-3.9C144.5,250.9,143.3,250.4,141.8,250.4z"/>
		<path class="st1" d="M153.1,243.6c0.4,0,0.7,0.1,1,0.4c0.3,0.3,0.4,0.6,0.4,1c0,0.4-0.1,0.7-0.4,1c-0.3,0.3-0.6,0.4-1,0.4
			c-0.4,0-0.7-0.1-1-0.4c-0.3-0.3-0.4-0.6-0.4-1c0-0.4,0.1-0.7,0.4-1C152.4,243.7,152.8,243.6,153.1,243.6z M152.3,249.1h1.7v13.4
			h-1.7V249.1z"/>
		<path class="st1" d="M159.1,244.1h1.7v5h2.7v1.5h-2.7v11.9h-1.7v-11.9h-2.3v-1.5h2.3V244.1z"/>
		<path class="st1" d="M166.7,243.6c0.4,0,0.7,0.1,1,0.4c0.3,0.3,0.4,0.6,0.4,1c0,0.4-0.1,0.7-0.4,1c-0.3,0.3-0.6,0.4-1,0.4
			c-0.4,0-0.7-0.1-1-0.4c-0.3-0.3-0.4-0.6-0.4-1c0-0.4,0.1-0.7,0.4-1C166,243.7,166.3,243.6,166.7,243.6z M165.9,249.1h1.7v13.4
			h-1.7V249.1z"/>
		<path class="st1" d="M184.1,251.8l-1.4,0.8c-1.2-1.6-2.8-2.3-4.8-2.3c-1.6,0-3,0.5-4.1,1.6s-1.6,2.3-1.6,3.8c0,1,0.2,1.9,0.7,2.8
			c0.5,0.9,1.2,1.5,2,2c0.9,0.5,1.8,0.7,2.9,0.7c2,0,3.6-0.8,4.8-2.3l1.4,0.9c-0.6,1-1.5,1.7-2.6,2.2c-1.1,0.5-2.3,0.8-3.7,0.8
			c-2.1,0-3.9-0.7-5.3-2c-1.4-1.3-2.1-3-2.1-4.9c0-1.3,0.3-2.5,1-3.6c0.7-1.1,1.5-2,2.7-2.6c1.1-0.6,2.4-0.9,3.8-0.9
			c0.9,0,1.7,0.1,2.6,0.4c0.8,0.3,1.5,0.6,2.1,1.1C183.3,250.6,183.7,251.2,184.1,251.8z"/>
		<path class="st1" d="M188,243.6c0.4,0,0.7,0.1,1,0.4c0.3,0.3,0.4,0.6,0.4,1c0,0.4-0.1,0.7-0.4,1c-0.3,0.3-0.6,0.4-1,0.4
			c-0.4,0-0.7-0.1-1-0.4c-0.3-0.3-0.4-0.6-0.4-1c0-0.4,0.1-0.7,0.4-1C187.3,243.7,187.7,243.6,188,243.6z M187.2,249.1h1.7v13.4
			h-1.7V249.1z"/>
		<path class="st1" d="M198.8,248.7c2.1,0,3.8,0.7,5.1,2.2c1.2,1.4,1.8,3,1.8,4.8c0,1.9-0.7,3.5-2,4.9c-1.3,1.4-3,2.1-5,2.1
			c-2.1,0-3.7-0.7-5-2.1c-1.3-1.4-2-3-2-4.9c0-1.9,0.6-3.5,1.8-4.8C195,249.5,196.8,248.7,198.8,248.7z M198.8,250.4
			c-1.4,0-2.7,0.5-3.7,1.6c-1,1.1-1.5,2.3-1.5,3.8c0,1,0.2,1.9,0.7,2.7c0.5,0.8,1.1,1.5,1.9,1.9c0.8,0.5,1.7,0.7,2.6,0.7
			c1,0,1.8-0.2,2.6-0.7c0.8-0.5,1.4-1.1,1.9-1.9c0.5-0.8,0.7-1.7,0.7-2.7c0-1.5-0.5-2.8-1.5-3.8
			C201.5,250.9,200.2,250.4,198.8,250.4z"/>
	</g>
	<path class="st0" d="M162.1,50.2c0,6.7-5.4,12.1-12.1,12.1c-6.7,0-12.1-5.4-12.1-12.1c0-6.7,5.4-12.1,12.1-12.1
		C156.7,38.2,162.1,43.6,162.1,50.2z M189.7,48.9c-2.1-2.5-6.1-2-8.9,0.2c0,0-3.1,2.1-8.1,5.9c-5.7,4.4-14,9.6-23.3,9.7
		c-8.3,0-16.5-5.5-22.2-10c-4.7-3.7-8-6.1-8-6.1c-2.9-2-6.3-2.4-8.4,0c-2.1,2.5-1.9,6.2,0.6,8.3c0,0,2.5,2,6.2,4.7
		c5,3.7,12,8.8,16.4,13.9c3.5,4,3.6,8.1,3.6,10.3v21.8v33.7c0,3.2,2.6,5.9,5.9,5.9c3.2,0,5.9-2.6,5.9-5.9v-33.7h1.6v33.7
		c0,3.2,2.6,5.9,5.9,5.9c3.2,0,5.9-2.6,5.9-5.9v-33.7V86.2c0-3,0.7-8,4.8-12.6c4-4.4,9.9-8.5,14.4-11.6c4.1-2.9,7.1-5.1,7.1-5.1
		C191.3,54.7,191.8,51.3,189.7,48.9z"/>
</g>
</svg>
