<?xml version="1.0" encoding="utf-8"?>
<!-- Generator: Adobe Illustrator 27.1.1, SVG Export Plug-In . SVG Version: 6.00 Build 0)  -->
<svg version="1.1" id="Capa_1" xmlns="http://www.w3.org/2000/svg" xmlns:xlink="http://www.w3.org/1999/xlink" x="0px" y="0px"
	 viewBox="0 0 300 300" style="enable-background:new 0 0 300 300;" xml:space="preserve">
<style type="text/css">
	.st0{fill:#009BDB;}
	.st1{fill:#4D4D4D;}
</style>
<g>
	<path class="st0" d="M242.3,92.7c0-50.7-41.1-91.8-91.8-91.8S58.7,42,58.7,92.7c0,50,40,90.6,89.7,91.8h4.2
		C202.3,183.3,242.3,142.7,242.3,92.7z M63,92.7c0-48.3,39.2-87.5,87.5-87.5c48.3,0,87.5,39.2,87.5,87.5s-39.2,87.5-87.5,87.5
		C102.2,180.2,63,141,63,92.7z"/>
	<g>
		<path class="st1" d="M65.4,214.1l-1.8,1.3c-1-1.3-2.1-2.2-3.5-2.9c-1.4-0.7-2.8-1-4.5-1c-1.8,0-3.4,0.4-4.9,1.3
			c-1.5,0.9-2.7,2-3.5,3.4s-1.2,3.1-1.2,4.8c0,2.7,0.9,5,2.8,6.8c1.9,1.8,4.2,2.7,7,2.7c3.1,0,5.7-1.2,7.8-3.7l1.8,1.3
			c-1.1,1.4-2.5,2.5-4.2,3.3c-1.7,0.8-3.5,1.2-5.6,1.2c-3.9,0-7-1.3-9.2-3.9c-1.9-2.2-2.8-4.8-2.8-7.9c0-3.3,1.1-6,3.4-8.2
			c2.3-2.2,5.1-3.3,8.6-3.3c2.1,0,4,0.4,5.6,1.2C63,211.5,64.3,212.6,65.4,214.1z"/>
		<path class="st1" d="M77.3,215.3c2.5,0,4.6,0.9,6.3,2.8c1.5,1.7,2.3,3.7,2.3,5.9c0,2.3-0.8,4.3-2.4,6s-3.7,2.6-6.2,2.6
			c-2.5,0-4.6-0.9-6.2-2.6c-1.6-1.7-2.4-3.7-2.4-6c0-2.3,0.8-4.3,2.3-5.9C72.7,216.3,74.8,215.3,77.3,215.3z M77.3,217.4
			c-1.8,0-3.3,0.7-4.5,2c-1.3,1.3-1.9,2.9-1.9,4.7c0,1.2,0.3,2.3,0.9,3.3c0.6,1,1.4,1.8,2.3,2.4c1,0.6,2.1,0.8,3.2,0.8
			c1.2,0,2.3-0.3,3.2-0.8c1-0.6,1.8-1.4,2.3-2.4c0.6-1,0.9-2.1,0.9-3.3c0-1.8-0.6-3.4-1.9-4.7C80.6,218.1,79.1,217.4,77.3,217.4z"/>
		<path class="st1" d="M89.8,215.8h2.1v2.8c0.7-1,1.5-1.8,2.3-2.3c1.1-0.6,2.2-1,3.4-1c0.8,0,1.6,0.2,2.3,0.5
			c0.7,0.3,1.3,0.7,1.8,1.2c0.5,0.5,0.8,1.3,1.2,2.2c0.7-1.3,1.6-2.3,2.6-2.9c1.1-0.7,2.2-1,3.4-1c1.1,0,2.1,0.3,3,0.9
			c0.9,0.6,1.5,1.4,1.9,2.4c0.4,1,0.6,2.6,0.6,4.6v9h-2.2v-9c0-1.8-0.1-3-0.4-3.6c-0.3-0.7-0.7-1.2-1.3-1.6
			c-0.6-0.4-1.3-0.6-2.2-0.6c-1,0-2,0.3-2.8,0.9c-0.8,0.6-1.5,1.4-1.9,2.4c-0.4,1-0.6,2.7-0.6,5.1v6.4H101v-8.4c0-2-0.1-3.3-0.4-4
			c-0.2-0.7-0.7-1.3-1.3-1.7c-0.6-0.4-1.3-0.6-2.2-0.6c-1,0-1.9,0.3-2.7,0.9c-0.9,0.6-1.5,1.4-1.9,2.4s-0.6,2.5-0.6,4.6v7h-2.1
			V215.8z"/>
		<path class="st1" d="M118.9,215.8h2.1v3c0.8-1.1,1.8-2,2.9-2.6c1.1-0.6,2.3-0.9,3.6-0.9c2.3,0,4.3,0.8,6,2.5
			c1.7,1.7,2.5,3.7,2.5,6.1c0,2.4-0.8,4.5-2.5,6.2c-1.6,1.7-3.6,2.5-6,2.5c-1.3,0-2.5-0.3-3.6-0.8c-1.1-0.5-2.1-1.4-3-2.4v8.9h-2.1
			V215.8z M127.4,217.4c-1.8,0-3.4,0.6-4.6,1.9c-1.3,1.3-1.9,2.9-1.9,4.8c0,1.2,0.3,2.4,0.8,3.4c0.6,1,1.4,1.8,2.4,2.4
			c1,0.6,2.1,0.9,3.3,0.9c1.1,0,2.2-0.3,3.2-0.9c1-0.6,1.8-1.4,2.4-2.5c0.6-1.1,0.9-2.2,0.9-3.3c0-1.2-0.3-2.3-0.9-3.3
			c-0.6-1-1.4-1.9-2.4-2.4C129.6,217.7,128.6,217.4,127.4,217.4z"/>
		<path class="st1" d="M139.2,215.8h2.2v2.4c0.6-0.9,1.3-1.7,2-2.1c0.7-0.5,1.5-0.7,2.2-0.7c0.6,0,1.2,0.2,1.9,0.6l-1.1,1.8
			c-0.4-0.2-0.8-0.3-1.1-0.3c-0.7,0-1.4,0.3-2,0.9c-0.7,0.6-1.2,1.5-1.5,2.7c-0.3,0.9-0.4,2.8-0.4,5.7v5.6h-2.2V215.8z"/>
		<path class="st1" d="M157,215.3c2.5,0,4.6,0.9,6.3,2.8c1.5,1.7,2.3,3.7,2.3,5.9c0,2.3-0.8,4.3-2.4,6c-1.6,1.7-3.7,2.6-6.2,2.6
			c-2.5,0-4.6-0.9-6.2-2.6s-2.4-3.7-2.4-6c0-2.3,0.8-4.3,2.3-5.9C152.4,216.3,154.5,215.3,157,215.3z M157,217.4
			c-1.8,0-3.3,0.7-4.5,2c-1.3,1.3-1.9,2.9-1.9,4.7c0,1.2,0.3,2.3,0.9,3.3c0.6,1,1.4,1.8,2.3,2.4c1,0.6,2.1,0.8,3.2,0.8
			c1.2,0,2.3-0.3,3.2-0.8c1-0.6,1.8-1.4,2.3-2.4c0.6-1,0.9-2.1,0.9-3.3c0-1.8-0.6-3.4-1.9-4.7C160.3,218.1,158.7,217.4,157,217.4z"
			/>
		<path class="st1" d="M169.6,232.2v-22.8h2.1v9.2c0.9-1.1,1.9-1.9,3-2.4c1.1-0.5,2.3-0.8,3.6-0.8c2.3,0,4.3,0.8,6,2.5
			s2.5,3.7,2.5,6.2c0,2.4-0.8,4.4-2.5,6.1s-3.7,2.5-6,2.5c-1.3,0-2.6-0.3-3.6-0.9c-1.1-0.6-2.1-1.4-2.9-2.6v3H169.6z M178.1,230.6
			c1.2,0,2.3-0.3,3.3-0.9c1-0.6,1.8-1.4,2.4-2.4c0.6-1,0.9-2.2,0.9-3.3s-0.3-2.3-0.9-3.3c-0.6-1.1-1.4-1.9-2.4-2.5
			c-1-0.6-2.1-0.9-3.2-0.9c-1.2,0-2.3,0.3-3.3,0.9c-1,0.6-1.8,1.4-2.4,2.4c-0.6,1-0.8,2.1-0.8,3.4c0,1.9,0.6,3.5,1.9,4.8
			C174.7,230,176.3,230.6,178.1,230.6z"/>
		<path class="st1" d="M207,215.8v16.5H205v-2.8c-0.9,1.1-1.9,1.9-3,2.4c-1.1,0.5-2.3,0.8-3.6,0.8c-2.3,0-4.3-0.8-6-2.5
			c-1.6-1.7-2.5-3.7-2.5-6.2c0-2.4,0.8-4.4,2.5-6.1c1.7-1.7,3.7-2.5,6-2.5c1.4,0,2.6,0.3,3.7,0.9c1.1,0.6,2.1,1.4,2.9,2.6v-3H207z
			 M198.6,217.4c-1.2,0-2.3,0.3-3.3,0.9c-1,0.6-1.8,1.4-2.4,2.4c-0.6,1-0.9,2.2-0.9,3.3c0,1.2,0.3,2.3,0.9,3.3
			c0.6,1.1,1.4,1.9,2.4,2.5c1,0.6,2.1,0.9,3.2,0.9c1.2,0,2.3-0.3,3.3-0.9c1-0.6,1.8-1.4,2.4-2.4c0.6-1,0.8-2.1,0.8-3.4
			c0-1.9-0.6-3.5-1.9-4.8C202,218,200.4,217.4,198.6,217.4z"/>
		<path class="st1" d="M211.8,215.8h2.1v3c0.8-1.1,1.8-2,2.8-2.5s2.1-0.8,3.4-0.8c1.2,0,2.3,0.3,3.3,0.9c1,0.6,1.7,1.5,2.1,2.5
			c0.5,1.1,0.7,2.7,0.7,4.9v8.5H224v-7.9c0-1.9-0.1-3.2-0.2-3.8c-0.2-1.1-0.7-1.9-1.4-2.5c-0.7-0.6-1.6-0.8-2.7-0.8
			c-1.3,0-2.4,0.4-3.4,1.3c-1,0.8-1.7,1.9-2,3.1c-0.2,0.8-0.3,2.3-0.3,4.5v6h-2.1V215.8z"/>
		<path class="st1" d="M232.6,209.7h2.1v6.1h3.4v1.8h-3.4v14.6h-2.1v-14.6h-2.9v-1.8h2.9V209.7z"/>
		<path class="st1" d="M255.1,226.8l1.8,0.9c-0.6,1.1-1.3,2.1-2,2.8c-0.8,0.7-1.6,1.2-2.6,1.6c-1,0.4-2,0.6-3.3,0.6
			c-2.7,0-4.8-0.9-6.3-2.6c-1.5-1.8-2.3-3.8-2.3-6c0-2.1,0.6-3.9,1.9-5.6c1.6-2.1,3.8-3.1,6.5-3.1c2.8,0,5,1.1,6.7,3.2
			c1.2,1.5,1.8,3.4,1.8,5.6h-14.8c0,1.9,0.7,3.5,1.8,4.7c1.2,1.2,2.6,1.8,4.4,1.8c0.8,0,1.7-0.1,2.4-0.4c0.8-0.3,1.5-0.7,2-1.2
			C253.8,228.6,254.4,227.8,255.1,226.8z M255.1,222.3c-0.3-1.1-0.7-2-1.2-2.7c-0.5-0.7-1.3-1.2-2.1-1.6c-0.9-0.4-1.8-0.6-2.8-0.6
			c-1.6,0-3,0.5-4.2,1.6c-0.8,0.8-1.5,1.9-1.9,3.4H255.1z"/>
		<path class="st1" d="M96.9,243.9v18.5h-1.7v-2.3c-0.7,0.9-1.5,1.5-2.4,2s-1.9,0.7-2.9,0.7c-1.9,0-3.5-0.7-4.9-2.1
			c-1.3-1.4-2-3-2-5c0-1.9,0.7-3.6,2-4.9c1.4-1.4,3-2.1,4.9-2.1c1.1,0,2.1,0.2,3,0.7s1.7,1.2,2.3,2.1v-7.6H96.9z M90,250.4
			c-1,0-1.8,0.2-2.7,0.7s-1.5,1.1-1.9,2c-0.5,0.9-0.7,1.8-0.7,2.7c0,0.9,0.2,1.8,0.7,2.7c0.5,0.9,1.1,1.5,1.9,2
			c0.8,0.5,1.7,0.7,2.6,0.7c0.9,0,1.8-0.2,2.7-0.7c0.8-0.5,1.5-1.1,1.9-1.9c0.5-0.8,0.7-1.7,0.7-2.7c0-1.5-0.5-2.8-1.5-3.9
			C92.7,250.9,91.5,250.4,90,250.4z"/>
		<path class="st1" d="M112,258l1.5,0.8c-0.5,0.9-1,1.7-1.6,2.3c-0.6,0.6-1.3,1-2.1,1.3c-0.8,0.3-1.7,0.4-2.6,0.4
			c-2.2,0-3.9-0.7-5.1-2.1c-1.2-1.4-1.8-3-1.8-4.8c0-1.7,0.5-3.2,1.6-4.5c1.3-1.7,3.1-2.5,5.3-2.5c2.3,0,4.1,0.9,5.5,2.6
			c1,1.2,1.5,2.7,1.5,4.6h-12c0,1.6,0.5,2.8,1.5,3.8c1,1,2.1,1.5,3.6,1.5c0.7,0,1.3-0.1,2-0.4s1.2-0.6,1.6-0.9
			C111,259.5,111.5,258.9,112,258z M112,254.4c-0.2-0.9-0.6-1.7-1-2.2c-0.4-0.6-1-1-1.7-1.3c-0.7-0.3-1.5-0.5-2.3-0.5
			c-1.3,0-2.4,0.4-3.4,1.3c-0.7,0.6-1.2,1.5-1.6,2.8H112z"/>
		<path class="st1" d="M124.7,243.6c0.4,0,0.7,0.1,1,0.4c0.3,0.3,0.4,0.6,0.4,1c0,0.4-0.1,0.7-0.4,1c-0.3,0.3-0.6,0.4-1,0.4
			c-0.4,0-0.7-0.1-1-0.4c-0.3-0.3-0.4-0.6-0.4-1c0-0.4,0.1-0.7,0.4-1C124,243.7,124.3,243.6,124.7,243.6z M123.8,249.1h1.7v13.4
			h-1.7V249.1z"/>
		<path class="st1" d="M129.1,249.1h1.7v2.4c0.7-0.9,1.5-1.6,2.3-2.1c0.8-0.5,1.7-0.7,2.7-0.7c1,0,1.9,0.3,2.7,0.8
			c0.8,0.5,1.3,1.2,1.7,2.1s0.6,2.2,0.6,4v6.9h-1.7v-6.4c0-1.5-0.1-2.6-0.2-3.1c-0.2-0.9-0.6-1.6-1.1-2c-0.6-0.4-1.3-0.7-2.2-0.7
			c-1,0-2,0.3-2.8,1s-1.4,1.5-1.6,2.6c-0.2,0.7-0.2,1.9-0.2,3.6v4.9h-1.7V249.1z"/>
		<path class="st1" d="M156,249.1h1.7v10.7c0,1.9-0.2,3.2-0.5,4.1c-0.5,1.2-1.2,2.2-2.3,2.8c-1.1,0.7-2.5,1-4,1
			c-1.1,0-2.2-0.2-3.1-0.5c-0.9-0.3-1.7-0.8-2.2-1.3c-0.6-0.5-1.1-1.3-1.6-2.4h1.9c0.5,0.9,1.2,1.5,2,2c0.8,0.4,1.8,0.6,3,0.6
			c1.2,0,2.2-0.2,3-0.7c0.8-0.4,1.4-1,1.7-1.6c0.3-0.7,0.5-1.7,0.5-3.2v-0.7c-0.6,0.8-1.4,1.4-2.4,1.9c-0.9,0.4-1.9,0.7-3,0.7
			c-1.2,0-2.4-0.3-3.5-0.9c-1.1-0.6-1.9-1.4-2.5-2.5c-0.6-1-0.9-2.2-0.9-3.4c0-1.2,0.3-2.4,0.9-3.5c0.6-1.1,1.5-1.9,2.6-2.5
			c1.1-0.6,2.2-0.9,3.4-0.9c1,0,1.9,0.2,2.8,0.6c0.9,0.4,1.7,1.1,2.5,2V249.1z M150.9,250.4c-1,0-1.9,0.2-2.7,0.7
			c-0.8,0.5-1.5,1.1-2,2c-0.5,0.8-0.7,1.7-0.7,2.7c0,1.5,0.5,2.7,1.5,3.6c1,1,2.3,1.4,3.8,1.4c1.6,0,2.9-0.5,3.8-1.4
			c1-0.9,1.4-2.2,1.4-3.7c0-1-0.2-1.9-0.7-2.7c-0.4-0.8-1.1-1.4-1.9-1.9C152.7,250.6,151.9,250.4,150.9,250.4z"/>
		<path class="st1" d="M160.8,249.1h1.8v2c0.5-0.8,1.1-1.3,1.7-1.7c0.6-0.4,1.2-0.6,1.8-0.6c0.5,0,1,0.2,1.5,0.5l-0.9,1.5
			c-0.4-0.2-0.7-0.2-0.9-0.2c-0.6,0-1.1,0.2-1.7,0.7c-0.5,0.5-0.9,1.2-1.2,2.2c-0.2,0.8-0.3,2.3-0.3,4.6v4.5h-1.8V249.1z"/>
		<path class="st1" d="M180.2,258l1.5,0.8c-0.5,0.9-1,1.7-1.6,2.3c-0.6,0.6-1.3,1-2.1,1.3c-0.8,0.3-1.7,0.4-2.6,0.4
			c-2.2,0-3.9-0.7-5.1-2.1c-1.2-1.4-1.8-3-1.8-4.8c0-1.7,0.5-3.2,1.6-4.5c1.3-1.7,3.1-2.5,5.3-2.5c2.3,0,4.1,0.9,5.5,2.6
			c1,1.2,1.5,2.7,1.5,4.6h-12c0,1.6,0.5,2.8,1.5,3.8c1,1,2.1,1.5,3.6,1.5c0.7,0,1.3-0.1,2-0.4c0.6-0.2,1.2-0.6,1.6-0.9
			C179.1,259.5,179.6,258.9,180.2,258z M180.2,254.4c-0.2-0.9-0.6-1.7-1-2.2c-0.4-0.6-1-1-1.7-1.3c-0.7-0.3-1.5-0.5-2.3-0.5
			c-1.3,0-2.4,0.4-3.4,1.3c-0.7,0.6-1.2,1.5-1.6,2.8H180.2z"/>
		<path class="st1" d="M192,250.5l-1.1,1.1c-0.9-0.9-1.8-1.3-2.7-1.3c-0.6,0-1,0.2-1.4,0.6c-0.4,0.4-0.6,0.8-0.6,1.3
			c0,0.4,0.2,0.8,0.5,1.2c0.3,0.4,1,0.9,2.1,1.4c1.3,0.7,2.2,1.3,2.6,1.9c0.5,0.6,0.7,1.3,0.7,2.1c0,1.1-0.4,2-1.2,2.8
			c-0.8,0.8-1.7,1.1-2.9,1.1c-0.8,0-1.5-0.2-2.2-0.5c-0.7-0.3-1.3-0.8-1.7-1.4l1.1-1.2c0.9,1,1.8,1.5,2.8,1.5c0.7,0,1.3-0.2,1.8-0.7
			c0.5-0.4,0.7-1,0.7-1.6c0-0.5-0.2-0.9-0.5-1.3c-0.3-0.4-1-0.9-2.2-1.4c-1.2-0.6-2-1.2-2.5-1.8c-0.4-0.6-0.7-1.3-0.7-2.1
			c0-1,0.3-1.9,1-2.5c0.7-0.7,1.6-1,2.6-1C189.5,248.7,190.7,249.3,192,250.5z"/>
		<path class="st1" d="M201.4,248.7c2.1,0,3.8,0.7,5.1,2.2c1.2,1.4,1.8,3,1.8,4.8c0,1.9-0.7,3.5-2,4.9c-1.3,1.4-3,2.1-5,2.1
			c-2.1,0-3.7-0.7-5-2.1c-1.3-1.4-2-3-2-4.9c0-1.9,0.6-3.5,1.8-4.8C197.6,249.5,199.3,248.7,201.4,248.7z M201.4,250.4
			c-1.4,0-2.7,0.5-3.7,1.6c-1,1.1-1.5,2.3-1.5,3.8c0,1,0.2,1.9,0.7,2.7c0.5,0.8,1.1,1.5,1.9,1.9c0.8,0.5,1.7,0.7,2.6,0.7
			c1,0,1.8-0.2,2.6-0.7c0.8-0.5,1.4-1.1,1.9-1.9c0.5-0.8,0.7-1.7,0.7-2.7c0-1.5-0.5-2.8-1.5-3.8C204,250.9,202.8,250.4,201.4,250.4z
			"/>
		<path class="st1" d="M218.2,250.5l-1.1,1.1c-0.9-0.9-1.8-1.3-2.7-1.3c-0.6,0-1,0.2-1.4,0.6c-0.4,0.4-0.6,0.8-0.6,1.3
			c0,0.4,0.2,0.8,0.5,1.2c0.3,0.4,1,0.9,2.1,1.4c1.3,0.7,2.2,1.3,2.6,1.9c0.5,0.6,0.7,1.3,0.7,2.1c0,1.1-0.4,2-1.2,2.8
			c-0.8,0.8-1.7,1.1-2.9,1.1c-0.8,0-1.5-0.2-2.2-0.5c-0.7-0.3-1.3-0.8-1.7-1.4l1.1-1.2c0.9,1,1.8,1.5,2.8,1.5c0.7,0,1.3-0.2,1.8-0.7
			c0.5-0.4,0.7-1,0.7-1.6c0-0.5-0.2-0.9-0.5-1.3c-0.3-0.4-1-0.9-2.2-1.4c-1.2-0.6-2-1.2-2.5-1.8c-0.4-0.6-0.7-1.3-0.7-2.1
			c0-1,0.3-1.9,1-2.5c0.7-0.7,1.6-1,2.6-1C215.7,248.7,217,249.3,218.2,250.5z"/>
	</g>
	<path class="st0" d="M198.5,74.2c0-4.9-4-8.9-9-8.9h-26.3l-0.4,0V48.8c0-4.9-4-8.9-9-8.9h-26.3l-0.4,0c-1.8,0.3-3.5,1.1-4.8,2.5
		L105,59.5c-1.3,1.3-2.1,2.9-2.4,4.5l-0.1,0.5v46.6c0,4.9,4,8.9,9,8.9h26.7v16.5c0,4.9,4,8.9,9,8.9h42.4c4.9,0,9-3.8,8.9-8.6
		c-0.1-35-0.1-0.1,0-34.8V74.2z M149,87.3h-3.1l14.6-14.5v3.1v7.9c0,2-1.6,3.6-3.6,3.6v0H149z M124.8,47.4v3.1v7.9
		c0,2-1.6,3.6-3.6,3.6v0h-7.9h-3.1L124.8,47.4z M140.7,84.9c-1.3,1.3-2.1,2.9-2.4,4.5l-0.1,0.5v24.8h-26.7c-2,0-3.6-1.6-3.6-3.6v-44
		h13.4c4.9,0,9-4,9-8.9V45.2h23.7c2,0,3.6,1.6,3.6,3.6v19.4L140.7,84.9z M193.1,101.9c-0.1,35-0.1-0.1,0,35c0,1.8-1.7,3.2-3.6,3.2
		h-42.4c-2,0-3.6-1.6-3.6-3.6v-44h13.4c4.9,0,9-4,9-8.9V70.6h23.7c2,0,3.6,1.6,3.6,3.6V101.9z"/>
</g>
</svg>
