<?xml version="1.0" encoding="utf-8"?>
<!-- Generator: Adobe Illustrator 27.1.1, SVG Export Plug-In . SVG Version: 6.00 Build 0)  -->
<svg version="1.1" id="Capa_1" xmlns="http://www.w3.org/2000/svg" xmlns:xlink="http://www.w3.org/1999/xlink" x="0px" y="0px"
	 viewBox="0 0 300 300" style="enable-background:new 0 0 300 300;" xml:space="preserve">
<style type="text/css">
	.st0{fill:#009BDB;}
	.st1{fill:#4D4D4D;}
</style>
<g>
	<path class="st0" d="M242.5,92.7c0-50.7-41.1-91.8-91.8-91.8S58.9,42,58.9,92.7c0,50,40,90.6,89.7,91.8h4.2
		C202.5,183.3,242.5,142.7,242.5,92.7z M63.2,92.7c0-48.3,39.2-87.5,87.5-87.5c48.3,0,87.5,39.2,87.5,87.5s-39.2,87.5-87.5,87.5
		C102.4,180.2,63.2,141,63.2,92.7z"/>
	<g>
		<path class="st1" d="M49.8,210H52v22.3h-2.2V210z"/>
		<path class="st1" d="M73.2,209.4v22.8h-2.1v-2.8c-0.9,1.1-1.9,1.9-3,2.4c-1.1,0.5-2.3,0.8-3.6,0.8c-2.3,0-4.3-0.8-6-2.5
			c-1.6-1.7-2.5-3.7-2.5-6.2c0-2.4,0.8-4.4,2.5-6.1s3.7-2.5,6-2.5c1.4,0,2.6,0.3,3.7,0.9c1.1,0.6,2.1,1.4,2.9,2.6v-9.4H73.2z
			 M64.8,217.4c-1.2,0-2.3,0.3-3.3,0.9c-1,0.6-1.8,1.4-2.4,2.4c-0.6,1-0.9,2.2-0.9,3.3c0,1.2,0.3,2.3,0.9,3.3
			c0.6,1.1,1.4,1.9,2.4,2.5c1,0.6,2.1,0.9,3.2,0.9c1.2,0,2.3-0.3,3.3-0.9c1-0.6,1.8-1.4,2.4-2.4c0.6-1,0.8-2.1,0.8-3.4
			c0-1.9-0.6-3.5-1.9-4.8C68.1,218,66.6,217.4,64.8,217.4z"/>
		<path class="st1" d="M91.9,226.8l1.8,0.9c-0.6,1.1-1.3,2.1-2,2.8c-0.8,0.7-1.6,1.2-2.6,1.6c-1,0.4-2,0.6-3.3,0.6
			c-2.7,0-4.8-0.9-6.3-2.6c-1.5-1.8-2.3-3.8-2.3-6c0-2.1,0.6-3.9,1.9-5.6c1.6-2.1,3.8-3.1,6.5-3.1c2.8,0,5,1.1,6.7,3.2
			c1.2,1.5,1.8,3.4,1.8,5.6H79.4c0,1.9,0.7,3.5,1.8,4.7c1.2,1.2,2.6,1.8,4.4,1.8c0.8,0,1.7-0.1,2.4-0.4c0.8-0.3,1.5-0.7,2-1.2
			C90.6,228.6,91.2,227.8,91.9,226.8z M91.9,222.3c-0.3-1.1-0.7-2-1.2-2.7c-0.5-0.7-1.3-1.2-2.1-1.6c-0.9-0.4-1.8-0.6-2.8-0.6
			c-1.6,0-3,0.5-4.2,1.6c-0.8,0.8-1.5,1.9-1.9,3.4H91.9z"/>
		<path class="st1" d="M98.2,215.8h2.1v3c0.8-1.1,1.8-2,2.8-2.5s2.1-0.8,3.4-0.8c1.2,0,2.3,0.3,3.3,0.9c1,0.6,1.7,1.5,2.1,2.5
			c0.5,1.1,0.7,2.7,0.7,4.9v8.5h-2.1v-7.9c0-1.9-0.1-3.2-0.2-3.8c-0.2-1.1-0.7-1.9-1.4-2.5c-0.7-0.6-1.6-0.8-2.7-0.8
			c-1.3,0-2.4,0.4-3.4,1.3c-1,0.8-1.7,1.9-2,3.1c-0.2,0.8-0.3,2.3-0.3,4.5v6h-2.1V215.8z"/>
		<path class="st1" d="M118.9,209.7h2.1v6.1h3.4v1.8H121v14.6h-2.1v-14.6H116v-1.8h2.9V209.7z"/>
		<path class="st1" d="M128.3,209c0.5,0,0.9,0.2,1.2,0.5c0.3,0.3,0.5,0.8,0.5,1.2c0,0.5-0.2,0.9-0.5,1.2c-0.3,0.3-0.8,0.5-1.2,0.5
			c-0.5,0-0.9-0.2-1.2-0.5c-0.3-0.3-0.5-0.8-0.5-1.2c0-0.5,0.2-0.9,0.5-1.2C127.4,209.2,127.8,209,128.3,209z M127.2,215.8h2.1v16.5
			h-2.1V215.8z"/>
		<path class="st1" d="M140.5,209.4v2.1c-0.8-0.3-1.4-0.5-2-0.5c-0.4,0-0.8,0.1-1,0.2c-0.3,0.2-0.4,0.4-0.5,0.6
			c-0.1,0.2-0.1,0.8-0.1,1.7l0,2.2h3.4v1.8h-3.4l0,14.6h-2.1v-14.6h-2.2v-1.8h2.2v-2.6c0-1.2,0.1-2,0.3-2.5c0.2-0.5,0.6-0.9,1.1-1.2
			c0.5-0.3,1.1-0.5,1.9-0.5C138.8,209,139.6,209.1,140.5,209.4z"/>
		<path class="st1" d="M144.2,209c0.5,0,0.9,0.2,1.2,0.5c0.3,0.3,0.5,0.8,0.5,1.2c0,0.5-0.2,0.9-0.5,1.2c-0.3,0.3-0.8,0.5-1.2,0.5
			c-0.5,0-0.9-0.2-1.2-0.5c-0.3-0.3-0.5-0.8-0.5-1.2c0-0.5,0.2-0.9,0.5-1.2C143.3,209.2,143.8,209,144.2,209z M143.2,215.8h2.1v16.5
			h-2.1V215.8z"/>
		<path class="st1" d="M165.7,219.2l-1.7,1c-1.5-1.9-3.4-2.9-5.9-2.9c-2,0-3.7,0.6-5,1.9s-2,2.9-2,4.7c0,1.2,0.3,2.3,0.9,3.4
			c0.6,1.1,1.4,1.9,2.5,2.5c1.1,0.6,2.3,0.9,3.6,0.9c2.4,0,4.4-1,5.9-2.9l1.7,1.1c-0.8,1.2-1.8,2.1-3.2,2.8c-1.3,0.7-2.8,1-4.5,1
			c-2.6,0-4.8-0.8-6.5-2.5c-1.7-1.7-2.6-3.7-2.6-6c0-1.6,0.4-3.1,1.2-4.4c0.8-1.4,1.9-2.4,3.3-3.2c1.4-0.8,3-1.1,4.7-1.1
			c1.1,0,2.1,0.2,3.2,0.5c1,0.3,1.9,0.8,2.6,1.3C164.6,217.7,165.2,218.4,165.7,219.2z"/>
		<path class="st1" d="M186.1,215.8v16.5h-2.1v-2.8c-0.9,1.1-1.9,1.9-3,2.4c-1.1,0.5-2.3,0.8-3.6,0.8c-2.3,0-4.3-0.8-6-2.5
			c-1.6-1.7-2.5-3.7-2.5-6.2c0-2.4,0.8-4.4,2.5-6.1c1.7-1.7,3.7-2.5,6-2.5c1.4,0,2.6,0.3,3.7,0.9c1.1,0.6,2.1,1.4,2.9,2.6v-3H186.1z
			 M177.7,217.4c-1.2,0-2.3,0.3-3.3,0.9c-1,0.6-1.8,1.4-2.4,2.4c-0.6,1-0.9,2.2-0.9,3.3c0,1.2,0.3,2.3,0.9,3.3
			c0.6,1.1,1.4,1.9,2.4,2.5c1,0.6,2.1,0.9,3.2,0.9c1.2,0,2.3-0.3,3.3-0.9c1-0.6,1.8-1.4,2.4-2.4c0.6-1,0.8-2.1,0.8-3.4
			c0-1.9-0.6-3.5-1.9-4.8C181.1,218,179.5,217.4,177.7,217.4z"/>
		<path class="st1" d="M206.9,219.2l-1.7,1c-1.5-1.9-3.4-2.9-5.9-2.9c-2,0-3.7,0.6-5,1.9s-2,2.9-2,4.7c0,1.2,0.3,2.3,0.9,3.4
			c0.6,1.1,1.4,1.9,2.5,2.5c1.1,0.6,2.3,0.9,3.6,0.9c2.4,0,4.4-1,5.9-2.9l1.7,1.1c-0.8,1.2-1.8,2.1-3.2,2.8c-1.3,0.7-2.8,1-4.5,1
			c-2.6,0-4.8-0.8-6.5-2.5c-1.7-1.7-2.6-3.7-2.6-6c0-1.6,0.4-3.1,1.2-4.4c0.8-1.4,1.9-2.4,3.3-3.2c1.4-0.8,3-1.1,4.7-1.1
			c1.1,0,2.1,0.2,3.2,0.5c1,0.3,1.9,0.8,2.6,1.3C205.8,217.7,206.4,218.4,206.9,219.2z"/>
		<path class="st1" d="M211.7,209c0.5,0,0.9,0.2,1.2,0.5c0.3,0.3,0.5,0.8,0.5,1.2c0,0.5-0.2,0.9-0.5,1.2c-0.3,0.3-0.8,0.5-1.2,0.5
			c-0.5,0-0.9-0.2-1.2-0.5c-0.3-0.3-0.5-0.8-0.5-1.2c0-0.5,0.2-0.9,0.5-1.2C210.8,209.2,211.2,209,211.7,209z M210.6,215.8h2.1v16.5
			h-2.1V215.8z"/>
		<path class="st1" d="M224.9,215.3c2.5,0,4.6,0.9,6.3,2.8c1.5,1.7,2.3,3.7,2.3,5.9c0,2.3-0.8,4.3-2.4,6s-3.7,2.6-6.2,2.6
			c-2.5,0-4.6-0.9-6.2-2.6c-1.6-1.7-2.4-3.7-2.4-6c0-2.3,0.8-4.3,2.3-5.9C220.3,216.3,222.4,215.3,224.9,215.3z M224.9,217.4
			c-1.8,0-3.3,0.7-4.5,2s-1.9,2.9-1.9,4.7c0,1.2,0.3,2.3,0.9,3.3c0.6,1,1.4,1.8,2.3,2.4c1,0.6,2.1,0.8,3.2,0.8
			c1.2,0,2.3-0.3,3.2-0.8c1-0.6,1.8-1.4,2.3-2.4c0.6-1,0.9-2.1,0.9-3.3c0-1.8-0.6-3.4-1.9-4.7C228.2,218.1,226.7,217.4,224.9,217.4z
			 M226,208.1h3.3l-4.5,4.7h-2.1L226,208.1z"/>
		<path class="st1" d="M237.4,215.8h2.1v3c0.8-1.1,1.8-2,2.8-2.5c1-0.6,2.1-0.8,3.4-0.8c1.2,0,2.3,0.3,3.3,0.9
			c1,0.6,1.7,1.5,2.1,2.5c0.5,1.1,0.7,2.7,0.7,4.9v8.5h-2.1v-7.9c0-1.9-0.1-3.2-0.2-3.8c-0.2-1.1-0.7-1.9-1.4-2.5
			c-0.7-0.6-1.6-0.8-2.7-0.8c-1.3,0-2.4,0.4-3.4,1.3c-1,0.8-1.7,1.9-2,3.1c-0.2,0.8-0.3,2.3-0.3,4.5v6h-2.1V215.8z"/>
		<path class="st1" d="M45,243.9c2.7,0,5,0.9,6.9,2.7c1.8,1.8,2.8,4.1,2.8,6.7c0,2.6-0.9,4.9-2.8,6.7c-1.8,1.8-4.1,2.8-6.7,2.8
			c-2.7,0-4.9-0.9-6.8-2.8c-1.8-1.8-2.8-4.1-2.8-6.7c0-1.7,0.4-3.3,1.3-4.8c0.8-1.5,2-2.6,3.4-3.5C41.8,244.3,43.3,243.9,45,243.9z
			 M45.1,245.7c-1.3,0-2.6,0.3-3.8,1c-1.2,0.7-2.1,1.6-2.8,2.8c-0.7,1.2-1,2.5-1,3.9c0,2.2,0.7,4,2.2,5.4c1.5,1.5,3.3,2.2,5.4,2.2
			c1.4,0,2.7-0.3,3.9-1c1.2-0.7,2.1-1.6,2.8-2.8c0.7-1.2,1-2.5,1-3.9c0-1.4-0.3-2.7-1-3.9c-0.7-1.2-1.6-2.1-2.8-2.8
			C47.7,246,46.5,245.7,45.1,245.7z"/>
		<path class="st1" d="M63.5,243.9v1.7c-0.6-0.3-1.2-0.4-1.6-0.4c-0.3,0-0.6,0.1-0.8,0.2c-0.2,0.1-0.4,0.3-0.4,0.5
			c-0.1,0.2-0.1,0.6-0.1,1.4l0,1.8h2.8v1.5h-2.8l0,11.9h-1.7v-11.9h-1.8v-1.5h1.8V247c0-1,0.1-1.6,0.3-2.1c0.2-0.4,0.5-0.7,0.9-1
			c0.4-0.2,0.9-0.4,1.5-0.4C62.1,243.6,62.7,243.7,63.5,243.9z"/>
		<path class="st1" d="M66.5,243.6c0.4,0,0.7,0.1,1,0.4c0.3,0.3,0.4,0.6,0.4,1c0,0.4-0.1,0.7-0.4,1c-0.3,0.3-0.6,0.4-1,0.4
			c-0.4,0-0.7-0.1-1-0.4c-0.3-0.3-0.4-0.6-0.4-1c0-0.4,0.1-0.7,0.4-1C65.8,243.7,66.1,243.6,66.5,243.6z M65.6,249.1h1.7v13.4h-1.7
			V249.1z"/>
		<path class="st1" d="M83.9,251.8l-1.4,0.8c-1.2-1.6-2.8-2.3-4.8-2.3c-1.6,0-3,0.5-4.1,1.6c-1.1,1-1.6,2.3-1.6,3.8
			c0,1,0.2,1.9,0.7,2.8c0.5,0.9,1.2,1.5,2,2c0.9,0.5,1.8,0.7,2.9,0.7c2,0,3.6-0.8,4.8-2.3l1.4,0.9c-0.6,1-1.5,1.7-2.6,2.2
			c-1.1,0.5-2.3,0.8-3.7,0.8c-2.1,0-3.9-0.7-5.3-2c-1.4-1.3-2.1-3-2.1-4.9c0-1.3,0.3-2.5,1-3.6c0.7-1.1,1.5-2,2.7-2.6
			c1.1-0.6,2.4-0.9,3.8-0.9c0.9,0,1.7,0.1,2.6,0.4c0.8,0.3,1.5,0.6,2.1,1.1C83,250.6,83.5,251.2,83.9,251.8z"/>
		<path class="st1" d="M87.8,243.6c0.4,0,0.7,0.1,1,0.4c0.3,0.3,0.4,0.6,0.4,1c0,0.4-0.1,0.7-0.4,1c-0.3,0.3-0.6,0.4-1,0.4
			c-0.4,0-0.7-0.1-1-0.4c-0.3-0.3-0.4-0.6-0.4-1c0-0.4,0.1-0.7,0.4-1C87.1,243.7,87.4,243.6,87.8,243.6z M87,249.1h1.7v13.4H87
			V249.1z"/>
		<path class="st1" d="M105.6,249.1v13.4h-1.7v-2.3c-0.7,0.9-1.5,1.5-2.4,2s-1.9,0.7-2.9,0.7c-1.9,0-3.5-0.7-4.8-2.1
			c-1.3-1.4-2-3-2-5c0-1.9,0.7-3.6,2-4.9c1.4-1.4,3-2.1,4.9-2.1c1.1,0,2.1,0.2,3,0.7c0.9,0.5,1.7,1.2,2.3,2.1v-2.5H105.6z
			 M98.7,250.4c-1,0-1.8,0.2-2.7,0.7c-0.8,0.5-1.5,1.1-1.9,2c-0.5,0.9-0.7,1.8-0.7,2.7c0,0.9,0.2,1.8,0.7,2.7c0.5,0.9,1.1,1.5,1.9,2
			c0.8,0.5,1.7,0.7,2.6,0.7c0.9,0,1.8-0.2,2.7-0.7s1.5-1.1,1.9-1.9c0.5-0.8,0.7-1.7,0.7-2.7c0-1.5-0.5-2.8-1.5-3.9
			C101.5,250.9,100.2,250.4,98.7,250.4z"/>
		<path class="st1" d="M109.2,243.9h1.7v18.5h-1.7V243.9z"/>
		<path class="st1" d="M120.2,249.1h1.8l4.5,9.7l4.4-9.7h1.8l-6.1,13.4h-0.3L120.2,249.1z"/>
		<path class="st1" d="M136,243.6c0.4,0,0.7,0.1,1,0.4c0.3,0.3,0.4,0.6,0.4,1c0,0.4-0.1,0.7-0.4,1c-0.3,0.3-0.6,0.4-1,0.4
			c-0.4,0-0.7-0.1-1-0.4c-0.3-0.3-0.4-0.6-0.4-1c0-0.4,0.1-0.7,0.4-1C135.3,243.7,135.7,243.6,136,243.6z M135.2,249.1h1.7v13.4
			h-1.7V249.1z"/>
		<path class="st1" d="M152,249.1h1.7v10.7c0,1.9-0.2,3.2-0.5,4.1c-0.5,1.2-1.2,2.2-2.3,2.8c-1.1,0.7-2.5,1-4,1
			c-1.1,0-2.2-0.2-3.1-0.5c-0.9-0.3-1.7-0.8-2.2-1.3c-0.6-0.5-1.1-1.3-1.6-2.4h1.9c0.5,0.9,1.2,1.5,2,2c0.8,0.4,1.8,0.6,3,0.6
			c1.2,0,2.2-0.2,3-0.7c0.8-0.4,1.4-1,1.7-1.6c0.3-0.7,0.5-1.7,0.5-3.2v-0.7c-0.6,0.8-1.4,1.4-2.4,1.9c-0.9,0.4-1.9,0.7-3,0.7
			c-1.2,0-2.4-0.3-3.5-0.9c-1.1-0.6-1.9-1.4-2.5-2.5c-0.6-1-0.9-2.2-0.9-3.4c0-1.2,0.3-2.4,0.9-3.5c0.6-1.1,1.5-1.9,2.6-2.5
			c1.1-0.6,2.2-0.9,3.4-0.9c1,0,1.9,0.2,2.8,0.6c0.9,0.4,1.7,1.1,2.5,2V249.1z M146.9,250.4c-1,0-1.9,0.2-2.7,0.7
			c-0.8,0.5-1.5,1.1-2,2c-0.5,0.8-0.7,1.7-0.7,2.7c0,1.5,0.5,2.7,1.5,3.6c1,1,2.3,1.4,3.8,1.4c1.6,0,2.9-0.5,3.8-1.4
			c1-0.9,1.4-2.2,1.4-3.7c0-1-0.2-1.9-0.7-2.7s-1.1-1.4-1.9-1.9C148.7,250.6,147.9,250.4,146.9,250.4z"/>
		<path class="st1" d="M168.7,258l1.5,0.8c-0.5,0.9-1,1.7-1.6,2.3c-0.6,0.6-1.3,1-2.1,1.3c-0.8,0.3-1.7,0.4-2.6,0.4
			c-2.2,0-3.9-0.7-5.1-2.1c-1.2-1.4-1.8-3-1.8-4.8c0-1.7,0.5-3.2,1.6-4.5c1.3-1.7,3.1-2.5,5.3-2.5c2.3,0,4.1,0.9,5.5,2.6
			c1,1.2,1.5,2.7,1.5,4.6h-12c0,1.6,0.5,2.8,1.5,3.8s2.1,1.5,3.6,1.5c0.7,0,1.3-0.1,2-0.4c0.6-0.2,1.2-0.6,1.6-0.9
			C167.7,259.5,168.2,258.9,168.7,258z M168.7,254.4c-0.2-0.9-0.6-1.7-1-2.2c-0.4-0.6-1-1-1.7-1.3c-0.7-0.3-1.5-0.5-2.3-0.5
			c-1.3,0-2.4,0.4-3.4,1.3c-0.7,0.6-1.2,1.5-1.6,2.8H168.7z"/>
		<path class="st1" d="M173.8,249.1h1.7v2.4c0.7-0.9,1.5-1.6,2.3-2.1c0.8-0.5,1.7-0.7,2.7-0.7c1,0,1.9,0.3,2.7,0.8
			c0.8,0.5,1.3,1.2,1.7,2.1s0.6,2.2,0.6,4v6.9h-1.7v-6.4c0-1.5-0.1-2.6-0.2-3.1c-0.2-0.9-0.6-1.6-1.1-2c-0.6-0.4-1.3-0.7-2.2-0.7
			c-1,0-2,0.3-2.8,1s-1.4,1.5-1.6,2.6c-0.2,0.7-0.2,1.9-0.2,3.6v4.9h-1.7V249.1z"/>
		<path class="st1" d="M190.6,244.1h1.7v5h2.7v1.5h-2.7v11.9h-1.7v-11.9h-2.3v-1.5h2.3V244.1z"/>
		<path class="st1" d="M208.9,258l1.5,0.8c-0.5,0.9-1,1.7-1.6,2.3c-0.6,0.6-1.3,1-2.1,1.3s-1.7,0.4-2.6,0.4c-2.2,0-3.9-0.7-5.1-2.1
			c-1.2-1.4-1.8-3-1.8-4.8c0-1.7,0.5-3.2,1.6-4.5c1.3-1.7,3.1-2.5,5.3-2.5c2.3,0,4.1,0.9,5.5,2.6c1,1.2,1.5,2.7,1.5,4.6h-12
			c0,1.6,0.5,2.8,1.5,3.8c1,1,2.1,1.5,3.6,1.5c0.7,0,1.3-0.1,2-0.4s1.2-0.6,1.6-0.9C207.9,259.5,208.4,258.9,208.9,258z
			 M208.9,254.4c-0.2-0.9-0.6-1.7-1-2.2c-0.4-0.6-1-1-1.7-1.3c-0.7-0.3-1.5-0.5-2.3-0.5c-1.3,0-2.4,0.4-3.4,1.3
			c-0.7,0.6-1.2,1.5-1.6,2.8H208.9z"/>
		<path class="st1" d="M234,251.8l-1.4,0.8c-1.2-1.6-2.8-2.3-4.8-2.3c-1.6,0-3,0.5-4.1,1.6c-1.1,1-1.6,2.3-1.6,3.8
			c0,1,0.2,1.9,0.7,2.8c0.5,0.9,1.2,1.5,2,2c0.9,0.5,1.8,0.7,2.9,0.7c2,0,3.6-0.8,4.8-2.3l1.4,0.9c-0.6,1-1.5,1.7-2.6,2.2
			c-1.1,0.5-2.3,0.8-3.7,0.8c-2.1,0-3.9-0.7-5.3-2c-1.4-1.3-2.1-3-2.1-4.9c0-1.3,0.3-2.5,1-3.6c0.7-1.1,1.5-2,2.7-2.6
			c1.1-0.6,2.4-0.9,3.8-0.9c0.9,0,1.7,0.1,2.6,0.4c0.8,0.3,1.5,0.6,2.1,1.1C233.1,250.6,233.6,251.2,234,251.8z"/>
		<path class="st1" d="M243.6,248.7c2.1,0,3.8,0.7,5.1,2.2c1.2,1.4,1.8,3,1.8,4.8c0,1.9-0.7,3.5-2,4.9c-1.3,1.4-3,2.1-5,2.1
			c-2.1,0-3.7-0.7-5-2.1c-1.3-1.4-2-3-2-4.9c0-1.9,0.6-3.5,1.8-4.8C239.8,249.5,241.5,248.7,243.6,248.7z M243.6,250.4
			c-1.4,0-2.7,0.5-3.7,1.6c-1,1.1-1.5,2.3-1.5,3.8c0,1,0.2,1.9,0.7,2.7c0.5,0.8,1.1,1.5,1.9,1.9c0.8,0.5,1.7,0.7,2.6,0.7
			s1.8-0.2,2.6-0.7c0.8-0.5,1.4-1.1,1.9-1.9c0.5-0.8,0.7-1.7,0.7-2.7c0-1.5-0.5-2.8-1.5-3.8C246.3,250.9,245,250.4,243.6,250.4z"/>
		<path class="st1" d="M253.8,249.1h1.7v2.4c0.7-0.9,1.5-1.6,2.3-2.1c0.8-0.5,1.7-0.7,2.7-0.7c1,0,1.9,0.3,2.7,0.8
			c0.8,0.5,1.3,1.2,1.7,2.1c0.4,0.9,0.6,2.2,0.6,4v6.9h-1.7v-6.4c0-1.5-0.1-2.6-0.2-3.1c-0.2-0.9-0.6-1.6-1.1-2
			c-0.6-0.4-1.3-0.7-2.2-0.7c-1,0-2,0.3-2.8,1c-0.8,0.7-1.4,1.5-1.6,2.6c-0.2,0.7-0.2,1.9-0.2,3.6v4.9h-1.7V249.1z"/>
		<path class="st1" d="M97.5,274.1v1.7c-0.6-0.3-1.2-0.4-1.6-0.4c-0.3,0-0.6,0.1-0.8,0.2c-0.2,0.1-0.4,0.3-0.4,0.5
			c-0.1,0.2-0.1,0.6-0.1,1.4l0,1.8h2.8v1.5h-2.8l0,11.9h-1.7v-11.9H91v-1.5h1.8v-2.1c0-1,0.1-1.6,0.3-2.1c0.2-0.4,0.5-0.7,0.9-1
			c0.4-0.2,0.9-0.4,1.5-0.4C96.1,273.8,96.7,273.9,97.5,274.1z"/>
		<path class="st1" d="M106.2,278.9c2.1,0,3.8,0.7,5.1,2.2c1.2,1.4,1.8,3,1.8,4.8c0,1.9-0.7,3.5-2,4.9c-1.3,1.4-3,2.1-5,2.1
			c-2.1,0-3.7-0.7-5-2.1c-1.3-1.4-2-3-2-4.9c0-1.9,0.6-3.5,1.8-4.8C102.4,279.7,104.2,278.9,106.2,278.9z M106.2,280.6
			c-1.4,0-2.7,0.5-3.7,1.6c-1,1.1-1.5,2.3-1.5,3.8c0,1,0.2,1.9,0.7,2.7s1.1,1.5,1.9,1.9c0.8,0.5,1.7,0.7,2.6,0.7
			c1,0,1.8-0.2,2.6-0.7c0.8-0.5,1.4-1.1,1.9-1.9s0.7-1.7,0.7-2.7c0-1.5-0.5-2.8-1.5-3.8C108.9,281.1,107.6,280.6,106.2,280.6z"/>
		<path class="st1" d="M117.9,274.3h1.7v5h2.7v1.5h-2.7v11.9h-1.7v-11.9h-2.3v-1.5h2.3V274.3z"/>
		<path class="st1" d="M131.2,278.9c2.1,0,3.8,0.7,5.1,2.2c1.2,1.4,1.8,3,1.8,4.8c0,1.9-0.7,3.5-2,4.9c-1.3,1.4-3,2.1-5,2.1
			c-2.1,0-3.7-0.7-5-2.1c-1.3-1.4-2-3-2-4.9c0-1.9,0.6-3.5,1.8-4.8C127.5,279.7,129.2,278.9,131.2,278.9z M131.2,280.6
			c-1.4,0-2.7,0.5-3.7,1.6c-1,1.1-1.5,2.3-1.5,3.8c0,1,0.2,1.9,0.7,2.7s1.1,1.5,1.9,1.9c0.8,0.5,1.7,0.7,2.6,0.7
			c1,0,1.8-0.2,2.6-0.7c0.8-0.5,1.4-1.1,1.9-1.9c0.5-0.8,0.7-1.7,0.7-2.7c0-1.5-0.5-2.8-1.5-3.8
			C133.9,281.1,132.7,280.6,131.2,280.6z"/>
		<path class="st1" d="M152.9,279.3h1.7v10.7c0,1.9-0.2,3.2-0.5,4.1c-0.5,1.2-1.2,2.2-2.3,2.8c-1.1,0.7-2.5,1-4,1
			c-1.1,0-2.2-0.2-3.1-0.5c-0.9-0.3-1.7-0.8-2.2-1.3c-0.6-0.5-1.1-1.3-1.6-2.4h1.9c0.5,0.9,1.2,1.5,2,2c0.8,0.4,1.8,0.6,3,0.6
			c1.2,0,2.2-0.2,3-0.7c0.8-0.4,1.4-1,1.7-1.6c0.3-0.7,0.5-1.7,0.5-3.2v-0.7c-0.6,0.8-1.4,1.4-2.4,1.9s-1.9,0.7-3,0.7
			c-1.2,0-2.4-0.3-3.5-0.9c-1.1-0.6-1.9-1.4-2.5-2.5c-0.6-1-0.9-2.2-0.9-3.4c0-1.2,0.3-2.4,0.9-3.5c0.6-1.1,1.5-1.9,2.6-2.5
			c1.1-0.6,2.2-0.9,3.4-0.9c1,0,1.9,0.2,2.8,0.6c0.9,0.4,1.7,1.1,2.5,2V279.3z M147.9,280.6c-1,0-1.9,0.2-2.7,0.7
			c-0.8,0.5-1.5,1.1-2,2c-0.5,0.8-0.7,1.7-0.7,2.7c0,1.5,0.5,2.7,1.5,3.6c1,1,2.3,1.4,3.8,1.4c1.6,0,2.9-0.5,3.8-1.4
			c1-1,1.4-2.2,1.4-3.8c0-1-0.2-1.9-0.7-2.7c-0.4-0.8-1.1-1.4-1.9-1.9C149.7,280.8,148.8,280.6,147.9,280.6z"/>
		<path class="st1" d="M157.7,279.3h1.8v2c0.5-0.8,1.1-1.3,1.7-1.7c0.6-0.4,1.2-0.6,1.8-0.6c0.5,0,1,0.2,1.5,0.5l-0.9,1.5
			c-0.4-0.2-0.7-0.2-0.9-0.2c-0.6,0-1.1,0.2-1.7,0.7c-0.5,0.5-0.9,1.2-1.2,2.2c-0.2,0.8-0.3,2.3-0.3,4.6v4.5h-1.8V279.3z"/>
		<path class="st1" d="M179.2,279.3v13.4h-1.7v-2.3c-0.7,0.9-1.5,1.5-2.4,2s-1.9,0.7-2.9,0.7c-1.9,0-3.5-0.7-4.8-2.1
			c-1.3-1.4-2-3-2-5c0-1.9,0.7-3.6,2-4.9c1.4-1.4,3-2.1,4.9-2.1c1.1,0,2.1,0.2,3,0.7c0.9,0.5,1.7,1.2,2.3,2.1v-2.5H179.2z
			 M172.4,280.6c-1,0-1.8,0.2-2.7,0.7c-0.8,0.5-1.5,1.1-1.9,2c-0.5,0.9-0.7,1.8-0.7,2.7c0,0.9,0.2,1.8,0.7,2.7
			c0.5,0.9,1.1,1.5,1.9,2c0.8,0.5,1.7,0.7,2.6,0.7c0.9,0,1.8-0.2,2.7-0.7c0.8-0.5,1.5-1.1,1.9-1.9c0.5-0.8,0.7-1.7,0.7-2.7
			c0-1.5-0.5-2.8-1.5-3.9C175.1,281.1,173.9,280.6,172.4,280.6z"/>
		<path class="st1" d="M188.6,274.1v1.7c-0.6-0.3-1.2-0.4-1.6-0.4c-0.3,0-0.6,0.1-0.8,0.2c-0.2,0.1-0.4,0.3-0.4,0.5
			c-0.1,0.2-0.1,0.6-0.1,1.4l0,1.8h2.8v1.5h-2.8l0,11.9h-1.7v-11.9h-1.8v-1.5h1.8v-2.1c0-1,0.1-1.6,0.3-2.1c0.2-0.4,0.5-0.7,0.9-1
			c0.4-0.2,0.9-0.4,1.5-0.4C187.2,273.8,187.8,273.9,188.6,274.1z"/>
		<path class="st1" d="M192.5,273h2.6l-3.6,3.8h-1.7L192.5,273z M190.8,279.3h1.7v13.4h-1.7V279.3z"/>
		<path class="st1" d="M209.4,279.3v13.4h-1.7v-2.3c-0.7,0.9-1.5,1.5-2.4,2s-1.9,0.7-2.9,0.7c-1.9,0-3.5-0.7-4.8-2.1
			c-1.3-1.4-2-3-2-5c0-1.9,0.7-3.6,2-4.9c1.4-1.4,3-2.1,4.9-2.1c1.1,0,2.1,0.2,3,0.7c0.9,0.5,1.7,1.2,2.3,2.1v-2.5H209.4z
			 M202.5,280.6c-1,0-1.8,0.2-2.7,0.7c-0.8,0.5-1.5,1.1-1.9,2s-0.7,1.8-0.7,2.7c0,0.9,0.2,1.8,0.7,2.7c0.5,0.9,1.1,1.5,1.9,2
			c0.8,0.5,1.7,0.7,2.6,0.7c0.9,0,1.8-0.2,2.7-0.7c0.8-0.5,1.5-1.1,1.9-1.9c0.5-0.8,0.7-1.7,0.7-2.7c0-1.5-0.5-2.8-1.5-3.9
			C205.2,281.1,204,280.6,202.5,280.6z"/>
	</g>
	<g>
		<circle class="st0" cx="150.7" cy="66" r="25.8"/>
		<path class="st0" d="M191.6,104.7c0-9.5-7.7-17.1-17.1-17.1h-2.2c-5.5,5.5-13.1,8.9-21.5,8.9s-16-3.4-21.5-8.9H127
			c-9.5,0-17.1,7.7-17.1,17.1l-3,23.3c0,9.5,7.7,17.1,17.1,17.1h53.4c9.5,0,17.1-7.7,17.1-17.1L191.6,104.7z"/>
	</g>
</g>
</svg>
