<?xml version="1.0" encoding="utf-8"?>
<!-- Generator: Adobe Illustrator 27.1.1, SVG Export Plug-In . SVG Version: 6.00 Build 0)  -->
<svg version="1.1" id="Capa_1" xmlns="http://www.w3.org/2000/svg" xmlns:xlink="http://www.w3.org/1999/xlink" x="0px" y="0px"
	 viewBox="0 0 300 300" style="enable-background:new 0 0 300 300;" xml:space="preserve">
<style type="text/css">
	.st0{fill:#009BDB;}
	.st1{fill:#4D4D4D;}
</style>
<g>
	<path class="st0" d="M241.8,92.7c0-50.7-41.1-91.8-91.8-91.8S58.2,42,58.2,92.7c0,50,40,90.6,89.7,91.8h4.2
		C201.8,183.3,241.8,142.7,241.8,92.7z M62.5,92.7c0-48.3,39.2-87.5,87.5-87.5c48.3,0,87.5,39.2,87.5,87.5s-39.2,87.5-87.5,87.5
		C101.7,180.2,62.5,141,62.5,92.7z"/>
	<g>
		<path class="st1" d="M92.1,210h2.2v22.3h-2.2V210z"/>
		<path class="st1" d="M99.1,215.8h2.1v3c0.8-1.1,1.8-2,2.8-2.5c1-0.6,2.1-0.8,3.4-0.8c1.2,0,2.3,0.3,3.3,0.9c1,0.6,1.7,1.5,2.1,2.5
			c0.5,1.1,0.7,2.7,0.7,4.9v8.5h-2.1v-7.9c0-1.9-0.1-3.2-0.2-3.8c-0.2-1.1-0.7-1.9-1.4-2.5s-1.6-0.8-2.7-0.8c-1.3,0-2.4,0.4-3.4,1.3
			c-1,0.8-1.7,1.9-2,3.1c-0.2,0.8-0.3,2.3-0.3,4.5v6h-2.1V215.8z"/>
		<path class="st1" d="M132.2,215.8h2.1v13.1c0,2.3-0.2,4-0.6,5.1c-0.6,1.5-1.5,2.7-2.9,3.5c-1.4,0.8-3,1.2-4.9,1.2
			c-1.4,0-2.7-0.2-3.8-0.6c-1.1-0.4-2-0.9-2.7-1.6c-0.7-0.7-1.4-1.7-2-3h2.3c0.6,1.1,1.4,1.9,2.4,2.4c1,0.5,2.2,0.8,3.7,0.8
			c1.4,0,2.7-0.3,3.7-0.8c1-0.5,1.7-1.2,2.1-2c0.4-0.8,0.6-2.1,0.6-3.9v-0.8c-0.8,1-1.8,1.8-2.9,2.3c-1.2,0.5-2.4,0.8-3.7,0.8
			c-1.5,0-2.9-0.4-4.3-1.1c-1.3-0.8-2.4-1.8-3.1-3c-0.7-1.3-1.1-2.7-1.1-4.2c0-1.5,0.4-2.9,1.1-4.3c0.8-1.3,1.8-2.4,3.1-3.1
			c1.3-0.8,2.7-1.1,4.2-1.1c1.2,0,2.4,0.3,3.4,0.8c1.1,0.5,2.1,1.3,3.1,2.5V215.8z M126,217.4c-1.2,0-2.3,0.3-3.3,0.9
			c-1,0.6-1.8,1.4-2.4,2.4c-0.6,1-0.9,2.1-0.9,3.3c0,1.8,0.6,3.3,1.8,4.5c1.2,1.2,2.8,1.8,4.7,1.8c1.9,0,3.5-0.6,4.7-1.8
			c1.2-1.2,1.8-2.7,1.8-4.6c0-1.2-0.3-2.3-0.8-3.3c-0.5-1-1.3-1.7-2.3-2.3S127.1,217.4,126,217.4z"/>
		<path class="st1" d="M138.1,215.8h2.2v2.4c0.6-0.9,1.3-1.7,2-2.1c0.7-0.5,1.5-0.7,2.2-0.7c0.6,0,1.2,0.2,1.9,0.6l-1.1,1.8
			c-0.4-0.2-0.8-0.3-1.1-0.3c-0.7,0-1.4,0.3-2,0.9c-0.7,0.6-1.2,1.5-1.5,2.7c-0.3,0.9-0.4,2.8-0.4,5.7v5.6h-2.2V215.8z"/>
		<path class="st1" d="M161.9,226.8l1.8,0.9c-0.6,1.1-1.3,2.1-2,2.8c-0.8,0.7-1.6,1.2-2.6,1.6c-1,0.4-2,0.6-3.3,0.6
			c-2.7,0-4.8-0.9-6.3-2.6c-1.5-1.8-2.3-3.8-2.3-6c0-2.1,0.6-3.9,1.9-5.6c1.6-2.1,3.8-3.1,6.5-3.1c2.8,0,5,1.1,6.7,3.2
			c1.2,1.5,1.8,3.4,1.8,5.6h-14.8c0,1.9,0.7,3.5,1.8,4.7c1.2,1.2,2.6,1.8,4.4,1.8c0.8,0,1.7-0.1,2.4-0.4c0.8-0.3,1.5-0.7,2-1.2
			C160.7,228.6,161.3,227.8,161.9,226.8z M161.9,222.3c-0.3-1.1-0.7-2-1.2-2.7c-0.5-0.7-1.3-1.2-2.1-1.6c-0.9-0.4-1.8-0.6-2.8-0.6
			c-1.6,0-3,0.5-4.2,1.6c-0.8,0.8-1.5,1.9-1.9,3.4H161.9z"/>
		<path class="st1" d="M176.5,217.6l-1.4,1.4c-1.1-1.1-2.2-1.6-3.3-1.6c-0.7,0-1.3,0.2-1.8,0.7c-0.5,0.5-0.7,1-0.7,1.6
			c0,0.5,0.2,1,0.6,1.5c0.4,0.5,1.3,1.1,2.5,1.7c1.6,0.8,2.6,1.6,3.2,2.4c0.6,0.8,0.8,1.6,0.8,2.6c0,1.4-0.5,2.5-1.4,3.4
			c-0.9,0.9-2.1,1.4-3.6,1.4c-0.9,0-1.9-0.2-2.7-0.6c-0.9-0.4-1.6-1-2.1-1.7l1.3-1.5c1.1,1.2,2.2,1.8,3.4,1.8c0.9,0,1.6-0.3,2.2-0.8
			c0.6-0.5,0.9-1.2,0.9-1.9c0-0.6-0.2-1.1-0.6-1.6c-0.4-0.5-1.3-1-2.7-1.8c-1.5-0.8-2.5-1.5-3-2.3c-0.5-0.7-0.8-1.6-0.8-2.6
			c0-1.3,0.4-2.3,1.3-3.1c0.9-0.8,1.9-1.2,3.2-1.2C173.4,215.3,174.9,216.1,176.5,217.6z"/>
		<path class="st1" d="M188,215.3c2.5,0,4.6,0.9,6.3,2.8c1.5,1.7,2.3,3.7,2.3,5.9c0,2.3-0.8,4.3-2.4,6c-1.6,1.7-3.7,2.6-6.2,2.6
			c-2.5,0-4.6-0.9-6.2-2.6c-1.6-1.7-2.4-3.7-2.4-6c0-2.3,0.8-4.3,2.3-5.9C183.4,216.3,185.5,215.3,188,215.3z M188,217.4
			c-1.8,0-3.3,0.7-4.5,2c-1.3,1.3-1.9,2.9-1.9,4.7c0,1.2,0.3,2.3,0.9,3.3c0.6,1,1.4,1.8,2.3,2.4c1,0.6,2.1,0.8,3.2,0.8
			s2.3-0.3,3.2-0.8c1-0.6,1.8-1.4,2.3-2.4c0.6-1,0.9-2.1,0.9-3.3c0-1.8-0.6-3.4-1.9-4.7C191.3,218.1,189.8,217.4,188,217.4z"/>
		<path class="st1" d="M208.8,217.6l-1.4,1.4c-1.1-1.1-2.2-1.6-3.3-1.6c-0.7,0-1.3,0.2-1.8,0.7c-0.5,0.5-0.7,1-0.7,1.6
			c0,0.5,0.2,1,0.6,1.5c0.4,0.5,1.3,1.1,2.5,1.7c1.6,0.8,2.6,1.6,3.2,2.4c0.6,0.8,0.8,1.6,0.8,2.6c0,1.4-0.5,2.5-1.4,3.4
			c-0.9,0.9-2.1,1.4-3.6,1.4c-0.9,0-1.9-0.2-2.7-0.6c-0.9-0.4-1.6-1-2.1-1.7l1.3-1.5c1.1,1.2,2.2,1.8,3.4,1.8c0.9,0,1.6-0.3,2.2-0.8
			c0.6-0.5,0.9-1.2,0.9-1.9c0-0.6-0.2-1.1-0.6-1.6c-0.4-0.5-1.3-1-2.7-1.8c-1.5-0.8-2.5-1.5-3-2.3c-0.5-0.7-0.8-1.6-0.8-2.6
			c0-1.3,0.4-2.3,1.3-3.1c0.9-0.8,1.9-1.2,3.2-1.2C205.7,215.3,207.3,216.1,208.8,217.6z"/>
		<path class="st1" d="M40.3,249.1H42v2.3c0.6-0.9,1.2-1.5,1.8-1.9c0.9-0.5,1.8-0.8,2.7-0.8c0.6,0,1.3,0.1,1.8,0.4
			c0.6,0.3,1.1,0.6,1.4,1c0.4,0.4,0.7,1,1,1.8c0.6-1,1.3-1.8,2.1-2.4c0.9-0.5,1.8-0.8,2.8-0.8c0.9,0,1.7,0.2,2.4,0.7
			c0.7,0.5,1.2,1.1,1.6,2c0.3,0.8,0.5,2.1,0.5,3.8v7.3h-1.8v-7.3c0-1.4-0.1-2.4-0.3-3s-0.6-1-1-1.3c-0.5-0.3-1.1-0.5-1.8-0.5
			c-0.8,0-1.6,0.2-2.3,0.7c-0.7,0.5-1.2,1.1-1.5,2c-0.3,0.8-0.5,2.2-0.5,4.1v5.2h-1.7v-6.8c0-1.6-0.1-2.7-0.3-3.3
			c-0.2-0.6-0.6-1-1-1.4c-0.5-0.3-1.1-0.5-1.8-0.5c-0.8,0-1.5,0.2-2.2,0.7c-0.7,0.5-1.2,1.1-1.5,1.9c-0.3,0.8-0.5,2.1-0.5,3.7v5.7
			h-1.7V249.1z"/>
		<path class="st1" d="M65.4,242.8H68l-3.6,3.8h-1.7L65.4,242.8z M63.6,249.1h1.7v13.4h-1.7V249.1z"/>
		<path class="st1" d="M68.9,249.1h1.7v2.4c0.7-0.9,1.4-1.6,2.3-2.1c0.8-0.5,1.7-0.7,2.7-0.7c1,0,1.9,0.3,2.7,0.8
			c0.8,0.5,1.3,1.2,1.7,2.1c0.4,0.9,0.6,2.2,0.6,4v6.9h-1.7v-6.4c0-1.5-0.1-2.6-0.2-3.1c-0.2-0.9-0.6-1.6-1.1-2
			c-0.6-0.4-1.3-0.7-2.2-0.7c-1,0-2,0.3-2.8,1c-0.8,0.7-1.4,1.5-1.6,2.6c-0.2,0.7-0.2,1.9-0.2,3.6v4.9h-1.7V249.1z"/>
		<path class="st1" d="M84.9,243.6c0.4,0,0.7,0.1,1,0.4c0.3,0.3,0.4,0.6,0.4,1c0,0.4-0.1,0.7-0.4,1c-0.3,0.3-0.6,0.4-1,0.4
			c-0.4,0-0.7-0.1-1-0.4c-0.3-0.3-0.4-0.6-0.4-1c0-0.4,0.1-0.7,0.4-1C84.2,243.7,84.5,243.6,84.9,243.6z M84,249.1h1.7v13.4H84
			V249.1z"/>
		<path class="st1" d="M89.3,249.1H91v2.3c0.6-0.9,1.2-1.5,1.8-1.9c0.9-0.5,1.8-0.8,2.7-0.8c0.6,0,1.3,0.1,1.8,0.4
			c0.6,0.3,1.1,0.6,1.4,1c0.4,0.4,0.7,1,1,1.8c0.6-1,1.3-1.8,2.1-2.4c0.9-0.5,1.8-0.8,2.8-0.8c0.9,0,1.7,0.2,2.4,0.7s1.2,1.1,1.6,2
			c0.3,0.8,0.5,2.1,0.5,3.8v7.3h-1.8v-7.3c0-1.4-0.1-2.4-0.3-3c-0.2-0.5-0.6-1-1-1.3c-0.5-0.3-1.1-0.5-1.8-0.5
			c-0.8,0-1.6,0.2-2.3,0.7c-0.7,0.5-1.2,1.1-1.5,2c-0.3,0.8-0.5,2.2-0.5,4.1v5.2h-1.7v-6.8c0-1.6-0.1-2.7-0.3-3.3
			c-0.2-0.6-0.6-1-1.1-1.4c-0.5-0.3-1.1-0.5-1.8-0.5c-0.8,0-1.5,0.2-2.2,0.7c-0.7,0.5-1.2,1.1-1.5,1.9c-0.3,0.8-0.5,2.1-0.5,3.7v5.7
			h-1.7V249.1z"/>
		<path class="st1" d="M119.3,248.7c2.1,0,3.8,0.7,5.1,2.2c1.2,1.4,1.8,3,1.8,4.8c0,1.9-0.7,3.5-2,4.9c-1.3,1.4-3,2.1-5,2.1
			c-2.1,0-3.7-0.7-5-2.1c-1.3-1.4-2-3-2-4.9c0-1.9,0.6-3.5,1.8-4.8C115.5,249.5,117.2,248.7,119.3,248.7z M119.3,250.4
			c-1.4,0-2.7,0.5-3.7,1.6c-1,1.1-1.5,2.3-1.5,3.8c0,1,0.2,1.9,0.7,2.7c0.5,0.8,1.1,1.5,1.9,1.9c0.8,0.5,1.7,0.7,2.6,0.7
			c1,0,1.8-0.2,2.6-0.7c0.8-0.5,1.4-1.1,1.9-1.9c0.5-0.8,0.7-1.7,0.7-2.7c0-1.5-0.5-2.8-1.5-3.8
			C121.9,250.9,120.7,250.4,119.3,250.4z"/>
		<path class="st1" d="M136.2,250.5l-1.1,1.1c-0.9-0.9-1.8-1.3-2.7-1.3c-0.6,0-1,0.2-1.4,0.6c-0.4,0.4-0.6,0.8-0.6,1.3
			c0,0.4,0.2,0.8,0.5,1.2c0.3,0.4,1,0.9,2.1,1.4c1.3,0.7,2.2,1.3,2.6,1.9c0.5,0.6,0.7,1.3,0.7,2.1c0,1.1-0.4,2-1.2,2.8
			c-0.8,0.8-1.7,1.1-2.9,1.1c-0.8,0-1.5-0.2-2.2-0.5c-0.7-0.3-1.3-0.8-1.7-1.4l1.1-1.2c0.9,1,1.8,1.5,2.8,1.5c0.7,0,1.3-0.2,1.8-0.7
			c0.5-0.4,0.7-1,0.7-1.6c0-0.5-0.2-0.9-0.5-1.3c-0.3-0.4-1-0.9-2.2-1.4c-1.2-0.6-2-1.2-2.5-1.8c-0.4-0.6-0.7-1.3-0.7-2.1
			c0-1,0.3-1.9,1-2.5c0.7-0.7,1.6-1,2.6-1C133.7,248.7,134.9,249.3,136.2,250.5z"/>
		<path class="st1" d="M159.5,243.9v18.5h-1.7v-2.3c-0.7,0.9-1.5,1.5-2.4,2c-0.9,0.4-1.9,0.7-2.9,0.7c-1.9,0-3.5-0.7-4.8-2.1
			c-1.3-1.4-2-3-2-5c0-1.9,0.7-3.6,2-4.9c1.4-1.4,3-2.1,4.9-2.1c1.1,0,2.1,0.2,3,0.7c0.9,0.5,1.7,1.2,2.3,2.1v-7.6H159.5z
			 M152.7,250.4c-1,0-1.8,0.2-2.7,0.7c-0.8,0.5-1.5,1.1-1.9,2c-0.5,0.9-0.7,1.8-0.7,2.7c0,0.9,0.2,1.8,0.7,2.7
			c0.5,0.9,1.1,1.5,1.9,2c0.8,0.5,1.7,0.7,2.6,0.7c0.9,0,1.8-0.2,2.7-0.7c0.8-0.5,1.5-1.1,1.9-1.9c0.5-0.8,0.7-1.7,0.7-2.7
			c0-1.5-0.5-2.8-1.5-3.9C155.4,250.9,154.1,250.4,152.7,250.4z"/>
		<path class="st1" d="M174.7,258l1.5,0.8c-0.5,0.9-1,1.7-1.6,2.3c-0.6,0.6-1.3,1-2.1,1.3c-0.8,0.3-1.7,0.4-2.6,0.4
			c-2.2,0-3.9-0.7-5.1-2.1c-1.2-1.4-1.8-3-1.8-4.8c0-1.7,0.5-3.2,1.6-4.5c1.3-1.7,3.1-2.5,5.3-2.5c2.3,0,4.1,0.9,5.5,2.6
			c1,1.2,1.5,2.7,1.5,4.6h-12c0,1.6,0.5,2.8,1.5,3.8c1,1,2.1,1.5,3.6,1.5c0.7,0,1.3-0.1,2-0.4s1.2-0.6,1.6-0.9
			C173.7,259.5,174.2,258.9,174.7,258z M174.7,254.4c-0.2-0.9-0.6-1.7-1-2.2c-0.4-0.6-1-1-1.7-1.3c-0.7-0.3-1.5-0.5-2.3-0.5
			c-1.3,0-2.4,0.4-3.4,1.3c-0.7,0.6-1.2,1.5-1.6,2.8H174.7z"/>
		<path class="st1" d="M191.4,243.1h1.6v1.3c0.8,0.1,1.5,0.4,2.1,0.8c0.6,0.4,1.1,0.9,1.6,1.7l-1.3,1.1c-0.6-1-1.4-1.6-2.4-1.8v6.1
			c2.1,1.1,3.5,2.1,4,2.8c0.7,0.9,1,1.9,1,3c0,0.9-0.2,1.7-0.7,2.5c-0.5,0.8-1.2,1.3-2,1.8c-0.5,0.3-1.3,0.5-2.3,0.6v3.8h-1.6v-3.8
			c-1-0.1-1.8-0.2-2.4-0.5c-0.6-0.2-1.2-0.6-1.8-1.1c-0.6-0.5-1.1-1-1.4-1.7l1.3-1c1.1,1.5,2.6,2.3,4.3,2.5v-7.6
			c-1.3-0.6-2.1-1.1-2.5-1.3c-0.7-0.5-1.2-1-1.6-1.6c-0.3-0.6-0.5-1.3-0.5-2c0-0.7,0.2-1.4,0.6-2.1c0.4-0.6,0.9-1.1,1.5-1.5
			c0.6-0.4,1.5-0.6,2.4-0.7V243.1z M191.4,246.1c-0.6,0-1.1,0.2-1.5,0.4c-0.4,0.2-0.7,0.5-0.9,0.9c-0.2,0.4-0.3,0.8-0.3,1.3
			c0,0.6,0.2,1.1,0.5,1.5c0.5,0.6,1.2,1.1,2.2,1.5V246.1z M193,261.1c1-0.1,1.8-0.5,2.4-1.1c0.6-0.6,0.9-1.2,0.9-2
			c0-0.7-0.2-1.4-0.7-2c-0.5-0.6-1.3-1.2-2.6-1.9V261.1z"/>
		<path class="st1" d="M203.5,244.4h3.6v18.1h-1.8v-16.3h-2.8L203.5,244.4z"/>
		<path class="st1" d="M216.4,259.1l1.7,0.8l-2.5,4.6l-1.2-0.5L216.4,259.1z"/>
		<path class="st1" d="M220.5,253.4c0-2.4,0.3-4.2,0.8-5.5c0.5-1.3,1.2-2.3,2.2-3c0.9-0.7,2-1,3.1-1c1.2,0,2.2,0.3,3.2,1
			c1,0.7,1.7,1.7,2.3,3c0.6,1.4,0.8,3.2,0.8,5.4c0,2.3-0.3,4.1-0.8,5.4c-0.5,1.3-1.3,2.4-2.3,3c-1,0.7-2,1-3.2,1
			c-1.2,0-2.2-0.3-3.1-1c-0.9-0.7-1.6-1.7-2.2-3C220.8,257.6,220.5,255.8,220.5,253.4z M222.2,253.4c0,2,0.2,3.6,0.5,4.6
			c0.4,1,0.9,1.8,1.6,2.4c0.7,0.5,1.5,0.8,2.3,0.8c0.8,0,1.6-0.3,2.3-0.8c0.7-0.5,1.2-1.3,1.6-2.4c0.5-1.3,0.7-2.8,0.7-4.7
			c0-1.8-0.2-3.3-0.6-4.5c-0.4-1.2-1-2-1.7-2.5c-0.7-0.5-1.5-0.8-2.2-0.8c-0.8,0-1.6,0.3-2.3,0.8s-1.2,1.3-1.6,2.4
			C222.4,249.8,222.2,251.4,222.2,253.4z"/>
		<path class="st1" d="M234.5,253.4c0-2.4,0.3-4.2,0.8-5.5c0.5-1.3,1.2-2.3,2.2-3c0.9-0.7,2-1,3.1-1c1.2,0,2.2,0.3,3.2,1
			c1,0.7,1.7,1.7,2.3,3c0.6,1.4,0.8,3.2,0.8,5.4c0,2.3-0.3,4.1-0.8,5.4c-0.5,1.3-1.3,2.4-2.3,3c-1,0.7-2,1-3.2,1
			c-1.2,0-2.2-0.3-3.1-1c-0.9-0.7-1.6-1.7-2.2-3C234.7,257.6,234.5,255.8,234.5,253.4z M236.2,253.4c0,2,0.2,3.6,0.5,4.6
			c0.4,1,0.9,1.8,1.6,2.4c0.7,0.5,1.5,0.8,2.3,0.8c0.8,0,1.6-0.3,2.2-0.8c0.7-0.5,1.2-1.3,1.6-2.4c0.5-1.3,0.7-2.8,0.7-4.7
			c0-1.8-0.2-3.3-0.6-4.5c-0.4-1.2-1-2-1.7-2.5c-0.7-0.5-1.5-0.8-2.2-0.8c-0.8,0-1.6,0.3-2.3,0.8c-0.7,0.5-1.2,1.3-1.6,2.4
			C236.4,249.8,236.2,251.4,236.2,253.4z"/>
		<path class="st1" d="M248.4,253.4c0-2.4,0.3-4.2,0.8-5.5c0.5-1.3,1.2-2.3,2.2-3c0.9-0.7,2-1,3.1-1c1.2,0,2.2,0.3,3.2,1
			c1,0.7,1.7,1.7,2.3,3c0.6,1.4,0.8,3.2,0.8,5.4c0,2.3-0.3,4.1-0.8,5.4c-0.5,1.3-1.3,2.4-2.3,3c-1,0.7-2,1-3.2,1
			c-1.2,0-2.2-0.3-3.1-1c-0.9-0.7-1.6-1.7-2.2-3C248.7,257.6,248.4,255.8,248.4,253.4z M250.1,253.4c0,2,0.2,3.6,0.5,4.6
			c0.4,1,0.9,1.8,1.6,2.4c0.7,0.5,1.5,0.8,2.3,0.8c0.8,0,1.6-0.3,2.2-0.8c0.7-0.5,1.2-1.3,1.6-2.4c0.5-1.3,0.7-2.8,0.7-4.7
			c0-1.8-0.2-3.3-0.6-4.5c-0.4-1.2-1-2-1.7-2.5s-1.5-0.8-2.2-0.8c-0.8,0-1.6,0.3-2.3,0.8s-1.2,1.3-1.6,2.4
			C250.3,249.8,250.1,251.4,250.1,253.4z"/>
		<path class="st1" d="M87.9,280.7l-1.1,1.1c-0.9-0.9-1.8-1.3-2.7-1.3c-0.6,0-1,0.2-1.4,0.6c-0.4,0.4-0.6,0.8-0.6,1.3
			c0,0.4,0.2,0.8,0.5,1.2c0.3,0.4,1,0.9,2.1,1.4c1.3,0.7,2.2,1.3,2.6,1.9c0.5,0.6,0.7,1.3,0.7,2.1c0,1.1-0.4,2-1.2,2.8
			c-0.8,0.8-1.7,1.1-2.9,1.1c-0.8,0-1.5-0.2-2.2-0.5c-0.7-0.3-1.3-0.8-1.7-1.4l1.1-1.2c0.9,1,1.8,1.5,2.8,1.5c0.7,0,1.3-0.2,1.8-0.7
			s0.7-1,0.7-1.6c0-0.5-0.2-0.9-0.5-1.3c-0.3-0.4-1-0.9-2.2-1.4c-1.2-0.6-2-1.2-2.5-1.8c-0.4-0.6-0.7-1.3-0.7-2.1c0-1,0.3-1.9,1-2.5
			c0.7-0.7,1.6-1,2.6-1C85.4,278.9,86.7,279.5,87.9,280.7z"/>
		<path class="st1" d="M102.2,288.2l1.5,0.8c-0.5,0.9-1,1.7-1.6,2.3c-0.6,0.6-1.3,1-2.1,1.3c-0.8,0.3-1.7,0.4-2.6,0.4
			c-2.2,0-3.9-0.7-5.1-2.1c-1.2-1.4-1.8-3-1.8-4.9c0-1.7,0.5-3.2,1.6-4.5c1.3-1.7,3.1-2.5,5.3-2.5c2.3,0,4.1,0.9,5.5,2.6
			c1,1.2,1.5,2.7,1.5,4.6h-12c0,1.6,0.5,2.8,1.5,3.8c1,1,2.1,1.5,3.6,1.5c0.7,0,1.3-0.1,2-0.4c0.6-0.2,1.2-0.6,1.6-0.9
			C101.2,289.7,101.7,289.1,102.2,288.2z M102.2,284.6c-0.2-0.9-0.6-1.7-1-2.2c-0.4-0.5-1-1-1.7-1.3c-0.7-0.3-1.5-0.5-2.3-0.5
			c-1.3,0-2.4,0.4-3.4,1.3c-0.7,0.6-1.2,1.5-1.6,2.8H102.2z"/>
		<path class="st1" d="M107.3,279.3h1.7v2.3c0.6-0.9,1.2-1.5,1.8-1.9c0.9-0.5,1.8-0.8,2.7-0.8c0.6,0,1.3,0.1,1.8,0.4
			c0.6,0.3,1.1,0.6,1.4,1c0.4,0.4,0.7,1,1,1.8c0.6-1,1.3-1.8,2.1-2.4c0.9-0.5,1.8-0.8,2.8-0.8c0.9,0,1.7,0.2,2.4,0.7
			c0.7,0.5,1.2,1.1,1.6,2c0.3,0.8,0.5,2.1,0.5,3.8v7.3h-1.8v-7.3c0-1.4-0.1-2.4-0.3-3c-0.2-0.5-0.6-1-1-1.3
			c-0.5-0.3-1.1-0.5-1.8-0.5c-0.8,0-1.6,0.2-2.3,0.7c-0.7,0.5-1.2,1.1-1.5,2c-0.3,0.8-0.5,2.2-0.5,4.1v5.2h-1.7v-6.8
			c0-1.6-0.1-2.7-0.3-3.3c-0.2-0.6-0.6-1-1.1-1.4c-0.5-0.3-1.1-0.5-1.8-0.5c-0.8,0-1.5,0.2-2.2,0.7c-0.7,0.5-1.2,1.1-1.5,1.9
			c-0.3,0.8-0.5,2.1-0.5,3.7v5.7h-1.7V279.3z"/>
		<path class="st1" d="M144.3,279.3v13.4h-1.7v-2.3c-0.7,0.9-1.5,1.5-2.4,2s-1.9,0.7-2.9,0.7c-1.9,0-3.5-0.7-4.8-2.1
			c-1.3-1.4-2-3-2-5c0-1.9,0.7-3.6,2-4.9c1.4-1.4,3-2.1,4.9-2.1c1.1,0,2.1,0.2,3,0.7c0.9,0.5,1.7,1.2,2.3,2.1v-2.5H144.3z
			 M137.4,280.6c-1,0-1.8,0.2-2.7,0.7c-0.8,0.5-1.5,1.1-1.9,2c-0.5,0.9-0.7,1.8-0.7,2.7c0,0.9,0.2,1.8,0.7,2.7
			c0.5,0.9,1.1,1.5,1.9,2c0.8,0.5,1.7,0.7,2.6,0.7c0.9,0,1.8-0.2,2.7-0.7c0.8-0.5,1.5-1.1,1.9-1.9c0.5-0.8,0.7-1.7,0.7-2.7
			c0-1.5-0.5-2.8-1.5-3.9C140.1,281.1,138.9,280.6,137.4,280.6z"/>
		<path class="st1" d="M148.2,279.3h1.7v2.4c0.7-0.9,1.5-1.6,2.3-2.1c0.8-0.5,1.7-0.7,2.7-0.7c1,0,1.9,0.3,2.7,0.8
			c0.8,0.5,1.3,1.2,1.7,2.1c0.4,0.9,0.6,2.2,0.6,4v6.9h-1.7v-6.4c0-1.5-0.1-2.6-0.2-3.1c-0.2-0.9-0.6-1.6-1.1-2
			c-0.6-0.4-1.3-0.7-2.2-0.7c-1,0-2,0.3-2.8,1c-0.8,0.7-1.4,1.5-1.6,2.6c-0.2,0.7-0.2,1.9-0.2,3.6v4.9h-1.7V279.3z"/>
		<path class="st1" d="M176.8,279.3v13.4h-1.7v-2.3c-0.7,0.9-1.5,1.5-2.4,2s-1.9,0.7-2.9,0.7c-1.9,0-3.5-0.7-4.8-2.1
			c-1.3-1.4-2-3-2-5c0-1.9,0.7-3.6,2-4.9c1.4-1.4,3-2.1,4.9-2.1c1.1,0,2.1,0.2,3,0.7c0.9,0.5,1.7,1.2,2.3,2.1v-2.5H176.8z
			 M170,280.6c-1,0-1.8,0.2-2.7,0.7c-0.8,0.5-1.5,1.1-1.9,2c-0.5,0.9-0.7,1.8-0.7,2.7c0,0.9,0.2,1.8,0.7,2.7c0.5,0.9,1.1,1.5,1.9,2
			c0.8,0.5,1.7,0.7,2.6,0.7c0.9,0,1.8-0.2,2.7-0.7c0.8-0.5,1.5-1.1,1.9-1.9c0.5-0.8,0.7-1.7,0.7-2.7c0-1.5-0.5-2.8-1.5-3.9
			C172.7,281.1,171.4,280.6,170,280.6z"/>
		<path class="st1" d="M180.4,274.1h1.7v18.5h-1.7V274.1z"/>
		<path class="st1" d="M197,288.2l1.5,0.8c-0.5,0.9-1,1.7-1.6,2.3c-0.6,0.6-1.3,1-2.1,1.3c-0.8,0.3-1.7,0.4-2.6,0.4
			c-2.2,0-3.9-0.7-5.1-2.1c-1.2-1.4-1.8-3-1.8-4.9c0-1.7,0.5-3.2,1.6-4.5c1.3-1.7,3.1-2.5,5.3-2.5c2.3,0,4.1,0.9,5.5,2.6
			c1,1.2,1.5,2.7,1.5,4.6h-12c0,1.6,0.5,2.8,1.5,3.8c1,1,2.1,1.5,3.6,1.5c0.7,0,1.3-0.1,2-0.4c0.6-0.2,1.2-0.6,1.6-0.9
			C196,289.7,196.5,289.1,197,288.2z M197,284.6c-0.2-0.9-0.6-1.7-1-2.2c-0.4-0.5-1-1-1.7-1.3c-0.7-0.3-1.5-0.5-2.3-0.5
			c-1.3,0-2.4,0.4-3.4,1.3c-0.7,0.6-1.2,1.5-1.6,2.8H197z"/>
		<path class="st1" d="M208.8,280.7l-1.1,1.1c-0.9-0.9-1.8-1.3-2.7-1.3c-0.6,0-1,0.2-1.4,0.6c-0.4,0.4-0.6,0.8-0.6,1.3
			c0,0.4,0.2,0.8,0.5,1.2c0.3,0.4,1,0.9,2.1,1.4c1.3,0.7,2.2,1.3,2.6,1.9c0.5,0.6,0.7,1.3,0.7,2.1c0,1.1-0.4,2-1.2,2.8
			c-0.8,0.8-1.7,1.1-2.9,1.1c-0.8,0-1.5-0.2-2.2-0.5c-0.7-0.3-1.3-0.8-1.7-1.4l1.1-1.2c0.9,1,1.8,1.5,2.8,1.5c0.7,0,1.3-0.2,1.8-0.7
			c0.5-0.4,0.7-1,0.7-1.6c0-0.5-0.2-0.9-0.5-1.3c-0.3-0.4-1-0.9-2.2-1.4c-1.2-0.6-2-1.2-2.5-1.8c-0.4-0.6-0.7-1.3-0.7-2.1
			c0-1,0.3-1.9,1-2.5c0.7-0.7,1.6-1,2.6-1C206.3,278.9,207.6,279.5,208.8,280.7z"/>
		<path class="st1" d="M214.5,274.1h1.6l-0.4,3.7l3-2.2l0.8,1.4l-3.4,1.5l3.4,1.5l-0.8,1.4l-3-2.1l0.4,3.7h-1.6l0.4-3.7l-3,2.1
			L211,280l3.5-1.5L211,277l0.8-1.4l3,2.2L214.5,274.1z"/>
	</g>
	<g>
		<path class="st0" d="M198.6,58.6h-97.3c-1.2,0-2.2,1-2.2,2.2v63.8c0,1.2,1,2.2,2.2,2.2h97.3c1.2,0,2.2-1,2.2-2.2V60.8
			C200.8,59.6,199.8,58.6,198.6,58.6z M195.6,105.7c-0.2,0-0.4-0.1-0.5-0.1c-8,0-14.4,6.5-14.4,14.4c0,0.4,0,0.8,0.1,1.2h-62
			c0-0.4,0.1-0.8,0.1-1.2c0-8-6.5-14.4-14.4-14.4c0,0-0.1,0-0.1,0V79.8c0,0,0.1,0,0.1,0c8,0,14.4-6.5,14.4-14.4c0-0.4,0-0.9-0.1-1.3
			h62c0,0.4-0.1,0.9-0.1,1.3c0,8,6.5,14.4,14.4,14.4c0.2,0,0.4,0,0.5-0.1V105.7z"/>
		<path class="st0" d="M150,69.3c-9.4,0-17,10.5-17,23.4c0,12.9,7.6,23.4,17,23.4c9.4,0,17-10.5,17-23.4
			C167,79.8,159.4,69.3,150,69.3z M160.5,103.4h-19.4v-3.7h7.6v-16c-2.5,2.2-4.9,3.7-6.9,4.6v-4.6c2.1-0.8,3.4-1.4,4-1.7
			c0.5-0.3,1.3-1,2.3-1.9s1.8-1.8,2.2-2.5h3v22.2h7.2V103.4z"/>
	</g>
</g>
</svg>
