<?xml version="1.0" encoding="utf-8"?>
<!-- Generator: Adobe Illustrator 27.1.1, SVG Export Plug-In . SVG Version: 6.00 Build 0)  -->
<svg version="1.1" id="Capa_1" xmlns="http://www.w3.org/2000/svg" xmlns:xlink="http://www.w3.org/1999/xlink" x="0px" y="0px"
	 viewBox="0 0 400 300" style="enable-background:new 0 0 400 300;" xml:space="preserve">
<style type="text/css">
	.st0{fill:#F7F7F8;}
</style>
<g>
	<g>
		<g>
			<path class="st0" d="M70.2,218.3l-1.1,0.8c-0.6-0.8-1.3-1.4-2.2-1.8c-0.8-0.4-1.8-0.6-2.8-0.6c-1.1,0-2.1,0.3-3.1,0.8
				c-0.9,0.5-1.7,1.2-2.2,2.1c-0.5,0.9-0.8,1.9-0.8,3c0,1.7,0.6,3.1,1.7,4.2c1.2,1.1,2.6,1.7,4.4,1.7c1.9,0,3.6-0.8,4.9-2.3l1.1,0.8
				c-0.7,0.9-1.6,1.6-2.6,2c-1,0.5-2.2,0.7-3.5,0.7c-2.4,0-4.3-0.8-5.7-2.4c-1.2-1.4-1.8-3-1.8-4.9c0-2,0.7-3.7,2.1-5.1
				c1.4-1.4,3.2-2.1,5.3-2.1c1.3,0,2.5,0.3,3.5,0.8C68.7,216.7,69.5,217.4,70.2,218.3z"/>
			<path class="st0" d="M77.3,219.1c1.6,0,2.9,0.6,3.9,1.7c0.9,1,1.4,2.3,1.4,3.7c0,1.4-0.5,2.7-1.5,3.8c-1,1.1-2.3,1.6-3.8,1.6
				c-1.6,0-2.9-0.5-3.9-1.6c-1-1.1-1.5-2.3-1.5-3.8c0-1.4,0.5-2.6,1.4-3.7C74.4,219.7,75.7,219.1,77.3,219.1z M77.3,220.4
				c-1.1,0-2,0.4-2.8,1.2c-0.8,0.8-1.2,1.8-1.2,2.9c0,0.7,0.2,1.4,0.5,2.1c0.4,0.6,0.8,1.1,1.5,1.5c0.6,0.3,1.3,0.5,2,0.5
				c0.7,0,1.4-0.2,2-0.5c0.6-0.3,1.1-0.8,1.5-1.5c0.4-0.6,0.5-1.3,0.5-2.1c0-1.1-0.4-2.1-1.2-2.9C79.3,220.8,78.4,220.4,77.3,220.4z
				"/>
			<path class="st0" d="M84.7,219.4H86v1.8c0.5-0.7,0.9-1.1,1.4-1.4c0.7-0.4,1.4-0.6,2.1-0.6c0.5,0,1,0.1,1.4,0.3
				c0.4,0.2,0.8,0.5,1.1,0.8c0.3,0.3,0.5,0.8,0.7,1.4c0.4-0.8,1-1.4,1.6-1.8c0.7-0.4,1.4-0.6,2.1-0.6c0.7,0,1.3,0.2,1.9,0.5
				c0.5,0.4,0.9,0.9,1.2,1.5c0.3,0.6,0.4,1.6,0.4,2.9v5.6h-1.3V224c0-1.1-0.1-1.9-0.2-2.3c-0.2-0.4-0.4-0.7-0.8-1
				c-0.4-0.3-0.8-0.4-1.4-0.4c-0.6,0-1.2,0.2-1.7,0.6c-0.5,0.4-0.9,0.9-1.2,1.5c-0.2,0.6-0.4,1.7-0.4,3.1v4h-1.3v-5.2
				c0-1.2-0.1-2.1-0.2-2.5c-0.2-0.4-0.4-0.8-0.8-1.1c-0.4-0.3-0.8-0.4-1.4-0.4c-0.6,0-1.2,0.2-1.7,0.6c-0.5,0.4-0.9,0.9-1.2,1.5
				c-0.3,0.6-0.4,1.6-0.4,2.9v4.3h-1.3V219.4z"/>
			<path class="st0" d="M102.5,219.4h1.3v1.9c0.5-0.7,1.1-1.3,1.8-1.6c0.7-0.4,1.4-0.5,2.3-0.5c1.5,0,2.7,0.5,3.7,1.6
				c1,1,1.6,2.3,1.6,3.8c0,1.5-0.5,2.8-1.5,3.8c-1,1.1-2.3,1.6-3.7,1.6c-0.8,0-1.6-0.2-2.2-0.5c-0.7-0.3-1.3-0.8-1.9-1.5v5.5h-1.3
				V219.4z M107.7,220.4c-1.1,0-2.1,0.4-2.9,1.2s-1.2,1.8-1.2,3c0,0.8,0.2,1.5,0.5,2.1c0.3,0.6,0.8,1.1,1.5,1.5s1.3,0.5,2.1,0.5
				c0.7,0,1.4-0.2,2-0.6s1.1-0.9,1.5-1.5c0.4-0.7,0.6-1.3,0.6-2.1c0-0.7-0.2-1.4-0.6-2.1c-0.4-0.7-0.9-1.2-1.5-1.5
				C109.2,220.5,108.5,220.4,107.7,220.4z"/>
			<path class="st0" d="M114.8,219.4h1.3v1.5c0.4-0.6,0.8-1,1.3-1.3c0.4-0.3,0.9-0.4,1.4-0.4c0.4,0,0.8,0.1,1.2,0.3l-0.7,1.1
				c-0.3-0.1-0.5-0.2-0.7-0.2c-0.4,0-0.9,0.2-1.3,0.5c-0.4,0.4-0.7,0.9-0.9,1.7c-0.2,0.6-0.2,1.8-0.2,3.5v3.5h-1.3V219.4z"/>
			<path class="st0" d="M125.5,219.1c1.6,0,2.9,0.6,3.9,1.7c0.9,1,1.4,2.3,1.4,3.7c0,1.4-0.5,2.7-1.5,3.8c-1,1.1-2.3,1.6-3.8,1.6
				c-1.6,0-2.9-0.5-3.9-1.6c-1-1.1-1.5-2.3-1.5-3.8c0-1.4,0.5-2.6,1.4-3.7C122.6,219.7,123.9,219.1,125.5,219.1z M125.5,220.4
				c-1.1,0-2,0.4-2.8,1.2c-0.8,0.8-1.2,1.8-1.2,2.9c0,0.7,0.2,1.4,0.5,2.1c0.4,0.6,0.8,1.1,1.5,1.5c0.6,0.3,1.3,0.5,2,0.5
				c0.7,0,1.4-0.2,2-0.5c0.6-0.3,1.1-0.8,1.5-1.5c0.4-0.6,0.5-1.3,0.5-2.1c0-1.1-0.4-2.1-1.2-2.9
				C127.5,220.8,126.6,220.4,125.5,220.4z"/>
			<path class="st0" d="M133,229.6v-14.2h1.3v5.7c0.6-0.7,1.2-1.2,1.9-1.5c0.7-0.3,1.4-0.5,2.2-0.5c1.4,0,2.7,0.5,3.7,1.6
				c1,1.1,1.5,2.3,1.5,3.8c0,1.5-0.5,2.7-1.6,3.8c-1,1-2.3,1.6-3.7,1.6c-0.8,0-1.6-0.2-2.3-0.5c-0.7-0.4-1.3-0.9-1.8-1.6v1.9H133z
				 M138.3,228.6c0.7,0,1.4-0.2,2-0.5c0.6-0.4,1.1-0.9,1.5-1.5c0.4-0.7,0.5-1.3,0.5-2.1s-0.2-1.4-0.6-2.1s-0.9-1.2-1.5-1.5
				c-0.6-0.4-1.3-0.6-2-0.6c-0.7,0-1.4,0.2-2.1,0.6c-0.6,0.4-1.1,0.9-1.5,1.5c-0.3,0.6-0.5,1.3-0.5,2.1c0,1.2,0.4,2.2,1.2,3
				C136.2,228.2,137.1,228.6,138.3,228.6z"/>
			<path class="st0" d="M155.9,219.4v10.2h-1.3v-1.8c-0.6,0.7-1.2,1.2-1.9,1.5c-0.7,0.3-1.4,0.5-2.3,0.5c-1.5,0-2.7-0.5-3.7-1.6
				c-1-1.1-1.5-2.3-1.5-3.8c0-1.5,0.5-2.7,1.6-3.8s2.3-1.6,3.7-1.6c0.8,0,1.6,0.2,2.3,0.5c0.7,0.4,1.3,0.9,1.8,1.6v-1.9H155.9z
				 M150.7,220.4c-0.7,0-1.4,0.2-2,0.5c-0.6,0.4-1.1,0.9-1.5,1.5c-0.4,0.7-0.6,1.3-0.6,2.1c0,0.7,0.2,1.4,0.6,2.1
				c0.4,0.7,0.9,1.2,1.5,1.5c0.6,0.4,1.3,0.6,2,0.6c0.7,0,1.4-0.2,2.1-0.5s1.1-0.9,1.5-1.5c0.3-0.6,0.5-1.3,0.5-2.1
				c0-1.2-0.4-2.2-1.2-3C152.8,220.8,151.8,220.4,150.7,220.4z"/>
			<path class="st0" d="M158.5,219.4h1.3v1.8c0.5-0.7,1.1-1.2,1.8-1.6c0.6-0.3,1.3-0.5,2.1-0.5c0.8,0,1.4,0.2,2,0.6s1,0.9,1.3,1.6
				s0.4,1.7,0.4,3.1v5.3h-1.3v-4.9c0-1.2,0-2-0.1-2.4c-0.2-0.7-0.4-1.2-0.9-1.5c-0.4-0.3-1-0.5-1.7-0.5c-0.8,0-1.5,0.3-2.1,0.8
				c-0.6,0.5-1,1.2-1.2,2c-0.1,0.5-0.2,1.4-0.2,2.8v3.8h-1.3V219.4z"/>
			<path class="st0" d="M171.1,215.5h1.3v3.8h2.1v1.1h-2.1v9.1h-1.3v-9.1h-1.8v-1.1h1.8V215.5z"/>
			<path class="st0" d="M184.8,226.2l1.1,0.6c-0.4,0.7-0.8,1.3-1.3,1.7c-0.5,0.4-1,0.8-1.6,1c-0.6,0.2-1.3,0.3-2,0.3
				c-1.7,0-3-0.5-3.9-1.6c-0.9-1.1-1.4-2.3-1.4-3.7c0-1.3,0.4-2.5,1.2-3.5c1-1.3,2.4-1.9,4.1-1.9c1.7,0,3.1,0.7,4.2,2
				c0.7,0.9,1.1,2.1,1.1,3.5H177c0,1.2,0.4,2.2,1.1,2.9c0.7,0.8,1.6,1.1,2.7,1.1c0.5,0,1-0.1,1.5-0.3c0.5-0.2,0.9-0.4,1.3-0.7
				C184,227.4,184.4,226.9,184.8,226.2z M184.8,223.4c-0.2-0.7-0.4-1.3-0.8-1.7c-0.3-0.4-0.8-0.8-1.3-1c-0.6-0.3-1.1-0.4-1.7-0.4
				c-1,0-1.9,0.3-2.6,1c-0.5,0.5-0.9,1.2-1.2,2.1H184.8z"/>
			<path class="st0" d="M203.6,215.4v14.2h-1.3v-1.8c-0.6,0.7-1.2,1.2-1.9,1.5c-0.7,0.3-1.4,0.5-2.3,0.5c-1.5,0-2.7-0.5-3.7-1.6
				c-1-1.1-1.5-2.3-1.5-3.8c0-1.5,0.5-2.7,1.6-3.8s2.3-1.6,3.7-1.6c0.8,0,1.6,0.2,2.3,0.5c0.7,0.4,1.3,0.9,1.8,1.6v-5.8H203.6z
				 M198.3,220.4c-0.7,0-1.4,0.2-2,0.5c-0.6,0.4-1.1,0.9-1.5,1.5c-0.4,0.7-0.6,1.3-0.6,2.1c0,0.7,0.2,1.4,0.6,2.1
				c0.4,0.7,0.9,1.2,1.5,1.5c0.6,0.4,1.3,0.6,2,0.6c0.7,0,1.4-0.2,2.1-0.5s1.1-0.9,1.5-1.5c0.3-0.6,0.5-1.3,0.5-2.1
				c0-1.2-0.4-2.2-1.2-3C200.4,220.8,199.4,220.4,198.3,220.4z"/>
			<path class="st0" d="M214.8,226.2l1.1,0.6c-0.4,0.7-0.8,1.3-1.3,1.7c-0.5,0.4-1,0.8-1.6,1c-0.6,0.2-1.3,0.3-2,0.3
				c-1.7,0-3-0.5-3.9-1.6c-0.9-1.1-1.4-2.3-1.4-3.7c0-1.3,0.4-2.5,1.2-3.5c1-1.3,2.4-1.9,4.1-1.9c1.7,0,3.1,0.7,4.2,2
				c0.7,0.9,1.1,2.1,1.1,3.5H207c0,1.2,0.4,2.2,1.1,2.9c0.7,0.8,1.6,1.1,2.7,1.1c0.5,0,1-0.1,1.5-0.3c0.5-0.2,0.9-0.4,1.3-0.7
				C214,227.4,214.4,226.9,214.8,226.2z M214.8,223.4c-0.2-0.7-0.4-1.3-0.8-1.7c-0.3-0.4-0.8-0.8-1.3-1c-0.6-0.3-1.1-0.4-1.7-0.4
				c-1,0-1.9,0.3-2.6,1c-0.5,0.5-0.9,1.2-1.2,2.1H214.8z"/>
			<path class="st0" d="M223.6,229.6v-13.9h2.9c2.1,0,3.6,0.2,4.5,0.5c1.3,0.5,2.4,1.3,3.1,2.4c0.8,1.2,1.1,2.5,1.1,4.2
				c0,1.4-0.3,2.6-0.9,3.7c-0.6,1.1-1.4,1.8-2.3,2.3c-1,0.5-2.3,0.8-4,0.8H223.6z M224.9,228.3h1.6c1.9,0,3.2-0.1,4-0.4
				c1-0.3,1.9-0.9,2.5-1.8c0.6-0.9,0.9-2,0.9-3.2c0-1.3-0.3-2.5-1-3.4c-0.6-0.9-1.5-1.6-2.7-1.9c-0.9-0.3-2.3-0.4-4.3-0.4h-1V228.3z
				"/>
			<path class="st0" d="M242.2,219.1c1.6,0,2.9,0.6,3.9,1.7c0.9,1,1.4,2.3,1.4,3.7c0,1.4-0.5,2.7-1.5,3.8c-1,1.1-2.3,1.6-3.8,1.6
				c-1.6,0-2.9-0.5-3.9-1.6c-1-1.1-1.5-2.3-1.5-3.8c0-1.4,0.5-2.6,1.4-3.7C239.3,219.7,240.6,219.1,242.2,219.1z M242.2,220.4
				c-1.1,0-2,0.4-2.8,1.2c-0.8,0.8-1.2,1.8-1.2,2.9c0,0.7,0.2,1.4,0.5,2.1c0.4,0.6,0.8,1.1,1.5,1.5c0.6,0.3,1.3,0.5,2,0.5
				c0.7,0,1.4-0.2,2-0.5c0.6-0.3,1.1-0.8,1.5-1.5c0.4-0.6,0.5-1.3,0.5-2.1c0-1.1-0.4-2.1-1.2-2.9
				C244.2,220.8,243.3,220.4,242.2,220.4z"/>
			<path class="st0" d="M249.6,219.4h1.3v1.8c0.5-0.7,0.9-1.1,1.4-1.4c0.7-0.4,1.4-0.6,2.1-0.6c0.5,0,1,0.1,1.4,0.3
				c0.4,0.2,0.8,0.5,1.1,0.8c0.3,0.3,0.5,0.8,0.7,1.4c0.4-0.8,1-1.4,1.6-1.8c0.7-0.4,1.4-0.6,2.1-0.6c0.7,0,1.3,0.2,1.9,0.5
				c0.5,0.4,0.9,0.9,1.2,1.5c0.3,0.6,0.4,1.6,0.4,2.9v5.6h-1.3V224c0-1.1-0.1-1.9-0.2-2.3c-0.2-0.4-0.4-0.7-0.8-1
				c-0.4-0.3-0.8-0.4-1.4-0.4c-0.6,0-1.2,0.2-1.7,0.6c-0.5,0.4-0.9,0.9-1.2,1.5c-0.2,0.6-0.4,1.7-0.4,3.1v4h-1.3v-5.2
				c0-1.2-0.1-2.1-0.2-2.5s-0.4-0.8-0.8-1.1c-0.4-0.3-0.8-0.4-1.4-0.4c-0.6,0-1.2,0.2-1.7,0.6c-0.5,0.4-0.9,0.9-1.2,1.5
				c-0.3,0.6-0.4,1.6-0.4,2.9v4.3h-1.3V219.4z"/>
			<path class="st0" d="M267.9,215.1c0.3,0,0.6,0.1,0.8,0.3c0.2,0.2,0.3,0.5,0.3,0.8c0,0.3-0.1,0.5-0.3,0.8
				c-0.2,0.2-0.5,0.3-0.8,0.3c-0.3,0-0.5-0.1-0.8-0.3c-0.2-0.2-0.3-0.5-0.3-0.8c0-0.3,0.1-0.6,0.3-0.8
				C267.3,215.2,267.6,215.1,267.9,215.1z M267.2,219.4h1.3v10.2h-1.3V219.4z"/>
			<path class="st0" d="M280.9,221.5l-1,0.6c-0.9-1.2-2.1-1.8-3.7-1.8c-1.2,0-2.3,0.4-3.1,1.2c-0.8,0.8-1.2,1.8-1.2,2.9
				c0,0.7,0.2,1.4,0.6,2.1c0.4,0.7,0.9,1.2,1.6,1.5c0.7,0.4,1.4,0.5,2.2,0.5c1.5,0,2.7-0.6,3.7-1.8l1,0.7c-0.5,0.7-1.1,1.3-2,1.7
				c-0.8,0.4-1.8,0.6-2.8,0.6c-1.6,0-3-0.5-4-1.5c-1.1-1-1.6-2.3-1.6-3.8c0-1,0.2-1.9,0.7-2.8c0.5-0.9,1.2-1.5,2.1-2
				s1.8-0.7,2.9-0.7c0.7,0,1.3,0.1,2,0.3c0.6,0.2,1.2,0.5,1.6,0.8C280.2,220.5,280.5,221,280.9,221.5z"/>
			<path class="st0" d="M283.5,215.1c0.3,0,0.6,0.1,0.8,0.3c0.2,0.2,0.3,0.5,0.3,0.8c0,0.3-0.1,0.5-0.3,0.8
				c-0.2,0.2-0.5,0.3-0.8,0.3c-0.3,0-0.5-0.1-0.8-0.3c-0.2-0.2-0.3-0.5-0.3-0.8c0-0.3,0.1-0.6,0.3-0.8
				C282.9,215.2,283.2,215.1,283.5,215.1z M282.8,219.4h1.3v10.2h-1.3V219.4z"/>
			<path class="st0" d="M286.4,215.4h1.3v14.2h-1.3V215.4z"/>
			<path class="st0" d="M290.5,215.1c0.3,0,0.6,0.1,0.8,0.3c0.2,0.2,0.3,0.5,0.3,0.8c0,0.3-0.1,0.5-0.3,0.8
				c-0.2,0.2-0.5,0.3-0.8,0.3c-0.3,0-0.5-0.1-0.8-0.3c-0.2-0.2-0.3-0.5-0.3-0.8c0-0.3,0.1-0.6,0.3-0.8
				C290,215.2,290.2,215.1,290.5,215.1z M289.9,219.4h1.3v10.2h-1.3V219.4z"/>
			<path class="st0" d="M298.4,219.1c1.6,0,2.9,0.6,3.9,1.7c0.9,1,1.4,2.3,1.4,3.7c0,1.4-0.5,2.7-1.5,3.8c-1,1.1-2.3,1.6-3.8,1.6
				c-1.6,0-2.9-0.5-3.9-1.6c-1-1.1-1.5-2.3-1.5-3.8c0-1.4,0.5-2.6,1.4-3.7C295.5,219.7,296.8,219.1,298.4,219.1z M298.4,220.4
				c-1.1,0-2,0.4-2.8,1.2c-0.8,0.8-1.2,1.8-1.2,2.9c0,0.7,0.2,1.4,0.5,2.1c0.4,0.6,0.8,1.1,1.5,1.5c0.6,0.3,1.3,0.5,2,0.5
				c0.7,0,1.4-0.2,2-0.5c0.6-0.3,1.1-0.8,1.5-1.5c0.4-0.6,0.5-1.3,0.5-2.1c0-1.1-0.4-2.1-1.2-2.9
				C300.5,220.8,299.5,220.4,298.4,220.4z"/>
			<path class="st0" d="M307.2,227.1l1.3,0.6l-1.9,3.6l-0.9-0.4L307.2,227.1z"/>
			<path class="st0" d="M326.1,215.4v14.2h-1.3v-1.8c-0.6,0.7-1.2,1.2-1.9,1.5c-0.7,0.3-1.4,0.5-2.3,0.5c-1.5,0-2.7-0.5-3.7-1.6
				c-1-1.1-1.5-2.3-1.5-3.8c0-1.5,0.5-2.7,1.6-3.8c1-1,2.3-1.6,3.7-1.6c0.8,0,1.6,0.2,2.3,0.5c0.7,0.4,1.3,0.9,1.8,1.6v-5.8H326.1z
				 M320.8,220.4c-0.7,0-1.4,0.2-2,0.5c-0.6,0.4-1.1,0.9-1.5,1.5c-0.4,0.7-0.6,1.3-0.6,2.1c0,0.7,0.2,1.4,0.6,2.1
				c0.4,0.7,0.9,1.2,1.5,1.5s1.3,0.6,2,0.6c0.7,0,1.4-0.2,2-0.5s1.1-0.9,1.5-1.5c0.3-0.6,0.5-1.3,0.5-2.1c0-1.2-0.4-2.2-1.2-3
				C322.9,220.8,321.9,220.4,320.8,220.4z"/>
			<path class="st0" d="M337.3,226.2l1.1,0.6c-0.4,0.7-0.8,1.3-1.3,1.7c-0.5,0.4-1,0.8-1.6,1c-0.6,0.2-1.3,0.3-2,0.3
				c-1.7,0-3-0.5-3.9-1.6c-0.9-1.1-1.4-2.3-1.4-3.7c0-1.3,0.4-2.5,1.2-3.5c1-1.3,2.4-1.9,4.1-1.9c1.7,0,3.1,0.7,4.2,2
				c0.7,0.9,1.1,2.1,1.1,3.5h-9.2c0,1.2,0.4,2.2,1.1,2.9c0.7,0.8,1.6,1.1,2.7,1.1c0.5,0,1-0.1,1.5-0.3c0.5-0.2,0.9-0.4,1.3-0.7
				C336.6,227.4,336.9,226.9,337.3,226.2z M337.3,223.4c-0.2-0.7-0.4-1.3-0.8-1.7c-0.3-0.4-0.8-0.8-1.3-1c-0.6-0.3-1.1-0.4-1.7-0.4
				c-1,0-1.9,0.3-2.6,1c-0.5,0.5-0.9,1.2-1.2,2.1H337.3z"/>
			<path class="st0" d="M69.6,247.9H71v13.9h-1.4V247.9z"/>
			<path class="st0" d="M73.6,251.5h1.3v1.8c0.5-0.7,1.1-1.2,1.8-1.6c0.6-0.3,1.3-0.5,2.1-0.5c0.8,0,1.4,0.2,2,0.6
				c0.6,0.4,1,0.9,1.3,1.6s0.4,1.7,0.4,3.1v5.3h-1.3v-4.9c0-1.2,0-2-0.1-2.4c-0.2-0.7-0.4-1.2-0.9-1.5c-0.4-0.3-1-0.5-1.7-0.5
				c-0.8,0-1.5,0.3-2.1,0.8c-0.6,0.5-1,1.2-1.2,2c-0.1,0.5-0.2,1.4-0.2,2.8v3.8h-1.3V251.5z"/>
			<path class="st0" d="M93.8,251.5h1.3v8.2c0,1.4-0.1,2.5-0.4,3.2c-0.3,0.9-0.9,1.7-1.8,2.2s-1.9,0.8-3.1,0.8
				c-0.9,0-1.7-0.1-2.4-0.4c-0.7-0.2-1.3-0.6-1.7-1c-0.4-0.4-0.8-1-1.2-1.8H86c0.4,0.7,0.9,1.2,1.5,1.5c0.6,0.3,1.4,0.5,2.3,0.5
				c0.9,0,1.7-0.2,2.3-0.5c0.6-0.3,1.1-0.8,1.3-1.3c0.3-0.5,0.4-1.3,0.4-2.5v-0.5c-0.5,0.6-1.1,1.1-1.8,1.4s-1.5,0.5-2.3,0.5
				c-0.9,0-1.8-0.2-2.7-0.7c-0.8-0.5-1.5-1.1-1.9-1.9c-0.5-0.8-0.7-1.7-0.7-2.6c0-0.9,0.2-1.8,0.7-2.7c0.5-0.8,1.1-1.5,2-1.9
				c0.8-0.5,1.7-0.7,2.6-0.7c0.8,0,1.5,0.2,2.1,0.5s1.3,0.8,1.9,1.6V251.5z M89.9,252.5c-0.7,0-1.4,0.2-2.1,0.5
				c-0.6,0.4-1.1,0.9-1.5,1.5s-0.5,1.3-0.5,2.1c0,1.1,0.4,2.1,1.1,2.8s1.7,1.1,2.9,1.1c1.2,0,2.2-0.4,2.9-1.1s1.1-1.7,1.1-2.9
				c0-0.8-0.2-1.5-0.5-2.1s-0.8-1.1-1.4-1.4C91.3,252.7,90.7,252.5,89.9,252.5z"/>
			<path class="st0" d="M97.1,251.5h1.3v1.5c0.4-0.6,0.8-1,1.3-1.3s0.9-0.4,1.4-0.4c0.4,0,0.8,0.1,1.2,0.3l-0.7,1.1
				c-0.3-0.1-0.5-0.2-0.7-0.2c-0.4,0-0.9,0.2-1.3,0.5c-0.4,0.4-0.7,0.9-0.9,1.7c-0.2,0.6-0.2,1.8-0.2,3.5v3.5h-1.3V251.5z"/>
			<path class="st0" d="M111.6,258.3l1.1,0.6c-0.4,0.7-0.8,1.3-1.3,1.7c-0.5,0.4-1,0.8-1.6,1c-0.6,0.2-1.3,0.3-2,0.3
				c-1.7,0-3-0.5-3.9-1.6c-0.9-1.1-1.4-2.3-1.4-3.7c0-1.3,0.4-2.5,1.2-3.5c1-1.3,2.4-1.9,4.1-1.9c1.7,0,3.1,0.7,4.2,2
				c0.7,0.9,1.1,2.1,1.1,3.5h-9.2c0,1.2,0.4,2.2,1.1,2.9c0.7,0.8,1.6,1.1,2.7,1.1c0.5,0,1-0.1,1.5-0.3c0.5-0.2,0.9-0.4,1.3-0.7
				C110.9,259.5,111.2,259,111.6,258.3z M111.6,255.6c-0.2-0.7-0.4-1.3-0.8-1.7c-0.3-0.4-0.8-0.8-1.3-1c-0.6-0.3-1.1-0.4-1.7-0.4
				c-1,0-1.9,0.3-2.6,1c-0.5,0.5-0.9,1.2-1.2,2.1H111.6z"/>
			<path class="st0" d="M120.3,252.6l-0.8,0.9c-0.7-0.7-1.4-1-2.1-1c-0.4,0-0.8,0.1-1.1,0.4c-0.3,0.3-0.5,0.6-0.5,1
				c0,0.3,0.1,0.6,0.4,1c0.3,0.3,0.8,0.7,1.6,1.1c1,0.5,1.6,1,2,1.5c0.3,0.5,0.5,1,0.5,1.6c0,0.8-0.3,1.6-0.9,2.1
				c-0.6,0.6-1.3,0.9-2.2,0.9c-0.6,0-1.2-0.1-1.7-0.4c-0.5-0.3-1-0.6-1.3-1.1l0.8-0.9c0.7,0.8,1.4,1.1,2.1,1.1c0.5,0,1-0.2,1.3-0.5
				c0.4-0.3,0.6-0.7,0.6-1.2c0-0.4-0.1-0.7-0.4-1c-0.2-0.3-0.8-0.7-1.7-1.1c-0.9-0.5-1.6-0.9-1.9-1.4c-0.3-0.5-0.5-1-0.5-1.6
				c0-0.8,0.3-1.4,0.8-1.9c0.5-0.5,1.2-0.8,2-0.8C118.4,251.2,119.4,251.7,120.3,252.6z"/>
			<path class="st0" d="M127.2,251.2c1.6,0,2.9,0.6,3.9,1.7c0.9,1,1.4,2.3,1.4,3.7c0,1.4-0.5,2.7-1.5,3.8c-1,1.1-2.3,1.6-3.8,1.6
				c-1.6,0-2.9-0.5-3.9-1.6c-1-1.1-1.5-2.3-1.5-3.8c0-1.4,0.5-2.6,1.4-3.7C124.3,251.8,125.6,251.2,127.2,251.2z M127.2,252.5
				c-1.1,0-2,0.4-2.8,1.2c-0.8,0.8-1.2,1.8-1.2,2.9c0,0.7,0.2,1.4,0.5,2.1c0.4,0.6,0.8,1.1,1.5,1.5c0.6,0.3,1.3,0.5,2,0.5
				c0.7,0,1.4-0.2,2-0.5c0.6-0.3,1.1-0.8,1.5-1.5c0.4-0.6,0.5-1.3,0.5-2.1c0-1.1-0.4-2.1-1.2-2.9
				C129.2,252.9,128.3,252.5,127.2,252.5z"/>
			<path class="st0" d="M139.8,252.6l-0.8,0.9c-0.7-0.7-1.4-1-2.1-1c-0.4,0-0.8,0.1-1.1,0.4s-0.5,0.6-0.5,1c0,0.3,0.1,0.6,0.4,1
				c0.3,0.3,0.8,0.7,1.6,1.1c1,0.5,1.6,1,2,1.5c0.3,0.5,0.5,1,0.5,1.6c0,0.8-0.3,1.6-0.9,2.1c-0.6,0.6-1.3,0.9-2.2,0.9
				c-0.6,0-1.2-0.1-1.7-0.4c-0.5-0.3-1-0.6-1.3-1.1l0.8-0.9c0.7,0.8,1.4,1.1,2.1,1.1c0.5,0,1-0.2,1.3-0.5c0.4-0.3,0.6-0.7,0.6-1.2
				c0-0.4-0.1-0.7-0.4-1c-0.2-0.3-0.8-0.7-1.7-1.1c-0.9-0.5-1.6-0.9-1.9-1.4c-0.3-0.5-0.5-1-0.5-1.6c0-0.8,0.3-1.4,0.8-1.9
				c0.5-0.5,1.2-0.8,2-0.8C137.9,251.2,138.8,251.7,139.8,252.6z"/>
			<path class="st0" d="M155.4,258.3l1.1,0.6c-0.4,0.7-0.8,1.3-1.3,1.7s-1,0.8-1.6,1c-0.6,0.2-1.3,0.3-2,0.3c-1.7,0-3-0.5-3.9-1.6
				c-0.9-1.1-1.4-2.3-1.4-3.7c0-1.3,0.4-2.5,1.2-3.5c1-1.3,2.4-1.9,4.1-1.9c1.7,0,3.1,0.7,4.2,2c0.7,0.9,1.1,2.1,1.1,3.5h-9.2
				c0,1.2,0.4,2.2,1.1,2.9c0.7,0.8,1.6,1.1,2.7,1.1c0.5,0,1-0.1,1.5-0.3c0.5-0.2,0.9-0.4,1.3-0.7C154.6,259.5,155,259,155.4,258.3z
				 M155.4,255.6c-0.2-0.7-0.4-1.3-0.8-1.7c-0.3-0.4-0.8-0.8-1.3-1c-0.6-0.3-1.1-0.4-1.7-0.4c-1,0-1.9,0.3-2.6,1
				c-0.5,0.5-0.9,1.2-1.2,2.1H155.4z"/>
			<path class="st0" d="M163.9,247.9h1.4v13.9h-1.4V247.9z"/>
			<path class="st0" d="M178.2,247.5v14.2h-1.3V260c-0.6,0.7-1.2,1.2-1.9,1.5s-1.4,0.5-2.3,0.5c-1.5,0-2.7-0.5-3.7-1.6
				c-1-1.1-1.5-2.3-1.5-3.8c0-1.5,0.5-2.7,1.6-3.8s2.3-1.6,3.7-1.6c0.8,0,1.6,0.2,2.3,0.5c0.7,0.4,1.3,0.9,1.8,1.6v-5.8H178.2z
				 M172.9,252.5c-0.7,0-1.4,0.2-2,0.5c-0.6,0.4-1.1,0.9-1.5,1.5c-0.4,0.7-0.5,1.3-0.5,2.1c0,0.7,0.2,1.4,0.6,2.1
				c0.4,0.7,0.9,1.2,1.5,1.5c0.6,0.4,1.3,0.6,2,0.6c0.7,0,1.4-0.2,2-0.5c0.6-0.4,1.1-0.9,1.5-1.5c0.3-0.6,0.5-1.3,0.5-2.1
				c0-1.2-0.4-2.2-1.2-3C175,252.9,174,252.5,172.9,252.5z"/>
			<path class="st0" d="M189.4,258.3l1.1,0.6c-0.4,0.7-0.8,1.3-1.3,1.7c-0.5,0.4-1,0.8-1.6,1c-0.6,0.2-1.3,0.3-2,0.3
				c-1.7,0-3-0.5-3.9-1.6c-0.9-1.1-1.4-2.3-1.4-3.7c0-1.3,0.4-2.5,1.2-3.5c1-1.3,2.4-1.9,4.1-1.9c1.7,0,3.1,0.7,4.2,2
				c0.7,0.9,1.1,2.1,1.1,3.5h-9.2c0,1.2,0.4,2.2,1.1,2.9c0.7,0.8,1.6,1.1,2.7,1.1c0.5,0,1-0.1,1.5-0.3c0.5-0.2,0.9-0.4,1.3-0.7
				C188.6,259.5,189,259,189.4,258.3z M189.4,255.6c-0.2-0.7-0.4-1.3-0.8-1.7c-0.3-0.4-0.8-0.8-1.3-1c-0.6-0.3-1.1-0.4-1.7-0.4
				c-1,0-1.9,0.3-2.6,1c-0.5,0.5-0.9,1.2-1.2,2.1H189.4z"/>
			<path class="st0" d="M193,251.5h1.3v1.8c0.5-0.7,1.1-1.2,1.8-1.6c0.6-0.3,1.3-0.5,2.1-0.5c0.8,0,1.4,0.2,2,0.6
				c0.6,0.4,1,0.9,1.3,1.6s0.4,1.7,0.4,3.1v5.3h-1.3v-4.9c0-1.2,0-2-0.1-2.4c-0.2-0.7-0.4-1.2-0.9-1.5c-0.4-0.3-1-0.5-1.7-0.5
				c-0.8,0-1.5,0.3-2.1,0.8c-0.6,0.5-1,1.2-1.2,2c-0.1,0.5-0.2,1.4-0.2,2.8v3.8H193V251.5z"/>
			<path class="st0" d="M205.5,247.7h1.3v3.8h2.1v1.1h-2.1v9.1h-1.3v-9.1h-1.8v-1.1h1.8V247.7z"/>
			<path class="st0" d="M211,247.3c0.3,0,0.6,0.1,0.8,0.3c0.2,0.2,0.3,0.5,0.3,0.8c0,0.3-0.1,0.5-0.3,0.8c-0.2,0.2-0.5,0.3-0.8,0.3
				c-0.3,0-0.5-0.1-0.8-0.3c-0.2-0.2-0.3-0.5-0.3-0.8c0-0.3,0.1-0.6,0.3-0.8C210.5,247.4,210.7,247.3,211,247.3z M210.4,251.5h1.3
				v10.2h-1.3V251.5z"/>
			<path class="st0" d="M218.3,247.5v1.3c-0.5-0.2-0.9-0.3-1.2-0.3c-0.3,0-0.5,0.1-0.6,0.2s-0.3,0.2-0.3,0.4c0,0.1-0.1,0.5-0.1,1.1
				l0,1.4h2.1v1.1H216l0,9.1h-1.3v-9.1h-1.3v-1.1h1.3v-1.6c0-0.7,0.1-1.3,0.2-1.6s0.4-0.6,0.7-0.8c0.3-0.2,0.7-0.3,1.2-0.3
				C217.2,247.3,217.7,247.4,218.3,247.5z"/>
			<path class="st0" d="M220.3,247.3c0.3,0,0.6,0.1,0.8,0.3c0.2,0.2,0.3,0.5,0.3,0.8c0,0.3-0.1,0.5-0.3,0.8
				c-0.2,0.2-0.5,0.3-0.8,0.3c-0.3,0-0.5-0.1-0.8-0.3c-0.2-0.2-0.3-0.5-0.3-0.8c0-0.3,0.1-0.6,0.3-0.8
				C219.7,247.4,220,247.3,220.3,247.3z M219.6,251.5h1.3v10.2h-1.3V251.5z"/>
			<path class="st0" d="M233.3,253.6l-1,0.6c-0.9-1.2-2.1-1.8-3.7-1.8c-1.2,0-2.3,0.4-3.1,1.2c-0.8,0.8-1.2,1.8-1.2,2.9
				c0,0.7,0.2,1.4,0.6,2.1c0.4,0.7,0.9,1.2,1.6,1.5c0.7,0.4,1.4,0.5,2.2,0.5c1.5,0,2.7-0.6,3.7-1.8l1,0.7c-0.5,0.7-1.1,1.3-2,1.7
				s-1.8,0.6-2.8,0.6c-1.6,0-3-0.5-4-1.5c-1.1-1-1.6-2.3-1.6-3.8c0-1,0.2-1.9,0.7-2.8c0.5-0.9,1.2-1.5,2.1-2
				c0.9-0.5,1.8-0.7,2.9-0.7c0.7,0,1.3,0.1,2,0.3s1.2,0.5,1.6,0.8C232.6,252.7,232.9,253.1,233.3,253.6z"/>
			<path class="st0" d="M245.6,251.5v10.2h-1.3V260c-0.6,0.7-1.2,1.2-1.9,1.5c-0.7,0.3-1.4,0.5-2.3,0.5c-1.5,0-2.7-0.5-3.7-1.6
				s-1.5-2.3-1.5-3.8c0-1.5,0.5-2.7,1.6-3.8c1-1,2.3-1.6,3.7-1.6c0.8,0,1.6,0.2,2.3,0.5c0.7,0.4,1.3,0.9,1.8,1.6v-1.9H245.6z
				 M240.4,252.5c-0.7,0-1.4,0.2-2,0.5c-0.6,0.4-1.1,0.9-1.5,1.5c-0.4,0.7-0.6,1.3-0.6,2.1c0,0.7,0.2,1.4,0.6,2.1
				c0.4,0.7,0.9,1.2,1.5,1.5c0.6,0.4,1.3,0.6,2,0.6c0.7,0,1.4-0.2,2.1-0.5c0.6-0.4,1.1-0.9,1.5-1.5c0.3-0.6,0.5-1.3,0.5-2.1
				c0-1.2-0.4-2.2-1.2-3C242.5,252.9,241.5,252.5,240.4,252.5z"/>
			<path class="st0" d="M258.2,253.6l-1,0.6c-0.9-1.2-2.1-1.8-3.7-1.8c-1.2,0-2.3,0.4-3.1,1.2c-0.8,0.8-1.2,1.8-1.2,2.9
				c0,0.7,0.2,1.4,0.6,2.1c0.4,0.7,0.9,1.2,1.6,1.5c0.7,0.4,1.4,0.5,2.2,0.5c1.5,0,2.7-0.6,3.7-1.8l1,0.7c-0.5,0.7-1.1,1.3-2,1.7
				c-0.8,0.4-1.8,0.6-2.8,0.6c-1.6,0-3-0.5-4-1.5c-1.1-1-1.6-2.3-1.6-3.8c0-1,0.2-1.9,0.7-2.8c0.5-0.9,1.2-1.5,2.1-2
				c0.9-0.5,1.8-0.7,2.9-0.7c0.7,0,1.3,0.1,2,0.3s1.2,0.5,1.6,0.8C257.5,252.7,257.9,253.1,258.2,253.6z"/>
			<path class="st0" d="M260.9,247.3c0.3,0,0.6,0.1,0.8,0.3c0.2,0.2,0.3,0.5,0.3,0.8c0,0.3-0.1,0.5-0.3,0.8
				c-0.2,0.2-0.5,0.3-0.8,0.3c-0.3,0-0.5-0.1-0.8-0.3c-0.2-0.2-0.3-0.5-0.3-0.8c0-0.3,0.1-0.6,0.3-0.8
				C260.3,247.4,260.6,247.3,260.9,247.3z M260.2,251.5h1.3v10.2h-1.3V251.5z"/>
			<path class="st0" d="M268.8,251.2c1.6,0,2.9,0.6,3.9,1.7c0.9,1,1.4,2.3,1.4,3.7c0,1.4-0.5,2.7-1.5,3.8c-1,1.1-2.3,1.6-3.8,1.6
				c-1.6,0-2.9-0.5-3.9-1.6c-1-1.1-1.5-2.3-1.5-3.8c0-1.4,0.5-2.6,1.4-3.7C265.9,251.8,267.2,251.2,268.8,251.2z M268.8,252.5
				c-1.1,0-2,0.4-2.8,1.2c-0.8,0.8-1.2,1.8-1.2,2.9c0,0.7,0.2,1.4,0.5,2.1c0.4,0.6,0.8,1.1,1.5,1.5c0.6,0.3,1.3,0.5,2,0.5
				c0.7,0,1.4-0.2,2-0.5c0.6-0.3,1.1-0.8,1.5-1.5c0.4-0.6,0.5-1.3,0.5-2.1c0-1.1-0.4-2.1-1.2-2.9
				C270.8,252.9,269.8,252.5,268.8,252.5z M269.4,246.7h2l-2.8,2.9h-1.3L269.4,246.7z"/>
			<path class="st0" d="M276.2,251.5h1.3v1.8c0.5-0.7,1.1-1.2,1.8-1.6c0.6-0.3,1.3-0.5,2.1-0.5c0.8,0,1.4,0.2,2,0.6
				c0.6,0.4,1,0.9,1.3,1.6c0.3,0.7,0.4,1.7,0.4,3.1v5.3h-1.3v-4.9c0-1.2-0.1-2-0.1-2.4c-0.2-0.7-0.4-1.2-0.9-1.5
				c-0.4-0.3-1-0.5-1.7-0.5c-0.8,0-1.5,0.3-2.1,0.8c-0.6,0.5-1,1.2-1.2,2c-0.1,0.5-0.2,1.4-0.2,2.8v3.8h-1.3V251.5z"/>
			<path class="st0" d="M302.5,253.6l-1,0.6c-0.9-1.2-2.1-1.8-3.7-1.8c-1.2,0-2.3,0.4-3.1,1.2c-0.8,0.8-1.2,1.8-1.2,2.9
				c0,0.7,0.2,1.4,0.6,2.1c0.4,0.7,0.9,1.2,1.6,1.5c0.7,0.4,1.4,0.5,2.2,0.5c1.5,0,2.7-0.6,3.7-1.8l1,0.7c-0.5,0.7-1.1,1.3-2,1.7
				c-0.8,0.4-1.8,0.6-2.8,0.6c-1.6,0-3-0.5-4-1.5c-1.1-1-1.6-2.3-1.6-3.8c0-1,0.2-1.9,0.7-2.8c0.5-0.9,1.2-1.5,2.1-2
				s1.8-0.7,2.9-0.7c0.7,0,1.3,0.1,2,0.3c0.6,0.2,1.2,0.5,1.6,0.8C301.9,252.7,302.2,253.1,302.5,253.6z"/>
			<path class="st0" d="M309.6,251.2c1.6,0,2.9,0.6,3.9,1.7c0.9,1,1.4,2.3,1.4,3.7c0,1.4-0.5,2.7-1.5,3.8s-2.3,1.6-3.8,1.6
				c-1.6,0-2.9-0.5-3.9-1.6c-1-1.1-1.5-2.3-1.5-3.8c0-1.4,0.5-2.6,1.4-3.7C306.7,251.8,308,251.2,309.6,251.2z M309.6,252.5
				c-1.1,0-2,0.4-2.8,1.2c-0.8,0.8-1.2,1.8-1.2,2.9c0,0.7,0.2,1.4,0.5,2.1c0.4,0.6,0.8,1.1,1.5,1.5c0.6,0.3,1.3,0.5,2,0.5
				c0.7,0,1.4-0.2,2-0.5c0.6-0.3,1.1-0.8,1.5-1.5c0.4-0.6,0.5-1.3,0.5-2.1c0-1.1-0.4-2.1-1.2-2.9
				C311.6,252.9,310.7,252.5,309.6,252.5z"/>
			<path class="st0" d="M317,251.5h1.3v1.8c0.5-0.7,1.1-1.2,1.8-1.6c0.6-0.3,1.3-0.5,2.1-0.5c0.8,0,1.4,0.2,2,0.6
				c0.6,0.4,1,0.9,1.3,1.6c0.3,0.7,0.4,1.7,0.4,3.1v5.3h-1.3v-4.9c0-1.2,0-2-0.1-2.4c-0.2-0.7-0.4-1.2-0.9-1.5
				c-0.4-0.3-1-0.5-1.7-0.5c-0.8,0-1.5,0.3-2.1,0.8c-0.6,0.5-1,1.2-1.2,2c-0.1,0.5-0.2,1.4-0.2,2.8v3.8H317V251.5z"/>
			<path class="st0" d="M113.9,279.7v1.3c-0.5-0.2-0.9-0.3-1.2-0.3c-0.3,0-0.5,0.1-0.6,0.2s-0.3,0.2-0.3,0.4c0,0.1-0.1,0.5-0.1,1.1
				l0,1.4h2.1v1.1h-2.1l0,9.1h-1.3v-9.1H109v-1.1h1.3V282c0-0.7,0.1-1.3,0.2-1.6s0.4-0.6,0.7-0.8s0.7-0.3,1.2-0.3
				C112.8,279.4,113.3,279.5,113.9,279.7z"/>
			<path class="st0" d="M120.3,283.4c1.6,0,2.9,0.6,3.9,1.7c0.9,1,1.4,2.3,1.4,3.7c0,1.4-0.5,2.7-1.5,3.8c-1,1.1-2.3,1.6-3.8,1.6
				c-1.6,0-2.9-0.5-3.9-1.6s-1.5-2.3-1.5-3.8c0-1.4,0.5-2.6,1.4-3.7C117.4,283.9,118.7,283.4,120.3,283.4z M120.3,284.7
				c-1.1,0-2,0.4-2.8,1.2c-0.8,0.8-1.2,1.8-1.2,2.9c0,0.7,0.2,1.4,0.5,2.1c0.4,0.6,0.8,1.1,1.5,1.5c0.6,0.3,1.3,0.5,2,0.5
				c0.7,0,1.4-0.2,2-0.5c0.6-0.3,1.1-0.8,1.5-1.5c0.4-0.6,0.5-1.3,0.5-2.1c0-1.1-0.4-2.1-1.2-2.9
				C122.3,285.1,121.4,284.7,120.3,284.7z"/>
			<path class="st0" d="M128.9,279.8h1.3v3.8h2.1v1.1h-2.1v9.1h-1.3v-9.1h-1.8v-1.1h1.8V279.8z"/>
			<path class="st0" d="M138.7,283.4c1.6,0,2.9,0.6,3.9,1.7c0.9,1,1.4,2.3,1.4,3.7c0,1.4-0.5,2.7-1.5,3.8c-1,1.1-2.3,1.6-3.8,1.6
				c-1.6,0-2.9-0.5-3.9-1.6c-1-1.1-1.5-2.3-1.5-3.8c0-1.4,0.5-2.6,1.4-3.7C135.8,283.9,137.2,283.4,138.7,283.4z M138.7,284.7
				c-1.1,0-2,0.4-2.8,1.2c-0.8,0.8-1.2,1.8-1.2,2.9c0,0.7,0.2,1.4,0.5,2.1c0.4,0.6,0.8,1.1,1.5,1.5c0.6,0.3,1.3,0.5,2,0.5
				c0.7,0,1.4-0.2,2-0.5c0.6-0.3,1.1-0.8,1.5-1.5c0.4-0.6,0.5-1.3,0.5-2.1c0-1.1-0.4-2.1-1.2-2.9
				C140.8,285.1,139.8,284.7,138.7,284.7z"/>
			<path class="st0" d="M155,283.6h1.3v8.2c0,1.4-0.1,2.5-0.4,3.2c-0.3,0.9-0.9,1.7-1.8,2.2c-0.9,0.5-1.9,0.8-3.1,0.8
				c-0.9,0-1.7-0.1-2.4-0.4c-0.7-0.2-1.3-0.6-1.7-1c-0.4-0.4-0.8-1-1.2-1.8h1.4c0.4,0.7,0.9,1.2,1.5,1.5c0.6,0.3,1.4,0.5,2.3,0.5
				c0.9,0,1.7-0.2,2.3-0.5c0.6-0.3,1.1-0.8,1.3-1.3c0.3-0.5,0.4-1.3,0.4-2.5v-0.5c-0.5,0.6-1.1,1.1-1.8,1.4s-1.5,0.5-2.3,0.5
				c-0.9,0-1.8-0.2-2.7-0.7c-0.8-0.5-1.5-1.1-1.9-1.9c-0.5-0.8-0.7-1.7-0.7-2.6c0-0.9,0.2-1.8,0.7-2.7c0.5-0.8,1.1-1.5,2-1.9
				s1.7-0.7,2.6-0.7c0.8,0,1.5,0.2,2.1,0.5s1.3,0.8,1.9,1.6V283.6z M151.1,284.6c-0.7,0-1.4,0.2-2.1,0.5s-1.1,0.9-1.5,1.5
				c-0.4,0.6-0.5,1.3-0.5,2.1c0,1.1,0.4,2.1,1.1,2.8c0.8,0.7,1.7,1.1,2.9,1.1c1.2,0,2.2-0.4,2.9-1.1c0.7-0.7,1.1-1.7,1.1-2.9
				c0-0.8-0.2-1.5-0.5-2.1c-0.3-0.6-0.8-1.1-1.4-1.4S151.8,284.6,151.1,284.6z"/>
			<path class="st0" d="M158.3,283.6h1.3v1.5c0.4-0.6,0.8-1,1.3-1.3c0.4-0.3,0.9-0.4,1.4-0.4c0.4,0,0.8,0.1,1.2,0.3l-0.7,1.1
				c-0.3-0.1-0.5-0.2-0.7-0.2c-0.4,0-0.9,0.2-1.3,0.5c-0.4,0.4-0.7,0.9-0.9,1.7c-0.2,0.6-0.2,1.8-0.2,3.5v3.5h-1.3V283.6z"/>
			<path class="st0" d="M174.5,283.6v10.2h-1.3v-1.8c-0.6,0.7-1.2,1.2-1.9,1.5c-0.7,0.3-1.4,0.5-2.3,0.5c-1.5,0-2.7-0.5-3.7-1.6
				s-1.5-2.3-1.5-3.8c0-1.5,0.5-2.7,1.6-3.8c1-1,2.3-1.6,3.7-1.6c0.8,0,1.6,0.2,2.3,0.5s1.3,0.9,1.8,1.6v-1.9H174.5z M169.2,284.6
				c-0.7,0-1.4,0.2-2,0.5c-0.6,0.4-1.1,0.9-1.5,1.5c-0.4,0.7-0.6,1.3-0.6,2.1c0,0.7,0.2,1.4,0.6,2.1c0.4,0.7,0.9,1.2,1.5,1.5
				c0.6,0.4,1.3,0.6,2,0.6c0.7,0,1.4-0.2,2.1-0.5c0.6-0.4,1.1-0.9,1.5-1.5c0.3-0.6,0.5-1.3,0.5-2.1c0-1.2-0.4-2.2-1.2-3
				C171.3,285,170.3,284.6,169.2,284.6z"/>
			<path class="st0" d="M181.3,279.7v1.3c-0.5-0.2-0.9-0.3-1.2-0.3c-0.3,0-0.5,0.1-0.6,0.2c-0.2,0.1-0.3,0.2-0.3,0.4
				s-0.1,0.5-0.1,1.1l0,1.4h2.1v1.1H179l0,9.1h-1.3v-9.1h-1.3v-1.1h1.3V282c0-0.7,0.1-1.3,0.2-1.6s0.4-0.6,0.7-0.8
				c0.3-0.2,0.7-0.3,1.2-0.3C180.2,279.4,180.7,279.5,181.3,279.7z"/>
			<path class="st0" d="M183.9,278.8h2l-2.8,2.9h-1.3L183.9,278.8z M182.6,283.6h1.3v10.2h-1.3V283.6z"/>
			<path class="st0" d="M196.5,283.6v10.2h-1.3v-1.8c-0.6,0.7-1.2,1.2-1.9,1.5s-1.4,0.5-2.3,0.5c-1.5,0-2.7-0.5-3.7-1.6
				c-1-1.1-1.5-2.3-1.5-3.8c0-1.5,0.5-2.7,1.6-3.8s2.3-1.6,3.7-1.6c0.8,0,1.6,0.2,2.3,0.5s1.3,0.9,1.8,1.6v-1.9H196.5z M191.2,284.6
				c-0.7,0-1.4,0.2-2,0.5c-0.6,0.4-1.1,0.9-1.5,1.5c-0.4,0.7-0.5,1.3-0.5,2.1c0,0.7,0.2,1.4,0.6,2.1c0.4,0.7,0.9,1.2,1.5,1.5
				c0.6,0.4,1.3,0.6,2,0.6c0.7,0,1.4-0.2,2-0.5c0.6-0.4,1.1-0.9,1.5-1.5c0.3-0.6,0.5-1.3,0.5-2.1c0-1.2-0.4-2.2-1.2-3
				C193.3,285,192.4,284.6,191.2,284.6z"/>
			<path class="st0" d="M207.1,279.4h1.5c-0.6,1.3-1.1,2.7-1.5,4.4c-0.4,1.7-0.6,3.4-0.6,5.2c0,1.7,0.1,3.3,0.4,4.8
				c0.3,1.5,0.7,2.9,1.2,4.1h-1.5c-0.5-1.1-0.8-2.4-1.1-3.9c-0.3-1.5-0.4-3.1-0.4-4.7c0-1.8,0.2-3.5,0.5-5.2
				S206.5,280.8,207.1,279.4z"/>
			<path class="st0" d="M209.9,283.6h1.4l3.4,7.5l3.4-7.5h1.4l-4.7,10.2h-0.2L209.9,283.6z"/>
			<path class="st0" d="M221.7,279.4c0.3,0,0.6,0.1,0.8,0.3c0.2,0.2,0.3,0.5,0.3,0.8c0,0.3-0.1,0.5-0.3,0.8
				c-0.2,0.2-0.5,0.3-0.8,0.3c-0.3,0-0.5-0.1-0.8-0.3c-0.2-0.2-0.3-0.5-0.3-0.8c0-0.3,0.1-0.6,0.3-0.8
				C221.1,279.5,221.4,279.4,221.7,279.4z M221,283.6h1.3v10.2H221V283.6z"/>
			<path class="st0" d="M233.6,283.6h1.3v8.2c0,1.4-0.1,2.5-0.4,3.2c-0.3,0.9-0.9,1.7-1.8,2.2s-1.9,0.8-3.1,0.8
				c-0.9,0-1.7-0.1-2.4-0.4c-0.7-0.2-1.3-0.6-1.7-1c-0.4-0.4-0.8-1-1.2-1.8h1.4c0.4,0.7,0.9,1.2,1.5,1.5c0.6,0.3,1.4,0.5,2.3,0.5
				c0.9,0,1.7-0.2,2.3-0.5c0.6-0.3,1.1-0.8,1.3-1.3c0.3-0.5,0.4-1.3,0.4-2.5v-0.5c-0.5,0.6-1.1,1.1-1.8,1.4
				c-0.7,0.3-1.5,0.5-2.3,0.5c-0.9,0-1.8-0.2-2.7-0.7c-0.8-0.5-1.5-1.1-1.9-1.9c-0.5-0.8-0.7-1.7-0.7-2.6c0-0.9,0.2-1.8,0.7-2.7
				c0.5-0.8,1.1-1.5,2-1.9c0.8-0.5,1.7-0.7,2.6-0.7c0.8,0,1.5,0.2,2.1,0.5c0.7,0.3,1.3,0.8,1.9,1.6V283.6z M229.7,284.6
				c-0.7,0-1.4,0.2-2.1,0.5c-0.6,0.4-1.1,0.9-1.5,1.5c-0.4,0.6-0.5,1.3-0.5,2.1c0,1.1,0.4,2.1,1.1,2.8s1.7,1.1,2.9,1.1
				c1.2,0,2.2-0.4,2.9-1.1c0.7-0.7,1.1-1.7,1.1-2.9c0-0.8-0.2-1.5-0.5-2.1c-0.3-0.6-0.8-1.1-1.4-1.4
				C231.1,284.8,230.4,284.6,229.7,284.6z"/>
			<path class="st0" d="M246,290.5l1.1,0.6c-0.4,0.7-0.8,1.3-1.3,1.7s-1,0.8-1.6,1c-0.6,0.2-1.3,0.3-2,0.3c-1.7,0-3-0.5-3.9-1.6
				c-0.9-1.1-1.4-2.3-1.4-3.7c0-1.3,0.4-2.5,1.2-3.5c1-1.3,2.4-1.9,4.1-1.9c1.7,0,3.1,0.7,4.2,2c0.7,0.9,1.1,2.1,1.1,3.5h-9.2
				c0,1.2,0.4,2.2,1.1,2.9c0.7,0.8,1.6,1.1,2.7,1.1c0.5,0,1-0.1,1.5-0.3c0.5-0.2,0.9-0.4,1.3-0.7C245.2,291.6,245.6,291.1,246,290.5
				z M246,287.7c-0.2-0.7-0.4-1.3-0.8-1.7c-0.3-0.4-0.8-0.8-1.3-1c-0.6-0.3-1.1-0.4-1.7-0.4c-1,0-1.9,0.3-2.6,1
				c-0.5,0.5-0.9,1.2-1.2,2.1H246z"/>
			<path class="st0" d="M249.6,283.6h1.3v1.8c0.5-0.7,1.1-1.2,1.8-1.6c0.6-0.3,1.3-0.5,2.1-0.5c0.8,0,1.4,0.2,2,0.6
				c0.6,0.4,1,0.9,1.3,1.6c0.3,0.7,0.4,1.7,0.4,3.1v5.3h-1.3V289c0-1.2-0.1-2-0.1-2.4c-0.2-0.7-0.4-1.2-0.9-1.5
				c-0.4-0.3-1-0.5-1.7-0.5c-0.8,0-1.5,0.3-2.1,0.8c-0.6,0.5-1,1.2-1.2,2c-0.1,0.5-0.2,1.4-0.2,2.8v3.8h-1.3V283.6z"/>
			<path class="st0" d="M262.1,279.8h1.3v3.8h2.1v1.1h-2.1v9.1h-1.3v-9.1h-1.8v-1.1h1.8V279.8z"/>
			<path class="st0" d="M275.8,290.5l1.1,0.6c-0.4,0.7-0.8,1.3-1.3,1.7c-0.5,0.4-1,0.8-1.6,1c-0.6,0.2-1.3,0.3-2,0.3
				c-1.7,0-3-0.5-3.9-1.6c-0.9-1.1-1.4-2.3-1.4-3.7c0-1.3,0.4-2.5,1.2-3.5c1-1.3,2.4-1.9,4.1-1.9c1.7,0,3.1,0.7,4.2,2
				c0.7,0.9,1.1,2.1,1.1,3.5H268c0,1.2,0.4,2.2,1.1,2.9c0.7,0.8,1.6,1.1,2.7,1.1c0.5,0,1-0.1,1.5-0.3c0.5-0.2,0.9-0.4,1.3-0.7
				C275,291.6,275.4,291.1,275.8,290.5z M275.8,287.7c-0.2-0.7-0.4-1.3-0.8-1.7c-0.3-0.4-0.8-0.8-1.3-1c-0.6-0.3-1.1-0.4-1.7-0.4
				c-1,0-1.9,0.3-2.6,1c-0.5,0.5-0.9,1.2-1.2,2.1H275.8z"/>
			<path class="st0" d="M284.5,284.8l-0.8,0.9c-0.7-0.7-1.4-1-2.1-1c-0.4,0-0.8,0.1-1.1,0.4c-0.3,0.3-0.5,0.6-0.5,1
				c0,0.3,0.1,0.6,0.4,1c0.3,0.3,0.8,0.7,1.6,1.1c1,0.5,1.6,1,2,1.5c0.3,0.5,0.5,1,0.5,1.6c0,0.8-0.3,1.6-0.9,2.1s-1.3,0.9-2.2,0.9
				c-0.6,0-1.2-0.1-1.7-0.4c-0.5-0.3-1-0.6-1.3-1.1l0.8-0.9c0.7,0.8,1.4,1.1,2.1,1.1c0.5,0,1-0.2,1.3-0.5s0.6-0.7,0.6-1.2
				c0-0.4-0.1-0.7-0.4-1c-0.2-0.3-0.8-0.7-1.7-1.1c-0.9-0.5-1.6-0.9-1.9-1.4c-0.3-0.5-0.5-1-0.5-1.6c0-0.8,0.3-1.4,0.8-1.9
				c0.5-0.5,1.2-0.8,2-0.8C282.6,283.4,283.5,283.8,284.5,284.8z"/>
			<path class="st0" d="M287.7,297.9h-1.5c0.6-1.3,1.1-2.7,1.5-4.4c0.4-1.7,0.6-3.4,0.6-5.2c0-1.7-0.1-3.3-0.4-4.8
				c-0.3-1.5-0.7-2.9-1.2-4.1h1.5c0.5,1.1,0.8,2.4,1.1,4c0.3,1.5,0.4,3.1,0.4,4.7c0,1.8-0.2,3.5-0.5,5.1
				C288.8,294.9,288.3,296.5,287.7,297.9z"/>
		</g>
	</g>
	<g>
		<path class="st0" d="M59,3.3l7.5,16.2h-1.7l-2.5-5.3h-7l-2.5,5.3H51l7.6-16.2H59z M58.8,6.7l-2.8,5.8h5.5L58.8,6.7z"/>
		<path class="st0" d="M80.8,2.9v16.6h-1.5v-2.1c-0.6,0.8-1.4,1.4-2.2,1.8c-0.8,0.4-1.7,0.6-2.6,0.6c-1.7,0-3.1-0.6-4.3-1.8
			c-1.2-1.2-1.8-2.7-1.8-4.5c0-1.7,0.6-3.2,1.8-4.4c1.2-1.2,2.7-1.8,4.4-1.8c1,0,1.9,0.2,2.7,0.6c0.8,0.4,1.5,1,2.1,1.9V2.9H80.8z
			 M74.6,8.7c-0.9,0-1.6,0.2-2.4,0.6c-0.7,0.4-1.3,1-1.7,1.8c-0.4,0.8-0.6,1.6-0.6,2.4c0,0.8,0.2,1.6,0.6,2.4c0.4,0.8,1,1.4,1.7,1.8
			c0.7,0.4,1.5,0.6,2.3,0.6c0.8,0,1.6-0.2,2.4-0.6c0.8-0.4,1.3-1,1.7-1.7c0.4-0.7,0.6-1.5,0.6-2.4c0-1.4-0.5-2.5-1.4-3.5
			C77.1,9.1,75.9,8.7,74.6,8.7z"/>
		<path class="st0" d="M84.1,7.5h1.6v13.8c0,1-0.2,1.7-0.5,2.2c-0.4,0.5-0.9,0.7-1.5,0.7c-0.5,0-1.1-0.1-1.8-0.4v-1.4
			c0.4,0.2,0.8,0.3,1.1,0.3c0.4,0,0.7-0.2,0.9-0.5c0.1-0.2,0.2-0.7,0.2-1.4V7.5z M84.8,2.6c0.4,0,0.6,0.1,0.9,0.4
			c0.2,0.2,0.4,0.5,0.4,0.9c0,0.3-0.1,0.6-0.4,0.9c-0.2,0.2-0.5,0.4-0.9,0.4S84.2,5,83.9,4.7c-0.2-0.2-0.4-0.5-0.4-0.9
			c0-0.4,0.1-0.7,0.4-0.9C84.2,2.7,84.5,2.6,84.8,2.6z"/>
		<path class="st0" d="M88.6,7.5h1.5v5.6c0,1.4,0.1,2.3,0.2,2.8c0.2,0.7,0.6,1.3,1.3,1.7c0.6,0.4,1.4,0.6,2.2,0.6
			c0.9,0,1.6-0.2,2.2-0.6c0.6-0.4,1-1,1.2-1.6c0.2-0.5,0.2-1.4,0.2-2.9V7.5h1.6v5.9c0,1.6-0.2,2.9-0.6,3.7c-0.4,0.8-1,1.5-1.7,2
			c-0.8,0.5-1.7,0.7-2.9,0.7c-1.2,0-2.1-0.2-2.9-0.7c-0.8-0.5-1.4-1.1-1.7-2c-0.4-0.8-0.6-2.1-0.6-3.8V7.5z"/>
		<path class="st0" d="M102.5,7.5h1.5v2.1c0.6-0.8,1.3-1.4,2-1.8c0.7-0.4,1.6-0.6,2.4-0.6c0.9,0,1.7,0.2,2.4,0.7
			c0.7,0.5,1.2,1.1,1.5,1.8c0.3,0.8,0.5,2,0.5,3.6v6.2h-1.5v-5.7c0-1.4-0.1-2.3-0.2-2.8c-0.2-0.8-0.5-1.4-1-1.8
			c-0.5-0.4-1.2-0.6-2-0.6c-0.9,0-1.8,0.3-2.5,0.9s-1.2,1.4-1.5,2.3c-0.1,0.6-0.2,1.7-0.2,3.3v4.4h-1.5V7.5z"/>
		<path class="st0" d="M117.5,3.1h1.5v4.4h2.4v1.3h-2.4v10.6h-1.5V8.8h-2.1V7.5h2.1V3.1z"/>
		<path class="st0" d="M135.7,7.5v12h-1.5v-2.1c-0.6,0.8-1.4,1.4-2.2,1.8c-0.8,0.4-1.7,0.6-2.6,0.6c-1.7,0-3.1-0.6-4.3-1.8
			c-1.2-1.2-1.8-2.7-1.8-4.5c0-1.7,0.6-3.2,1.8-4.4s2.7-1.8,4.4-1.8c1,0,1.9,0.2,2.7,0.6c0.8,0.4,1.5,1,2.1,1.9V7.5H135.7z
			 M129.6,8.7c-0.9,0-1.6,0.2-2.4,0.6c-0.7,0.4-1.3,1-1.7,1.8c-0.4,0.8-0.6,1.6-0.6,2.4c0,0.8,0.2,1.6,0.6,2.4
			c0.4,0.8,1,1.4,1.7,1.8c0.7,0.4,1.5,0.6,2.3,0.6c0.8,0,1.6-0.2,2.4-0.6c0.8-0.4,1.3-1,1.7-1.7c0.4-0.7,0.6-1.5,0.6-2.4
			c0-1.4-0.5-2.5-1.4-3.5C132,9.1,130.9,8.7,129.6,8.7z"/>
		<path class="st0" d="M146.8,3.1h1.5v4.4h2.4v1.3h-2.4v10.6h-1.5V8.8h-2.1V7.5h2.1V3.1z"/>
		<path class="st0" d="M152.9,7.5h1.5v5.6c0,1.4,0.1,2.3,0.2,2.8c0.2,0.7,0.6,1.3,1.3,1.7c0.6,0.4,1.4,0.6,2.2,0.6s1.6-0.2,2.2-0.6
			c0.6-0.4,1-1,1.2-1.6c0.2-0.5,0.2-1.4,0.2-2.9V7.5h1.6v5.9c0,1.6-0.2,2.9-0.6,3.7s-1,1.5-1.7,2c-0.8,0.5-1.7,0.7-2.9,0.7
			c-1.2,0-2.1-0.2-2.9-0.7c-0.8-0.5-1.4-1.1-1.7-2c-0.4-0.8-0.6-2.1-0.6-3.8V7.5z"/>
		<path class="st0" d="M184.9,2.9v16.6h-1.5v-2.1c-0.6,0.8-1.4,1.4-2.2,1.8c-0.8,0.4-1.7,0.6-2.6,0.6c-1.7,0-3.1-0.6-4.3-1.8
			c-1.2-1.2-1.8-2.7-1.8-4.5c0-1.7,0.6-3.2,1.8-4.4c1.2-1.2,2.7-1.8,4.4-1.8c1,0,1.9,0.2,2.7,0.6c0.8,0.4,1.5,1,2.1,1.9V2.9H184.9z
			 M178.7,8.7c-0.9,0-1.6,0.2-2.4,0.6c-0.7,0.4-1.3,1-1.7,1.8c-0.4,0.8-0.6,1.6-0.6,2.4c0,0.8,0.2,1.6,0.6,2.4
			c0.4,0.8,1,1.4,1.7,1.8c0.7,0.4,1.5,0.6,2.3,0.6c0.8,0,1.6-0.2,2.4-0.6c0.8-0.4,1.3-1,1.7-1.7c0.4-0.7,0.6-1.5,0.6-2.4
			c0-1.4-0.5-2.5-1.4-3.5C181.2,9.1,180.1,8.7,178.7,8.7z"/>
		<path class="st0" d="M194,7.2c1.8,0,3.4,0.7,4.6,2c1.1,1.2,1.7,2.7,1.7,4.3c0,1.7-0.6,3.1-1.7,4.4c-1.2,1.2-2.7,1.9-4.5,1.9
			c-1.8,0-3.3-0.6-4.5-1.9c-1.2-1.2-1.7-2.7-1.7-4.4c0-1.7,0.5-3.1,1.7-4.3C190.7,7.9,192.2,7.2,194,7.2z M194,8.7
			c-1.3,0-2.4,0.5-3.3,1.4c-0.9,0.9-1.4,2.1-1.4,3.4c0,0.9,0.2,1.7,0.6,2.4c0.4,0.7,1,1.3,1.7,1.7c0.7,0.4,1.5,0.6,2.3,0.6
			c0.9,0,1.6-0.2,2.3-0.6c0.7-0.4,1.3-1,1.7-1.7c0.4-0.7,0.6-1.6,0.6-2.4c0-1.3-0.5-2.5-1.4-3.4S195.3,8.7,194,8.7z"/>
		<path class="st0" d="M214.7,10l-1.2,0.8c-1.1-1.4-2.5-2.1-4.3-2.1c-1.5,0-2.7,0.5-3.6,1.4c-1,0.9-1.4,2.1-1.4,3.4
			c0,0.9,0.2,1.7,0.7,2.5c0.4,0.8,1,1.4,1.8,1.8s1.6,0.6,2.6,0.6c1.8,0,3.2-0.7,4.3-2.1l1.2,0.8c-0.6,0.9-1.3,1.5-2.3,2
			c-1,0.5-2.1,0.7-3.3,0.7c-1.9,0-3.5-0.6-4.7-1.8c-1.2-1.2-1.9-2.7-1.9-4.4c0-1.2,0.3-2.2,0.9-3.2s1.4-1.8,2.4-2.3
			c1-0.6,2.2-0.8,3.4-0.8c0.8,0,1.6,0.1,2.3,0.4c0.7,0.2,1.4,0.6,1.9,0.9C213.9,8.9,214.3,9.4,214.7,10z"/>
		<path class="st0" d="M217.5,7.5h1.5v5.6c0,1.4,0.1,2.3,0.2,2.8c0.2,0.7,0.6,1.3,1.3,1.7c0.6,0.4,1.4,0.6,2.2,0.6s1.6-0.2,2.2-0.6
			c0.6-0.4,1-1,1.2-1.6c0.2-0.5,0.2-1.4,0.2-2.9V7.5h1.6v5.9c0,1.6-0.2,2.9-0.6,3.7s-1,1.5-1.7,2c-0.8,0.5-1.7,0.7-2.9,0.7
			c-1.2,0-2.1-0.2-2.9-0.7c-0.8-0.5-1.4-1.1-1.7-2c-0.4-0.8-0.6-2.1-0.6-3.8V7.5z"/>
		<path class="st0" d="M231.3,7.5h1.5v2.1c0.5-0.8,1.1-1.3,1.6-1.7c0.8-0.5,1.6-0.7,2.5-0.7c0.6,0,1.1,0.1,1.6,0.3
			c0.5,0.2,0.9,0.5,1.3,0.9c0.3,0.4,0.6,0.9,0.9,1.6c0.5-0.9,1.2-1.6,1.9-2.1c0.8-0.5,1.6-0.7,2.5-0.7c0.8,0,1.6,0.2,2.2,0.6
			c0.6,0.4,1.1,1,1.4,1.7c0.3,0.7,0.5,1.9,0.5,3.4v6.5h-1.6v-6.5c0-1.3-0.1-2.2-0.3-2.6s-0.5-0.9-0.9-1.2c-0.4-0.3-1-0.4-1.6-0.4
			c-0.7,0-1.4,0.2-2,0.7c-0.6,0.4-1.1,1-1.4,1.8s-0.4,2-0.4,3.7v4.7h-1.5v-6.1c0-1.4-0.1-2.4-0.3-2.9c-0.2-0.5-0.5-0.9-0.9-1.2
			c-0.4-0.3-1-0.5-1.6-0.5c-0.7,0-1.4,0.2-2,0.6c-0.6,0.4-1.1,1-1.4,1.7c-0.3,0.7-0.4,1.8-0.4,3.3v5.1h-1.5V7.5z"/>
		<path class="st0" d="M262.5,15.5l1.3,0.7c-0.4,0.8-0.9,1.5-1.5,2c-0.6,0.5-1.2,0.9-1.9,1.2c-0.7,0.3-1.5,0.4-2.4,0.4
			c-1.9,0-3.5-0.6-4.6-1.9s-1.6-2.7-1.6-4.3c0-1.5,0.5-2.9,1.4-4.1c1.2-1.5,2.8-2.3,4.7-2.3c2,0,3.7,0.8,4.9,2.3
			c0.9,1.1,1.3,2.5,1.3,4.1h-10.8c0,1.4,0.5,2.5,1.3,3.4c0.9,0.9,1.9,1.3,3.2,1.3c0.6,0,1.2-0.1,1.8-0.3c0.6-0.2,1.1-0.5,1.5-0.8
			C261.6,16.8,262,16.3,262.5,15.5z M262.5,12.3c-0.2-0.8-0.5-1.5-0.9-2s-0.9-0.9-1.6-1.2c-0.6-0.3-1.3-0.5-2-0.5
			c-1.2,0-2.2,0.4-3,1.1c-0.6,0.5-1.1,1.4-1.4,2.5H262.5z"/>
		<path class="st0" d="M267.1,7.5h1.5v2.1c0.6-0.8,1.3-1.4,2-1.8c0.7-0.4,1.6-0.6,2.4-0.6c0.9,0,1.7,0.2,2.4,0.7
			c0.7,0.5,1.2,1.1,1.5,1.8c0.3,0.8,0.5,2,0.5,3.6v6.2h-1.5v-5.7c0-1.4-0.1-2.3-0.2-2.8c-0.2-0.8-0.5-1.4-1-1.8
			c-0.5-0.4-1.2-0.6-2-0.6c-0.9,0-1.8,0.3-2.5,0.9c-0.7,0.6-1.2,1.4-1.5,2.3c-0.1,0.6-0.2,1.7-0.2,3.3v4.4h-1.5V7.5z"/>
		<path class="st0" d="M282.1,3.1h1.5v4.4h2.4v1.3h-2.4v10.6h-1.5V8.8H280V7.5h2.1V3.1z"/>
		<path class="st0" d="M300.3,7.5v12h-1.5v-2.1c-0.6,0.8-1.4,1.4-2.2,1.8c-0.8,0.4-1.7,0.6-2.6,0.6c-1.7,0-3.1-0.6-4.3-1.8
			c-1.2-1.2-1.8-2.7-1.8-4.5c0-1.7,0.6-3.2,1.8-4.4s2.7-1.8,4.4-1.8c1,0,1.9,0.2,2.7,0.6c0.8,0.4,1.5,1,2.1,1.9V7.5H300.3z
			 M294.2,8.7c-0.9,0-1.6,0.2-2.4,0.6c-0.7,0.4-1.3,1-1.7,1.8c-0.4,0.8-0.6,1.6-0.6,2.4c0,0.8,0.2,1.6,0.6,2.4
			c0.4,0.8,1,1.4,1.7,1.8c0.7,0.4,1.5,0.6,2.3,0.6c0.8,0,1.6-0.2,2.4-0.6c0.8-0.4,1.3-1,1.7-1.7c0.4-0.7,0.6-1.5,0.6-2.4
			c0-1.4-0.5-2.5-1.4-3.5C296.6,9.1,295.5,8.7,294.2,8.7z"/>
		<path class="st0" d="M315.4,10l-1.2,0.8c-1.1-1.4-2.5-2.1-4.3-2.1c-1.5,0-2.7,0.5-3.6,1.4c-1,0.9-1.4,2.1-1.4,3.4
			c0,0.9,0.2,1.7,0.7,2.5c0.4,0.8,1,1.4,1.8,1.8c0.8,0.4,1.6,0.6,2.6,0.6c1.8,0,3.2-0.7,4.3-2.1l1.2,0.8c-0.6,0.9-1.3,1.5-2.3,2
			c-1,0.5-2.1,0.7-3.3,0.7c-1.9,0-3.5-0.6-4.7-1.8c-1.2-1.2-1.9-2.7-1.9-4.4c0-1.2,0.3-2.2,0.9-3.2c0.6-1,1.4-1.8,2.4-2.3
			c1-0.6,2.2-0.8,3.4-0.8c0.8,0,1.6,0.1,2.3,0.4c0.7,0.2,1.4,0.6,1.9,0.9C314.6,8.9,315,9.4,315.4,10z"/>
		<path class="st0" d="M318.9,2.6c0.3,0,0.6,0.1,0.9,0.4s0.4,0.5,0.4,0.9c0,0.3-0.1,0.6-0.4,0.9c-0.2,0.2-0.5,0.4-0.9,0.4
			c-0.3,0-0.6-0.1-0.9-0.4c-0.2-0.2-0.4-0.5-0.4-0.9c0-0.4,0.1-0.7,0.4-0.9C318.2,2.7,318.5,2.6,318.9,2.6z M318.1,7.5h1.5v12h-1.5
			V7.5z"/>
		<path class="st0" d="M328.5,7.2c1.8,0,3.4,0.7,4.6,2c1.1,1.2,1.7,2.7,1.7,4.3c0,1.7-0.6,3.1-1.7,4.4s-2.7,1.9-4.5,1.9
			c-1.8,0-3.3-0.6-4.5-1.9s-1.7-2.7-1.7-4.4c0-1.7,0.5-3.1,1.7-4.3C325.1,7.9,326.6,7.2,328.5,7.2z M328.5,8.7
			c-1.3,0-2.4,0.5-3.3,1.4c-0.9,0.9-1.4,2.1-1.4,3.4c0,0.9,0.2,1.7,0.6,2.4c0.4,0.7,1,1.3,1.7,1.7c0.7,0.4,1.5,0.6,2.3,0.6
			c0.9,0,1.6-0.2,2.3-0.6c0.7-0.4,1.3-1,1.7-1.7c0.4-0.7,0.6-1.6,0.6-2.4c0-1.3-0.5-2.5-1.4-3.4C330.9,9.2,329.8,8.7,328.5,8.7z
			 M329.3,1.9h2.4l-3.2,3.4h-1.5L329.3,1.9z"/>
		<path class="st0" d="M337.6,7.5h1.5v2.1c0.6-0.8,1.3-1.4,2-1.8c0.7-0.4,1.6-0.6,2.4-0.6c0.9,0,1.7,0.2,2.4,0.7
			c0.7,0.5,1.2,1.1,1.5,1.8c0.3,0.8,0.5,2,0.5,3.6v6.2h-1.5v-5.7c0-1.4-0.1-2.3-0.2-2.8c-0.2-0.8-0.5-1.4-1-1.8
			c-0.5-0.4-1.2-0.6-2-0.6c-0.9,0-1.8,0.3-2.5,0.9s-1.2,1.4-1.5,2.3c-0.1,0.6-0.2,1.7-0.2,3.3v4.4h-1.5V7.5z"/>
		<path class="st0" d="M123,29.9v16.6h-1.5v-2.1c-0.6,0.8-1.4,1.4-2.2,1.8c-0.8,0.4-1.7,0.6-2.6,0.6c-1.7,0-3.1-0.6-4.3-1.8
			c-1.2-1.2-1.8-2.7-1.8-4.5c0-1.7,0.6-3.2,1.8-4.4c1.2-1.2,2.7-1.8,4.4-1.8c1,0,1.9,0.2,2.7,0.6c0.8,0.4,1.5,1,2.1,1.9v-6.8H123z
			 M116.8,35.7c-0.9,0-1.6,0.2-2.4,0.6c-0.7,0.4-1.3,1-1.7,1.8c-0.4,0.8-0.6,1.6-0.6,2.4c0,0.8,0.2,1.6,0.6,2.4
			c0.4,0.8,1,1.4,1.7,1.8c0.7,0.4,1.5,0.6,2.3,0.6c0.8,0,1.6-0.2,2.4-0.6c0.8-0.4,1.3-1,1.7-1.7c0.4-0.7,0.6-1.5,0.6-2.4
			c0-1.4-0.5-2.5-1.4-3.5C119.3,36.1,118.2,35.7,116.8,35.7z"/>
		<path class="st0" d="M136.5,42.5l1.3,0.7c-0.4,0.8-0.9,1.5-1.5,2c-0.6,0.5-1.2,0.9-1.9,1.2c-0.7,0.3-1.5,0.4-2.4,0.4
			c-2,0-3.5-0.6-4.6-1.9c-1.1-1.3-1.6-2.7-1.6-4.3c0-1.5,0.5-2.9,1.4-4.1c1.2-1.5,2.8-2.3,4.7-2.3c2,0,3.7,0.8,4.9,2.3
			c0.9,1.1,1.3,2.5,1.3,4.1h-10.8c0,1.4,0.5,2.5,1.3,3.4c0.9,0.9,1.9,1.3,3.2,1.3c0.6,0,1.2-0.1,1.8-0.3c0.6-0.2,1.1-0.5,1.5-0.8
			C135.6,43.8,136,43.3,136.5,42.5z M136.5,39.3c-0.2-0.8-0.5-1.5-0.9-2c-0.4-0.5-0.9-0.9-1.6-1.2c-0.6-0.3-1.3-0.5-2-0.5
			c-1.2,0-2.2,0.4-3,1.1c-0.6,0.5-1.1,1.4-1.4,2.5H136.5z"/>
		<path class="st0" d="M152.2,29.9v1.5c-0.6-0.2-1-0.4-1.5-0.4c-0.3,0-0.5,0.1-0.7,0.2c-0.2,0.1-0.3,0.3-0.4,0.4
			c-0.1,0.2-0.1,0.6-0.1,1.3l0,1.6h2.5v1.3h-2.5l0,10.6H148V35.8h-1.6v-1.3h1.6v-1.9c0-0.9,0.1-1.5,0.2-1.8c0.2-0.4,0.4-0.7,0.8-0.9
			c0.4-0.2,0.8-0.3,1.4-0.3C150.9,29.6,151.5,29.7,152.2,29.9z"/>
		<path class="st0" d="M160,34.2c1.8,0,3.4,0.7,4.6,2c1.1,1.2,1.7,2.7,1.7,4.3c0,1.7-0.6,3.1-1.7,4.4c-1.2,1.2-2.7,1.9-4.5,1.9
			c-1.8,0-3.3-0.6-4.5-1.9s-1.7-2.7-1.7-4.4c0-1.7,0.6-3.1,1.7-4.3C156.6,34.9,158.2,34.2,160,34.2z M160,35.7
			c-1.3,0-2.4,0.5-3.3,1.4c-0.9,0.9-1.4,2.1-1.4,3.4c0,0.9,0.2,1.7,0.6,2.4c0.4,0.7,1,1.3,1.7,1.7c0.7,0.4,1.5,0.6,2.3,0.6
			c0.9,0,1.6-0.2,2.3-0.6c0.7-0.4,1.3-1,1.7-1.7s0.6-1.6,0.6-2.4c0-1.3-0.5-2.5-1.4-3.4C162.4,36.2,161.3,35.7,160,35.7z"/>
		<path class="st0" d="M168.5,34.5h1.6v1.7c0.5-0.7,1-1.2,1.5-1.5c0.5-0.3,1.1-0.5,1.6-0.5c0.4,0,0.9,0.1,1.4,0.4l-0.8,1.3
			c-0.3-0.1-0.6-0.2-0.8-0.2c-0.5,0-1,0.2-1.5,0.6c-0.5,0.4-0.8,1.1-1.1,2c-0.2,0.7-0.3,2.1-0.3,4.1v4h-1.6V34.5z"/>
		<path class="st0" d="M176.5,34.5h1.5v2.1c0.5-0.8,1.1-1.3,1.7-1.7c0.8-0.5,1.6-0.7,2.5-0.7c0.6,0,1.1,0.1,1.7,0.3
			c0.5,0.2,0.9,0.5,1.3,0.9c0.3,0.4,0.6,0.9,0.9,1.6c0.5-0.9,1.2-1.6,1.9-2.1c0.8-0.5,1.6-0.7,2.5-0.7c0.8,0,1.6,0.2,2.2,0.6
			s1.1,1,1.4,1.7c0.3,0.7,0.5,1.9,0.5,3.4v6.5h-1.6v-6.5c0-1.3-0.1-2.2-0.3-2.6c-0.2-0.5-0.5-0.9-0.9-1.2c-0.4-0.3-1-0.4-1.6-0.4
			c-0.7,0-1.4,0.2-2,0.7c-0.6,0.4-1.1,1-1.4,1.8c-0.3,0.7-0.4,2-0.4,3.7v4.7h-1.5v-6.1c0-1.4-0.1-2.4-0.3-2.9
			c-0.2-0.5-0.5-0.9-0.9-1.2c-0.4-0.3-1-0.5-1.6-0.5c-0.7,0-1.4,0.2-2,0.6c-0.6,0.4-1.1,1-1.4,1.7c-0.3,0.7-0.4,1.8-0.4,3.3v5.1
			h-1.5V34.5z"/>
		<path class="st0" d="M209.5,34.5v12H208v-2.1c-0.6,0.8-1.4,1.4-2.2,1.8s-1.7,0.6-2.6,0.6c-1.7,0-3.1-0.6-4.3-1.8
			c-1.2-1.2-1.8-2.7-1.8-4.5c0-1.7,0.6-3.2,1.8-4.4c1.2-1.2,2.7-1.8,4.4-1.8c1,0,1.9,0.2,2.7,0.6c0.8,0.4,1.5,1,2.1,1.9v-2.2H209.5z
			 M203.4,35.7c-0.9,0-1.6,0.2-2.4,0.6s-1.3,1-1.7,1.8c-0.4,0.8-0.6,1.6-0.6,2.4c0,0.8,0.2,1.6,0.6,2.4c0.4,0.8,1,1.4,1.7,1.8
			s1.5,0.6,2.3,0.6c0.8,0,1.6-0.2,2.4-0.6c0.8-0.4,1.3-1,1.7-1.7c0.4-0.7,0.6-1.5,0.6-2.4c0-1.4-0.5-2.5-1.4-3.5
			C205.8,36.1,204.7,35.7,203.4,35.7z"/>
		<path class="st0" d="M219,29.9h1.5v16.6H219V29.9z"/>
		<path class="st0" d="M233.8,42.5l1.3,0.7c-0.4,0.8-0.9,1.5-1.5,2c-0.6,0.5-1.2,0.9-1.9,1.2c-0.7,0.3-1.5,0.4-2.4,0.4
			c-2,0-3.5-0.6-4.6-1.9c-1.1-1.3-1.6-2.7-1.6-4.3c0-1.5,0.5-2.9,1.4-4.1c1.2-1.5,2.8-2.3,4.7-2.3c2,0,3.7,0.8,4.9,2.3
			c0.9,1.1,1.3,2.5,1.3,4.1h-10.8c0,1.4,0.5,2.5,1.3,3.4c0.9,0.9,1.9,1.3,3.2,1.3c0.6,0,1.2-0.1,1.8-0.3c0.6-0.2,1.1-0.5,1.5-0.8
			C232.9,43.8,233.3,43.3,233.8,42.5z M233.8,39.3c-0.2-0.8-0.5-1.5-0.9-2c-0.4-0.5-0.9-0.9-1.6-1.2c-0.6-0.3-1.3-0.5-2-0.5
			c-1.2,0-2.2,0.4-3,1.1c-0.6,0.5-1.1,1.4-1.4,2.5H233.8z"/>
		<path class="st0" d="M248.6,34.5h1.5V44c0,1.7-0.1,2.9-0.4,3.7c-0.4,1.1-1.1,1.9-2.1,2.5c-1,0.6-2.2,0.9-3.6,0.9
			c-1,0-1.9-0.1-2.8-0.4c-0.8-0.3-1.5-0.7-2-1.2c-0.5-0.5-1-1.2-1.4-2.1h1.7c0.5,0.8,1,1.4,1.8,1.8c0.7,0.4,1.6,0.6,2.7,0.6
			c1,0,1.9-0.2,2.7-0.6c0.7-0.4,1.2-0.9,1.5-1.5c0.3-0.6,0.5-1.5,0.5-2.9v-0.6c-0.6,0.7-1.3,1.3-2.1,1.7c-0.8,0.4-1.7,0.6-2.7,0.6
			c-1.1,0-2.1-0.3-3.1-0.8c-1-0.5-1.7-1.3-2.2-2.2c-0.5-0.9-0.8-1.9-0.8-3s0.3-2.1,0.8-3.1c0.5-1,1.3-1.7,2.3-2.3s2-0.8,3.1-0.8
			c0.9,0,1.7,0.2,2.5,0.6c0.8,0.4,1.5,1,2.2,1.8V34.5z M244.1,35.7c-0.9,0-1.7,0.2-2.4,0.6c-0.7,0.4-1.3,1-1.8,1.7
			c-0.4,0.7-0.6,1.5-0.6,2.4c0,1.3,0.4,2.4,1.3,3.3s2,1.3,3.4,1.3c1.4,0,2.6-0.4,3.4-1.3c0.9-0.8,1.3-2,1.3-3.4
			c0-0.9-0.2-1.7-0.6-2.4c-0.4-0.7-1-1.3-1.7-1.7S244.9,35.7,244.1,35.7z"/>
		<path class="st0" d="M254,29.6c0.3,0,0.6,0.1,0.9,0.4c0.2,0.2,0.4,0.5,0.4,0.9c0,0.3-0.1,0.6-0.4,0.9c-0.2,0.2-0.5,0.4-0.9,0.4
			c-0.3,0-0.6-0.1-0.9-0.4c-0.2-0.2-0.4-0.5-0.4-0.9c0-0.4,0.1-0.7,0.4-0.9C253.3,29.7,253.6,29.6,254,29.6z M253.2,34.5h1.5v12
			h-1.5V34.5z"/>
		<path class="st0" d="M258.1,46.4V29.9h1.5v6.7c0.6-0.8,1.4-1.4,2.2-1.8s1.7-0.6,2.6-0.6c1.7,0,3.1,0.6,4.3,1.8
			c1.2,1.2,1.8,2.7,1.8,4.5c0,1.7-0.6,3.2-1.8,4.4c-1.2,1.2-2.7,1.8-4.4,1.8c-1,0-1.9-0.2-2.6-0.6c-0.8-0.4-1.5-1-2.1-1.9v2.2H258.1
			z M264.2,45.3c0.9,0,1.6-0.2,2.4-0.6c0.7-0.4,1.3-1,1.7-1.8c0.4-0.8,0.6-1.6,0.6-2.4c0-0.8-0.2-1.7-0.6-2.4
			c-0.4-0.8-1-1.4-1.7-1.8c-0.7-0.4-1.5-0.6-2.3-0.6c-0.8,0-1.6,0.2-2.4,0.6c-0.8,0.4-1.3,1-1.7,1.7c-0.4,0.7-0.6,1.5-0.6,2.4
			c0,1.4,0.5,2.5,1.4,3.5C261.8,44.8,262.9,45.3,264.2,45.3z"/>
		<path class="st0" d="M273.1,29.9h1.5v16.6h-1.5V29.9z"/>
		<path class="st0" d="M287.9,42.5l1.3,0.7c-0.4,0.8-0.9,1.5-1.5,2c-0.6,0.5-1.2,0.9-1.9,1.2c-0.7,0.3-1.5,0.4-2.4,0.4
			c-2,0-3.5-0.6-4.6-1.9c-1.1-1.3-1.6-2.7-1.6-4.3c0-1.5,0.5-2.9,1.4-4.1c1.2-1.5,2.8-2.3,4.7-2.3c2,0,3.7,0.8,4.9,2.3
			c0.9,1.1,1.3,2.5,1.3,4.1h-10.8c0,1.4,0.5,2.5,1.3,3.4c0.9,0.9,1.9,1.3,3.2,1.3c0.6,0,1.2-0.1,1.8-0.3c0.6-0.2,1.1-0.5,1.5-0.8
			C287,43.8,287.4,43.3,287.9,42.5z M287.9,39.3c-0.2-0.8-0.5-1.5-0.9-2s-0.9-0.9-1.6-1.2c-0.6-0.3-1.3-0.5-2-0.5
			c-1.2,0-2.2,0.4-3,1.1c-0.6,0.5-1.1,1.4-1.4,2.5H287.9z"/>
	</g>
	<path class="st0" d="M200,74.2c-32.6,0-59,26.4-59,59s26.4,59,59,59s59-26.4,59-59S232.6,74.2,200,74.2z M200,189.3
		c-31,0-56.2-25.1-56.2-56.2S169,77,200,77s56.2,25.1,56.2,56.2S231,189.3,200,189.3z"/>
	<g>
		<path class="st0" d="M218.9,120.9c-0.2-1-0.7-2-1.5-2.8l-10.8-10.8c-0.9-0.9-1.9-1.4-3-1.6l-0.3,0h-16.5c-3.1,0-5.6,2.5-5.6,5.6
			v12.5h0v0.7h0v26.2c0,3.1,2.5,5.6,5.6,5.6h0h3.3h0.9h0h22.3c3.1,0,5.6-2.5,5.6-5.6v-29.4L218.9,120.9z M215.6,150.6
			c0,1.2-1,2.3-2.3,2.3H191h0h-4.2c-1.2,0-2.3-1-2.3-2.3v-24.1c0,0,0,0,0,0c0-0.4,0-0.8,0-1.2v-0.9h0c0-7.8,0-13.2,0-13.2
			c0-1.2,1-2.3,2.3-2.3h14.8v8.2c0,3.1,2.5,5.6,5.6,5.6h8.4V150.6z"/>
		<path class="st0" d="M188.1,117h10.5v-3.4h-10.5c-0.9,0-1.7,0.8-1.7,1.7C186.4,116.3,187.2,117,188.1,117z"/>
		<path class="st0" d="M188.1,122.9h11.6c-0.7-0.9-1.1-2.1-1.1-3.4h-10.5c-0.9,0-1.7,0.8-1.7,1.7
			C186.4,122.1,187.2,122.9,188.1,122.9z"/>
		<path class="st0" d="M190.3,125.4h-2.2c-0.9,0-1.7,0.8-1.7,1.7c0,0.9,0.7,1.7,1.7,1.7h10.5v0h13.6c0.9,0,1.7-0.8,1.7-1.7
			c0-0.9-0.8-1.7-1.7-1.7L190.3,125.4C190.3,125.4,190.3,125.4,190.3,125.4z"/>
		<path class="st0" d="M212.2,131.3h-21.9c0,0,0,0,0,0h-2.2c-0.9,0-1.7,0.8-1.7,1.7c0,0.9,0.7,1.7,1.7,1.7h10.5v0h13.6
			c0.9,0,1.7-0.8,1.7-1.7C213.9,132,213.1,131.3,212.2,131.3z"/>
		<path class="st0" d="M212.2,137h-21.9c0,0,0,0,0,0h-2.2c-0.9,0-1.7,0.8-1.7,1.7c0,0.9,0.7,1.7,1.7,1.7h10.5v0h13.6
			c0.9,0,1.7-0.8,1.7-1.7C213.9,137.8,213.1,137,212.2,137z"/>
		<path class="st0" d="M212.2,142.9h-21.9c0,0,0,0,0,0h-2.2c-0.9,0-1.7,0.8-1.7,1.7c0,0.9,0.7,1.7,1.7,1.7h10.5v0h13.6
			c0.9,0,1.7-0.8,1.7-1.7C213.9,143.7,213.1,142.9,212.2,142.9z"/>
	</g>
</g>
</svg>
