<?xml version="1.0" encoding="utf-8"?>
<!-- Generator: Adobe Illustrator 27.1.1, SVG Export Plug-In . SVG Version: 6.00 Build 0)  -->
<svg version="1.1" id="Capa_1" xmlns="http://www.w3.org/2000/svg" xmlns:xlink="http://www.w3.org/1999/xlink" x="0px" y="0px"
	 viewBox="0 0 400 300" style="enable-background:new 0 0 400 300;" xml:space="preserve">
<style type="text/css">
	.st0{fill:#F7F7F8;}
</style>
<g>
	<g>
		<g>
			<path class="st0" d="M36.5,215.4v14.2h-1.3v-1.8c-0.6,0.7-1.2,1.2-1.9,1.5c-0.7,0.3-1.4,0.5-2.3,0.5c-1.5,0-2.7-0.5-3.7-1.6
				c-1-1.1-1.5-2.3-1.5-3.8c0-1.5,0.5-2.7,1.6-3.8s2.3-1.6,3.7-1.6c0.8,0,1.6,0.2,2.3,0.5c0.7,0.4,1.3,0.9,1.8,1.6v-5.8H36.5z
				 M31.2,220.4c-0.7,0-1.4,0.2-2,0.5c-0.6,0.4-1.1,0.9-1.5,1.5c-0.4,0.7-0.5,1.3-0.5,2.1c0,0.7,0.2,1.4,0.6,2.1
				c0.4,0.7,0.9,1.2,1.5,1.5c0.6,0.4,1.3,0.6,2,0.6c0.7,0,1.4-0.2,2-0.5c0.6-0.4,1.1-0.9,1.5-1.5c0.3-0.6,0.5-1.3,0.5-2.1
				c0-1.2-0.4-2.2-1.2-3S32.4,220.4,31.2,220.4z"/>
			<path class="st0" d="M48.1,226.2l1.1,0.6c-0.4,0.7-0.8,1.3-1.3,1.7s-1,0.8-1.6,1c-0.6,0.2-1.3,0.3-2,0.3c-1.7,0-3-0.5-3.9-1.6
				c-0.9-1.1-1.4-2.3-1.4-3.7c0-1.3,0.4-2.5,1.2-3.5c1-1.3,2.4-1.9,4.1-1.9c1.7,0,3.1,0.7,4.2,2c0.7,0.9,1.1,2.1,1.1,3.5h-9.2
				c0,1.2,0.4,2.2,1.1,2.9c0.7,0.8,1.6,1.1,2.7,1.1c0.5,0,1-0.1,1.5-0.3c0.5-0.2,0.9-0.4,1.3-0.7C47.3,227.4,47.7,226.9,48.1,226.2z
				 M48.1,223.4c-0.2-0.7-0.4-1.3-0.8-1.7c-0.3-0.4-0.8-0.8-1.3-1s-1.1-0.4-1.7-0.4c-1,0-1.9,0.3-2.6,1c-0.5,0.5-0.9,1.2-1.2,2.1
				H48.1z"/>
			<path class="st0" d="M67.3,221.5l-1,0.6c-0.9-1.2-2.1-1.8-3.7-1.8c-1.2,0-2.3,0.4-3.1,1.2c-0.8,0.8-1.2,1.8-1.2,2.9
				c0,0.7,0.2,1.4,0.6,2.1c0.4,0.7,0.9,1.2,1.6,1.5c0.7,0.4,1.4,0.5,2.2,0.5c1.5,0,2.7-0.6,3.7-1.8l1,0.7c-0.5,0.7-1.1,1.3-2,1.7
				s-1.8,0.6-2.8,0.6c-1.6,0-3-0.5-4-1.5c-1.1-1-1.6-2.3-1.6-3.8c0-1,0.2-1.9,0.7-2.8c0.5-0.9,1.2-1.5,2.1-2s1.8-0.7,2.9-0.7
				c0.7,0,1.3,0.1,2,0.3c0.6,0.2,1.2,0.5,1.6,0.8C66.6,220.5,67,221,67.3,221.5z"/>
			<path class="st0" d="M69.3,219.4h1.3v1.5c0.4-0.6,0.8-1,1.3-1.3c0.4-0.3,0.9-0.4,1.4-0.4c0.4,0,0.8,0.1,1.2,0.3l-0.7,1.1
				c-0.3-0.1-0.5-0.2-0.7-0.2c-0.4,0-0.9,0.2-1.3,0.5c-0.4,0.4-0.7,0.9-0.9,1.7c-0.2,0.6-0.2,1.8-0.2,3.5v3.5h-1.3V219.4z"/>
			<path class="st0" d="M84.3,226.2l1.1,0.6c-0.4,0.7-0.8,1.3-1.3,1.7s-1,0.8-1.6,1c-0.6,0.2-1.3,0.3-2,0.3c-1.7,0-3-0.5-3.9-1.6
				c-0.9-1.1-1.4-2.3-1.4-3.7c0-1.3,0.4-2.5,1.2-3.5c1-1.3,2.4-1.9,4.1-1.9c1.7,0,3.1,0.7,4.2,2c0.7,0.9,1.1,2.1,1.1,3.5h-9.2
				c0,1.2,0.4,2.2,1.1,2.9c0.7,0.8,1.6,1.1,2.7,1.1c0.5,0,1-0.1,1.5-0.3c0.5-0.2,0.9-0.4,1.3-0.7C83.5,227.4,83.9,226.9,84.3,226.2z
				 M84.3,223.4c-0.2-0.7-0.4-1.3-0.8-1.7c-0.3-0.4-0.8-0.8-1.3-1s-1.1-0.4-1.7-0.4c-1,0-1.9,0.3-2.6,1c-0.5,0.5-0.9,1.2-1.2,2.1
				H84.3z M81.1,214.6h2l-2.8,2.9H79L81.1,214.6z"/>
			<path class="st0" d="M98.4,215.4v14.2h-1.3v-1.8c-0.6,0.7-1.2,1.2-1.9,1.5c-0.7,0.3-1.4,0.5-2.3,0.5c-1.5,0-2.7-0.5-3.7-1.6
				c-1-1.1-1.5-2.3-1.5-3.8c0-1.5,0.5-2.7,1.6-3.8s2.3-1.6,3.7-1.6c0.8,0,1.6,0.2,2.3,0.5c0.7,0.4,1.3,0.9,1.8,1.6v-5.8H98.4z
				 M93.1,220.4c-0.7,0-1.4,0.2-2,0.5c-0.6,0.4-1.1,0.9-1.5,1.5c-0.4,0.7-0.5,1.3-0.5,2.1c0,0.7,0.2,1.4,0.6,2.1
				c0.4,0.7,0.9,1.2,1.5,1.5c0.6,0.4,1.3,0.6,2,0.6c0.7,0,1.4-0.2,2-0.5c0.6-0.4,1.1-0.9,1.5-1.5c0.3-0.6,0.5-1.3,0.5-2.1
				c0-1.2-0.4-2.2-1.2-3C95.2,220.8,94.3,220.4,93.1,220.4z"/>
			<path class="st0" d="M101.8,215.1c0.3,0,0.6,0.1,0.8,0.3c0.2,0.2,0.3,0.5,0.3,0.8c0,0.3-0.1,0.5-0.3,0.8
				c-0.2,0.2-0.5,0.3-0.8,0.3c-0.3,0-0.5-0.1-0.8-0.3c-0.2-0.2-0.3-0.5-0.3-0.8c0-0.3,0.1-0.6,0.3-0.8
				C101.3,215.2,101.6,215.1,101.8,215.1z M101.2,219.4h1.3v10.2h-1.3V219.4z"/>
			<path class="st0" d="M106.4,215.5h1.3v3.8h2.1v1.1h-2.1v9.1h-1.3v-9.1h-1.8v-1.1h1.8V215.5z"/>
			<path class="st0" d="M116.6,219.1c1.6,0,2.9,0.6,3.9,1.7c0.9,1,1.4,2.3,1.4,3.7c0,1.4-0.5,2.7-1.5,3.8c-1,1.1-2.3,1.6-3.8,1.6
				c-1.6,0-2.9-0.5-3.9-1.6c-1-1.1-1.5-2.3-1.5-3.8c0-1.4,0.5-2.6,1.4-3.7C113.7,219.7,115.1,219.1,116.6,219.1z M116.6,220.4
				c-1.1,0-2,0.4-2.8,1.2c-0.8,0.8-1.2,1.8-1.2,2.9c0,0.7,0.2,1.4,0.5,2.1c0.4,0.6,0.8,1.1,1.5,1.5c0.6,0.3,1.3,0.5,2,0.5
				c0.7,0,1.4-0.2,2-0.5c0.6-0.3,1.1-0.8,1.5-1.5c0.4-0.6,0.5-1.3,0.5-2.1c0-1.1-0.4-2.1-1.2-2.9
				C118.7,220.8,117.7,220.4,116.6,220.4z"/>
			<path class="st0" d="M128.7,219.4h1.4l3.5,7.9l3.4-7.9h1.4l-6.1,14h-1.4l2-4.5L128.7,219.4z"/>
			<path class="st0" d="M154.1,226.2l1.1,0.6c-0.4,0.7-0.8,1.3-1.3,1.7c-0.5,0.4-1,0.8-1.6,1c-0.6,0.2-1.3,0.3-2,0.3
				c-1.7,0-3-0.5-3.9-1.6c-0.9-1.1-1.4-2.3-1.4-3.7c0-1.3,0.4-2.5,1.2-3.5c1-1.3,2.4-1.9,4.1-1.9c1.7,0,3.1,0.7,4.2,2
				c0.7,0.9,1.1,2.1,1.1,3.5h-9.2c0,1.2,0.4,2.2,1.1,2.9c0.7,0.8,1.6,1.1,2.7,1.1c0.5,0,1-0.1,1.5-0.3c0.5-0.2,0.9-0.4,1.3-0.7
				C153.3,227.4,153.7,226.9,154.1,226.2z M154.1,223.4c-0.2-0.7-0.4-1.3-0.8-1.7c-0.3-0.4-0.8-0.8-1.3-1s-1.1-0.4-1.7-0.4
				c-1,0-1.9,0.3-2.6,1c-0.5,0.5-0.9,1.2-1.2,2.1H154.1z"/>
			<path class="st0" d="M158,219.4h1.3v1.8c0.5-0.7,1.1-1.2,1.8-1.6c0.6-0.3,1.3-0.5,2.1-0.5c0.8,0,1.4,0.2,2,0.6s1,0.9,1.3,1.6
				s0.4,1.7,0.4,3.1v5.3h-1.3v-4.9c0-1.2,0-2-0.1-2.4c-0.2-0.7-0.4-1.2-0.9-1.5c-0.4-0.3-1-0.5-1.7-0.5c-0.8,0-1.5,0.3-2.1,0.8
				c-0.6,0.5-1,1.2-1.2,2c-0.1,0.5-0.2,1.4-0.2,2.8v3.8H158V219.4z"/>
			<path class="st0" d="M176.1,219h-1.4c0.3-1.1,0.8-2,1.5-2.6c0.7-0.6,1.6-0.9,2.6-0.9c0.7,0,1.4,0.2,2,0.5
				c0.6,0.3,1.1,0.8,1.5,1.3c0.3,0.6,0.5,1.1,0.5,1.8c0,1.2-0.6,2.1-1.8,2.8c0.7,0.3,1.2,0.7,1.6,1.2c0.6,0.7,0.9,1.6,0.9,2.5
				c0,0.8-0.2,1.5-0.6,2.2c-0.4,0.7-1,1.3-1.7,1.7c-0.7,0.4-1.5,0.6-2.4,0.6c-1.2,0-2.2-0.3-3-1c-0.8-0.7-1.3-1.7-1.6-3h1.4
				c0.2,0.9,0.6,1.5,1,1.9c0.6,0.5,1.3,0.8,2.2,0.8c1,0,1.8-0.3,2.4-0.9c0.6-0.6,0.9-1.3,0.9-2.1c0-0.5-0.2-1-0.5-1.5
				c-0.3-0.5-0.7-0.8-1.2-1.1c-0.5-0.2-1.3-0.4-2.4-0.4v-1.3c0.6,0,1.2-0.1,1.7-0.3c0.5-0.2,0.9-0.5,1.1-0.9
				c0.2-0.3,0.4-0.7,0.4-1.1c0-0.6-0.2-1.1-0.7-1.6s-1.1-0.7-1.8-0.7c-0.6,0-1.1,0.2-1.5,0.5C176.8,217.6,176.4,218.2,176.1,219z"/>
			<path class="st0" d="M184.9,222.7c0-1.8,0.2-3.2,0.6-4.2c0.4-1,0.9-1.8,1.7-2.3c0.7-0.5,1.5-0.8,2.4-0.8c0.9,0,1.7,0.3,2.4,0.8
				c0.7,0.5,1.3,1.3,1.7,2.3c0.4,1,0.6,2.4,0.6,4.2c0,1.7-0.2,3.1-0.6,4.2c-0.4,1-1,1.8-1.7,2.3s-1.6,0.8-2.4,0.8
				c-0.9,0-1.7-0.3-2.4-0.8c-0.7-0.5-1.3-1.3-1.7-2.3C185.1,225.9,184.9,224.5,184.9,222.7z M186.2,222.7c0,1.6,0.1,2.7,0.4,3.5
				c0.3,0.8,0.7,1.4,1.2,1.8c0.5,0.4,1.1,0.6,1.7,0.6c0.6,0,1.2-0.2,1.7-0.6c0.5-0.4,0.9-1,1.2-1.8c0.3-1,0.5-2.2,0.5-3.6
				c0-1.4-0.2-2.5-0.5-3.4c-0.3-0.9-0.7-1.5-1.3-2c-0.5-0.4-1.1-0.6-1.7-0.6c-0.6,0-1.2,0.2-1.7,0.6c-0.5,0.4-1,1-1.2,1.8
				C186.3,219.9,186.2,221.1,186.2,222.7z"/>
			<path class="st0" d="M201.8,219.4h1.3v1.8c0.5-0.7,0.9-1.1,1.4-1.4c0.7-0.4,1.4-0.6,2.1-0.6c0.5,0,1,0.1,1.4,0.3
				c0.4,0.2,0.8,0.5,1.1,0.8s0.5,0.8,0.7,1.4c0.4-0.8,1-1.4,1.6-1.8s1.4-0.6,2.1-0.6c0.7,0,1.3,0.2,1.9,0.5c0.5,0.4,0.9,0.9,1.2,1.5
				c0.3,0.6,0.4,1.6,0.4,2.9v5.6h-1.3V224c0-1.1-0.1-1.9-0.2-2.3c-0.2-0.4-0.4-0.7-0.8-1c-0.4-0.3-0.8-0.4-1.4-0.4
				c-0.6,0-1.2,0.2-1.8,0.6c-0.5,0.4-0.9,0.9-1.2,1.5c-0.2,0.6-0.4,1.7-0.4,3.1v4h-1.3v-5.2c0-1.2-0.1-2.1-0.2-2.5s-0.4-0.8-0.8-1.1
				c-0.4-0.3-0.8-0.4-1.4-0.4c-0.6,0-1.2,0.2-1.7,0.6s-0.9,0.9-1.2,1.5c-0.3,0.6-0.4,1.6-0.4,2.9v4.3h-1.3V219.4z"/>
			<path class="st0" d="M220.3,215.1c0.3,0,0.6,0.1,0.8,0.3c0.2,0.2,0.3,0.5,0.3,0.8c0,0.3-0.1,0.5-0.3,0.8
				c-0.2,0.2-0.5,0.3-0.8,0.3c-0.3,0-0.5-0.1-0.8-0.3c-0.2-0.2-0.3-0.5-0.3-0.8c0-0.3,0.1-0.6,0.3-0.8
				C219.8,215.2,220,215.1,220.3,215.1z M219.7,219.4h1.3v10.2h-1.3V219.4z"/>
			<path class="st0" d="M223.7,219.4h1.3v1.8c0.5-0.7,1.1-1.2,1.8-1.6c0.6-0.3,1.3-0.5,2.1-0.5c0.8,0,1.4,0.2,2,0.6s1,0.9,1.3,1.6
				s0.4,1.7,0.4,3.1v5.3h-1.3v-4.9c0-1.2,0-2-0.1-2.4c-0.2-0.7-0.4-1.2-0.9-1.5c-0.4-0.3-1-0.5-1.7-0.5c-0.8,0-1.5,0.3-2.1,0.8
				c-0.6,0.5-1,1.2-1.2,2c-0.1,0.5-0.2,1.4-0.2,2.8v3.8h-1.3V219.4z"/>
			<path class="st0" d="M235.3,219.4h1.3v4.8c0,1.2,0.1,2,0.2,2.4c0.2,0.6,0.5,1.1,1.1,1.5c0.5,0.4,1.2,0.5,1.9,0.5
				c0.7,0,1.4-0.2,1.9-0.5c0.5-0.4,0.9-0.8,1.1-1.4c0.1-0.4,0.2-1.2,0.2-2.5v-4.8h1.3v5c0,1.4-0.2,2.5-0.5,3.2
				c-0.3,0.7-0.8,1.3-1.5,1.7c-0.7,0.4-1.5,0.6-2.5,0.6c-1,0-1.8-0.2-2.5-0.6s-1.2-1-1.5-1.7c-0.3-0.7-0.5-1.8-0.5-3.3V219.4z"/>
			<path class="st0" d="M248.4,215.5h1.3v3.8h2.1v1.1h-2.1v9.1h-1.3v-9.1h-1.8v-1.1h1.8V215.5z"/>
			<path class="st0" d="M258.6,219.1c1.6,0,2.9,0.6,3.9,1.7c0.9,1,1.4,2.3,1.4,3.7c0,1.4-0.5,2.7-1.5,3.8c-1,1.1-2.3,1.6-3.8,1.6
				c-1.6,0-2.9-0.5-3.9-1.6c-1-1.1-1.5-2.3-1.5-3.8c0-1.4,0.5-2.6,1.4-3.7C255.7,219.7,257,219.1,258.6,219.1z M258.6,220.4
				c-1.1,0-2,0.4-2.8,1.2c-0.8,0.8-1.2,1.8-1.2,2.9c0,0.7,0.2,1.4,0.5,2.1c0.4,0.6,0.8,1.1,1.5,1.5c0.6,0.3,1.3,0.5,2,0.5
				c0.7,0,1.4-0.2,2-0.5c0.6-0.3,1.1-0.8,1.5-1.5c0.4-0.6,0.5-1.3,0.5-2.1c0-1.1-0.4-2.1-1.2-2.9
				C260.6,220.8,259.7,220.4,258.6,220.4z"/>
			<path class="st0" d="M271.5,220.5l-0.8,0.9c-0.7-0.7-1.4-1-2.1-1c-0.4,0-0.8,0.1-1.1,0.4s-0.5,0.6-0.5,1c0,0.3,0.1,0.6,0.4,1
				c0.3,0.3,0.8,0.7,1.6,1.1c1,0.5,1.6,1,2,1.5c0.3,0.5,0.5,1,0.5,1.6c0,0.8-0.3,1.6-0.9,2.1c-0.6,0.6-1.3,0.9-2.2,0.9
				c-0.6,0-1.2-0.1-1.7-0.4c-0.5-0.3-1-0.6-1.3-1.1l0.8-0.9c0.7,0.8,1.4,1.1,2.1,1.1c0.5,0,1-0.2,1.3-0.5c0.4-0.3,0.6-0.7,0.6-1.2
				c0-0.4-0.1-0.7-0.4-1c-0.2-0.3-0.8-0.7-1.7-1.1c-0.9-0.5-1.6-0.9-1.9-1.4c-0.3-0.5-0.5-1-0.5-1.6c0-0.8,0.3-1.4,0.8-1.9
				c0.5-0.5,1.2-0.8,2-0.8C269.6,219.1,270.6,219.6,271.5,220.5z"/>
			<path class="st0" d="M284,219.1c1.6,0,2.9,0.6,3.9,1.7c0.9,1,1.4,2.3,1.4,3.7c0,1.4-0.5,2.7-1.5,3.8c-1,1.1-2.3,1.6-3.8,1.6
				c-1.6,0-2.9-0.5-3.9-1.6c-1-1.1-1.5-2.3-1.5-3.8c0-1.4,0.5-2.6,1.4-3.7C281.2,219.7,282.5,219.1,284,219.1z M284,220.4
				c-1.1,0-2,0.4-2.8,1.2c-0.8,0.8-1.2,1.8-1.2,2.9c0,0.7,0.2,1.4,0.5,2.1c0.4,0.6,0.8,1.1,1.5,1.5c0.6,0.3,1.3,0.5,2,0.5
				c0.7,0,1.4-0.2,2-0.5c0.6-0.3,1.1-0.8,1.5-1.5c0.4-0.6,0.5-1.3,0.5-2.1c0-1.1-0.4-2.1-1.2-2.9C286.1,220.8,285.1,220.4,284,220.4
				z"/>
			<path class="st0" d="M291.9,229.6v-14.2h1.3v5.7c0.6-0.7,1.2-1.2,1.9-1.5c0.7-0.3,1.4-0.5,2.2-0.5c1.4,0,2.7,0.5,3.7,1.6
				c1,1.1,1.5,2.3,1.5,3.8c0,1.5-0.5,2.7-1.6,3.8c-1,1-2.3,1.6-3.7,1.6c-0.8,0-1.6-0.2-2.3-0.5c-0.7-0.4-1.3-0.9-1.8-1.6v1.9H291.9z
				 M297.2,228.6c0.7,0,1.4-0.2,2-0.5c0.6-0.4,1.1-0.9,1.5-1.5c0.4-0.7,0.6-1.3,0.6-2.1s-0.2-1.4-0.6-2.1c-0.4-0.7-0.9-1.2-1.5-1.5
				c-0.6-0.4-1.3-0.6-2-0.6c-0.7,0-1.4,0.2-2.1,0.6c-0.6,0.4-1.1,0.9-1.5,1.5c-0.3,0.6-0.5,1.3-0.5,2.1c0,1.2,0.4,2.2,1.2,3
				C295.1,228.2,296,228.6,297.2,228.6z"/>
			<path class="st0" d="M306.1,215.5h1.3v3.8h2.1v1.1h-2.1v9.1h-1.3v-9.1h-1.8v-1.1h1.8V215.5z"/>
			<path class="st0" d="M320.1,226.2l1.1,0.6c-0.4,0.7-0.8,1.3-1.3,1.7s-1,0.8-1.6,1c-0.6,0.2-1.3,0.3-2,0.3c-1.7,0-3-0.5-3.9-1.6
				c-0.9-1.1-1.4-2.3-1.4-3.7c0-1.3,0.4-2.5,1.2-3.5c1-1.3,2.4-1.9,4.1-1.9c1.7,0,3.1,0.7,4.2,2c0.7,0.9,1.1,2.1,1.1,3.5h-9.2
				c0,1.2,0.4,2.2,1.1,2.9c0.7,0.8,1.6,1.1,2.7,1.1c0.5,0,1-0.1,1.5-0.3c0.5-0.2,0.9-0.4,1.3-0.7
				C319.4,227.4,319.7,226.9,320.1,226.2z M320.1,223.4c-0.2-0.7-0.4-1.3-0.8-1.7c-0.3-0.4-0.8-0.8-1.3-1c-0.6-0.3-1.1-0.4-1.7-0.4
				c-1,0-1.9,0.3-2.6,1c-0.5,0.5-0.9,1.2-1.2,2.1H320.1z"/>
			<path class="st0" d="M324,219.4h1.3v1.8c0.5-0.7,1.1-1.2,1.8-1.6c0.6-0.3,1.3-0.5,2.1-0.5c0.8,0,1.4,0.2,2,0.6s1,0.9,1.3,1.6
				c0.3,0.7,0.4,1.7,0.4,3.1v5.3h-1.3v-4.9c0-1.2,0-2-0.1-2.4c-0.2-0.7-0.4-1.2-0.9-1.5c-0.4-0.3-1-0.5-1.7-0.5
				c-0.8,0-1.5,0.3-2.1,0.8c-0.6,0.5-1,1.2-1.2,2c-0.1,0.5-0.2,1.4-0.2,2.8v3.8H324V219.4z"/>
			<path class="st0" d="M346,215.4v14.2h-1.3v-1.8c-0.6,0.7-1.2,1.2-1.9,1.5c-0.7,0.3-1.4,0.5-2.3,0.5c-1.5,0-2.7-0.5-3.7-1.6
				c-1-1.1-1.5-2.3-1.5-3.8c0-1.5,0.5-2.7,1.6-3.8s2.3-1.6,3.7-1.6c0.8,0,1.6,0.2,2.3,0.5c0.7,0.4,1.3,0.9,1.8,1.6v-5.8H346z
				 M340.8,220.4c-0.7,0-1.4,0.2-2,0.5c-0.6,0.4-1.1,0.9-1.5,1.5c-0.4,0.7-0.5,1.3-0.5,2.1c0,0.7,0.2,1.4,0.6,2.1
				c0.4,0.7,0.9,1.2,1.5,1.5c0.6,0.4,1.3,0.6,2,0.6c0.7,0,1.4-0.2,2-0.5c0.6-0.4,1.1-0.9,1.5-1.5c0.3-0.6,0.5-1.3,0.5-2.1
				c0-1.2-0.4-2.2-1.2-3S341.9,220.4,340.8,220.4z"/>
			<path class="st0" d="M348.5,219.4h1.3v1.5c0.4-0.6,0.8-1,1.3-1.3c0.4-0.3,0.9-0.4,1.4-0.4c0.4,0,0.8,0.1,1.2,0.3l-0.7,1.1
				c-0.3-0.1-0.5-0.2-0.7-0.2c-0.4,0-0.9,0.2-1.3,0.5c-0.4,0.4-0.7,0.9-0.9,1.7c-0.2,0.6-0.2,1.8-0.2,3.5v3.5h-1.3V219.4z"/>
			<path class="st0" d="M365,219.4v10.2h-1.3v-1.8c-0.6,0.7-1.2,1.2-1.9,1.5c-0.7,0.3-1.4,0.5-2.3,0.5c-1.5,0-2.7-0.5-3.7-1.6
				c-1-1.1-1.5-2.3-1.5-3.8c0-1.5,0.5-2.7,1.6-3.8c1-1,2.3-1.6,3.7-1.6c0.8,0,1.6,0.2,2.3,0.5c0.7,0.4,1.3,0.9,1.8,1.6v-1.9H365z
				 M359.8,220.4c-0.7,0-1.4,0.2-2,0.5c-0.6,0.4-1.1,0.9-1.5,1.5c-0.4,0.7-0.5,1.3-0.5,2.1c0,0.7,0.2,1.4,0.6,2.1
				c0.4,0.7,0.9,1.2,1.5,1.5c0.6,0.4,1.3,0.6,2,0.6c0.7,0,1.4-0.2,2-0.5c0.6-0.4,1.1-0.9,1.5-1.5c0.3-0.6,0.5-1.3,0.5-2.1
				c0-1.2-0.4-2.2-1.2-3C361.9,220.8,360.9,220.4,359.8,220.4z M360.6,214.6h2l-2.8,2.9h-1.3L360.6,214.6z"/>
			<path class="st0" d="M373.1,220.5l-0.8,0.9c-0.7-0.7-1.4-1-2.1-1c-0.4,0-0.8,0.1-1.1,0.4s-0.5,0.6-0.5,1c0,0.3,0.1,0.6,0.4,1
				c0.3,0.3,0.8,0.7,1.6,1.1c1,0.5,1.6,1,2,1.5c0.3,0.5,0.5,1,0.5,1.6c0,0.8-0.3,1.6-0.9,2.1c-0.6,0.6-1.3,0.9-2.2,0.9
				c-0.6,0-1.2-0.1-1.7-0.4c-0.5-0.3-1-0.6-1.3-1.1l0.8-0.9c0.7,0.8,1.4,1.1,2.1,1.1c0.5,0,1-0.2,1.3-0.5c0.4-0.3,0.6-0.7,0.6-1.2
				c0-0.4-0.1-0.7-0.4-1c-0.2-0.3-0.8-0.7-1.7-1.1c-0.9-0.5-1.6-0.9-1.9-1.4c-0.3-0.5-0.5-1-0.5-1.6c0-0.8,0.3-1.4,0.8-1.9
				c0.5-0.5,1.2-0.8,2-0.8C371.2,219.1,372.2,219.6,373.1,220.5z"/>
			<path class="st0" d="M36.1,247.5h1.3v14.2h-1.3V247.5z"/>
			<path class="st0" d="M50.4,251.5v10.2h-1.3V260c-0.6,0.7-1.2,1.2-1.9,1.5S45.8,262,45,262c-1.5,0-2.7-0.5-3.7-1.6
				s-1.5-2.3-1.5-3.8c0-1.5,0.5-2.7,1.6-3.8c1-1,2.3-1.6,3.7-1.6c0.8,0,1.6,0.2,2.3,0.5c0.7,0.4,1.3,0.9,1.8,1.6v-1.9H50.4z
				 M45.1,252.5c-0.7,0-1.4,0.2-2,0.5c-0.6,0.4-1.1,0.9-1.5,1.5c-0.4,0.7-0.5,1.3-0.5,2.1c0,0.7,0.2,1.4,0.6,2.1
				c0.4,0.7,0.9,1.2,1.5,1.5c0.6,0.4,1.3,0.6,2,0.6c0.7,0,1.4-0.2,2-0.5c0.6-0.4,1.1-0.9,1.5-1.5c0.3-0.6,0.5-1.3,0.5-2.1
				c0-1.2-0.4-2.2-1.2-3S46.3,252.5,45.1,252.5z"/>
			<path class="st0" d="M58.2,251.5h1.3v1.5c0.4-0.6,0.8-1,1.3-1.3s0.9-0.4,1.4-0.4c0.4,0,0.8,0.1,1.2,0.3l-0.7,1.1
				c-0.3-0.1-0.5-0.2-0.7-0.2c-0.4,0-0.9,0.2-1.3,0.5c-0.4,0.4-0.7,0.9-0.9,1.7c-0.2,0.6-0.2,1.8-0.2,3.5v3.5h-1.3V251.5z"/>
			<path class="st0" d="M73,258.3l1.1,0.6c-0.4,0.7-0.8,1.3-1.3,1.7s-1,0.8-1.6,1c-0.6,0.2-1.3,0.3-2,0.3c-1.7,0-3-0.5-3.9-1.6
				c-0.9-1.1-1.4-2.3-1.4-3.7c0-1.3,0.4-2.5,1.2-3.5c1-1.3,2.4-1.9,4.1-1.9c1.7,0,3.1,0.7,4.2,2c0.7,0.9,1.1,2.1,1.1,3.5h-9.2
				c0,1.2,0.4,2.2,1.1,2.9c0.7,0.8,1.6,1.1,2.7,1.1c0.5,0,1-0.1,1.5-0.3c0.5-0.2,0.9-0.4,1.3-0.7C72.3,259.5,72.6,259,73,258.3z
				 M73,255.6c-0.2-0.7-0.4-1.3-0.8-1.7c-0.3-0.4-0.8-0.8-1.3-1s-1.1-0.4-1.7-0.4c-1,0-1.9,0.3-2.6,1c-0.5,0.5-0.9,1.2-1.2,2.1H73z"
				/>
			<path class="st0" d="M82.1,252.6l-0.8,0.9c-0.7-0.7-1.4-1-2.1-1c-0.4,0-0.8,0.1-1.1,0.4c-0.3,0.3-0.5,0.6-0.5,1
				c0,0.3,0.1,0.6,0.4,1c0.3,0.3,0.8,0.7,1.6,1.1c1,0.5,1.6,1,2,1.5c0.3,0.5,0.5,1,0.5,1.6c0,0.8-0.3,1.6-0.9,2.1
				c-0.6,0.6-1.3,0.9-2.2,0.9c-0.6,0-1.2-0.1-1.7-0.4c-0.5-0.3-1-0.6-1.3-1.1l0.8-0.9c0.7,0.8,1.4,1.1,2.1,1.1c0.5,0,1-0.2,1.3-0.5
				c0.4-0.3,0.6-0.7,0.6-1.2c0-0.4-0.1-0.7-0.4-1c-0.2-0.3-0.8-0.7-1.7-1.1c-0.9-0.5-1.6-0.9-1.9-1.4c-0.3-0.5-0.5-1-0.5-1.6
				c0-0.8,0.3-1.4,0.8-1.9c0.5-0.5,1.2-0.8,2-0.8C80.2,251.2,81.1,251.7,82.1,252.6z"/>
			<path class="st0" d="M84.4,251.5h1.3v1.9c0.5-0.7,1.1-1.3,1.8-1.6c0.7-0.4,1.4-0.5,2.3-0.5c1.5,0,2.7,0.5,3.7,1.6
				c1,1,1.6,2.3,1.6,3.8c0,1.5-0.5,2.8-1.5,3.8c-1,1.1-2.3,1.6-3.7,1.6c-0.8,0-1.6-0.2-2.2-0.5c-0.7-0.3-1.3-0.8-1.9-1.5v5.5h-1.3
				V251.5z M89.7,252.5c-1.1,0-2.1,0.4-2.9,1.2c-0.8,0.8-1.2,1.8-1.2,3c0,0.8,0.2,1.5,0.5,2.1c0.3,0.6,0.8,1.1,1.5,1.5
				c0.6,0.4,1.3,0.5,2.1,0.5c0.7,0,1.4-0.2,2-0.6c0.6-0.4,1.1-0.9,1.5-1.5c0.4-0.7,0.6-1.3,0.6-2.1c0-0.7-0.2-1.4-0.6-2.1
				c-0.4-0.7-0.9-1.2-1.5-1.5C91.1,252.7,90.5,252.5,89.7,252.5z"/>
			<path class="st0" d="M97.4,251.5h1.3v4.8c0,1.2,0.1,2,0.2,2.4c0.2,0.6,0.5,1.1,1.1,1.5c0.5,0.4,1.2,0.5,1.9,0.5
				c0.7,0,1.4-0.2,1.9-0.5c0.5-0.4,0.9-0.8,1.1-1.4c0.1-0.4,0.2-1.2,0.2-2.5v-4.8h1.3v5c0,1.4-0.2,2.5-0.5,3.2
				c-0.3,0.7-0.8,1.3-1.5,1.7c-0.7,0.4-1.5,0.6-2.5,0.6s-1.8-0.2-2.5-0.6c-0.7-0.4-1.2-1-1.5-1.7c-0.3-0.7-0.5-1.8-0.5-3.3V251.5z"
				/>
			<path class="st0" d="M117.9,258.3l1.1,0.6c-0.4,0.7-0.8,1.3-1.3,1.7c-0.5,0.4-1,0.8-1.6,1c-0.6,0.2-1.3,0.3-2,0.3
				c-1.7,0-3-0.5-3.9-1.6c-0.9-1.1-1.4-2.3-1.4-3.7c0-1.3,0.4-2.5,1.2-3.5c1-1.3,2.4-1.9,4.1-1.9c1.7,0,3.1,0.7,4.2,2
				c0.7,0.9,1.1,2.1,1.1,3.5h-9.2c0,1.2,0.4,2.2,1.1,2.9c0.7,0.8,1.6,1.1,2.7,1.1c0.5,0,1-0.1,1.5-0.3c0.5-0.2,0.9-0.4,1.3-0.7
				C117.2,259.5,117.5,259,117.9,258.3z M117.9,255.6c-0.2-0.7-0.4-1.3-0.8-1.7c-0.3-0.4-0.8-0.8-1.3-1s-1.1-0.4-1.7-0.4
				c-1,0-1.9,0.3-2.6,1c-0.5,0.5-0.9,1.2-1.2,2.1H117.9z"/>
			<path class="st0" d="M127,252.6l-0.8,0.9c-0.7-0.7-1.4-1-2.1-1c-0.4,0-0.8,0.1-1.1,0.4s-0.5,0.6-0.5,1c0,0.3,0.1,0.6,0.4,1
				c0.3,0.3,0.8,0.7,1.6,1.1c1,0.5,1.6,1,2,1.5c0.3,0.5,0.5,1,0.5,1.6c0,0.8-0.3,1.6-0.9,2.1c-0.6,0.6-1.3,0.9-2.2,0.9
				c-0.6,0-1.2-0.1-1.7-0.4c-0.5-0.3-1-0.6-1.3-1.1l0.8-0.9c0.7,0.8,1.4,1.1,2.1,1.1c0.5,0,1-0.2,1.3-0.5c0.4-0.3,0.6-0.7,0.6-1.2
				c0-0.4-0.1-0.7-0.4-1c-0.2-0.3-0.8-0.7-1.7-1.1c-0.9-0.5-1.6-0.9-1.9-1.4c-0.3-0.5-0.5-1-0.5-1.6c0-0.8,0.3-1.4,0.8-1.9
				c0.5-0.5,1.2-0.8,2-0.8C125.1,251.2,126,251.7,127,252.6z"/>
			<path class="st0" d="M130.5,247.7h1.3v3.8h2.1v1.1h-2.1v9.1h-1.3v-9.1h-1.8v-1.1h1.8V247.7z"/>
			<path class="st0" d="M146.1,251.5v10.2h-1.3V260c-0.6,0.7-1.2,1.2-1.9,1.5s-1.4,0.5-2.3,0.5c-1.5,0-2.7-0.5-3.7-1.6
				s-1.5-2.3-1.5-3.8c0-1.5,0.5-2.7,1.6-3.8s2.3-1.6,3.7-1.6c0.8,0,1.6,0.2,2.3,0.5c0.7,0.4,1.3,0.9,1.8,1.6v-1.9H146.1z
				 M140.8,252.5c-0.7,0-1.4,0.2-2,0.5c-0.6,0.4-1.1,0.9-1.5,1.5c-0.4,0.7-0.5,1.3-0.5,2.1c0,0.7,0.2,1.4,0.6,2.1
				c0.4,0.7,0.9,1.2,1.5,1.5c0.6,0.4,1.3,0.6,2,0.6c0.7,0,1.4-0.2,2-0.5c0.6-0.4,1.1-0.9,1.5-1.5c0.3-0.6,0.5-1.3,0.5-2.1
				c0-1.2-0.4-2.2-1.2-3C142.9,252.9,141.9,252.5,140.8,252.5z"/>
			<path class="st0" d="M159.5,252.6l-0.8,0.9c-0.7-0.7-1.4-1-2.1-1c-0.4,0-0.8,0.1-1.1,0.4c-0.3,0.3-0.5,0.6-0.5,1
				c0,0.3,0.1,0.6,0.4,1c0.3,0.3,0.8,0.7,1.6,1.1c1,0.5,1.6,1,2,1.5c0.3,0.5,0.5,1,0.5,1.6c0,0.8-0.3,1.6-0.9,2.1
				c-0.6,0.6-1.3,0.9-2.2,0.9c-0.6,0-1.2-0.1-1.7-0.4c-0.5-0.3-1-0.6-1.3-1.1l0.8-0.9c0.7,0.8,1.4,1.1,2.1,1.1c0.5,0,1-0.2,1.3-0.5
				c0.4-0.3,0.6-0.7,0.6-1.2c0-0.4-0.1-0.7-0.4-1c-0.2-0.3-0.8-0.7-1.7-1.1c-0.9-0.5-1.6-0.9-1.9-1.4c-0.3-0.5-0.5-1-0.5-1.6
				c0-0.8,0.3-1.4,0.8-1.9c0.5-0.5,1.2-0.8,2-0.8C157.6,251.2,158.6,251.7,159.5,252.6z"/>
			<path class="st0" d="M162.3,247.3c0.3,0,0.6,0.1,0.8,0.3c0.2,0.2,0.3,0.5,0.3,0.8c0,0.3-0.1,0.5-0.3,0.8
				c-0.2,0.2-0.5,0.3-0.8,0.3c-0.3,0-0.5-0.1-0.8-0.3c-0.2-0.2-0.3-0.5-0.3-0.8c0-0.3,0.1-0.6,0.3-0.8
				C161.8,247.4,162,247.3,162.3,247.3z M161.7,251.5h1.3v10.2h-1.3V251.5z"/>
			<path class="st0" d="M179.7,258.3l1.1,0.6c-0.4,0.7-0.8,1.3-1.3,1.7c-0.5,0.4-1,0.8-1.6,1c-0.6,0.2-1.3,0.3-2,0.3
				c-1.7,0-3-0.5-3.9-1.6c-0.9-1.1-1.4-2.3-1.4-3.7c0-1.3,0.4-2.5,1.2-3.5c1-1.3,2.4-1.9,4.1-1.9c1.7,0,3.1,0.7,4.2,2
				c0.7,0.9,1.1,2.1,1.1,3.5h-9.2c0,1.2,0.4,2.2,1.1,2.9c0.7,0.8,1.6,1.1,2.7,1.1c0.5,0,1-0.1,1.5-0.3c0.5-0.2,0.9-0.4,1.3-0.7
				C178.9,259.5,179.3,259,179.7,258.3z M179.7,255.6c-0.2-0.7-0.4-1.3-0.8-1.7c-0.3-0.4-0.8-0.8-1.3-1c-0.6-0.3-1.1-0.4-1.7-0.4
				c-1,0-1.9,0.3-2.6,1c-0.5,0.5-0.9,1.2-1.2,2.1H179.7z"/>
			<path class="st0" d="M188.7,252.6l-0.8,0.9c-0.7-0.7-1.4-1-2.1-1c-0.4,0-0.8,0.1-1.1,0.4s-0.5,0.6-0.5,1c0,0.3,0.1,0.6,0.4,1
				c0.3,0.3,0.8,0.7,1.6,1.1c1,0.5,1.6,1,2,1.5c0.3,0.5,0.5,1,0.5,1.6c0,0.8-0.3,1.6-0.9,2.1c-0.6,0.6-1.3,0.9-2.2,0.9
				c-0.6,0-1.2-0.1-1.7-0.4c-0.5-0.3-1-0.6-1.3-1.1l0.8-0.9c0.7,0.8,1.4,1.1,2.1,1.1c0.5,0,1-0.2,1.3-0.5c0.4-0.3,0.6-0.7,0.6-1.2
				c0-0.4-0.1-0.7-0.4-1c-0.2-0.3-0.8-0.7-1.7-1.1c-0.9-0.5-1.6-0.9-1.9-1.4c-0.3-0.5-0.5-1-0.5-1.6c0-0.8,0.3-1.4,0.8-1.9
				c0.5-0.5,1.2-0.8,2-0.8C186.8,251.2,187.8,251.7,188.7,252.6z"/>
			<path class="st0" d="M206.6,251.5v14h-1.3V260c-0.6,0.7-1.2,1.2-1.9,1.5s-1.4,0.5-2.3,0.5c-1.5,0-2.7-0.5-3.7-1.6
				c-1-1.1-1.5-2.3-1.5-3.8c0-1.5,0.5-2.7,1.6-3.8s2.3-1.6,3.7-1.6c0.8,0,1.6,0.2,2.3,0.5c0.7,0.4,1.3,0.9,1.8,1.6v-1.9H206.6z
				 M201.3,252.5c-0.7,0-1.4,0.2-2,0.5c-0.6,0.4-1.1,0.9-1.5,1.5c-0.4,0.7-0.5,1.3-0.5,2.1c0,0.7,0.2,1.4,0.6,2.1
				c0.4,0.7,0.9,1.2,1.5,1.5c0.6,0.4,1.3,0.6,2,0.6c0.7,0,1.4-0.2,2-0.5c0.6-0.4,1.1-0.9,1.5-1.5c0.3-0.6,0.5-1.3,0.5-2.1
				c0-1.2-0.4-2.2-1.2-3S202.5,252.5,201.3,252.5z"/>
			<path class="st0" d="M209.4,251.5h1.3v4.8c0,1.2,0.1,2,0.2,2.4c0.2,0.6,0.5,1.1,1.1,1.5c0.5,0.4,1.2,0.5,1.9,0.5
				c0.7,0,1.4-0.2,1.9-0.5c0.5-0.4,0.9-0.8,1.1-1.4c0.1-0.4,0.2-1.2,0.2-2.5v-4.8h1.3v5c0,1.4-0.2,2.5-0.5,3.2
				c-0.3,0.7-0.8,1.3-1.5,1.7c-0.7,0.4-1.5,0.6-2.5,0.6c-1,0-1.8-0.2-2.5-0.6c-0.7-0.4-1.2-1-1.5-1.7c-0.3-0.7-0.5-1.8-0.5-3.3
				V251.5z"/>
			<path class="st0" d="M229.9,258.3l1.1,0.6c-0.4,0.7-0.8,1.3-1.3,1.7s-1,0.8-1.6,1c-0.6,0.2-1.3,0.3-2,0.3c-1.7,0-3-0.5-3.9-1.6
				s-1.4-2.3-1.4-3.7c0-1.3,0.4-2.5,1.2-3.5c1-1.3,2.4-1.9,4.1-1.9c1.7,0,3.1,0.7,4.2,2c0.7,0.9,1.1,2.1,1.1,3.5h-9.2
				c0,1.2,0.4,2.2,1.1,2.9c0.7,0.8,1.6,1.1,2.7,1.1c0.5,0,1-0.1,1.5-0.3c0.5-0.2,0.9-0.4,1.3-0.7C229.1,259.5,229.5,259,229.9,258.3
				z M229.9,255.6c-0.2-0.7-0.4-1.3-0.8-1.7c-0.3-0.4-0.8-0.8-1.3-1c-0.6-0.3-1.1-0.4-1.7-0.4c-1,0-1.9,0.3-2.6,1
				c-0.5,0.5-0.9,1.2-1.2,2.1H229.9z"/>
			<path class="st0" d="M240.3,247.7h1.3v3.8h2.1v1.1h-2.1v9.1h-1.3v-9.1h-1.8v-1.1h1.8V247.7z"/>
			<path class="st0" d="M245.5,251.5h1.3v4.8c0,1.2,0.1,2,0.2,2.4c0.2,0.6,0.5,1.1,1.1,1.5c0.5,0.4,1.2,0.5,1.9,0.5
				c0.7,0,1.4-0.2,1.9-0.5c0.5-0.4,0.9-0.8,1.1-1.4c0.1-0.4,0.2-1.2,0.2-2.5v-4.8h1.3v5c0,1.4-0.2,2.5-0.5,3.2
				c-0.3,0.7-0.8,1.3-1.5,1.7c-0.7,0.4-1.5,0.6-2.5,0.6c-1,0-1.8-0.2-2.5-0.6c-0.7-0.4-1.2-1-1.5-1.7c-0.3-0.7-0.5-1.8-0.5-3.3
				V251.5z"/>
			<path class="st0" d="M272.7,253.6l-1,0.6c-0.9-1.2-2.1-1.8-3.7-1.8c-1.2,0-2.3,0.4-3.1,1.2c-0.8,0.8-1.2,1.8-1.2,2.9
				c0,0.7,0.2,1.4,0.6,2.1c0.4,0.7,0.9,1.2,1.6,1.5c0.7,0.4,1.4,0.5,2.2,0.5c1.5,0,2.7-0.6,3.7-1.8l1,0.7c-0.5,0.7-1.1,1.3-2,1.7
				c-0.8,0.4-1.8,0.6-2.8,0.6c-1.6,0-3-0.5-4-1.5c-1.1-1-1.6-2.3-1.6-3.8c0-1,0.2-1.9,0.7-2.8c0.5-0.9,1.2-1.5,2.1-2
				s1.8-0.7,2.9-0.7c0.7,0,1.3,0.1,2,0.3s1.2,0.5,1.6,0.8C272,252.7,272.4,253.1,272.7,253.6z"/>
			<path class="st0" d="M274.7,251.5h1.3v1.5c0.4-0.6,0.8-1,1.3-1.3c0.4-0.3,0.9-0.4,1.4-0.4c0.4,0,0.8,0.1,1.2,0.3l-0.7,1.1
				c-0.3-0.1-0.5-0.2-0.7-0.2c-0.4,0-0.9,0.2-1.3,0.5c-0.4,0.4-0.7,0.9-0.9,1.7c-0.2,0.6-0.2,1.8-0.2,3.5v3.5h-1.3V251.5z"/>
			<path class="st0" d="M289.7,258.3l1.1,0.6c-0.4,0.7-0.8,1.3-1.3,1.7c-0.5,0.4-1,0.8-1.6,1c-0.6,0.2-1.3,0.3-2,0.3
				c-1.7,0-3-0.5-3.9-1.6c-0.9-1.1-1.4-2.3-1.4-3.7c0-1.3,0.4-2.5,1.2-3.5c1-1.3,2.4-1.9,4.1-1.9c1.7,0,3.1,0.7,4.2,2
				c0.7,0.9,1.1,2.1,1.1,3.5h-9.2c0,1.2,0.4,2.2,1.1,2.9c0.7,0.8,1.6,1.1,2.7,1.1c0.5,0,1-0.1,1.5-0.3c0.5-0.2,0.9-0.4,1.3-0.7
				C288.9,259.5,289.3,259,289.7,258.3z M289.7,255.6c-0.2-0.7-0.4-1.3-0.8-1.7c-0.3-0.4-0.8-0.8-1.3-1c-0.6-0.3-1.1-0.4-1.7-0.4
				c-1,0-1.9,0.3-2.6,1c-0.5,0.5-0.9,1.2-1.2,2.1H289.7z M286.5,246.7h2l-2.8,2.9h-1.3L286.5,246.7z"/>
			<path class="st0" d="M303.8,247.5v14.2h-1.3V260c-0.6,0.7-1.2,1.2-1.9,1.5s-1.4,0.5-2.3,0.5c-1.5,0-2.7-0.5-3.7-1.6
				s-1.5-2.3-1.5-3.8c0-1.5,0.5-2.7,1.6-3.8c1-1,2.3-1.6,3.7-1.6c0.8,0,1.6,0.2,2.3,0.5c0.7,0.4,1.3,0.9,1.8,1.6v-5.8H303.8z
				 M298.5,252.5c-0.7,0-1.4,0.2-2,0.5c-0.6,0.4-1.1,0.9-1.5,1.5c-0.4,0.7-0.5,1.3-0.5,2.1c0,0.7,0.2,1.4,0.6,2.1
				c0.4,0.7,0.9,1.2,1.5,1.5c0.6,0.4,1.3,0.6,2,0.6c0.7,0,1.4-0.2,2-0.5c0.6-0.4,1.1-0.9,1.5-1.5c0.3-0.6,0.5-1.3,0.5-2.1
				c0-1.2-0.4-2.2-1.2-3S299.7,252.5,298.5,252.5z"/>
			<path class="st0" d="M307.2,247.3c0.3,0,0.6,0.1,0.8,0.3c0.2,0.2,0.3,0.5,0.3,0.8c0,0.3-0.1,0.5-0.3,0.8
				c-0.2,0.2-0.5,0.3-0.8,0.3c-0.3,0-0.5-0.1-0.8-0.3c-0.2-0.2-0.3-0.5-0.3-0.8c0-0.3,0.1-0.6,0.3-0.8
				C306.7,247.4,306.9,247.3,307.2,247.3z M306.6,251.5h1.3v10.2h-1.3V251.5z"/>
			<path class="st0" d="M311.8,247.7h1.3v3.8h2.1v1.1h-2.1v9.1h-1.3v-9.1H310v-1.1h1.8V247.7z"/>
			<path class="st0" d="M322,251.2c1.6,0,2.9,0.6,3.9,1.7c0.9,1,1.4,2.3,1.4,3.7c0,1.4-0.5,2.7-1.5,3.8s-2.3,1.6-3.8,1.6
				c-1.6,0-2.9-0.5-3.9-1.6c-1-1.1-1.5-2.3-1.5-3.8c0-1.4,0.5-2.6,1.4-3.7C319.1,251.8,320.4,251.2,322,251.2z M322,252.5
				c-1.1,0-2,0.4-2.8,1.2c-0.8,0.8-1.2,1.8-1.2,2.9c0,0.7,0.2,1.4,0.5,2.1c0.4,0.6,0.8,1.1,1.5,1.5c0.6,0.3,1.3,0.5,2,0.5
				c0.7,0,1.4-0.2,2-0.5c0.6-0.3,1.1-0.8,1.5-1.5c0.4-0.6,0.5-1.3,0.5-2.1c0-1.1-0.4-2.1-1.2-2.9C324.1,252.9,323.1,252.5,322,252.5
				z"/>
			<path class="st0" d="M339.4,247.5v1.3c-0.5-0.2-0.9-0.3-1.2-0.3c-0.3,0-0.5,0.1-0.6,0.2s-0.3,0.2-0.3,0.4s-0.1,0.5-0.1,1.1l0,1.4
				h2.1v1.1h-2.1l0,9.1h-1.3v-9.1h-1.3v-1.1h1.3v-1.6c0-0.7,0.1-1.3,0.2-1.6c0.1-0.3,0.4-0.6,0.7-0.8c0.3-0.2,0.7-0.3,1.2-0.3
				C338.3,247.3,338.8,247.4,339.4,247.5z"/>
			<path class="st0" d="M341,251.5h1.3v4.8c0,1.2,0.1,2,0.2,2.4c0.2,0.6,0.5,1.1,1.1,1.5c0.5,0.4,1.2,0.5,1.9,0.5
				c0.7,0,1.4-0.2,1.9-0.5s0.9-0.8,1.1-1.4c0.1-0.4,0.2-1.2,0.2-2.5v-4.8h1.3v5c0,1.4-0.2,2.5-0.5,3.2c-0.3,0.7-0.8,1.3-1.5,1.7
				c-0.7,0.4-1.5,0.6-2.5,0.6s-1.8-0.2-2.5-0.6c-0.7-0.4-1.2-1-1.5-1.7c-0.3-0.7-0.5-1.8-0.5-3.3V251.5z"/>
			<path class="st0" d="M361.5,258.3l1.1,0.6c-0.4,0.7-0.8,1.3-1.3,1.7s-1,0.8-1.6,1c-0.6,0.2-1.3,0.3-2,0.3c-1.7,0-3-0.5-3.9-1.6
				c-0.9-1.1-1.4-2.3-1.4-3.7c0-1.3,0.4-2.5,1.2-3.5c1-1.3,2.4-1.9,4.1-1.9c1.7,0,3.1,0.7,4.2,2c0.7,0.9,1.1,2.1,1.1,3.5h-9.2
				c0,1.2,0.4,2.2,1.1,2.9c0.7,0.8,1.6,1.1,2.7,1.1c0.5,0,1-0.1,1.5-0.3c0.5-0.2,0.9-0.4,1.3-0.7C360.8,259.5,361.1,259,361.5,258.3
				z M361.5,255.6c-0.2-0.7-0.4-1.3-0.8-1.7c-0.3-0.4-0.8-0.8-1.3-1c-0.6-0.3-1.1-0.4-1.7-0.4c-1,0-1.9,0.3-2.6,1
				c-0.5,0.5-0.9,1.2-1.2,2.1H361.5z"/>
			<path class="st0" d="M165.3,283.6v10.2H164v-1.8c-0.6,0.7-1.2,1.2-1.9,1.5c-0.7,0.3-1.4,0.5-2.3,0.5c-1.5,0-2.7-0.5-3.7-1.6
				s-1.5-2.3-1.5-3.8c0-1.5,0.5-2.7,1.6-3.8c1-1,2.3-1.6,3.7-1.6c0.8,0,1.6,0.2,2.3,0.5s1.3,0.9,1.8,1.6v-1.9H165.3z M160.1,284.6
				c-0.7,0-1.4,0.2-2,0.5c-0.6,0.4-1.1,0.9-1.5,1.5c-0.4,0.7-0.5,1.3-0.5,2.1c0,0.7,0.2,1.4,0.6,2.1c0.4,0.7,0.9,1.2,1.5,1.5
				c0.6,0.4,1.3,0.6,2,0.6c0.7,0,1.4-0.2,2-0.5c0.6-0.4,1.1-0.9,1.5-1.5c0.3-0.6,0.5-1.3,0.5-2.1c0-1.2-0.4-2.2-1.2-3
				C162.2,285,161.2,284.6,160.1,284.6z"/>
			<path class="st0" d="M168.3,283.6h1.3v1.9c0.5-0.7,1.1-1.3,1.8-1.6c0.7-0.4,1.4-0.5,2.3-0.5c1.5,0,2.7,0.5,3.7,1.6
				c1,1,1.6,2.3,1.6,3.8c0,1.5-0.5,2.8-1.5,3.8c-1,1.1-2.3,1.6-3.7,1.6c-0.8,0-1.6-0.2-2.2-0.5c-0.7-0.3-1.3-0.8-1.9-1.5v5.5h-1.3
				V283.6z M173.6,284.6c-1.1,0-2.1,0.4-2.9,1.2c-0.8,0.8-1.2,1.8-1.2,3c0,0.8,0.2,1.5,0.5,2.1c0.3,0.6,0.8,1.1,1.5,1.5
				c0.6,0.4,1.3,0.5,2.1,0.5c0.7,0,1.4-0.2,2-0.6c0.6-0.4,1.1-0.9,1.5-1.5c0.4-0.7,0.6-1.3,0.6-2.1c0-0.7-0.2-1.4-0.6-2.1
				c-0.4-0.7-0.9-1.2-1.5-1.5C175,284.8,174.3,284.6,173.6,284.6z"/>
			<path class="st0" d="M181,283.6h1.3v1.5c0.4-0.6,0.8-1,1.3-1.3c0.4-0.3,0.9-0.4,1.4-0.4c0.4,0,0.8,0.1,1.2,0.3l-0.7,1.1
				c-0.3-0.1-0.5-0.2-0.7-0.2c-0.4,0-0.9,0.2-1.3,0.5c-0.4,0.4-0.7,0.9-0.9,1.7c-0.2,0.6-0.2,1.8-0.2,3.5v3.5H181V283.6z"/>
			<path class="st0" d="M192,283.4c1.6,0,2.9,0.6,3.9,1.7c0.9,1,1.4,2.3,1.4,3.7c0,1.4-0.5,2.7-1.5,3.8c-1,1.1-2.3,1.6-3.8,1.6
				c-1.6,0-2.9-0.5-3.9-1.6c-1-1.1-1.5-2.3-1.5-3.8c0-1.4,0.5-2.6,1.4-3.7C189.1,283.9,190.4,283.4,192,283.4z M192,284.7
				c-1.1,0-2,0.4-2.8,1.2c-0.8,0.8-1.2,1.8-1.2,2.9c0,0.7,0.2,1.4,0.5,2.1c0.4,0.6,0.8,1.1,1.5,1.5c0.6,0.3,1.3,0.5,2,0.5
				c0.7,0,1.4-0.2,2-0.5c0.6-0.3,1.1-0.8,1.5-1.5c0.4-0.6,0.5-1.3,0.5-2.1c0-1.1-0.4-2.1-1.2-2.9C194.1,285.1,193.1,284.7,192,284.7
				z"/>
			<path class="st0" d="M199.9,293.9v-14.2h1.3v5.7c0.6-0.7,1.2-1.2,1.9-1.5s1.4-0.5,2.2-0.5c1.4,0,2.7,0.5,3.7,1.6
				c1,1.1,1.5,2.3,1.5,3.8c0,1.5-0.5,2.7-1.6,3.8c-1,1-2.3,1.6-3.7,1.6c-0.8,0-1.6-0.2-2.3-0.5c-0.7-0.4-1.3-0.9-1.8-1.6v1.9H199.9z
				 M205.2,292.9c0.7,0,1.4-0.2,2-0.5s1.1-0.9,1.5-1.5c0.4-0.7,0.6-1.3,0.6-2.1c0-0.7-0.2-1.4-0.6-2.1c-0.4-0.7-0.9-1.2-1.5-1.5
				c-0.6-0.4-1.3-0.6-2-0.6c-0.7,0-1.4,0.2-2.1,0.6c-0.6,0.4-1.1,0.9-1.5,1.5s-0.5,1.3-0.5,2.1c0,1.2,0.4,2.2,1.2,3
				C203.1,292.5,204,292.9,205.2,292.9z"/>
			<path class="st0" d="M223.2,283.6v10.2h-1.3v-1.8c-0.6,0.7-1.2,1.2-1.9,1.5c-0.7,0.3-1.4,0.5-2.3,0.5c-1.5,0-2.7-0.5-3.7-1.6
				s-1.5-2.3-1.5-3.8c0-1.5,0.5-2.7,1.6-3.8c1-1,2.3-1.6,3.7-1.6c0.8,0,1.6,0.2,2.3,0.5s1.3,0.9,1.8,1.6v-1.9H223.2z M217.9,284.6
				c-0.7,0-1.4,0.2-2,0.5c-0.6,0.4-1.1,0.9-1.5,1.5c-0.4,0.7-0.5,1.3-0.5,2.1c0,0.7,0.2,1.4,0.6,2.1c0.4,0.7,0.9,1.2,1.5,1.5
				c0.6,0.4,1.3,0.6,2,0.6c0.7,0,1.4-0.2,2-0.5c0.6-0.4,1.1-0.9,1.5-1.5c0.3-0.6,0.5-1.3,0.5-2.1c0-1.2-0.4-2.2-1.2-3
				C220,285,219,284.6,217.9,284.6z"/>
			<path class="st0" d="M236.4,279.7v14.2h-1.3v-1.8c-0.6,0.7-1.2,1.2-1.9,1.5s-1.4,0.5-2.3,0.5c-1.5,0-2.7-0.5-3.7-1.6
				c-1-1.1-1.5-2.3-1.5-3.8c0-1.5,0.5-2.7,1.6-3.8s2.3-1.6,3.7-1.6c0.8,0,1.6,0.2,2.3,0.5s1.3,0.9,1.8,1.6v-5.8H236.4z M231.1,284.6
				c-0.7,0-1.4,0.2-2,0.5c-0.6,0.4-1.1,0.9-1.5,1.5c-0.4,0.7-0.5,1.3-0.5,2.1c0,0.7,0.2,1.4,0.6,2.1c0.4,0.7,0.9,1.2,1.5,1.5
				c0.6,0.4,1.3,0.6,2,0.6c0.7,0,1.4-0.2,2-0.5c0.6-0.4,1.1-0.9,1.5-1.5c0.3-0.6,0.5-1.3,0.5-2.1c0-1.2-0.4-2.2-1.2-3
				C233.2,285,232.2,284.6,231.1,284.6z"/>
			<path class="st0" d="M244.2,283.4c1.6,0,2.9,0.6,3.9,1.7c0.9,1,1.4,2.3,1.4,3.7c0,1.4-0.5,2.7-1.5,3.8s-2.3,1.6-3.8,1.6
				c-1.6,0-2.9-0.5-3.9-1.6c-1-1.1-1.5-2.3-1.5-3.8c0-1.4,0.5-2.6,1.4-3.7C241.3,283.9,242.6,283.4,244.2,283.4z M244.2,284.7
				c-1.1,0-2,0.4-2.8,1.2c-0.8,0.8-1.2,1.8-1.2,2.9c0,0.7,0.2,1.4,0.5,2.1c0.4,0.6,0.8,1.1,1.5,1.5c0.6,0.3,1.3,0.5,2,0.5
				c0.7,0,1.4-0.2,2-0.5c0.6-0.3,1.1-0.8,1.5-1.5c0.4-0.6,0.5-1.3,0.5-2.1c0-1.1-0.4-2.1-1.2-2.9
				C246.2,285.1,245.3,284.7,244.2,284.7z"/>
		</g>
	</g>
	<g>
		<path class="st0" d="M114.5,17.7h1.6v14.6h6.2v1.6h-7.8V17.7z"/>
		<path class="st0" d="M124.4,17.3h1.5v16.6h-1.5V17.3z"/>
		<path class="st0" d="M139.2,29.9l1.3,0.7c-0.4,0.8-0.9,1.5-1.5,2s-1.2,0.9-1.9,1.2c-0.7,0.3-1.5,0.4-2.4,0.4
			c-1.9,0-3.5-0.6-4.6-1.9c-1.1-1.3-1.6-2.7-1.6-4.3c0-1.5,0.5-2.9,1.4-4.1c1.2-1.5,2.8-2.3,4.7-2.3c2,0,3.7,0.8,4.9,2.3
			c0.9,1.1,1.3,2.5,1.3,4.1h-10.8c0,1.4,0.5,2.5,1.3,3.4c0.9,0.9,1.9,1.3,3.2,1.3c0.6,0,1.2-0.1,1.8-0.3c0.6-0.2,1.1-0.5,1.5-0.8
			C138.3,31.3,138.7,30.7,139.2,29.9z M139.2,26.7c-0.2-0.8-0.5-1.5-0.9-2c-0.4-0.5-0.9-0.9-1.6-1.2c-0.6-0.3-1.3-0.5-2-0.5
			c-1.2,0-2.2,0.4-3,1.1c-0.6,0.5-1.1,1.4-1.4,2.5H139.2z"/>
		<path class="st0" d="M143.7,21.9h1.5v2.1c0.6-0.8,1.3-1.4,2-1.8c0.7-0.4,1.6-0.6,2.4-0.6c0.9,0,1.7,0.2,2.4,0.7s1.2,1.1,1.5,1.8
			c0.3,0.8,0.5,2,0.5,3.6v6.2h-1.5v-5.7c0-1.4-0.1-2.3-0.2-2.8c-0.2-0.8-0.5-1.4-1-1.8c-0.5-0.4-1.2-0.6-2-0.6
			c-0.9,0-1.8,0.3-2.5,0.9c-0.7,0.6-1.2,1.4-1.5,2.3c-0.1,0.6-0.2,1.7-0.2,3.3v4.4h-1.5V21.9z"/>
		<path class="st0" d="M169.4,21.9v12h-1.5v-2.1c-0.6,0.8-1.4,1.4-2.2,1.8s-1.7,0.6-2.6,0.6c-1.7,0-3.1-0.6-4.3-1.8
			c-1.2-1.2-1.8-2.7-1.8-4.5c0-1.7,0.6-3.2,1.8-4.4c1.2-1.2,2.7-1.8,4.4-1.8c1,0,1.9,0.2,2.7,0.6c0.8,0.4,1.5,1,2.1,1.9v-2.2H169.4z
			 M163.2,23.1c-0.9,0-1.6,0.2-2.4,0.6s-1.3,1-1.7,1.8c-0.4,0.8-0.6,1.6-0.6,2.4c0,0.8,0.2,1.6,0.6,2.4c0.4,0.8,1,1.4,1.7,1.8
			c0.7,0.4,1.5,0.6,2.3,0.6c0.8,0,1.6-0.2,2.4-0.6c0.8-0.4,1.3-1,1.7-1.7c0.4-0.7,0.6-1.5,0.6-2.4c0-1.4-0.5-2.5-1.4-3.5
			C165.7,23.6,164.5,23.1,163.2,23.1z"/>
		<path class="st0" d="M178.8,17.3h1.5v16.6h-1.5V17.3z"/>
		<path class="st0" d="M195.5,21.9v12h-1.5v-2.1c-0.6,0.8-1.4,1.4-2.2,1.8c-0.8,0.4-1.7,0.6-2.6,0.6c-1.7,0-3.1-0.6-4.3-1.8
			c-1.2-1.2-1.8-2.7-1.8-4.5c0-1.7,0.6-3.2,1.8-4.4c1.2-1.2,2.7-1.8,4.4-1.8c1,0,1.9,0.2,2.7,0.6c0.8,0.4,1.5,1,2.1,1.9v-2.2H195.5z
			 M189.3,23.1c-0.9,0-1.6,0.2-2.4,0.6s-1.3,1-1.7,1.8c-0.4,0.8-0.6,1.6-0.6,2.4c0,0.8,0.2,1.6,0.6,2.4c0.4,0.8,1,1.4,1.7,1.8
			c0.7,0.4,1.5,0.6,2.3,0.6c0.8,0,1.6-0.2,2.4-0.6c0.8-0.4,1.3-1,1.7-1.7c0.4-0.7,0.6-1.5,0.6-2.4c0-1.4-0.5-2.5-1.4-3.5
			C191.8,23.6,190.6,23.1,189.3,23.1z"/>
		<path class="st0" d="M211.2,23.2l-1,1c-0.8-0.8-1.6-1.2-2.4-1.2c-0.5,0-0.9,0.2-1.3,0.5c-0.4,0.3-0.5,0.7-0.5,1.2
			c0,0.4,0.1,0.8,0.4,1.1c0.3,0.4,0.9,0.8,1.9,1.3c1.1,0.6,1.9,1.2,2.3,1.7c0.4,0.6,0.6,1.2,0.6,1.9c0,1-0.3,1.8-1,2.5
			c-0.7,0.7-1.6,1-2.6,1c-0.7,0-1.3-0.1-2-0.5c-0.6-0.3-1.1-0.7-1.6-1.2l1-1.1c0.8,0.9,1.6,1.3,2.5,1.3c0.6,0,1.1-0.2,1.6-0.6
			c0.4-0.4,0.6-0.9,0.6-1.4c0-0.4-0.1-0.8-0.4-1.2c-0.3-0.3-0.9-0.8-1.9-1.3c-1.1-0.6-1.8-1.1-2.2-1.6s-0.6-1.2-0.6-1.9
			c0-0.9,0.3-1.7,0.9-2.3c0.6-0.6,1.4-0.9,2.3-0.9C208.9,21.6,210,22.2,211.2,23.2z"/>
		<path class="st0" d="M219.5,21.6c1.8,0,3.4,0.7,4.6,2c1.1,1.2,1.7,2.7,1.7,4.3c0,1.7-0.6,3.1-1.7,4.4c-1.2,1.2-2.7,1.9-4.5,1.9
			c-1.8,0-3.3-0.6-4.5-1.9c-1.2-1.2-1.7-2.7-1.7-4.4c0-1.7,0.5-3.1,1.7-4.3C216.2,22.3,217.7,21.6,219.5,21.6z M219.5,23.1
			c-1.3,0-2.4,0.5-3.3,1.4c-0.9,0.9-1.4,2.1-1.4,3.4c0,0.9,0.2,1.7,0.6,2.4s1,1.3,1.7,1.7c0.7,0.4,1.5,0.6,2.3,0.6
			c0.9,0,1.6-0.2,2.3-0.6c0.7-0.4,1.3-1,1.7-1.7s0.6-1.6,0.6-2.4c0-1.3-0.5-2.5-1.4-3.4C221.9,23.6,220.8,23.1,219.5,23.1z"/>
		<path class="st0" d="M228.4,17.3h1.5v16.6h-1.5V17.3z"/>
		<path class="st0" d="M233.6,17c0.3,0,0.6,0.1,0.9,0.4c0.2,0.2,0.4,0.5,0.4,0.9c0,0.3-0.1,0.6-0.4,0.9c-0.2,0.2-0.5,0.4-0.9,0.4
			c-0.3,0-0.6-0.1-0.9-0.4c-0.2-0.2-0.4-0.5-0.4-0.9c0-0.4,0.1-0.7,0.4-0.9C233,17.1,233.3,17,233.6,17z M232.9,21.9h1.5v12h-1.5
			V21.9z"/>
		<path class="st0" d="M249.2,24.4l-1.2,0.8c-1.1-1.4-2.5-2.1-4.3-2.1c-1.5,0-2.7,0.5-3.6,1.4s-1.4,2.1-1.4,3.4
			c0,0.9,0.2,1.7,0.7,2.5c0.4,0.8,1,1.4,1.8,1.8c0.8,0.4,1.6,0.6,2.6,0.6c1.8,0,3.2-0.7,4.3-2.1l1.2,0.8c-0.6,0.9-1.3,1.5-2.3,2
			c-1,0.5-2.1,0.7-3.3,0.7c-1.9,0-3.5-0.6-4.7-1.8c-1.2-1.2-1.9-2.7-1.9-4.4c0-1.2,0.3-2.2,0.9-3.2s1.4-1.8,2.4-2.3
			c1-0.6,2.2-0.8,3.4-0.8c0.8,0,1.6,0.1,2.3,0.4s1.4,0.6,1.9,0.9C248.4,23.3,248.9,23.8,249.2,24.4z"/>
		<path class="st0" d="M252.7,17c0.3,0,0.6,0.1,0.9,0.4c0.2,0.2,0.4,0.5,0.4,0.9c0,0.3-0.1,0.6-0.4,0.9c-0.2,0.2-0.5,0.4-0.9,0.4
			c-0.3,0-0.6-0.1-0.9-0.4c-0.2-0.2-0.4-0.5-0.4-0.9c0-0.4,0.1-0.7,0.4-0.9C252.1,17.1,252.4,17,252.7,17z M251.9,21.9h1.5v12h-1.5
			V21.9z"/>
		<path class="st0" d="M258,17.5h1.5v4.4h2.4v1.3h-2.4v10.6H258V23.3h-2.1v-1.3h2.1V17.5z"/>
		<path class="st0" d="M264.1,21.9h1.5v5.6c0,1.4,0.1,2.3,0.2,2.8c0.2,0.7,0.6,1.3,1.3,1.7c0.6,0.4,1.4,0.6,2.2,0.6s1.6-0.2,2.2-0.6
			c0.6-0.4,1-1,1.2-1.6c0.2-0.5,0.2-1.4,0.2-2.9v-5.6h1.6v5.9c0,1.6-0.2,2.9-0.6,3.7c-0.4,0.8-1,1.5-1.7,2c-0.8,0.5-1.7,0.7-2.9,0.7
			c-1.2,0-2.1-0.2-2.9-0.7s-1.4-1.1-1.7-2s-0.6-2.1-0.6-3.8V21.9z"/>
		<path class="st0" d="M289.9,17.3v16.6h-1.5v-2.1c-0.6,0.8-1.4,1.4-2.2,1.8c-0.8,0.4-1.7,0.6-2.6,0.6c-1.7,0-3.1-0.6-4.3-1.8
			c-1.2-1.2-1.8-2.7-1.8-4.5c0-1.7,0.6-3.2,1.8-4.4c1.2-1.2,2.7-1.8,4.4-1.8c1,0,1.9,0.2,2.7,0.6c0.8,0.4,1.5,1,2.1,1.9v-6.8H289.9z
			 M283.8,23.1c-0.9,0-1.6,0.2-2.4,0.6c-0.7,0.4-1.3,1-1.7,1.8c-0.4,0.8-0.6,1.6-0.6,2.4c0,0.8,0.2,1.6,0.6,2.4
			c0.4,0.8,1,1.4,1.7,1.8c0.7,0.4,1.5,0.6,2.3,0.6c0.8,0,1.6-0.2,2.4-0.6c0.8-0.4,1.3-1,1.7-1.7c0.4-0.7,0.6-1.5,0.6-2.4
			c0-1.4-0.5-2.5-1.4-3.5C286.2,23.6,285.1,23.1,283.8,23.1z"/>
	</g>
	<path class="st0" d="M202.1,74.2c-32.6,0-59,26.4-59,59s26.4,59,59,59s59-26.4,59-59S234.6,74.2,202.1,74.2z M202.1,189.3
		c-31,0-56.2-25.1-56.2-56.2S171.1,77,202.1,77s56.2,25.1,56.2,56.2S233.1,189.3,202.1,189.3z"/>
	<g>
		<path class="st0" d="M179.4,141.2L179.4,141.2l-2.8,16.3l16.9-1.7l0.1,0.1l27-26.1l-14.1-14.6L179.4,141.2z M183.9,154l-3.2-3.3
			l1.9-6.2l7.9,8.2L183.9,154z"/>
		<path class="st0" d="M225.6,116.5l-5.8-6c-2.3-2.4-5.7-2.8-7.6-1c-1.9,1.8-3.4,3.3-3.4,3.3l14.1,14.6l3.4-3.3
			C228.2,122.3,227.9,118.9,225.6,116.5z"/>
	</g>
</g>
</svg>
