<?xml version="1.0" encoding="utf-8"?>
<!-- Generator: Adobe Illustrator 27.1.1, SVG Export Plug-In . SVG Version: 6.00 Build 0)  -->
<svg version="1.1" id="Capa_1" xmlns="http://www.w3.org/2000/svg" xmlns:xlink="http://www.w3.org/1999/xlink" x="0px" y="0px"
	 viewBox="0 0 400 300" style="enable-background:new 0 0 400 300;" xml:space="preserve">
<style type="text/css">
	.st0{fill:#F7F7F8;}
</style>
<g>
	<g>
		<g>
			<path class="st0" d="M81.2,215.7h6.9v1.4h-5.6v4.3h5.6v1.4h-5.6v6.8h-1.4V215.7z"/>
			<path class="st0" d="M91,214.6h2l-2.8,2.9H89L91,214.6z M89.7,219.4H91v10.2h-1.3V219.4z"/>
			<path class="st0" d="M92.8,219.4h1.3v1.5c0.4-0.6,0.8-1,1.3-1.3c0.4-0.3,0.9-0.4,1.4-0.4c0.4,0,0.8,0.1,1.2,0.3l-0.7,1.1
				c-0.3-0.1-0.5-0.2-0.7-0.2c-0.4,0-0.9,0.2-1.3,0.5c-0.4,0.4-0.7,0.9-0.9,1.7c-0.2,0.6-0.2,1.8-0.2,3.5v3.5h-1.3V219.4z"/>
			<path class="st0" d="M99.2,219.4h1.3v1.8c0.5-0.7,0.9-1.1,1.4-1.4c0.7-0.4,1.4-0.6,2.1-0.6c0.5,0,1,0.1,1.4,0.3
				c0.4,0.2,0.8,0.5,1.1,0.8s0.5,0.8,0.7,1.4c0.4-0.8,1-1.4,1.6-1.8c0.7-0.4,1.4-0.6,2.1-0.6c0.7,0,1.3,0.2,1.9,0.5
				c0.5,0.4,0.9,0.9,1.2,1.5c0.3,0.6,0.4,1.6,0.4,2.9v5.6h-1.3V224c0-1.1-0.1-1.9-0.2-2.3c-0.2-0.4-0.4-0.7-0.8-1
				c-0.4-0.3-0.8-0.4-1.4-0.4c-0.6,0-1.2,0.2-1.7,0.6c-0.5,0.4-0.9,0.9-1.2,1.5c-0.2,0.6-0.4,1.7-0.4,3.1v4h-1.3v-5.2
				c0-1.2-0.1-2.1-0.2-2.5s-0.4-0.8-0.8-1.1c-0.4-0.3-0.8-0.4-1.4-0.4c-0.6,0-1.2,0.2-1.7,0.6c-0.5,0.4-0.9,0.9-1.2,1.5
				c-0.3,0.6-0.4,1.6-0.4,2.9v4.3h-1.3V219.4z"/>
			<path class="st0" d="M127.1,219.4v10.2h-1.3v-1.8c-0.6,0.7-1.2,1.2-1.9,1.5c-0.7,0.3-1.4,0.5-2.3,0.5c-1.5,0-2.7-0.5-3.7-1.6
				c-1-1.1-1.5-2.3-1.5-3.8c0-1.5,0.5-2.7,1.6-3.8s2.3-1.6,3.7-1.6c0.8,0,1.6,0.2,2.3,0.5c0.7,0.4,1.3,0.9,1.8,1.6v-1.9H127.1z
				 M121.8,220.4c-0.7,0-1.4,0.2-2,0.5c-0.6,0.4-1.1,0.9-1.5,1.5c-0.4,0.7-0.5,1.3-0.5,2.1c0,0.7,0.2,1.4,0.6,2.1
				c0.4,0.7,0.9,1.2,1.5,1.5c0.6,0.4,1.3,0.6,2,0.6c0.7,0,1.4-0.2,2-0.5c0.6-0.4,1.1-0.9,1.5-1.5c0.3-0.6,0.5-1.3,0.5-2.1
				c0-1.2-0.4-2.2-1.2-3C123.9,220.8,123,220.4,121.8,220.4z"/>
			<path class="st0" d="M129.5,215.4h1.3v14.2h-1.3V215.4z"/>
			<path class="st0" d="M137.9,219.1c1.6,0,2.9,0.6,3.9,1.7c0.9,1,1.4,2.3,1.4,3.7c0,1.4-0.5,2.7-1.5,3.8c-1,1.1-2.3,1.6-3.8,1.6
				c-1.6,0-2.9-0.5-3.9-1.6c-1-1.1-1.5-2.3-1.5-3.8c0-1.4,0.5-2.6,1.4-3.7C135,219.7,136.4,219.1,137.9,219.1z M137.9,220.4
				c-1.1,0-2,0.4-2.8,1.2c-0.8,0.8-1.2,1.8-1.2,2.9c0,0.7,0.2,1.4,0.5,2.1c0.4,0.6,0.8,1.1,1.5,1.5c0.6,0.3,1.3,0.5,2,0.5
				s1.4-0.2,2-0.5c0.6-0.3,1.1-0.8,1.5-1.5c0.4-0.6,0.5-1.3,0.5-2.1c0-1.1-0.4-2.1-1.2-2.9C140,220.8,139,220.4,137.9,220.4z"/>
			<path class="st0" d="M149.1,219.4h1.4l3.5,7.9l3.4-7.9h1.4l-6.1,14h-1.4l2-4.5L149.1,219.4z"/>
			<path class="st0" d="M173.7,226.2l1.1,0.6c-0.4,0.7-0.8,1.3-1.3,1.7c-0.5,0.4-1,0.8-1.6,1c-0.6,0.2-1.3,0.3-2,0.3
				c-1.7,0-3-0.5-3.9-1.6c-0.9-1.1-1.4-2.3-1.4-3.7c0-1.3,0.4-2.5,1.2-3.5c1-1.3,2.4-1.9,4.1-1.9c1.7,0,3.1,0.7,4.2,2
				c0.7,0.9,1.1,2.1,1.1,3.5h-9.2c0,1.2,0.4,2.2,1.1,2.9c0.7,0.8,1.6,1.1,2.7,1.1c0.5,0,1-0.1,1.5-0.3c0.5-0.2,0.9-0.4,1.3-0.7
				C172.9,227.4,173.3,226.9,173.7,226.2z M173.7,223.4c-0.2-0.7-0.4-1.3-0.8-1.7c-0.3-0.4-0.8-0.8-1.3-1s-1.1-0.4-1.7-0.4
				c-1,0-1.9,0.3-2.6,1c-0.5,0.5-0.9,1.2-1.2,2.1H173.7z"/>
			<path class="st0" d="M177.1,219.4h1.3v1.8c0.5-0.7,1.1-1.2,1.8-1.6c0.6-0.3,1.3-0.5,2.1-0.5c0.8,0,1.4,0.2,2,0.6
				c0.6,0.4,1,0.9,1.3,1.6s0.4,1.7,0.4,3.1v5.3h-1.3v-4.9c0-1.2,0-2-0.1-2.4c-0.2-0.7-0.4-1.2-0.9-1.5c-0.4-0.3-1-0.5-1.7-0.5
				c-0.8,0-1.5,0.3-2.1,0.8c-0.6,0.5-1,1.2-1.2,2c-0.1,0.5-0.2,1.4-0.2,2.8v3.8h-1.3V219.4z"/>
			<path class="st0" d="M187.5,219.4h1.4l3.4,7.5l3.4-7.5h1.4l-4.7,10.2h-0.2L187.5,219.4z"/>
			<path class="st0" d="M199.9,214.6h2l-2.8,2.9h-1.3L199.9,214.6z M198.6,219.4h1.3v10.2h-1.3V219.4z"/>
			<path class="st0" d="M212.4,219.4v10.2h-1.3v-1.8c-0.6,0.7-1.2,1.2-1.9,1.5c-0.7,0.3-1.4,0.5-2.3,0.5c-1.5,0-2.7-0.5-3.7-1.6
				c-1-1.1-1.5-2.3-1.5-3.8c0-1.5,0.5-2.7,1.6-3.8s2.3-1.6,3.7-1.6c0.8,0,1.6,0.2,2.3,0.5c0.7,0.4,1.3,0.9,1.8,1.6v-1.9H212.4z
				 M207.1,220.4c-0.7,0-1.4,0.2-2,0.5c-0.6,0.4-1.1,0.9-1.5,1.5c-0.4,0.7-0.6,1.3-0.6,2.1c0,0.7,0.2,1.4,0.6,2.1
				c0.4,0.7,0.9,1.2,1.5,1.5c0.6,0.4,1.3,0.6,2,0.6c0.7,0,1.4-0.2,2.1-0.5c0.6-0.4,1.1-0.9,1.5-1.5c0.3-0.6,0.5-1.3,0.5-2.1
				c0-1.2-0.4-2.2-1.2-3C209.2,220.8,208.3,220.4,207.1,220.4z"/>
			<path class="st0" d="M214.7,215.4h1.3v14.2h-1.3V215.4z"/>
			<path class="st0" d="M223.2,219.1c1.6,0,2.9,0.6,3.9,1.7c0.9,1,1.4,2.3,1.4,3.7c0,1.4-0.5,2.7-1.5,3.8c-1,1.1-2.3,1.6-3.8,1.6
				c-1.6,0-2.9-0.5-3.9-1.6c-1-1.1-1.5-2.3-1.5-3.8c0-1.4,0.5-2.6,1.4-3.7C220.3,219.7,221.6,219.1,223.2,219.1z M223.2,220.4
				c-1.1,0-2,0.4-2.8,1.2c-0.8,0.8-1.2,1.8-1.2,2.9c0,0.7,0.2,1.4,0.5,2.1c0.4,0.6,0.8,1.1,1.5,1.5c0.6,0.3,1.3,0.5,2,0.5
				c0.7,0,1.4-0.2,2-0.5c0.6-0.3,1.1-0.8,1.5-1.5c0.4-0.6,0.5-1.3,0.5-2.1c0-1.1-0.4-2.1-1.2-2.9
				C225.2,220.8,224.3,220.4,223.2,220.4z"/>
			<path class="st0" d="M245.7,215.4v14.2h-1.3v-1.8c-0.6,0.7-1.2,1.2-1.9,1.5c-0.7,0.3-1.4,0.5-2.3,0.5c-1.5,0-2.7-0.5-3.7-1.6
				c-1-1.1-1.5-2.3-1.5-3.8c0-1.5,0.5-2.7,1.6-3.8s2.3-1.6,3.7-1.6c0.8,0,1.6,0.2,2.3,0.5c0.7,0.4,1.3,0.9,1.8,1.6v-5.8H245.7z
				 M240.4,220.4c-0.7,0-1.4,0.2-2,0.5c-0.6,0.4-1.1,0.9-1.5,1.5c-0.4,0.7-0.6,1.3-0.6,2.1c0,0.7,0.2,1.4,0.6,2.1
				c0.4,0.7,0.9,1.2,1.5,1.5c0.6,0.4,1.3,0.6,2,0.6c0.7,0,1.4-0.2,2-0.5c0.6-0.4,1.1-0.9,1.5-1.5c0.3-0.6,0.5-1.3,0.5-2.1
				c0-1.2-0.4-2.2-1.2-3C242.5,220.8,241.6,220.4,240.4,220.4z"/>
			<path class="st0" d="M256.9,226.2l1.1,0.6c-0.4,0.7-0.8,1.3-1.3,1.7s-1,0.8-1.6,1c-0.6,0.2-1.3,0.3-2,0.3c-1.7,0-3-0.5-3.9-1.6
				c-0.9-1.1-1.4-2.3-1.4-3.7c0-1.3,0.4-2.5,1.2-3.5c1-1.3,2.4-1.9,4.1-1.9c1.7,0,3.1,0.7,4.2,2c0.7,0.9,1.1,2.1,1.1,3.5h-9.2
				c0,1.2,0.4,2.2,1.1,2.9c0.7,0.8,1.6,1.1,2.7,1.1c0.5,0,1-0.1,1.5-0.3c0.5-0.2,0.9-0.4,1.3-0.7
				C256.1,227.4,256.5,226.9,256.9,226.2z M256.9,223.4c-0.2-0.7-0.4-1.3-0.8-1.7c-0.3-0.4-0.8-0.8-1.3-1c-0.6-0.3-1.1-0.4-1.7-0.4
				c-1,0-1.9,0.3-2.6,1c-0.5,0.5-0.9,1.2-1.2,2.1H256.9z"/>
			<path class="st0" d="M264.3,219.4h1.4l3.4,7.5l3.4-7.5h1.4l-4.7,10.2H269L264.3,219.4z"/>
			<path class="st0" d="M275.4,219.4h1.3v4.8c0,1.2,0.1,2,0.2,2.4c0.2,0.6,0.5,1.1,1.1,1.5c0.5,0.4,1.2,0.5,1.9,0.5
				c0.7,0,1.4-0.2,1.9-0.5c0.5-0.4,0.9-0.8,1.1-1.4c0.1-0.4,0.2-1.2,0.2-2.5v-4.8h1.3v5c0,1.4-0.2,2.5-0.5,3.2
				c-0.3,0.7-0.8,1.3-1.5,1.7s-1.5,0.6-2.5,0.6s-1.8-0.2-2.5-0.6s-1.2-1-1.5-1.7c-0.3-0.7-0.5-1.8-0.5-3.3V219.4z"/>
			<path class="st0" d="M295.5,226.2l1.1,0.6c-0.4,0.7-0.8,1.3-1.3,1.7c-0.5,0.4-1,0.8-1.6,1c-0.6,0.2-1.3,0.3-2,0.3
				c-1.7,0-3-0.5-3.9-1.6c-0.9-1.1-1.4-2.3-1.4-3.7c0-1.3,0.4-2.5,1.2-3.5c1-1.3,2.4-1.9,4.1-1.9c1.7,0,3.1,0.7,4.2,2
				c0.7,0.9,1.1,2.1,1.1,3.5h-9.2c0,1.2,0.4,2.2,1.1,2.9c0.7,0.8,1.6,1.1,2.7,1.1c0.5,0,1-0.1,1.5-0.3c0.5-0.2,0.9-0.4,1.3-0.7
				C294.7,227.4,295.1,226.9,295.5,226.2z M295.5,223.4c-0.2-0.7-0.4-1.3-0.8-1.7c-0.3-0.4-0.8-0.8-1.3-1c-0.6-0.3-1.1-0.4-1.7-0.4
				c-1,0-1.9,0.3-2.6,1c-0.5,0.5-0.9,1.2-1.2,2.1H295.5z"/>
			<path class="st0" d="M298.8,215.4h1.3v14.2h-1.3V215.4z"/>
			<path class="st0" d="M303.6,215.5h1.3v3.8h2.1v1.1h-2.1v9.1h-1.3v-9.1h-1.8v-1.1h1.8V215.5z"/>
			<path class="st0" d="M318.7,219.4v10.2h-1.3v-1.8c-0.6,0.7-1.2,1.2-1.9,1.5c-0.7,0.3-1.4,0.5-2.3,0.5c-1.5,0-2.7-0.5-3.7-1.6
				c-1-1.1-1.5-2.3-1.5-3.8c0-1.5,0.5-2.7,1.6-3.8c1-1,2.3-1.6,3.7-1.6c0.8,0,1.6,0.2,2.3,0.5c0.7,0.4,1.3,0.9,1.8,1.6v-1.9H318.7z
				 M313.5,220.4c-0.7,0-1.4,0.2-2,0.5c-0.6,0.4-1.1,0.9-1.5,1.5c-0.4,0.7-0.6,1.3-0.6,2.1c0,0.7,0.2,1.4,0.6,2.1
				c0.4,0.7,0.9,1.2,1.5,1.5c0.6,0.4,1.3,0.6,2,0.6c0.7,0,1.4-0.2,2.1-0.5c0.6-0.4,1.1-0.9,1.5-1.5c0.3-0.6,0.5-1.3,0.5-2.1
				c0-1.2-0.4-2.2-1.2-3C315.6,220.8,314.6,220.4,313.5,220.4z"/>
		</g>
	</g>
	<g>
		<path class="st0" d="M6,30.9L7.3,30c1,1.8,2.1,2.7,3.4,2.7c0.5,0,1-0.1,1.5-0.4c0.5-0.3,0.8-0.6,1.1-1c0.2-0.4,0.4-0.9,0.4-1.4
			c0-0.5-0.2-1.1-0.5-1.6c-0.5-0.7-1.4-1.6-2.8-2.6c-1.3-1-2.2-1.8-2.5-2.2C7.3,22.8,7,22,7,21.1c0-0.7,0.2-1.3,0.5-1.9
			c0.3-0.6,0.8-1,1.4-1.4c0.6-0.3,1.3-0.5,2-0.5c0.8,0,1.5,0.2,2.1,0.6c0.7,0.4,1.4,1.1,2.1,2.1l-1.3,1c-0.6-0.8-1.1-1.3-1.6-1.6
			c-0.4-0.3-0.9-0.4-1.4-0.4c-0.7,0-1.2,0.2-1.6,0.6C8.8,20,8.6,20.5,8.6,21c0,0.4,0.1,0.7,0.2,1c0.1,0.3,0.4,0.7,0.8,1.1
			c0.2,0.2,0.9,0.7,2.1,1.6c1.4,1,2.4,2,2.9,2.8c0.5,0.8,0.8,1.6,0.8,2.4c0,1.2-0.4,2.2-1.3,3.1c-0.9,0.9-2,1.3-3.2,1.3
			c-1,0-1.9-0.3-2.7-0.8C7.4,33,6.6,32.1,6,30.9z"/>
		<path class="st0" d="M19.1,17c0.3,0,0.6,0.1,0.9,0.4c0.2,0.2,0.4,0.5,0.4,0.9c0,0.3-0.1,0.6-0.4,0.9c-0.2,0.2-0.5,0.4-0.9,0.4
			c-0.3,0-0.6-0.1-0.9-0.4c-0.2-0.2-0.4-0.5-0.4-0.9c0-0.4,0.1-0.7,0.4-0.9C18.5,17.1,18.8,17,19.1,17z M18.3,21.9h1.5v12h-1.5V21.9
			z"/>
		<path class="st0" d="M39.4,29.9l1.3,0.7c-0.4,0.8-0.9,1.5-1.5,2c-0.6,0.5-1.2,0.9-1.9,1.2c-0.7,0.3-1.5,0.4-2.4,0.4
			c-1.9,0-3.5-0.6-4.6-1.9c-1.1-1.3-1.6-2.7-1.6-4.3c0-1.5,0.5-2.9,1.4-4.1c1.2-1.5,2.8-2.3,4.7-2.3c2,0,3.7,0.8,4.9,2.3
			c0.9,1.1,1.3,2.5,1.3,4.1H30.3c0,1.4,0.5,2.5,1.3,3.4c0.9,0.9,1.9,1.3,3.2,1.3c0.6,0,1.2-0.1,1.8-0.3c0.6-0.2,1.1-0.5,1.5-0.8
			C38.5,31.3,38.9,30.7,39.4,29.9z M39.4,26.7c-0.2-0.8-0.5-1.5-0.9-2c-0.4-0.5-0.9-0.9-1.6-1.2s-1.3-0.5-2-0.5
			c-1.2,0-2.2,0.4-3,1.1c-0.6,0.5-1.1,1.4-1.4,2.5H39.4z"/>
		<path class="st0" d="M49.9,23.2l-1,1c-0.8-0.8-1.6-1.2-2.4-1.2c-0.5,0-0.9,0.2-1.3,0.5c-0.4,0.3-0.5,0.7-0.5,1.2
			c0,0.4,0.1,0.8,0.4,1.1c0.3,0.4,0.9,0.8,1.9,1.3c1.1,0.6,1.9,1.2,2.3,1.7c0.4,0.6,0.6,1.2,0.6,1.9c0,1-0.3,1.8-1,2.5
			c-0.7,0.7-1.6,1-2.6,1c-0.7,0-1.3-0.1-2-0.5c-0.6-0.3-1.1-0.7-1.6-1.2l1-1.1c0.8,0.9,1.6,1.3,2.5,1.3c0.6,0,1.1-0.2,1.6-0.6
			c0.4-0.4,0.6-0.9,0.6-1.4c0-0.4-0.1-0.8-0.4-1.2c-0.3-0.3-0.9-0.8-1.9-1.3c-1.1-0.6-1.8-1.1-2.2-1.6c-0.4-0.5-0.6-1.2-0.6-1.9
			c0-0.9,0.3-1.7,0.9-2.3s1.4-0.9,2.3-0.9C47.7,21.6,48.8,22.2,49.9,23.2z"/>
		<path class="st0" d="M70.8,21.9v12h-1.5v-2.1c-0.6,0.8-1.4,1.4-2.2,1.8c-0.8,0.4-1.7,0.6-2.6,0.6c-1.7,0-3.1-0.6-4.3-1.8
			c-1.2-1.2-1.8-2.7-1.8-4.5c0-1.7,0.6-3.2,1.8-4.4c1.2-1.2,2.7-1.8,4.4-1.8c1,0,1.9,0.2,2.7,0.6c0.8,0.4,1.5,1,2.1,1.9v-2.2H70.8z
			 M64.7,23.1c-0.9,0-1.6,0.2-2.4,0.6c-0.7,0.4-1.3,1-1.7,1.8c-0.4,0.8-0.6,1.6-0.6,2.4c0,0.8,0.2,1.6,0.6,2.4
			c0.4,0.8,1,1.4,1.7,1.8c0.7,0.4,1.5,0.6,2.3,0.6c0.8,0,1.6-0.2,2.4-0.6c0.8-0.4,1.3-1,1.7-1.7c0.4-0.7,0.6-1.5,0.6-2.4
			c0-1.4-0.5-2.5-1.4-3.5C67.1,23.6,66,23.1,64.7,23.1z"/>
		<path class="st0" d="M74.3,21.9h1.5v2.2c0.6-0.8,1.3-1.5,2.1-1.9c0.8-0.4,1.7-0.6,2.6-0.6c1.7,0,3.1,0.6,4.4,1.8s1.8,2.7,1.8,4.4
			c0,1.8-0.6,3.3-1.8,4.5c-1.2,1.2-2.6,1.8-4.3,1.8c-1,0-1.8-0.2-2.6-0.6c-0.8-0.4-1.5-1-2.2-1.8v6.4h-1.5V21.9z M80.4,23.1
			c-1.3,0-2.4,0.5-3.4,1.4c-0.9,0.9-1.4,2.1-1.4,3.5c0,0.9,0.2,1.7,0.6,2.4c0.4,0.7,1,1.3,1.7,1.7c0.8,0.4,1.6,0.6,2.4,0.6
			c0.8,0,1.6-0.2,2.3-0.6c0.7-0.4,1.3-1,1.7-1.8c0.4-0.8,0.6-1.6,0.6-2.4c0-0.8-0.2-1.7-0.6-2.4c-0.4-0.8-1-1.4-1.7-1.8
			C82.1,23.3,81.3,23.1,80.4,23.1z"/>
		<path class="st0" d="M89,21.9h1.6v1.7c0.5-0.7,1-1.2,1.5-1.5c0.5-0.3,1.1-0.5,1.6-0.5c0.4,0,0.9,0.1,1.4,0.4l-0.8,1.3
			c-0.3-0.1-0.6-0.2-0.8-0.2c-0.5,0-1,0.2-1.5,0.6c-0.5,0.4-0.8,1.1-1.1,2c-0.2,0.7-0.3,2.1-0.3,4.1v4H89V21.9z"/>
		<path class="st0" d="M101.9,21.6c1.8,0,3.4,0.7,4.6,2c1.1,1.2,1.7,2.7,1.7,4.3c0,1.7-0.6,3.1-1.7,4.4c-1.2,1.2-2.7,1.9-4.5,1.9
			c-1.8,0-3.3-0.6-4.5-1.9c-1.2-1.2-1.7-2.7-1.7-4.4c0-1.7,0.5-3.1,1.7-4.3C98.6,22.3,100.1,21.6,101.9,21.6z M101.9,23.1
			c-1.3,0-2.4,0.5-3.3,1.4c-0.9,0.9-1.4,2.1-1.4,3.4c0,0.9,0.2,1.7,0.6,2.4c0.4,0.7,1,1.3,1.7,1.7c0.7,0.4,1.5,0.6,2.3,0.6
			c0.9,0,1.6-0.2,2.3-0.6c0.7-0.4,1.3-1,1.7-1.7c0.4-0.7,0.6-1.6,0.6-2.4c0-1.3-0.5-2.5-1.4-3.4C104.3,23.6,103.2,23.1,101.9,23.1z"
			/>
		<path class="st0" d="M111.1,33.9V17.3h1.5V24c0.6-0.8,1.4-1.4,2.2-1.8s1.7-0.6,2.6-0.6c1.7,0,3.1,0.6,4.3,1.8s1.8,2.7,1.8,4.5
			c0,1.7-0.6,3.2-1.8,4.4c-1.2,1.2-2.7,1.8-4.4,1.8c-1,0-1.9-0.2-2.6-0.6c-0.8-0.4-1.5-1-2.1-1.9v2.2H111.1z M117.3,32.7
			c0.9,0,1.6-0.2,2.4-0.6c0.7-0.4,1.3-1,1.7-1.8c0.4-0.8,0.6-1.6,0.6-2.4c0-0.8-0.2-1.7-0.6-2.4c-0.4-0.8-1-1.4-1.7-1.8
			c-0.7-0.4-1.5-0.6-2.3-0.6c-0.8,0-1.6,0.2-2.4,0.6c-0.8,0.4-1.3,1-1.7,1.7c-0.4,0.7-0.6,1.5-0.6,2.4c0,1.4,0.5,2.5,1.4,3.5
			C114.8,32.2,115.9,32.7,117.3,32.7z"/>
		<path class="st0" d="M138.3,21.9v12h-1.5v-2.1c-0.6,0.8-1.4,1.4-2.2,1.8s-1.7,0.6-2.6,0.6c-1.7,0-3.1-0.6-4.3-1.8
			c-1.2-1.2-1.8-2.7-1.8-4.5c0-1.7,0.6-3.2,1.8-4.4c1.2-1.2,2.7-1.8,4.4-1.8c1,0,1.9,0.2,2.7,0.6c0.8,0.4,1.5,1,2.1,1.9v-2.2H138.3z
			 M132.1,23.1c-0.9,0-1.6,0.2-2.4,0.6c-0.7,0.4-1.3,1-1.7,1.8c-0.4,0.8-0.6,1.6-0.6,2.4c0,0.8,0.2,1.6,0.6,2.4
			c0.4,0.8,1,1.4,1.7,1.8c0.7,0.4,1.5,0.6,2.3,0.6c0.8,0,1.6-0.2,2.4-0.6c0.8-0.4,1.3-1,1.7-1.7c0.4-0.7,0.6-1.5,0.6-2.4
			c0-1.4-0.5-2.5-1.4-3.5C134.6,23.6,133.5,23.1,132.1,23.1z"/>
		<path class="st0" d="M153.7,17.3v16.6h-1.5v-2.1c-0.6,0.8-1.4,1.4-2.2,1.8s-1.7,0.6-2.6,0.6c-1.7,0-3.1-0.6-4.3-1.8
			c-1.2-1.2-1.8-2.7-1.8-4.5c0-1.7,0.6-3.2,1.8-4.4c1.2-1.2,2.7-1.8,4.4-1.8c1,0,1.9,0.2,2.7,0.6c0.8,0.4,1.5,1,2.1,1.9v-6.8H153.7z
			 M147.5,23.1c-0.9,0-1.6,0.2-2.4,0.6s-1.3,1-1.7,1.8c-0.4,0.8-0.6,1.6-0.6,2.4c0,0.8,0.2,1.6,0.6,2.4c0.4,0.8,1,1.4,1.7,1.8
			c0.7,0.4,1.5,0.6,2.3,0.6c0.8,0,1.6-0.2,2.4-0.6c0.8-0.4,1.3-1,1.7-1.7c0.4-0.7,0.6-1.5,0.6-2.4c0-1.4-0.5-2.5-1.4-3.5
			C150,23.6,148.8,23.1,147.5,23.1z"/>
		<path class="st0" d="M162.8,21.6c1.8,0,3.4,0.7,4.6,2c1.1,1.2,1.7,2.7,1.7,4.3c0,1.7-0.6,3.1-1.7,4.4c-1.2,1.2-2.7,1.9-4.5,1.9
			c-1.8,0-3.3-0.6-4.5-1.9c-1.2-1.2-1.7-2.7-1.7-4.4c0-1.7,0.5-3.1,1.7-4.3C159.4,22.3,161,21.6,162.8,21.6z M162.8,23.1
			c-1.3,0-2.4,0.5-3.3,1.4c-0.9,0.9-1.4,2.1-1.4,3.4c0,0.9,0.2,1.7,0.6,2.4s1,1.3,1.7,1.7c0.7,0.4,1.5,0.6,2.3,0.6
			c0.9,0,1.6-0.2,2.3-0.6c0.7-0.4,1.3-1,1.7-1.7s0.6-1.6,0.6-2.4c0-1.3-0.5-2.5-1.4-3.4C165.2,23.6,164.1,23.1,162.8,23.1z"/>
		<path class="st0" d="M177.5,21.9h1.6v1.7c0.5-0.7,1-1.2,1.5-1.5c0.5-0.3,1.1-0.5,1.6-0.5c0.4,0,0.9,0.1,1.4,0.4l-0.8,1.3
			c-0.3-0.1-0.6-0.2-0.8-0.2c-0.5,0-1,0.2-1.5,0.6c-0.5,0.4-0.8,1.1-1.1,2c-0.2,0.7-0.3,2.1-0.3,4.1v4h-1.6V21.9z"/>
		<path class="st0" d="M194.8,29.9l1.3,0.7c-0.4,0.8-0.9,1.5-1.5,2c-0.6,0.5-1.2,0.9-1.9,1.2c-0.7,0.3-1.5,0.4-2.4,0.4
			c-1.9,0-3.5-0.6-4.6-1.9c-1.1-1.3-1.6-2.7-1.6-4.3c0-1.5,0.5-2.9,1.4-4.1c1.2-1.5,2.8-2.3,4.7-2.3c2,0,3.7,0.8,4.9,2.3
			c0.9,1.1,1.3,2.5,1.3,4.1h-10.8c0,1.4,0.5,2.5,1.3,3.4c0.9,0.9,1.9,1.3,3.2,1.3c0.6,0,1.2-0.1,1.8-0.3c0.6-0.2,1.1-0.5,1.5-0.8
			C193.9,31.3,194.4,30.7,194.8,29.9z M194.8,26.7c-0.2-0.8-0.5-1.5-0.9-2c-0.4-0.5-0.9-0.9-1.6-1.2c-0.6-0.3-1.3-0.5-2-0.5
			c-1.2,0-2.2,0.4-3,1.1c-0.6,0.5-1.1,1.4-1.4,2.5H194.8z"/>
		<path class="st0" d="M211,24.4l-1.2,0.8c-1.1-1.4-2.5-2.1-4.3-2.1c-1.5,0-2.7,0.5-3.6,1.4c-1,0.9-1.4,2.1-1.4,3.4
			c0,0.9,0.2,1.7,0.7,2.5c0.4,0.8,1,1.4,1.8,1.8c0.8,0.4,1.6,0.6,2.6,0.6c1.8,0,3.2-0.7,4.3-2.1l1.2,0.8c-0.6,0.9-1.3,1.5-2.3,2
			c-1,0.5-2.1,0.7-3.3,0.7c-1.9,0-3.5-0.6-4.7-1.8c-1.2-1.2-1.9-2.7-1.9-4.4c0-1.2,0.3-2.2,0.9-3.2c0.6-1,1.4-1.8,2.4-2.3
			c1-0.6,2.2-0.8,3.4-0.8c0.8,0,1.6,0.1,2.3,0.4c0.7,0.2,1.4,0.6,1.9,0.9C210.2,23.3,210.6,23.8,211,24.4z"/>
		<path class="st0" d="M214.5,17c0.3,0,0.6,0.1,0.9,0.4c0.2,0.2,0.4,0.5,0.4,0.9c0,0.3-0.1,0.6-0.4,0.9c-0.2,0.2-0.5,0.4-0.9,0.4
			c-0.3,0-0.6-0.1-0.9-0.4c-0.2-0.2-0.4-0.5-0.4-0.9c0-0.4,0.1-0.7,0.4-0.9C213.9,17.1,214.2,17,214.5,17z M213.7,21.9h1.5v12h-1.5
			V21.9z"/>
		<path class="st0" d="M218.6,33.9V17.3h1.5V24c0.6-0.8,1.4-1.4,2.2-1.8c0.8-0.4,1.7-0.6,2.6-0.6c1.7,0,3.1,0.6,4.3,1.8
			c1.2,1.2,1.8,2.7,1.8,4.5c0,1.7-0.6,3.2-1.8,4.4c-1.2,1.2-2.7,1.8-4.4,1.8c-1,0-1.9-0.2-2.6-0.6c-0.8-0.4-1.5-1-2.1-1.9v2.2H218.6
			z M224.7,32.7c0.9,0,1.6-0.2,2.4-0.6c0.7-0.4,1.3-1,1.7-1.8s0.6-1.6,0.6-2.4c0-0.8-0.2-1.7-0.6-2.4c-0.4-0.8-1-1.4-1.7-1.8
			c-0.7-0.4-1.5-0.6-2.3-0.6c-0.8,0-1.6,0.2-2.4,0.6c-0.8,0.4-1.3,1-1.7,1.7c-0.4,0.7-0.6,1.5-0.6,2.4c0,1.4,0.5,2.5,1.4,3.5
			C222.3,32.2,223.4,32.7,224.7,32.7z"/>
		<path class="st0" d="M234.3,17c0.3,0,0.6,0.1,0.9,0.4c0.2,0.2,0.4,0.5,0.4,0.9c0,0.3-0.1,0.6-0.4,0.9c-0.2,0.2-0.5,0.4-0.9,0.4
			c-0.3,0-0.6-0.1-0.9-0.4c-0.2-0.2-0.4-0.5-0.4-0.9c0-0.4,0.1-0.7,0.4-0.9C233.7,17.1,234,17,234.3,17z M233.6,21.9h1.5v12h-1.5
			V21.9z"/>
		<path class="st0" d="M237.7,21.9h1.6v1.7c0.5-0.7,1-1.2,1.5-1.5c0.5-0.3,1.1-0.5,1.6-0.5c0.4,0,0.9,0.1,1.4,0.4l-0.8,1.3
			c-0.3-0.1-0.6-0.2-0.8-0.2c-0.5,0-1,0.2-1.5,0.6c-0.5,0.4-0.8,1.1-1.1,2c-0.2,0.7-0.3,2.1-0.3,4.1v4h-1.6V21.9z"/>
		<path class="st0" d="M257,21.9v12h-1.5v-2.1c-0.6,0.8-1.4,1.4-2.2,1.8c-0.8,0.4-1.7,0.6-2.6,0.6c-1.7,0-3.1-0.6-4.3-1.8
			c-1.2-1.2-1.8-2.7-1.8-4.5c0-1.7,0.6-3.2,1.8-4.4c1.2-1.2,2.7-1.8,4.4-1.8c1,0,1.9,0.2,2.7,0.6c0.8,0.4,1.5,1,2.1,1.9v-2.2H257z
			 M250.8,23.1c-0.9,0-1.6,0.2-2.4,0.6s-1.3,1-1.7,1.8c-0.4,0.8-0.6,1.6-0.6,2.4c0,0.8,0.2,1.6,0.6,2.4c0.4,0.8,1,1.4,1.7,1.8
			c0.7,0.4,1.5,0.6,2.3,0.6c0.8,0,1.6-0.2,2.4-0.6c0.8-0.4,1.3-1,1.7-1.7c0.4-0.7,0.6-1.5,0.6-2.4c0-1.4-0.5-2.5-1.4-3.5
			C253.3,23.6,252.2,23.1,250.8,23.1z M251.8,16.3h2.4l-3.2,3.4h-1.5L251.8,16.3z"/>
		<path class="st0" d="M266.5,23.2l-1,1c-0.8-0.8-1.6-1.2-2.4-1.2c-0.5,0-0.9,0.2-1.3,0.5c-0.4,0.3-0.5,0.7-0.5,1.2
			c0,0.4,0.1,0.8,0.4,1.1c0.3,0.4,0.9,0.8,1.9,1.3c1.1,0.6,1.9,1.2,2.3,1.7c0.4,0.6,0.6,1.2,0.6,1.9c0,1-0.3,1.8-1,2.5
			c-0.7,0.7-1.6,1-2.6,1c-0.7,0-1.3-0.1-2-0.5c-0.6-0.3-1.1-0.7-1.6-1.2l1-1.1c0.8,0.9,1.6,1.3,2.5,1.3c0.6,0,1.1-0.2,1.6-0.6
			c0.4-0.4,0.6-0.9,0.6-1.4c0-0.4-0.1-0.8-0.4-1.2c-0.3-0.3-0.9-0.8-1.9-1.3c-1.1-0.6-1.8-1.1-2.2-1.6c-0.4-0.5-0.6-1.2-0.6-1.9
			c0-0.9,0.3-1.7,0.9-2.3s1.4-0.9,2.3-0.9C264.2,21.6,265.3,22.2,266.5,23.2z"/>
		<path class="st0" d="M285.5,29.9l1.3,0.7c-0.4,0.8-0.9,1.5-1.5,2s-1.2,0.9-1.9,1.2c-0.7,0.3-1.5,0.4-2.4,0.4
			c-1.9,0-3.5-0.6-4.6-1.9c-1.1-1.3-1.6-2.7-1.6-4.3c0-1.5,0.5-2.9,1.4-4.1c1.2-1.5,2.8-2.3,4.7-2.3c2,0,3.7,0.8,4.9,2.3
			c0.9,1.1,1.3,2.5,1.3,4.1h-10.8c0,1.4,0.5,2.5,1.3,3.4c0.9,0.9,1.9,1.3,3.2,1.3c0.6,0,1.2-0.1,1.8-0.3c0.6-0.2,1.1-0.5,1.5-0.8
			C284.6,31.3,285,30.7,285.5,29.9z M285.5,26.7c-0.2-0.8-0.5-1.5-0.9-2c-0.4-0.5-0.9-0.9-1.6-1.2c-0.6-0.3-1.3-0.5-2-0.5
			c-1.2,0-2.2,0.4-3,1.1c-0.6,0.5-1.1,1.4-1.4,2.5H285.5z"/>
		<path class="st0" d="M289.8,17.3h1.5v16.6h-1.5V17.3z"/>
		<path class="st0" d="M312.4,24.4l-1.2,0.8c-1.1-1.4-2.5-2.1-4.3-2.1c-1.5,0-2.7,0.5-3.6,1.4c-1,0.9-1.4,2.1-1.4,3.4
			c0,0.9,0.2,1.7,0.7,2.5c0.4,0.8,1,1.4,1.8,1.8c0.8,0.4,1.6,0.6,2.6,0.6c1.8,0,3.2-0.7,4.3-2.1l1.2,0.8c-0.6,0.9-1.3,1.5-2.3,2
			c-1,0.5-2.1,0.7-3.3,0.7c-1.9,0-3.5-0.6-4.7-1.8c-1.2-1.2-1.9-2.7-1.9-4.4c0-1.2,0.3-2.2,0.9-3.2c0.6-1,1.4-1.8,2.4-2.3
			c1-0.6,2.2-0.8,3.4-0.8c0.8,0,1.6,0.1,2.3,0.4c0.7,0.2,1.4,0.6,1.9,0.9C311.6,23.3,312,23.8,312.4,24.4z"/>
		<path class="st0" d="M321,21.6c1.8,0,3.4,0.7,4.6,2c1.1,1.2,1.7,2.7,1.7,4.3c0,1.7-0.6,3.1-1.7,4.4s-2.7,1.9-4.5,1.9
			c-1.8,0-3.3-0.6-4.5-1.9c-1.2-1.2-1.7-2.7-1.7-4.4c0-1.7,0.5-3.1,1.6-4.3C317.6,22.3,319.1,21.6,321,21.6z M321,23.1
			c-1.3,0-2.4,0.5-3.3,1.4c-0.9,0.9-1.4,2.1-1.4,3.4c0,0.9,0.2,1.7,0.6,2.4c0.4,0.7,1,1.3,1.7,1.7c0.7,0.4,1.5,0.6,2.3,0.6
			s1.6-0.2,2.3-0.6c0.7-0.4,1.3-1,1.7-1.7c0.4-0.7,0.6-1.6,0.6-2.4c0-1.3-0.5-2.5-1.4-3.4C323.3,23.6,322.3,23.1,321,23.1z"/>
		<path class="st0" d="M330.1,21.9h1.5v2.1c0.6-0.8,1.3-1.4,2-1.8c0.7-0.4,1.6-0.6,2.4-0.6c0.9,0,1.7,0.2,2.4,0.7
			c0.7,0.5,1.2,1.1,1.5,1.8c0.3,0.8,0.5,2,0.5,3.6v6.2h-1.5v-5.7c0-1.4-0.1-2.3-0.2-2.8c-0.2-0.8-0.5-1.4-1-1.8
			c-0.5-0.4-1.2-0.6-2-0.6c-0.9,0-1.8,0.3-2.5,0.9c-0.7,0.6-1.2,1.4-1.5,2.3c-0.1,0.6-0.2,1.7-0.2,3.3v4.4h-1.5V21.9z"/>
		<path class="st0" d="M345.1,17.5h1.5v4.4h2.4v1.3h-2.4v10.6h-1.5V23.3H343v-1.3h2.1V17.5z"/>
		<path class="st0" d="M350.8,21.9h1.6v1.7c0.5-0.7,1-1.2,1.5-1.5c0.5-0.3,1.1-0.5,1.6-0.5c0.4,0,0.9,0.1,1.4,0.4l-0.8,1.3
			c-0.3-0.1-0.6-0.2-0.8-0.2c-0.5,0-1,0.2-1.5,0.6c-0.5,0.4-0.8,1.1-1.1,2c-0.2,0.7-0.3,2.1-0.3,4.1v4h-1.6V21.9z"/>
		<path class="st0" d="M370.1,21.9v12h-1.5v-2.1c-0.6,0.8-1.4,1.4-2.2,1.8s-1.7,0.6-2.6,0.6c-1.7,0-3.1-0.6-4.3-1.8
			c-1.2-1.2-1.8-2.7-1.8-4.5c0-1.7,0.6-3.2,1.8-4.4s2.7-1.8,4.4-1.8c1,0,1.9,0.2,2.7,0.6c0.8,0.4,1.5,1,2.1,1.9v-2.2H370.1z
			 M363.9,23.1c-0.9,0-1.6,0.2-2.4,0.6s-1.3,1-1.7,1.8c-0.4,0.8-0.6,1.6-0.6,2.4c0,0.8,0.2,1.6,0.6,2.4c0.4,0.8,1,1.4,1.7,1.8
			c0.7,0.4,1.5,0.6,2.3,0.6c0.8,0,1.6-0.2,2.4-0.6c0.8-0.4,1.3-1,1.7-1.7c0.4-0.7,0.6-1.5,0.6-2.4c0-1.4-0.5-2.5-1.4-3.5
			C366.4,23.6,365.3,23.1,363.9,23.1z"/>
		<path class="st0" d="M374.9,17.5h1.5v4.4h2.4v1.3h-2.4v10.6h-1.5V23.3h-2.1v-1.3h2.1V17.5z"/>
		<path class="st0" d="M386.8,21.6c1.8,0,3.4,0.7,4.6,2c1.1,1.2,1.7,2.7,1.7,4.3c0,1.7-0.6,3.1-1.7,4.4s-2.7,1.9-4.5,1.9
			c-1.8,0-3.3-0.6-4.5-1.9c-1.2-1.2-1.7-2.7-1.7-4.4c0-1.7,0.5-3.1,1.7-4.3C383.4,22.3,385,21.6,386.8,21.6z M386.8,23.1
			c-1.3,0-2.4,0.5-3.3,1.4c-0.9,0.9-1.4,2.1-1.4,3.4c0,0.9,0.2,1.7,0.6,2.4c0.4,0.7,1,1.3,1.7,1.7c0.7,0.4,1.5,0.6,2.3,0.6
			c0.9,0,1.6-0.2,2.3-0.6c0.7-0.4,1.3-1,1.7-1.7c0.4-0.7,0.6-1.6,0.6-2.4c0-1.3-0.5-2.5-1.4-3.4C389.2,23.6,388.1,23.1,386.8,23.1z"
			/>
	</g>
	<path class="st0" d="M199.8,74.2c-32.6,0-59,26.4-59,59s26.4,59,59,59s59-26.4,59-59S232.4,74.2,199.8,74.2z M199.8,189.3
		c-31,0-56.2-25.1-56.2-56.2S168.8,77,199.8,77s56.2,25.1,56.2,56.2S230.9,189.3,199.8,189.3z"/>
	<g>
		<path class="st0" d="M224.3,119.4l-5-5.1c-0.6-0.7-1.7-0.7-2.3,0l-19.3,18.3l-7.4-7.6c-0.6-0.7-1.7-0.7-2.3,0l-5.3,5.3
			c-0.7,0.6-0.7,1.7,0,2.3l8.6,8.8l5,5.1l0,0c0.6,0.7,1.7,0.7,2.3,0l0,0l5.3-5.2l20.5-19.5C225,121.1,225,120.1,224.3,119.4z"/>
		<path class="st0" d="M212.7,145.1c0,2.9-2.3,5.2-5.2,5.2h-23.1c-2.9,0-5.2-2.3-5.2-5.2v-23c0-2.9,2.3-5.2,5.2-5.2h23.1
			c0.7,0,1.3,0.1,1.9,0.4l3.8-3.8c-1.4-0.9-3.1-1.4-4.9-1.4h-24.8c-4.9,0-9,4-9,9v25.2c0,4.9,4,9,9,9h24.8c4.9,0,9-4,9-9v-12.3
			l-4.6,4.2V145.1z"/>
	</g>
</g>
</svg>
