<?xml version="1.0" encoding="UTF-8" standalone="no"?>
<!-- Created with Inkscape (http://www.inkscape.org/) -->

<svg
   width="200"
   height="200"
   viewBox="0 0 52.916665 52.916667"
   version="1.1"
   id="svg1"
   inkscape:version="1.3 (0e150ed, 2023-07-21)"
   sodipodi:docname="antiguedad.svg"
   xmlns:inkscape="http://www.inkscape.org/namespaces/inkscape"
   xmlns:sodipodi="http://sodipodi.sourceforge.net/DTD/sodipodi-0.dtd"
   xmlns="http://www.w3.org/2000/svg"
   xmlns:svg="http://www.w3.org/2000/svg">
  <sodipodi:namedview
     id="namedview1"
     pagecolor="#ffffff"
     bordercolor="#000000"
     borderopacity="0.25"
     inkscape:showpageshadow="2"
     inkscape:pageopacity="0.0"
     inkscape:pagecheckerboard="0"
     inkscape:deskcolor="#d1d1d1"
     inkscape:document-units="px"
     showguides="false"
     inkscape:zoom="1.9752512"
     inkscape:cx="71.130192"
     inkscape:cy="103.02487"
     inkscape:window-width="1440"
     inkscape:window-height="784"
     inkscape:window-x="0"
     inkscape:window-y="25"
     inkscape:window-maximized="0"
     inkscape:current-layer="layer1" />
  <defs
     id="defs1" />
  <g
     inkscape:label="Capa 1"
     inkscape:groupmode="layer"
     id="layer1">
    <path
       class="st0"
       d="m 51.000498,26.581115 c 0,-13.414375 -10.874375,-24.2887494 -24.28875,-24.2887494 -13.414374,0 -24.2887495,10.8743744 -24.2887495,24.2887494 0,13.229166 10.5833335,23.971249 23.7331245,24.288749 h 1.11125 c 13.149792,-0.3175 23.733125,-11.059583 23.733125,-24.288749 z m -47.4397904,0 c 0,-12.779375 10.3716664,-23.1510415 23.1510404,-23.1510415 12.779375,0 23.151042,10.3716665 23.151042,23.1510415 0,12.779375 -10.371667,23.151041 -23.151042,23.151041 -12.779374,0 -23.1510404,-10.371666 -23.1510404,-23.151041 z"
       id="path1"
       style="fill:#009bdb;stroke-width:0.264583" />
    <path
       class="st0"
       d="m 35.046123,15.997782 v 1.402292 c 0,1.137708 -0.899583,2.06375 -2.010833,2.06375 -1.11125,0 -2.010834,-0.926042 -2.010834,-2.06375 V 15.971323 H 22.39904 v 1.428751 c 0,1.137708 -0.899583,2.06375 -2.010833,2.06375 -1.11125,0 -2.010833,-0.926042 -2.010833,-2.06375 v -1.402292 c -1.984375,0.291041 -3.518958,2.010833 -3.518958,4.074583 v 15.504583 c 0,2.275417 1.852083,4.1275 4.127499,4.1275 h 15.504583 c 2.275417,0 4.1275,-1.852083 4.1275,-4.1275 V 20.072365 c -0.05292,-2.06375 -1.561042,-3.783542 -3.571875,-4.074583 z m 1.322917,19.579166 c 0,1.031875 -0.846667,1.905 -1.905,1.905 H 18.959457 c -1.031875,0 -1.905,-0.846667 -1.905,-1.905 V 23.062157 H 36.36904 Z M 20.361749,18.643615 c -0.687917,0 -1.243542,-0.582083 -1.243542,-1.27 v -2.645833 c 0,-0.687917 0.555625,-1.27 1.243542,-1.27 0.687916,0 1.243541,0.582083 1.243541,1.27 v 2.672292 c 0,0.687916 -0.555625,1.243541 -1.243541,1.243541 z m 12.673541,0 c -0.687917,0 -1.243542,-0.582083 -1.243542,-1.27 v -2.645833 c 0,-0.687917 0.555625,-1.27 1.243542,-1.27 0.687916,0 1.243541,0.582083 1.243541,1.27 v 2.672292 c 0,0.687916 -0.555625,1.243541 -1.243541,1.243541 z m 0,7.540625 c -0.47625,-0.238125 -1.137709,-0.132292 -1.455209,0.238125 l -5.450416,6.482291 -2.672291,-2.69875 h -2.619375 l 0.07938,0.07938 4.471458,4.524375 c 0.185208,0.211667 0.502708,0.3175 0.846666,0.3175 h 0.02646 c 0.343958,0 0.661458,-0.15875 0.846666,-0.370416 l 6.270625,-7.46125 c 0.291042,-0.343959 0.15875,-0.846667 -0.343958,-1.11125 z"
       id="path33"
       style="fill:#009bdb;stroke-width:0.264583" />
  </g>
</svg>
