<?xml version="1.0" encoding="UTF-8" standalone="no"?>
<!-- Created with Inkscape (http://www.inkscape.org/) -->

<svg
   width="130"
   height="130"
   viewBox="0 0 34.395832 34.395832"
   version="1.1"
   id="svg1"
   inkscape:version="1.3 (0e150ed, 2023-07-21)"
   sodipodi:docname="aprobado.svg"
   xmlns:inkscape="http://www.inkscape.org/namespaces/inkscape"
   xmlns:sodipodi="http://sodipodi.sourceforge.net/DTD/sodipodi-0.dtd"
   xmlns="http://www.w3.org/2000/svg"
   xmlns:svg="http://www.w3.org/2000/svg">
  <sodipodi:namedview
     id="namedview1"
     pagecolor="#ffffff"
     bordercolor="#000000"
     borderopacity="0.25"
     inkscape:showpageshadow="2"
     inkscape:pageopacity="0.0"
     inkscape:pagecheckerboard="false"
     inkscape:deskcolor="#d1d1d1"
     inkscape:document-units="px"
     inkscape:zoom="2.0442811"
     inkscape:cx="43.780672"
     inkscape:cy="88.784268"
     inkscape:window-width="1440"
     inkscape:window-height="784"
     inkscape:window-x="0"
     inkscape:window-y="25"
     inkscape:window-maximized="0"
     inkscape:current-layer="layer1" />
  <defs
     id="defs1" />
  <g
     inkscape:label="Capa 1"
     inkscape:groupmode="layer"
     id="layer1">
    <path
       class="st0"
       d="m 17.347766,1.8583732 c -8.6254208,0 -15.6104208,6.985 -15.6104208,15.6104178 0,8.625416 6.985,15.610416 15.6104208,15.610416 8.62542,0 15.61042,-6.985 15.61042,-15.610416 0,-8.6254178 -6.985,-15.6104178 -15.61042,-15.6104178 z m 0,30.4535418 c -8.2020808,0 -14.8695808,-6.641041 -14.8695808,-14.869583 0,-8.2285418 6.6675,-14.8431258 14.8695808,-14.8431258 8.20208,0 14.86958,6.641042 14.86958,14.8695848 0,8.228541 -6.64104,14.843124 -14.86958,14.843124 z"
       id="path55"
       style="fill:#f7f7f8;stroke-width:0.264583" />
    <g
       id="g57"
       transform="matrix(0.26458333,0,0,0.26458333,-35.515984,-17.773709)">&#10;		<path
   class="st0"
   d="m 224.3,119.4 -5,-5.1 c -0.6,-0.7 -1.7,-0.7 -2.3,0 l -19.3,18.3 -7.4,-7.6 c -0.6,-0.7 -1.7,-0.7 -2.3,0 l -5.3,5.3 c -0.7,0.6 -0.7,1.7 0,2.3 l 8.6,8.8 5,5.1 v 0 c 0.6,0.7 1.7,0.7 2.3,0 v 0 l 5.3,-5.2 20.5,-19.5 c 0.6,-0.7 0.6,-1.7 -0.1,-2.4 z"
   id="path56"
   style="fill:#f7f7f8" />
&#10;		<path
   class="st0"
   d="m 212.7,145.1 c 0,2.9 -2.3,5.2 -5.2,5.2 h -23.1 c -2.9,0 -5.2,-2.3 -5.2,-5.2 v -23 c 0,-2.9 2.3,-5.2 5.2,-5.2 h 23.1 c 0.7,0 1.3,0.1 1.9,0.4 l 3.8,-3.8 c -1.4,-0.9 -3.1,-1.4 -4.9,-1.4 h -24.8 c -4.9,0 -9,4 -9,9 v 25.2 c 0,4.9 4,9 9,9 h 24.8 c 4.9,0 9,-4 9,-9 V 134 l -4.6,4.2 z"
   id="path57"
   style="fill:#f7f7f8" />
&#10;	</g>
  </g>
</svg>
