<?xml version="1.0" encoding="utf-8"?>
<!-- Generator: Adobe Illustrator 27.1.1, SVG Export Plug-In . SVG Version: 6.00 Build 0)  -->
<svg version="1.1" id="Capa_1" xmlns="http://www.w3.org/2000/svg" xmlns:xlink="http://www.w3.org/1999/xlink" x="0px" y="0px"
	 viewBox="0 0 300 300" style="enable-background:new 0 0 300 300;" xml:space="preserve">
<style type="text/css">
	.st0{fill:#009BDB;}
	.st1{fill-rule:evenodd;clip-rule:evenodd;fill:#009BDB;}
</style>
<g>
	<g>
		<path class="st0" d="M297,148.8C297,67.3,231,1.3,149.5,1.3S2,67.3,2,148.8c0,80.3,64.2,145.6,144.1,147.4h6.8
			C232.8,294.4,297,229.1,297,148.8z M9,148.8C9,71.2,71.9,8.2,149.5,8.2S290,71.2,290,148.8s-62.9,140.5-140.5,140.5
			S9,226.4,9,148.8z"/>
	</g>
	<g>
		<path class="st1" d="M213.3,197.8c-9.9,0-17.9-8.3-17.9-18.5s8-18.5,17.9-18.5s17.9,8.3,17.9,18.5S223.2,197.8,213.3,197.8z
			 M213.3,155.5c-12.7,0-23.1,10.7-23.1,23.8s10.3,23.8,23.1,23.8s23.1-10.7,23.1-23.8C236.3,166.1,226,155.5,213.3,155.5z"/>
		<path class="st1" d="M116.7,174.2c0.3,1.9,0.5,3.8,0.5,5.7l0,0h68.2l0,0c0-1.9,0.2-3.8,0.5-5.7H116.7z"/>
		<path class="st1" d="M76.3,95.9c3-2.9,7-4.5,11.1-4.5h30.3v36.4H44.8l0,0L76.3,95.9z M174.3,96l32,31.9h-83.5V91.5h40.4
			C167.4,91.4,171.4,93,174.3,96z M239.3,133.1c11.4,0,20.7,9.3,20.7,20.8v15.7c0,2.9-2.3,5.2-5.2,5.2h-13.4
			c0.3,1.7,0.5,3.4,0.5,5.2l0,0h12.9c5.7,0,10.3-4.7,10.4-10.4V154c0-14.4-11.6-26-25.9-26.1h-21.5c-2.8,0.1-5.4-1-7.2-3.1L178,92.3
			c-3.9-3.9-9.2-6.1-14.8-6h-42.9h-0.1h-0.1H87.4c-5.5,0-10.8,2.1-14.8,6l-32.1,32.5c-2,2-3.1,4.7-3.1,7.5v26.8
			c0,11.5,9.3,20.8,20.7,20.8h2.6l0,0c0-1.7,0.2-3.5,0.5-5.2h-3.1c-8.6,0-15.5-7-15.5-15.6V133h196.7V133.1z"/>
		<path class="st1" d="M89.3,197.8c-9.9,0-17.9-8.3-17.9-18.5s8-18.5,17.9-18.5s17.9,8.3,17.9,18.5
			C107.2,189.5,99.2,197.8,89.3,197.8z M89.3,155.5c-12.7,0-23.1,10.7-23.1,23.8s10.3,23.8,23.1,23.8c12.7,0,23.1-10.7,23.1-23.8
			C112.4,166.1,102,155.5,89.3,155.5z"/>
	</g>
</g>
</svg>
