<?xml version="1.0" encoding="utf-8"?>
<!-- Generator: Adobe Illustrator 27.1.1, SVG Export Plug-In . SVG Version: 6.00 Build 0)  -->
<svg version="1.1" id="Capa_1" xmlns="http://www.w3.org/2000/svg" xmlns:xlink="http://www.w3.org/1999/xlink" x="0px" y="0px"
	 viewBox="0 0 300 300" style="enable-background:new 0 0 300 300;" xml:space="preserve">
<style type="text/css">
	.st0{fill:#009BDB;}
	.st1{fill:#4D4D4D;}
</style>
<g>
	<path class="st0" d="M242.3,92.7c0-50.7-41.1-91.8-91.8-91.8S58.7,42,58.7,92.7c0,50,40,90.6,89.7,91.8h4.2
		C202.4,183.3,242.3,142.7,242.3,92.7z M63.1,92.7c0-48.3,39.2-87.5,87.5-87.5c48.3,0,87.5,39.2,87.5,87.5s-39.2,87.5-87.5,87.5
		C102.2,180.2,63.1,141,63.1,92.7z"/>
	<g>
		<path class="st1" d="M65.5,214.1l-1.8,1.3c-1-1.3-2.1-2.2-3.5-2.9c-1.4-0.7-2.8-1-4.5-1c-1.8,0-3.4,0.4-4.9,1.3
			c-1.5,0.9-2.7,2-3.5,3.4s-1.2,3.1-1.2,4.8c0,2.7,0.9,5,2.8,6.8c1.9,1.8,4.2,2.7,7,2.7c3.1,0,5.7-1.2,7.8-3.7l1.8,1.3
			c-1.1,1.4-2.5,2.5-4.2,3.3c-1.7,0.8-3.5,1.2-5.6,1.2c-3.9,0-7-1.3-9.2-3.9c-1.9-2.2-2.8-4.8-2.8-7.9c0-3.3,1.1-6,3.4-8.2
			c2.3-2.2,5.1-3.3,8.6-3.3c2.1,0,4,0.4,5.6,1.2C63,211.5,64.4,212.6,65.5,214.1z"/>
		<path class="st1" d="M77.4,215.3c2.5,0,4.6,0.9,6.3,2.8c1.5,1.7,2.3,3.7,2.3,5.9c0,2.3-0.8,4.3-2.4,6c-1.6,1.7-3.7,2.6-6.2,2.6
			c-2.5,0-4.6-0.9-6.2-2.6s-2.4-3.7-2.4-6c0-2.3,0.8-4.3,2.3-5.9C72.7,216.3,74.8,215.3,77.4,215.3z M77.4,217.4
			c-1.8,0-3.3,0.7-4.5,2c-1.3,1.3-1.9,2.9-1.9,4.7c0,1.2,0.3,2.3,0.9,3.3c0.6,1,1.4,1.8,2.3,2.4c1,0.6,2.1,0.8,3.2,0.8
			c1.2,0,2.3-0.3,3.2-0.8c1-0.6,1.8-1.4,2.3-2.4c0.6-1,0.9-2.1,0.9-3.3c0-1.8-0.6-3.4-1.9-4.7C80.6,218.1,79.1,217.4,77.4,217.4z"/>
		<path class="st1" d="M89.8,215.8H92v2.8c0.7-1,1.5-1.8,2.3-2.3c1.1-0.6,2.2-1,3.4-1c0.8,0,1.6,0.2,2.3,0.5
			c0.7,0.3,1.3,0.7,1.8,1.2c0.5,0.5,0.8,1.3,1.2,2.2c0.7-1.3,1.6-2.3,2.6-2.9c1.1-0.7,2.2-1,3.4-1c1.1,0,2.1,0.3,3,0.9
			c0.9,0.6,1.5,1.4,1.9,2.4c0.4,1,0.6,2.6,0.6,4.6v9h-2.2v-9c0-1.8-0.1-3-0.4-3.6c-0.3-0.7-0.7-1.2-1.3-1.6
			c-0.6-0.4-1.3-0.6-2.2-0.6c-1,0-2,0.3-2.8,0.9s-1.5,1.4-1.9,2.4s-0.6,2.7-0.6,5.1v6.4h-2.1v-8.4c0-2-0.1-3.3-0.4-4
			c-0.2-0.7-0.7-1.3-1.3-1.7c-0.6-0.4-1.3-0.6-2.2-0.6c-1,0-1.9,0.3-2.7,0.9c-0.9,0.6-1.5,1.4-1.9,2.4c-0.4,1-0.6,2.5-0.6,4.6v7
			h-2.1V215.8z"/>
		<path class="st1" d="M119,215.8h2.1v3c0.8-1.1,1.8-2,2.9-2.6c1.1-0.6,2.3-0.9,3.6-0.9c2.3,0,4.3,0.8,6,2.5s2.5,3.7,2.5,6.1
			c0,2.4-0.8,4.5-2.5,6.2c-1.6,1.7-3.6,2.5-6,2.5c-1.3,0-2.5-0.3-3.6-0.8c-1.1-0.5-2.1-1.4-3-2.4v8.9H119V215.8z M127.4,217.4
			c-1.8,0-3.4,0.6-4.6,1.9c-1.3,1.3-1.9,2.9-1.9,4.8c0,1.2,0.3,2.4,0.8,3.4c0.6,1,1.4,1.8,2.4,2.4c1,0.6,2.1,0.9,3.3,0.9
			c1.1,0,2.2-0.3,3.2-0.9c1-0.6,1.8-1.4,2.4-2.5c0.6-1.1,0.9-2.2,0.9-3.3c0-1.2-0.3-2.3-0.9-3.3c-0.6-1-1.4-1.9-2.4-2.4
			C129.7,217.7,128.6,217.4,127.4,217.4z"/>
		<path class="st1" d="M139.3,215.8h2.2v2.4c0.6-0.9,1.3-1.7,2-2.1c0.7-0.5,1.5-0.7,2.2-0.7c0.6,0,1.2,0.2,1.9,0.6l-1.1,1.8
			c-0.4-0.2-0.8-0.3-1.1-0.3c-0.7,0-1.4,0.3-2,0.9c-0.7,0.6-1.2,1.5-1.5,2.7c-0.3,0.9-0.4,2.8-0.4,5.7v5.6h-2.2V215.8z"/>
		<path class="st1" d="M157,215.3c2.5,0,4.6,0.9,6.3,2.8c1.5,1.7,2.3,3.7,2.3,5.9c0,2.3-0.8,4.3-2.4,6s-3.7,2.6-6.2,2.6
			c-2.5,0-4.6-0.9-6.2-2.6c-1.6-1.7-2.4-3.7-2.4-6c0-2.3,0.8-4.3,2.3-5.9C152.4,216.3,154.5,215.3,157,215.3z M157,217.4
			c-1.8,0-3.3,0.7-4.5,2s-1.9,2.9-1.9,4.7c0,1.2,0.3,2.3,0.9,3.3c0.6,1,1.4,1.8,2.3,2.4c1,0.6,2.1,0.8,3.2,0.8
			c1.2,0,2.3-0.3,3.2-0.8c1-0.6,1.8-1.4,2.3-2.4c0.6-1,0.9-2.1,0.9-3.3c0-1.8-0.6-3.4-1.9-4.7C160.3,218.1,158.8,217.4,157,217.4z"
			/>
		<path class="st1" d="M169.7,232.2v-22.8h2.1v9.2c0.9-1.1,1.9-1.9,3-2.4c1.1-0.5,2.3-0.8,3.6-0.8c2.3,0,4.3,0.8,6,2.5
			s2.5,3.7,2.5,6.2c0,2.4-0.8,4.4-2.5,6.1c-1.7,1.7-3.7,2.5-6,2.5c-1.3,0-2.6-0.3-3.6-0.9c-1.1-0.6-2.1-1.4-2.9-2.6v3H169.7z
			 M178.2,230.6c1.2,0,2.3-0.3,3.3-0.9c1-0.6,1.8-1.4,2.4-2.4c0.6-1,0.9-2.2,0.9-3.3s-0.3-2.3-0.9-3.3c-0.6-1.1-1.4-1.9-2.4-2.5
			c-1-0.6-2.1-0.9-3.2-0.9c-1.2,0-2.3,0.3-3.3,0.9c-1,0.6-1.8,1.4-2.4,2.4c-0.6,1-0.8,2.1-0.8,3.4c0,1.9,0.6,3.5,1.9,4.8
			C174.8,230,176.3,230.6,178.2,230.6z"/>
		<path class="st1" d="M207.1,215.8v16.5H205v-2.8c-0.9,1.1-1.9,1.9-3,2.4c-1.1,0.5-2.3,0.8-3.6,0.8c-2.3,0-4.3-0.8-6-2.5
			c-1.6-1.7-2.5-3.7-2.5-6.2c0-2.4,0.8-4.4,2.5-6.1c1.7-1.7,3.7-2.5,6-2.5c1.4,0,2.6,0.3,3.7,0.9c1.1,0.6,2.1,1.4,2.9,2.6v-3H207.1z
			 M198.6,217.4c-1.2,0-2.3,0.3-3.3,0.9c-1,0.6-1.8,1.4-2.4,2.4c-0.6,1-0.9,2.2-0.9,3.3c0,1.2,0.3,2.3,0.9,3.3
			c0.6,1.1,1.4,1.9,2.4,2.5c1,0.6,2.1,0.9,3.2,0.9c1.2,0,2.3-0.3,3.3-0.9c1-0.6,1.8-1.4,2.4-2.4c0.6-1,0.8-2.1,0.8-3.4
			c0-1.9-0.6-3.5-1.9-4.8C202,218,200.5,217.4,198.6,217.4z"/>
		<path class="st1" d="M211.9,215.8h2.1v3c0.8-1.1,1.8-2,2.8-2.5s2.1-0.8,3.4-0.8c1.2,0,2.3,0.3,3.3,0.9c1,0.6,1.7,1.5,2.1,2.5
			c0.5,1.1,0.7,2.7,0.7,4.9v8.5h-2.1v-7.9c0-1.9-0.1-3.2-0.2-3.8c-0.2-1.1-0.7-1.9-1.4-2.5c-0.7-0.6-1.6-0.8-2.7-0.8
			c-1.3,0-2.4,0.4-3.4,1.3c-1,0.8-1.7,1.9-2,3.1c-0.2,0.8-0.3,2.3-0.3,4.5v6h-2.1V215.8z"/>
		<path class="st1" d="M232.6,209.7h2.1v6.1h3.4v1.8h-3.4v14.6h-2.1v-14.6h-2.9v-1.8h2.9V209.7z"/>
		<path class="st1" d="M255.1,226.8l1.8,0.9c-0.6,1.1-1.3,2.1-2,2.8c-0.8,0.7-1.6,1.2-2.6,1.6c-1,0.4-2,0.6-3.3,0.6
			c-2.7,0-4.8-0.9-6.3-2.6c-1.5-1.8-2.3-3.8-2.3-6c0-2.1,0.6-3.9,1.9-5.6c1.6-2.1,3.8-3.1,6.5-3.1c2.8,0,5,1.1,6.7,3.2
			c1.2,1.5,1.8,3.4,1.8,5.6h-14.8c0,1.9,0.7,3.5,1.8,4.7c1.2,1.2,2.6,1.8,4.4,1.8c0.8,0,1.7-0.1,2.4-0.4c0.8-0.3,1.5-0.7,2-1.2
			C253.9,228.6,254.5,227.8,255.1,226.8z M255.1,222.3c-0.3-1.1-0.7-2-1.2-2.7c-0.5-0.7-1.3-1.2-2.1-1.6c-0.9-0.4-1.8-0.6-2.8-0.6
			c-1.6,0-3,0.5-4.2,1.6c-0.8,0.8-1.5,1.9-1.9,3.4H255.1z"/>
		<path class="st1" d="M90.4,243.9v18.5h-1.7v-2.3c-0.7,0.9-1.5,1.5-2.4,2s-1.9,0.7-2.9,0.7c-1.9,0-3.5-0.7-4.9-2.1
			c-1.3-1.4-2-3-2-5c0-1.9,0.7-3.6,2-4.9c1.4-1.4,3-2.1,4.9-2.1c1.1,0,2.1,0.2,3,0.7c0.9,0.5,1.7,1.2,2.3,2.1v-7.6H90.4z
			 M83.5,250.4c-1,0-1.8,0.2-2.7,0.7c-0.8,0.5-1.5,1.1-1.9,2c-0.5,0.9-0.7,1.8-0.7,2.7c0,0.9,0.2,1.8,0.7,2.7c0.5,0.9,1.1,1.5,1.9,2
			c0.8,0.5,1.7,0.7,2.6,0.7c0.9,0,1.8-0.2,2.7-0.7c0.8-0.5,1.5-1.1,1.9-1.9c0.5-0.8,0.7-1.7,0.7-2.7c0-1.5-0.5-2.8-1.5-3.9
			C86.2,250.9,85,250.4,83.5,250.4z"/>
		<path class="st1" d="M105.5,258l1.5,0.8c-0.5,0.9-1,1.7-1.6,2.3c-0.6,0.6-1.3,1-2.1,1.3c-0.8,0.3-1.7,0.4-2.6,0.4
			c-2.2,0-3.9-0.7-5.1-2.1c-1.2-1.4-1.8-3-1.8-4.8c0-1.7,0.5-3.2,1.6-4.5c1.3-1.7,3.1-2.5,5.3-2.5c2.3,0,4.1,0.9,5.5,2.6
			c1,1.2,1.5,2.7,1.5,4.6h-12c0,1.6,0.5,2.8,1.5,3.8c1,1,2.1,1.5,3.6,1.5c0.7,0,1.3-0.1,2-0.4s1.2-0.6,1.6-0.9
			C104.5,259.5,105,258.9,105.5,258z M105.5,254.4c-0.2-0.9-0.6-1.7-1-2.2c-0.4-0.6-1-1-1.7-1.3c-0.7-0.3-1.5-0.5-2.3-0.5
			c-1.3,0-2.4,0.4-3.4,1.3c-0.7,0.6-1.2,1.5-1.6,2.8H105.5z"/>
		<path class="st1" d="M130.9,243.9v18.5h-1.7v-2.3c-0.7,0.9-1.5,1.5-2.4,2s-1.9,0.7-2.9,0.7c-1.9,0-3.5-0.7-4.8-2.1
			c-1.3-1.4-2-3-2-5c0-1.9,0.7-3.6,2-4.9c1.4-1.4,3-2.1,4.9-2.1c1.1,0,2.1,0.2,3,0.7c0.9,0.5,1.7,1.2,2.3,2.1v-7.6H130.9z
			 M124.1,250.4c-1,0-1.8,0.2-2.7,0.7c-0.8,0.5-1.5,1.1-1.9,2c-0.5,0.9-0.7,1.8-0.7,2.7c0,0.9,0.2,1.8,0.7,2.7
			c0.5,0.9,1.1,1.5,1.9,2c0.8,0.5,1.7,0.7,2.6,0.7c0.9,0,1.8-0.2,2.7-0.7s1.5-1.1,1.9-1.9c0.5-0.8,0.7-1.7,0.7-2.7
			c0-1.5-0.5-2.8-1.5-3.9C126.8,250.9,125.5,250.4,124.1,250.4z"/>
		<path class="st1" d="M141.2,248.7c2.1,0,3.8,0.7,5.1,2.2c1.2,1.4,1.8,3,1.8,4.8c0,1.9-0.7,3.5-2,4.9c-1.3,1.4-3,2.1-5,2.1
			c-2.1,0-3.7-0.7-5-2.1c-1.3-1.4-2-3-2-4.9c0-1.9,0.6-3.5,1.8-4.8C137.4,249.5,139.1,248.7,141.2,248.7z M141.2,250.4
			c-1.4,0-2.7,0.5-3.7,1.6c-1,1.1-1.5,2.3-1.5,3.8c0,1,0.2,1.9,0.7,2.7c0.5,0.8,1.1,1.5,1.9,1.9c0.8,0.5,1.7,0.7,2.6,0.7
			c1,0,1.8-0.2,2.6-0.7c0.8-0.5,1.4-1.1,1.9-1.9c0.5-0.8,0.7-1.7,0.7-2.7c0-1.5-0.5-2.8-1.5-3.8
			C143.8,250.9,142.6,250.4,141.2,250.4z"/>
		<path class="st1" d="M151.3,249.1h1.7v2.3c0.6-0.9,1.2-1.5,1.8-1.9c0.9-0.5,1.8-0.8,2.7-0.8c0.6,0,1.3,0.1,1.8,0.4
			c0.6,0.3,1.1,0.6,1.4,1s0.7,1,1,1.8c0.6-1,1.3-1.8,2.1-2.4c0.9-0.5,1.8-0.8,2.8-0.8c0.9,0,1.7,0.2,2.4,0.7s1.2,1.1,1.6,2
			c0.3,0.8,0.5,2.1,0.5,3.8v7.3h-1.8v-7.3c0-1.4-0.1-2.4-0.3-3c-0.2-0.5-0.6-1-1-1.3c-0.5-0.3-1.1-0.5-1.8-0.5
			c-0.8,0-1.6,0.2-2.3,0.7c-0.7,0.5-1.2,1.1-1.5,2c-0.3,0.8-0.5,2.2-0.5,4.1v5.2h-1.7v-6.8c0-1.6-0.1-2.7-0.3-3.3
			c-0.2-0.6-0.6-1-1.1-1.4c-0.5-0.3-1.1-0.5-1.8-0.5c-0.8,0-1.5,0.2-2.2,0.7c-0.7,0.5-1.2,1.1-1.5,1.9c-0.3,0.8-0.5,2.1-0.5,3.7v5.7
			h-1.7V249.1z"/>
		<path class="st1" d="M175.5,243.6c0.4,0,0.7,0.1,1,0.4c0.3,0.3,0.4,0.6,0.4,1c0,0.4-0.1,0.7-0.4,1c-0.3,0.3-0.6,0.4-1,0.4
			c-0.4,0-0.7-0.1-1-0.4c-0.3-0.3-0.4-0.6-0.4-1c0-0.4,0.1-0.7,0.4-1C174.8,243.7,175.1,243.6,175.5,243.6z M174.7,249.1h1.7v13.4
			h-1.7V249.1z"/>
		<path class="st1" d="M193,251.8l-1.4,0.8c-1.2-1.6-2.8-2.3-4.8-2.3c-1.6,0-3,0.5-4.1,1.6s-1.6,2.3-1.6,3.8c0,1,0.2,1.9,0.7,2.8
			c0.5,0.9,1.2,1.5,2,2c0.9,0.5,1.8,0.7,2.9,0.7c2,0,3.6-0.8,4.8-2.3l1.4,0.9c-0.6,1-1.5,1.7-2.6,2.2c-1.1,0.5-2.3,0.8-3.7,0.8
			c-2.1,0-3.9-0.7-5.3-2c-1.4-1.3-2.1-3-2.1-4.9c0-1.3,0.3-2.5,1-3.6s1.5-2,2.7-2.6c1.1-0.6,2.4-0.9,3.8-0.9c0.9,0,1.7,0.1,2.6,0.4
			c0.8,0.3,1.5,0.6,2.1,1.1C192.1,250.6,192.6,251.2,193,251.8z"/>
		<path class="st1" d="M196.9,243.6c0.4,0,0.7,0.1,1,0.4c0.3,0.3,0.4,0.6,0.4,1c0,0.4-0.1,0.7-0.4,1c-0.3,0.3-0.6,0.4-1,0.4
			c-0.4,0-0.7-0.1-1-0.4c-0.3-0.3-0.4-0.6-0.4-1c0-0.4,0.1-0.7,0.4-1C196.1,243.7,196.5,243.6,196.9,243.6z M196,249.1h1.7v13.4H196
			V249.1z"/>
		<path class="st1" d="M201,243.9h1.7v18.5H201V243.9z"/>
		<path class="st1" d="M206.9,243.6c0.4,0,0.7,0.1,1,0.4c0.3,0.3,0.4,0.6,0.4,1c0,0.4-0.1,0.7-0.4,1c-0.3,0.3-0.6,0.4-1,0.4
			c-0.4,0-0.7-0.1-1-0.4c-0.3-0.3-0.4-0.6-0.4-1c0-0.4,0.1-0.7,0.4-1C206.2,243.7,206.6,243.6,206.9,243.6z M206.1,249.1h1.7v13.4
			h-1.7V249.1z"/>
		<path class="st1" d="M217.7,248.7c2.1,0,3.8,0.7,5.1,2.2c1.2,1.4,1.8,3,1.8,4.8c0,1.9-0.7,3.5-2,4.9c-1.3,1.4-3,2.1-5,2.1
			c-2.1,0-3.7-0.7-5-2.1c-1.3-1.4-2-3-2-4.9c0-1.9,0.6-3.5,1.8-4.8C213.9,249.5,215.6,248.7,217.7,248.7z M217.7,250.4
			c-1.4,0-2.7,0.5-3.7,1.6c-1,1.1-1.5,2.3-1.5,3.8c0,1,0.2,1.9,0.7,2.7c0.5,0.8,1.1,1.5,1.9,1.9c0.8,0.5,1.7,0.7,2.6,0.7
			c1,0,1.8-0.2,2.6-0.7c0.8-0.5,1.4-1.1,1.9-1.9c0.5-0.8,0.7-1.7,0.7-2.7c0-1.5-0.5-2.8-1.5-3.8
			C220.4,250.9,219.1,250.4,217.7,250.4z"/>
		<path class="st1" d="M24.4,273.8h2c-0.8,1.6-1.4,3.6-1.9,5.8c-0.5,2.2-0.7,4.5-0.7,6.8c0,2.2,0.2,4.2,0.5,6.3
			c0.4,2,0.9,3.8,1.5,5.3h-1.9c-0.6-1.5-1.1-3.2-1.5-5.2c-0.4-2-0.5-4-0.5-6.2c0-2.3,0.2-4.5,0.6-6.7
			C23,277.7,23.6,275.6,24.4,273.8z"/>
		<path class="st1" d="M29.9,279.3h1.7v2.4c0.7-0.9,1.5-1.6,2.3-2.1c0.8-0.5,1.7-0.7,2.7-0.7c1,0,1.9,0.3,2.7,0.8
			c0.8,0.5,1.3,1.2,1.7,2.1c0.4,0.9,0.6,2.2,0.6,4v6.9h-1.7v-6.4c0-1.5-0.1-2.6-0.2-3.1c-0.2-0.9-0.6-1.6-1.1-2
			c-0.6-0.4-1.3-0.7-2.2-0.7c-1,0-2,0.3-2.8,1c-0.8,0.7-1.4,1.5-1.6,2.6c-0.2,0.7-0.2,1.9-0.2,3.6v4.9h-1.7V279.3z"/>
		<path class="st1" d="M51.6,278.9c2.1,0,3.8,0.7,5.1,2.2c1.2,1.4,1.8,3,1.8,4.8c0,1.9-0.7,3.5-2,4.9c-1.3,1.4-3,2.1-5,2.1
			c-2.1,0-3.7-0.7-5-2.1c-1.3-1.4-2-3-2-4.9c0-1.9,0.6-3.5,1.8-4.8C47.8,279.7,49.5,278.9,51.6,278.9z M51.6,280.6
			c-1.4,0-2.7,0.5-3.7,1.6c-1,1.1-1.5,2.3-1.5,3.8c0,1,0.2,1.9,0.7,2.7s1.1,1.5,1.9,1.9c0.8,0.5,1.7,0.7,2.6,0.7
			c1,0,1.8-0.2,2.6-0.7c0.8-0.5,1.4-1.1,1.9-1.9c0.5-0.8,0.7-1.7,0.7-2.7c0-1.5-0.5-2.8-1.5-3.8C54.2,281.1,53,280.6,51.6,280.6z"/>
		<path class="st1" d="M68.7,279.3h1.7v2.3c0.6-0.9,1.2-1.5,1.8-1.9c0.9-0.5,1.8-0.8,2.7-0.8c0.6,0,1.3,0.1,1.8,0.4
			c0.6,0.3,1.1,0.6,1.4,1c0.4,0.4,0.7,1,1,1.8c0.6-1,1.3-1.8,2.1-2.4c0.9-0.5,1.8-0.8,2.8-0.8c0.9,0,1.7,0.2,2.4,0.7
			c0.7,0.5,1.2,1.1,1.6,2c0.3,0.8,0.5,2.1,0.5,3.8v7.3h-1.8v-7.3c0-1.4-0.1-2.4-0.3-3c-0.2-0.5-0.6-1-1-1.3
			c-0.5-0.3-1.1-0.5-1.8-0.5c-0.8,0-1.6,0.2-2.3,0.7c-0.7,0.5-1.2,1.1-1.5,2c-0.3,0.8-0.5,2.2-0.5,4.1v5.2h-1.7v-6.8
			c0-1.6-0.1-2.7-0.3-3.3c-0.2-0.6-0.6-1-1.1-1.4c-0.5-0.3-1.1-0.5-1.8-0.5c-0.8,0-1.5,0.2-2.2,0.7c-0.7,0.5-1.2,1.1-1.5,1.9
			c-0.3,0.8-0.5,2.1-0.5,3.7v5.7h-1.7V279.3z"/>
		<path class="st1" d="M105.6,279.3v13.4h-1.7v-2.3c-0.7,0.9-1.5,1.5-2.4,2s-1.9,0.7-2.9,0.7c-1.9,0-3.5-0.7-4.9-2.1
			c-1.3-1.4-2-3-2-5c0-1.9,0.7-3.6,2-4.9c1.4-1.4,3-2.1,4.9-2.1c1.1,0,2.1,0.2,3,0.7c0.9,0.5,1.7,1.2,2.3,2.1v-2.5H105.6z
			 M98.7,280.6c-1,0-1.8,0.2-2.7,0.7c-0.8,0.5-1.5,1.1-1.9,2s-0.7,1.8-0.7,2.7c0,0.9,0.2,1.8,0.7,2.7c0.5,0.9,1.1,1.5,1.9,2
			c0.8,0.5,1.7,0.7,2.6,0.7c0.9,0,1.8-0.2,2.7-0.7c0.8-0.5,1.5-1.1,1.9-1.9c0.5-0.8,0.7-1.7,0.7-2.7c0-1.5-0.5-2.8-1.5-3.9
			C101.5,281.1,100.2,280.6,98.7,280.6z"/>
		<path class="st1" d="M108.1,279.3h1.8l4.6,10.3l4.5-10.3h1.8l-8,18.3H111l2.6-5.9L108.1,279.3z"/>
		<path class="st1" d="M129.3,278.9c2.1,0,3.8,0.7,5.1,2.2c1.2,1.4,1.8,3,1.8,4.8c0,1.9-0.7,3.5-2,4.9c-1.3,1.4-3,2.1-5,2.1
			c-2.1,0-3.7-0.7-5-2.1c-1.3-1.4-2-3-2-4.9c0-1.9,0.6-3.5,1.8-4.8C125.5,279.7,127.3,278.9,129.3,278.9z M129.3,280.6
			c-1.4,0-2.7,0.5-3.7,1.6c-1,1.1-1.5,2.3-1.5,3.8c0,1,0.2,1.9,0.7,2.7s1.1,1.5,1.9,1.9c0.8,0.5,1.7,0.7,2.6,0.7
			c1,0,1.8-0.2,2.6-0.7c0.8-0.5,1.4-1.1,1.9-1.9s0.7-1.7,0.7-2.7c0-1.5-0.5-2.8-1.5-3.8C132,281.1,130.7,280.6,129.3,280.6z"/>
		<path class="st1" d="M138.8,279.3h1.8v2c0.5-0.8,1.1-1.3,1.7-1.7c0.6-0.4,1.2-0.6,1.8-0.6c0.5,0,1,0.2,1.5,0.5l-0.9,1.5
			c-0.4-0.2-0.7-0.2-0.9-0.2c-0.6,0-1.1,0.2-1.7,0.7c-0.5,0.5-0.9,1.2-1.2,2.2c-0.2,0.8-0.3,2.3-0.3,4.6v4.5h-1.8V279.3z"/>
		<path class="st1" d="M167.4,279.3v13.4h-1.7v-2.3c-0.7,0.9-1.5,1.5-2.4,2s-1.9,0.7-2.9,0.7c-1.9,0-3.5-0.7-4.8-2.1
			c-1.3-1.4-2-3-2-5c0-1.9,0.7-3.6,2-4.9c1.4-1.4,3-2.1,4.9-2.1c1.1,0,2.1,0.2,3,0.7c0.9,0.5,1.7,1.2,2.3,2.1v-2.5H167.4z
			 M160.5,280.6c-1,0-1.8,0.2-2.7,0.7c-0.8,0.5-1.5,1.1-1.9,2c-0.5,0.9-0.7,1.8-0.7,2.7c0,0.9,0.2,1.8,0.7,2.7
			c0.5,0.9,1.1,1.5,1.9,2c0.8,0.5,1.7,0.7,2.6,0.7c0.9,0,1.8-0.2,2.7-0.7c0.8-0.5,1.5-1.1,1.9-1.9c0.5-0.8,0.7-1.7,0.7-2.7
			c0-1.5-0.5-2.8-1.5-3.9C163.2,281.1,162,280.6,160.5,280.6z"/>
		<path class="st1" d="M179.6,278.8h-1.8c0.3-1.5,1-2.6,1.9-3.4c1-0.8,2.1-1.2,3.4-1.2c0.9,0,1.8,0.2,2.6,0.6c0.8,0.4,1.4,1,1.9,1.7
			c0.4,0.7,0.7,1.5,0.7,2.3c0,1.6-0.8,2.8-2.3,3.7c0.9,0.4,1.6,0.9,2.1,1.5c0.8,1,1.2,2,1.2,3.2c0,1-0.3,2-0.8,2.9
			c-0.5,0.9-1.3,1.6-2.2,2.2c-0.9,0.5-2,0.8-3.1,0.8c-1.6,0-2.9-0.4-3.9-1.3c-1-0.9-1.7-2.2-2-4h1.8c0.3,1.2,0.8,2,1.3,2.5
			c0.7,0.7,1.7,1,2.9,1c1.3,0,2.4-0.4,3.2-1.2c0.8-0.8,1.2-1.7,1.2-2.8c0-0.7-0.2-1.4-0.6-2c-0.4-0.6-0.9-1.1-1.6-1.4
			c-0.7-0.3-1.7-0.5-3.1-0.6v-1.7c0.8,0,1.6-0.1,2.3-0.4c0.7-0.3,1.2-0.7,1.5-1.1c0.3-0.5,0.5-0.9,0.5-1.5c0-0.8-0.3-1.5-0.9-2
			c-0.6-0.6-1.4-0.9-2.4-0.9c-0.8,0-1.5,0.2-2,0.7S180,277.7,179.6,278.8z"/>
		<path class="st1" d="M199.1,279.3h1.7v2.3c0.6-0.9,1.2-1.5,1.8-1.9c0.9-0.5,1.8-0.8,2.7-0.8c0.6,0,1.3,0.1,1.8,0.4
			c0.6,0.3,1.1,0.6,1.4,1c0.4,0.4,0.7,1,1,1.8c0.6-1,1.3-1.8,2.1-2.4c0.9-0.5,1.8-0.8,2.8-0.8c0.9,0,1.7,0.2,2.4,0.7
			c0.7,0.5,1.2,1.1,1.6,2c0.3,0.8,0.5,2.1,0.5,3.8v7.3h-1.8v-7.3c0-1.4-0.1-2.4-0.3-3c-0.2-0.5-0.6-1-1-1.3
			c-0.5-0.3-1.1-0.5-1.8-0.5c-0.8,0-1.6,0.2-2.3,0.7s-1.2,1.1-1.5,2c-0.3,0.8-0.5,2.2-0.5,4.1v5.2h-1.7v-6.8c0-1.6-0.1-2.7-0.3-3.3
			c-0.2-0.6-0.6-1-1.1-1.4c-0.5-0.3-1.1-0.5-1.8-0.5c-0.8,0-1.5,0.2-2.2,0.7c-0.7,0.5-1.2,1.1-1.5,1.9c-0.3,0.8-0.5,2.1-0.5,3.7v5.7
			h-1.7V279.3z"/>
		<path class="st1" d="M234,288.2l1.5,0.8c-0.5,0.9-1,1.7-1.6,2.3c-0.6,0.6-1.3,1-2.1,1.3c-0.8,0.3-1.7,0.4-2.6,0.4
			c-2.2,0-3.9-0.7-5.1-2.1c-1.2-1.4-1.8-3-1.8-4.9c0-1.7,0.5-3.2,1.6-4.5c1.3-1.7,3.1-2.5,5.3-2.5c2.3,0,4.1,0.9,5.5,2.6
			c1,1.2,1.5,2.7,1.5,4.6h-12c0,1.6,0.5,2.8,1.5,3.8c1,1,2.1,1.5,3.6,1.5c0.7,0,1.3-0.1,2-0.4c0.6-0.2,1.2-0.6,1.6-0.9
			C233,289.7,233.5,289.1,234,288.2z M234,284.6c-0.2-0.9-0.6-1.7-1-2.2c-0.4-0.5-1-1-1.7-1.3c-0.7-0.3-1.5-0.5-2.3-0.5
			c-1.3,0-2.4,0.4-3.4,1.3c-0.7,0.6-1.2,1.5-1.6,2.8H234z"/>
		<path class="st1" d="M245.8,280.7l-1.1,1.1c-0.9-0.9-1.8-1.3-2.7-1.3c-0.6,0-1,0.2-1.4,0.6c-0.4,0.4-0.6,0.8-0.6,1.3
			c0,0.4,0.2,0.8,0.5,1.2c0.3,0.4,1,0.9,2.1,1.4c1.3,0.7,2.2,1.3,2.6,1.9c0.5,0.6,0.7,1.3,0.7,2.1c0,1.1-0.4,2-1.2,2.8
			c-0.8,0.8-1.7,1.1-2.9,1.1c-0.8,0-1.5-0.2-2.2-0.5c-0.7-0.3-1.3-0.8-1.7-1.4l1.1-1.2c0.9,1,1.8,1.5,2.8,1.5c0.7,0,1.3-0.2,1.8-0.7
			c0.5-0.4,0.7-1,0.7-1.6c0-0.5-0.2-0.9-0.5-1.3c-0.3-0.4-1-0.9-2.2-1.4c-1.2-0.6-2-1.2-2.5-1.8c-0.4-0.6-0.7-1.3-0.7-2.1
			c0-1,0.3-1.9,1-2.5c0.7-0.7,1.6-1,2.6-1C243.3,278.9,244.6,279.5,245.8,280.7z"/>
		<path class="st1" d="M260.1,288.2l1.5,0.8c-0.5,0.9-1,1.7-1.6,2.3c-0.6,0.6-1.3,1-2.1,1.3c-0.8,0.3-1.7,0.4-2.6,0.4
			c-2.2,0-3.9-0.7-5.1-2.1c-1.2-1.4-1.8-3-1.8-4.9c0-1.7,0.5-3.2,1.6-4.5c1.3-1.7,3.1-2.5,5.3-2.5c2.3,0,4.1,0.9,5.5,2.6
			c1,1.2,1.5,2.7,1.5,4.6h-12c0,1.6,0.5,2.8,1.5,3.8c1,1,2.1,1.5,3.6,1.5c0.7,0,1.3-0.1,2-0.4c0.6-0.2,1.2-0.6,1.6-0.9
			C259.1,289.7,259.6,289.1,260.1,288.2z M260.1,284.6c-0.2-0.9-0.6-1.7-1-2.2c-0.4-0.5-1-1-1.7-1.3c-0.7-0.3-1.5-0.5-2.3-0.5
			c-1.3,0-2.4,0.4-3.4,1.3c-0.7,0.6-1.2,1.5-1.6,2.8H260.1z"/>
		<path class="st1" d="M272,280.7l-1.1,1.1c-0.9-0.9-1.8-1.3-2.7-1.3c-0.6,0-1,0.2-1.4,0.6c-0.4,0.4-0.6,0.8-0.6,1.3
			c0,0.4,0.2,0.8,0.5,1.2c0.3,0.4,1,0.9,2.1,1.4c1.3,0.7,2.2,1.3,2.6,1.9c0.5,0.6,0.7,1.3,0.7,2.1c0,1.1-0.4,2-1.2,2.8
			c-0.8,0.8-1.7,1.1-2.9,1.1c-0.8,0-1.5-0.2-2.2-0.5c-0.7-0.3-1.3-0.8-1.7-1.4l1.1-1.2c0.9,1,1.8,1.5,2.8,1.5c0.7,0,1.3-0.2,1.8-0.7
			c0.5-0.4,0.7-1,0.7-1.6c0-0.5-0.2-0.9-0.5-1.3c-0.3-0.4-1-0.9-2.2-1.4c-1.2-0.6-2-1.2-2.5-1.8c-0.4-0.6-0.7-1.3-0.7-2.1
			c0-1,0.3-1.9,1-2.5c0.7-0.7,1.6-1,2.6-1C269.5,278.9,270.7,279.5,272,280.7z"/>
		<path class="st1" d="M276.6,297.9h-2c0.8-1.6,1.5-3.6,1.9-5.8c0.5-2.2,0.7-4.5,0.7-6.8c0-2.2-0.2-4.2-0.5-6.3
			c-0.4-2-0.9-3.8-1.5-5.3h1.9c0.6,1.5,1.1,3.2,1.5,5.2c0.4,2,0.5,4,0.5,6.2c0,2.3-0.2,4.5-0.6,6.7C278,294,277.4,296,276.6,297.9z"
			/>
	</g>
	<g>
		<path class="st0" d="M182.6,80.5l-9.5-9.6c-1.2-1.2-3.2-1.3-4.4,0L147,92.1l-14.1-14.3c-1.2-1.2-3.2-1.3-4.4,0l-10.1,9.9
			c-1.2,1.2-1.3,3.2,0,4.4l16.3,16.6l9.5,9.6l0,0c1.2,1.2,3.2,1.3,4.4,0l0,0l10.1-9.9l24-23.5C183.8,83.7,183.8,81.7,182.6,80.5z"/>
		<path class="st0" d="M150.5,37.7c-30.4,0-55,24.6-55,55c0,30.4,24.6,55,55,55c30.4,0,55-24.6,55-55
			C205.5,62.3,180.9,37.7,150.5,37.7z M150.5,136.7c-24.3,0-44-19.7-44-44c0-24.3,19.7-44,44-44c24.3,0,44,19.7,44,44
			C194.5,117,174.8,136.7,150.5,136.7z"/>
	</g>
</g>
</svg>
