<?xml version="1.0" encoding="UTF-8" standalone="no"?>
<!-- Created with Inkscape (http://www.inkscape.org/) -->

<svg
   version="1.1"
   id="svg1"
   width="33.535156"
   height="33.53595"
   viewBox="0 0 33.535157 33.53595"
   sodipodi:docname="boceto-bink-1.ai"
   xmlns:inkscape="http://www.inkscape.org/namespaces/inkscape"
   xmlns:sodipodi="http://sodipodi.sourceforge.net/DTD/sodipodi-0.dtd"
   xmlns="http://www.w3.org/2000/svg"
   xmlns:svg="http://www.w3.org/2000/svg">
  <defs
     id="defs1">
    <clipPath
       clipPathUnits="userSpaceOnUse"
       id="clipPath1092">
      <path
         d="M 0,654.027 H 1365.919 V 0 H 0 Z"
         transform="translate(-621.81927,-154.33221)"
         id="path1092" />
    </clipPath>
    <clipPath
       clipPathUnits="userSpaceOnUse"
       id="clipPath1094">
      <path
         d="M 0,654.027 H 1365.919 V 0 H 0 Z"
         transform="translate(-628.32402,-166.36281)"
         id="path1094" />
    </clipPath>
  </defs>
  <sodipodi:namedview
     id="namedview1"
     pagecolor="#ffffff"
     bordercolor="#000000"
     borderopacity="0.25"
     inkscape:showpageshadow="2"
     inkscape:pageopacity="0.0"
     inkscape:pagecheckerboard="0"
     inkscape:deskcolor="#d1d1d1">
    <inkscape:page
       x="-1.1285171e-05"
       y="-6.0735651e-06"
       width="33.535156"
       height="33.53595"
       id="page2"
       margin="0"
       bleed="0" />
  </sodipodi:namedview>
  <g
     id="layer-MC0"
     inkscape:groupmode="layer"
     inkscape:label="Capa 1"
     transform="translate(-19224.592,-633.51709)">
    <path
       id="path1091"
       d="m 0,0 c -6.617,0 -11.981,5.364 -11.981,11.981 0,6.617 5.364,11.981 11.981,11.981 6.617,0 11.981,-5.364 11.981,-11.981 C 11.981,5.364 6.617,0 0,0 m 0,24.557 c -6.945,0 -12.576,-5.631 -12.576,-12.576 0,-6.946 5.631,-12.576 12.576,-12.576 6.945,0 12.576,5.63 12.576,12.576 0,6.945 -5.631,12.576 -12.576,12.576"
       style="fill:#009bdb;fill-opacity:1;fill-rule:nonzero;stroke:none"
       transform="matrix(1.3333333,0,0,-1.3333333,19241.359,666.25973)"
       clip-path="url(#clipPath1092)" />
    <path
       id="path1093"
       d="m 0,0 c -0.011,0.241 -0.023,0.481 -0.025,0.528 -0.016,0.13 -0.107,0.143 -0.138,0.145 -0.273,0.018 -0.965,0.032 -1.261,0.024 l -0.157,0.122 c -0.004,0.074 -0.049,0.217 -0.078,0.343 -0.033,0.125 -0.06,0.233 -0.06,0.233 0,0 -0.037,0.105 -0.082,0.227 -0.046,0.121 -0.089,0.263 -0.127,0.327 l 0.062,0.189 c 0.249,0.16 0.815,0.56 1.031,0.728 0.023,0.018 0.093,0.08 0.033,0.197 -0.026,0.042 -0.152,0.248 -0.277,0.453 -0.129,0.204 -0.284,0.388 -0.31,0.428 -0.08,0.104 -0.163,0.067 -0.188,0.052 C -1.812,3.868 -2.408,3.502 -2.652,3.335 L -2.854,3.35 c -0.09,0.119 -0.428,0.409 -0.428,0.409 0.008,0.01 -0.352,0.27 -0.472,0.358 l -0.051,0.191 c 0.123,0.268 0.381,0.91 0.471,1.168 0.01,0.028 0.034,0.116 -0.079,0.182 -0.04,0.03 -0.26,0.129 -0.477,0.232 C -4.105,5.996 -4.338,6.061 -4.379,6.082 -4.503,6.126 -4.552,6.05 -4.566,6.024 -4.695,5.788 -4.997,5.164 -5.114,4.889 L -5.292,4.792 c -0.141,0.05 -0.581,0.113 -0.581,0.113 0.001,0.012 -0.442,0.04 -0.59,0.045 L -6.61,5.086 C -6.651,5.378 -6.782,6.056 -6.845,6.321 -6.852,6.35 -6.88,6.437 -7.011,6.43 -7.11,6.441 -7.969,6.307 -8.054,6.264 -8.182,6.232 -8.182,6.142 -8.178,6.112 -8.158,5.841 -8.075,5.157 -8.026,4.866 L -8.122,4.687 C -8.192,4.662 -8.332,4.611 -8.454,4.567 -8.572,4.518 -8.671,4.466 -8.671,4.466 c 0,0 -0.1,-0.048 -0.217,-0.104 C -9.005,4.305 -9.127,4.219 -9.191,4.183 l -0.2,0.04 c -0.195,0.228 -0.67,0.726 -0.866,0.913 -0.02,0.021 -0.09,0.079 -0.196,-0.001 l -0.793,-0.7 c -0.087,-0.097 -0.038,-0.174 -0.02,-0.197 0.165,-0.218 0.606,-0.75 0.806,-0.968 l 0.01,-0.198 c -0.089,-0.119 -0.351,-0.478 -0.34,-0.485 0,0 -0.232,-0.38 -0.283,-0.52 L -11.26,1.991 c -0.286,0.085 -0.961,0.251 -1.225,0.302 -0.029,0.006 -0.119,0.017 -0.163,-0.107 -0.012,-0.047 -0.109,-0.269 -0.166,-0.503 -0.059,-0.233 -0.12,-0.465 -0.124,-0.512 -0.021,-0.13 0.061,-0.168 0.089,-0.178 0.257,-0.094 0.917,-0.305 1.202,-0.381 l 0.115,-0.161 c -0.01,-0.148 -0.039,-0.592 -0.025,-0.592 0,0 0.005,-0.111 0.01,-0.24 0.001,-0.13 0.021,-0.277 0.034,-0.35 l -0.115,-0.165 c -0.285,-0.083 -0.941,-0.309 -1.197,-0.41 -0.028,-0.011 -0.11,-0.051 -0.078,-0.178 0.012,-0.047 0.071,-0.28 0.13,-0.513 0.082,-0.226 0.163,-0.451 0.179,-0.495 0.045,-0.123 0.135,-0.11 0.164,-0.103 0.268,0.059 0.939,0.24 1.222,0.331 l 0.187,-0.072 c 0.031,-0.068 0.096,-0.201 0.169,-0.309 0.067,-0.11 0.125,-0.205 0.125,-0.205 -0.011,-0.008 0.263,-0.359 0.353,-0.476 l -0.005,-0.198 c -0.193,-0.223 -0.622,-0.766 -0.781,-0.989 -0.018,-0.023 -0.065,-0.101 0.025,-0.197 0.032,-0.038 0.213,-0.197 0.393,-0.356 0.178,-0.162 0.382,-0.291 0.417,-0.323 0.106,-0.077 0.175,-0.018 0.196,0.004 0.188,0.19 0.655,0.706 0.844,0.936 l 0.198,0.043 c 0.121,-0.088 0.525,-0.272 0.525,-0.272 -0.004,-0.012 0.414,-0.162 0.553,-0.211 l 0.104,-0.169 c -0.043,-0.293 -0.111,-0.981 -0.125,-1.254 -0.003,-0.029 0,-0.12 0.128,-0.152 0.093,-0.036 0.952,-0.151 1.048,-0.135 0.132,-0.007 0.158,0.08 0.164,0.109 0.056,0.265 0.17,0.943 0.204,1.242 l 0.143,0.145 c 0.074,0.006 0.223,0.004 0.351,0.022 0.128,0.019 0.238,0.035 0.238,0.035 0,0 0.111,0.012 0.238,0.039 0.126,0.031 0.269,0.068 0.341,0.086 l 0.181,-0.095 c 0.122,-0.268 0.436,-0.881 0.571,-1.117 0.014,-0.026 0.066,-0.101 0.188,-0.056 0.099,0.014 0.884,0.384 0.957,0.447 0.113,0.068 0.088,0.156 0.076,0.183 -0.096,0.256 -0.368,0.891 -0.497,1.156 l 0.045,0.194 c 0.12,0.087 0.471,0.359 0.463,0.369 0,0 0.329,0.299 0.418,0.419 l 0.202,0.02 c 0.251,-0.163 0.851,-0.51 1.09,-0.633 0.026,-0.014 0.109,-0.05 0.187,0.056 0.025,0.042 0.181,0.227 0.3,0.437 0.122,0.207 0.248,0.411 0.262,0.456 0.058,0.118 -0.012,0.178 -0.036,0.195 -0.219,0.163 -0.792,0.55 -1.045,0.704 L -1.877,-2 c 0.05,0.14 0.202,0.557 0.19,0.561 0,0 0.116,0.43 0.125,0.579 l 0.158,0.125 c 0.296,-0.001 0.994,0.03 1.261,0.056 0.029,0.002 0.119,0.017 0.126,0.149 C -0.018,-0.482 0.007,-0.241 0,0 m -6.47,-2.433 c -1.297,0 -2.348,1.052 -2.348,2.348 0,1.297 1.051,2.348 2.348,2.348 1.296,0 2.348,-1.051 2.348,-2.348 0,-1.296 -1.052,-2.348 -2.348,-2.348"
       style="fill:#009bdb;fill-opacity:1;fill-rule:nonzero;stroke:none"
       transform="matrix(1.3333333,0,0,-1.3333333,19250.032,650.21893)"
       clip-path="url(#clipPath1094)" />
  </g>
</svg>
