<?xml version="1.0" encoding="utf-8"?>
<!-- Generator: Adobe Illustrator 27.1.1, SVG Export Plug-In . SVG Version: 6.00 Build 0)  -->
<svg version="1.1" id="Capa_1" xmlns="http://www.w3.org/2000/svg" xmlns:xlink="http://www.w3.org/1999/xlink" x="0px" y="0px"
	 viewBox="0 0 300 300" style="enable-background:new 0 0 300 300;" xml:space="preserve">
<style type="text/css">
	.st0{fill:#F7F7F8;}
	.st1{fill-rule:evenodd;clip-rule:evenodd;fill:#F7F7F8;}
</style>
<g>
	<g>
		<g>
			<path class="st0" d="M99.4,189c-5.3,1.2-10.9,1.8-16.5,1.8c-42.3,0-76.5-34.3-76.5-76.5s34.3-76.5,76.5-76.5
				c22.9,0,43.4,10,57.4,25.9c0.4-1.4,0.9-2.7,1.4-4.1C127,43.9,106.1,34,82.8,34c-44.4,0-80.3,36-80.3,80.3
				c0,43.7,35,79.3,78.5,80.3h3.7c4.6-0.1,9.2-0.6,13.6-1.5C98.6,191.7,99,190.4,99.4,189z"/>
		</g>
	</g>
	<g>
		<g>
			<path class="st0" d="M216.7,8c-44.4,0-80.3,36-80.3,80.3c0,17.6,5.7,33.8,15.2,47.1c1.3-0.4,2.6-0.8,3.9-1.1
				c-9.6-12.8-15.3-28.7-15.3-45.9c0-42.3,34.3-76.5,76.5-76.5c42.3,0,76.5,34.3,76.5,76.5c0,34.5-22.8,63.6-54.2,73.2
				c0.8,1,1.6,2.1,2.4,3.2C273.7,154.3,297,124,297,88.3C297,44,261,8,216.7,8z"/>
		</g>
	</g>
	<g>
		<path class="st0" d="M256.7,211.8c0-44.4-36-80.3-80.3-80.3s-80.3,36-80.3,80.3c0,43.7,35,79.3,78.5,80.3h3.7
			C221.7,291.1,256.7,255.5,256.7,211.8z M99.9,211.8c0-42.3,34.3-76.5,76.5-76.5c42.3,0,76.5,34.3,76.5,76.5s-34.3,76.5-76.5,76.5
			C134.1,288.3,99.9,254,99.9,211.8z"/>
	</g>
	<path class="st0" d="M101.4,101.6c-0.7-3.5-1.4-6.3-2.8-9.2c-14.1-24-14.1-24-14.1-24c-0.7-1.4-1.4-3.5-2.1-5.6c0,1.4,0,1.4,0,1.4
		c-3.5,5.6-3.5,12.7,0,19c10.6,19,10.6,19,10.6,19c3.5,5.6,3.5,13.4,0,19c-0.7,1.4-0.7,1.4-0.7,1.4c0-2.1-0.7-4.2-2.1-6.3
		c-9.9-17.6-9.9-17.6-9.9-17.6c-6.3-10.6-6.3-10.6-6.3-10.6c-1.4-2.1-2.1-4.2-2.1-6.3c-0.7,1.4-0.7,1.4-0.7,1.4
		c-3.5,5.6-3.5,12.7,0,19l0,0c11.3,19,11.3,19,11.3,19c2.8,6.3,2.8,13.4,0,19c-0.7,1.4-0.7,1.4-0.7,1.4c-0.7-2.1-1.4-4.2-2.1-5.6
		c-14.1-24-14.1-24-14.1-24c-2.1-3.5-2.8-7-2.8-10.6c-14.8,3.5-24.7,12-24.7,21.1c0,13.4,19.7,24,44.4,24c24,0,43.7-10.6,43.7-24
		C126,113.5,116.2,105.1,101.4,101.6z"/>
	<path class="st1" d="M207.3,99.4c-1.3,0.7-3.1,1.6-5.2,2.4c2.3,2.2,7.6,6.5,15.5,6.5c1.8,0,2.4-0.9,2.4-1.9c0-1.3-1.3-2-3.4-2.7
		c-2.6-0.8-7-1.9-7-5.3c0-0.3,0.1-0.7,0.2-1C209.1,98.4,208.2,98.9,207.3,99.4L207.3,99.4z M231.5,66.7c-1,0-1.7,0.9-1.7,1.8
		c0,0.9,0.6,1.9,1.5,3.1c1.3,1.6,3.3,4.1,3.3,6.3c0,1.4-0.8,2.4-1.4,2.7c0.4-0.1,0.9-0.1,1.3-0.1c1.6,0,4.5,0.4,7.4,1.2
		c-0.6-3.1-2.3-9.7-8.7-14.4C232.5,66.8,231.9,66.7,231.5,66.7L231.5,66.7z M228.6,100.5c0.3,1.4,0.6,3.4,0.7,5.6
		c1.9-1.1,5.3-3.2,8.1-7c2-2.9,3.1-5.7,3.1-6.9c0-1.3-1.1-1.9-1.8-1.9c-1,0-2,1-3,2.5c-1.6,2.2-4,6.1-7.2,5.1
		c-0.3-0.1-0.6-0.3-0.9-0.5C228.1,98.5,228.4,99.5,228.6,100.5L228.6,100.5z M227.4,87.9c1.3-4.1,2.8-5.9,4.3-6.8
		c-2,0.2-4.8-1-7.9-3.3c-3.4-2.5-4.8-4.5-5.1-6.2c-0.4,2-2.5,4.2-5.6,6.5c-3.4,2.5-5.8,3.1-7.5,2.9c1.8,1,3.2,3.6,4.4,7.3
		c0.7,2.1,1,3.9,1,5.2c0,1.2-0.2,2.1-0.6,2.8c1.5-1.3,4.5-2,8.3-2c4.3,0,6.5,0.9,7.8,2.1c-0.3-0.7-0.5-1.6-0.5-2.5
		C226.2,92.3,226.7,90.2,227.4,87.9L227.4,87.9z M229.6,114.9c0,6.4-7.1,6.9-11.1,6.9c-3.8,0-8.5-0.7-12.1-2.4c-4.4-2-5.7-4-5.7-9.1
		c0-2.7,0.2-6,0.3-8c-2.2,0.9-4.7,1.8-7.1,2.5c-6.1,2-8.7-4.6-10-8.4c-1.2-3.6-1.6-7.1-1.6-10c0-6.7,2.1-8.9,7.1-10.5
		c2.6-0.8,5.8-1.7,7.7-2.2c-1.5-1.8-3.1-3.9-4.6-6c-0.9-1.2-1.3-2.4-1.3-3.5c0-3.7,3.7-6.7,6.2-8.5c3.1-2.2,9-5.5,14.2-5.5
		c2.8,0,4.7,1.3,7,4.4c1.6,2.2,3.4,5,4.4,6.6c1.3-2,2.8-4.2,4.3-6.2c1.4-1.9,3-2.6,4.7-2.6c3.1,0,6.2,2.1,8.3,3.6
		c3.1,2.2,6.4,5.6,8.4,9.1c1.1,1.9,1.6,3.4,1.6,5c0,1.8-0.8,3.5-2.4,5.8c-1.6,2.2-3.7,4.8-4.9,6.3c2.3,0.6,4.8,1.3,7.2,2.1
		c3.3,1.1,4.3,3.7,4.3,6.4c0,5.3-3.5,13.1-7.3,17.1c-2.1,2.3-3.9,3.4-6.2,3.4c-1.2,0-2.6-0.3-4.3-0.8c-2.6-0.8-5.7-2-7.5-2.7
		C229.5,109.8,229.6,112.4,229.6,114.9L229.6,114.9z M219,62c-3.6,0-8.3,0.8-13,4.1c-0.9,0.6-1.2,1.3-1.2,1.9c0,0.5,0.4,1.8,2,1.8
		c2.2,0,5.2-1.9,8.2-1.9c2.9,0,3.6,2,3.7,2.4c0.1-1.3,1.3-4.2,3.7-8C221.5,62.1,220.4,62,219,62L219,62z M197.9,74.7
		c-1.4,2.8-3.8,9.2-1.4,16.8c0.5,1.7,1.6,2,2.5,1.7c1.3-0.4,1.5-1.9,1.5-4c-0.1-2.7-0.4-7.3,2.8-8.3c0.3-0.1,0.7-0.2,1-0.2
		C202.8,80,200.6,77.8,197.9,74.7L197.9,74.7z"/>
	<g>
		<path class="st1" d="M182.5,201.2c-0.7,0-1.4,0-2.1,0c-0.1,0-0.1,0-0.2,0c-0.2,0-0.4,0.2-0.3,0.4c0,0.1,0,0.2,0.1,0.3
			c0.5,1,1,1.9,1.5,2.9c4.3,8,8.6,16,12.8,24c0.2,0.3,0.3,0.6,0.5,0.9c0.2,0.3,0.5,0.4,0.7,0.2c0.1-0.1,0.2-0.2,0.3-0.3
			c0.8-1.4,1.5-2.9,2.3-4.3c3.7-6.9,7.4-13.9,11.1-20.8c0.5-0.9,0.9-1.7,1.4-2.6c0.2-0.4-0.1-0.7-0.4-0.7c-1.5,0-3,0-4.5,0
			c-0.2,0-0.4,0.1-0.5,0.3c0,0.1-0.1,0.2-0.1,0.3c-3.1,5.9-6.2,11.7-9.2,17.6c0,0.1-0.1,0.2-0.1,0.2c-0.2,0.3-0.7,0.3-0.9,0
			c0-0.1-0.1-0.1-0.1-0.2c-0.5-0.9-1-1.9-1.5-2.8c-2.6-5-5.2-10-7.8-14.9c-0.1-0.3-0.3-0.4-0.6-0.4
			C183.9,201.2,183.2,201.2,182.5,201.2z"/>
		<path class="st1" d="M232.5,225.8c0.7,0,1.4,0,2.1,0c0.1,0,0.1,0,0.2,0c0.3,0,0.4-0.3,0.3-0.5c0-0.1-0.1-0.2-0.1-0.2
			c-1.9-3.6-3.8-7.2-5.8-10.8c-3-5.6-6-11.2-9-16.8c0-0.1-0.1-0.1-0.1-0.2c-0.2-0.3-0.7-0.3-0.9,0c0,0.1-0.1,0.1-0.1,0.2
			c-2,3.8-4.1,7.6-6.1,11.4c-2.9,5.4-5.8,10.8-8.6,16.2c0,0.1-0.1,0.1-0.1,0.2c-0.1,0.3,0,0.5,0.3,0.6c0.1,0,0.1,0,0.2,0
			c0.9,0,1.7,0,2.6,0c0.6,0,1.1,0,1.7,0c0.3,0,0.5-0.1,0.7-0.4c0,0,0,0,0,0c2.5-4.8,5-9.5,7.5-14.3c0.6-1.2,1.2-2.3,1.8-3.5
			c0.1-0.2,0.3-0.4,0.5-0.4c0.3,0,0.4,0.1,0.5,0.4c0.1,0.2,0.2,0.3,0.3,0.5c3,5.8,6.1,11.5,9.1,17.3c0.2,0.3,0.3,0.4,0.7,0.4
			C231,225.8,231.7,225.8,232.5,225.8z"/>
		<path class="st1" d="M145.3,214.5c0.1,0,0.1,0,0.1,0.1c2,0.8,3.2,2.2,3.9,4.1c0.4,1.1,0.5,2.2,0.4,3.3c0,0.8-0.2,1.6-0.4,2.4
			c-0.6,2-1.9,3.5-3.8,4.4c-0.9,0.4-1.9,0.7-2.9,0.9c-1.1,0.2-2.1,0.2-3.2,0.2c-4.4,0-8.8,0-13.3,0c-0.1,0-0.2,0-0.3,0
			c-0.3,0-0.5-0.2-0.5-0.5c0-0.1,0-0.1,0-0.2c0-9.1,0-18.2,0-27.3c0,0,0,0,0,0c0-0.5,0.2-0.7,0.7-0.7c4.7,0,9.4,0,14.1,0
			c1.5,0,2.9,0.3,4.3,0.9c1.8,0.9,3.1,2.3,3.7,4.3c0.5,1.6,0.5,3.2-0.1,4.8c-0.5,1.3-1.3,2.4-2.6,3.1
			C145.4,214.4,145.3,214.4,145.3,214.5z M135.3,225.8c1.3,0,2.6,0,3.9,0c0.7,0,1.3,0,2-0.1c0.7-0.1,1.3-0.3,1.9-0.6
			c1-0.5,1.6-1.3,1.9-2.4c0.2-0.9,0.2-1.9-0.1-2.8c-0.3-1-0.9-1.7-1.8-2.1c-0.3-0.1-0.6-0.3-1-0.3c-1-0.3-2-0.3-2.9-0.3
			c-2.8,0-5.5,0-8.3,0c-0.1,0-0.1,0-0.2,0c-0.3,0-0.6,0.2-0.6,0.6c0,0.1,0,0.1,0,0.2c0,2.4,0,4.9,0,7.3c0,0.1,0,0.2,0,0.3
			c0,0.2,0.2,0.4,0.5,0.4c0.1,0,0.2,0,0.2,0C132.3,225.8,133.8,225.8,135.3,225.8z M135.2,205.4
			C135.2,205.4,135.2,205.4,135.2,205.4c-1.5,0-2.9,0-4.4,0c-0.5,0-0.8,0.2-0.8,0.7c0,2,0,4,0,6.1c0,0.1,0,0.2,0,0.2
			c0,0.3,0.2,0.5,0.5,0.5c0.1,0,0.1,0,0.2,0c2.7,0,5.5,0,8.2,0c0.8,0,1.6-0.1,2.3-0.4c0.9-0.3,1.7-0.9,2-1.8c0.4-1,0.5-2,0.2-3.1
			c-0.2-0.7-0.6-1.3-1.2-1.6c-0.2-0.1-0.4-0.2-0.6-0.3c-0.8-0.3-1.6-0.4-2.4-0.4C138,205.4,136.6,205.4,135.2,205.4z"/>
		<path class="st1" d="M175,214.5c0.1,0,0.1,0,0.1,0.1c2,0.8,3.3,2.2,4,4.3c0.3,1,0.4,2,0.4,3c0,0.9-0.2,1.8-0.4,2.6
			c-0.6,2-1.9,3.4-3.7,4.3c-1,0.5-2,0.8-3,0.9c-1,0.2-2.1,0.2-3.2,0.2c-4.4,0-8.9,0-13.3,0c-0.1,0-0.2,0-0.3,0
			c-0.2,0-0.4-0.2-0.5-0.4c0-0.1,0-0.2,0-0.2c0-9.1,0-18.2,0-27.4c0-0.1,0-0.1,0-0.2c0-0.3,0.2-0.5,0.5-0.5c0.1,0,0.1,0,0.2,0
			c4.7,0,9.4,0,14.1,0c1.4,0,2.8,0.2,4.1,0.8c1.7,0.8,3,2,3.7,3.8c0.4,1,0.6,2,0.5,3.1c0,0.9-0.2,1.8-0.6,2.7
			c-0.5,1.2-1.3,2.1-2.4,2.7C175.1,214.4,175.1,214.4,175,214.5z M165,225.8c1.2,0,2.4,0,3.6,0c0.6,0,1.3,0,1.9-0.1
			c0.7-0.1,1.4-0.3,2-0.6c1-0.5,1.7-1.3,2-2.4c0.2-1,0.2-2-0.1-3c-0.3-0.9-0.8-1.5-1.6-1.9c-0.3-0.2-0.7-0.3-1.1-0.4
			c-0.9-0.3-1.9-0.3-2.9-0.3c-2.8,0-5.6,0-8.4,0c-0.4,0-0.7,0.2-0.7,0.7c0,0,0,0,0,0c0,2.4,0,4.8,0,7.3c0,0.1,0,0.2,0,0.3
			c0,0.2,0.2,0.4,0.5,0.4c0.1,0,0.2,0,0.2,0C162,225.8,163.5,225.8,165,225.8z M164.9,205.4C164.9,205.4,164.9,205.4,164.9,205.4
			c-1.5,0-2.9,0-4.4,0c-0.1,0-0.1,0-0.2,0c-0.3,0-0.5,0.2-0.5,0.5c0,0.1,0,0.1,0,0.2c0,2,0,4,0,6.1c0,0.1,0,0.1,0,0.2
			c0,0.3,0.2,0.5,0.5,0.5c0.1,0,0.2,0,0.3,0c2.5,0,5,0,7.5,0c0.4,0,0.9,0,1.3,0c0.5,0,1.1-0.1,1.6-0.3c1-0.4,1.8-1.1,2.1-2.1
			c0.3-0.8,0.3-1.7,0.2-2.6c-0.1-0.7-0.4-1.2-1-1.6c-0.3-0.2-0.6-0.4-0.9-0.5c-0.8-0.3-1.6-0.4-2.4-0.4
			C167.7,205.4,166.3,205.4,164.9,205.4z"/>
		<path class="st1" d="M182.5,201.2c0.7,0,1.4,0,2.2,0c0.3,0,0.5,0.1,0.6,0.4c2.6,5,5.2,10,7.8,14.9c0.5,0.9,1,1.9,1.5,2.8
			c0,0.1,0.1,0.1,0.1,0.2c0.2,0.3,0.7,0.3,0.9,0c0.1-0.1,0.1-0.1,0.1-0.2c3.1-5.9,6.2-11.7,9.2-17.6c0-0.1,0.1-0.2,0.1-0.3
			c0.1-0.2,0.3-0.3,0.5-0.3c1.5,0,3,0,4.5,0c0.3,0,0.6,0.3,0.4,0.7c-0.5,0.9-0.9,1.7-1.4,2.6c-3.7,6.9-7.4,13.9-11.1,20.8
			c-0.8,1.4-1.5,2.9-2.3,4.3c-0.1,0.1-0.1,0.3-0.3,0.3c-0.3,0.1-0.6,0-0.7-0.2c-0.2-0.3-0.3-0.6-0.5-0.9c-4.3-8-8.6-16-12.8-24
			c-0.5-1-1-1.9-1.5-2.9c0-0.1-0.1-0.2-0.1-0.3c0-0.2,0.1-0.4,0.3-0.4c0.1,0,0.1,0,0.2,0C181,201.2,181.7,201.2,182.5,201.2z"/>
		<path class="st1" d="M232.5,225.8c-0.7,0-1.4,0-2.1,0c-0.3,0-0.5-0.1-0.7-0.4c-3-5.8-6.1-11.5-9.1-17.3c-0.1-0.2-0.2-0.3-0.3-0.5
			c-0.1-0.2-0.3-0.4-0.5-0.4c-0.2,0-0.4,0.1-0.5,0.4c-0.6,1.2-1.2,2.3-1.8,3.5c-2.5,4.8-5,9.5-7.5,14.3c0,0,0,0,0,0
			c-0.1,0.3-0.3,0.4-0.7,0.4c-0.6,0-1.1,0-1.7,0c-0.9,0-1.7,0-2.6,0c-0.1,0-0.1,0-0.2,0c-0.3,0-0.5-0.3-0.3-0.6
			c0-0.1,0.1-0.1,0.1-0.2c2.9-5.4,5.8-10.8,8.6-16.2c2-3.8,4.1-7.6,6.1-11.4c0-0.1,0.1-0.1,0.1-0.2c0.2-0.3,0.7-0.3,0.9,0
			c0,0.1,0.1,0.1,0.1,0.2c3,5.6,6,11.2,9,16.8c1.9,3.6,3.8,7.2,5.8,10.8c0,0.1,0.1,0.1,0.1,0.2c0.1,0.3-0.1,0.5-0.3,0.5
			c-0.1,0-0.1,0-0.2,0C233.9,225.8,233.2,225.8,232.5,225.8z"/>
	</g>
</g>
</svg>
