<?xml version="1.0" encoding="UTF-8" standalone="no"?>
<!-- Created with Inkscape (http://www.inkscape.org/) -->

<svg
   version="1.1"
   id="svg1"
   width="178.03711"
   height="177.98399"
   viewBox="0 0 178.03711 177.98399"
   sodipodi:docname="boceto-bink-1.ai"
   xmlns:inkscape="http://www.inkscape.org/namespaces/inkscape"
   xmlns:sodipodi="http://sodipodi.sourceforge.net/DTD/sodipodi-0.dtd"
   xmlns="http://www.w3.org/2000/svg"
   xmlns:svg="http://www.w3.org/2000/svg">
  <defs
     id="defs1">
    <clipPath
       clipPathUnits="userSpaceOnUse"
       id="clipPath1225">
      <path
         d="M 0,1875.172 H 1365.919 V 0 H 0 Z"
         transform="translate(-619.03164,-1695.1163)"
         id="path1225" />
    </clipPath>
    <clipPath
       clipPathUnits="userSpaceOnUse"
       id="clipPath1227">
      <path
         d="M 0,1875.172 H 1365.919 V 0 H 0 Z"
         transform="translate(-670.50384,-1683.8323)"
         id="path1227" />
    </clipPath>
    <clipPath
       clipPathUnits="userSpaceOnUse"
       id="clipPath1229">
      <path
         d="M 0,1875.172 H 1365.919 V 0 H 0 Z"
         transform="translate(-720.22284,-1693.6677)"
         id="path1229" />
    </clipPath>
    <clipPath
       clipPathUnits="userSpaceOnUse"
       id="clipPath1231">
      <path
         d="M 0,1875.172 H 1365.919 V 0 H 0 Z"
         transform="translate(-714.65994,-1729.0602)"
         id="path1231" />
    </clipPath>
    <clipPath
       clipPathUnits="userSpaceOnUse"
       id="clipPath1233">
      <path
         d="M 0,1875.172 H 1365.919 V 0 H 0 Z"
         transform="translate(-714.65979,-1729.0602)"
         id="path1233" />
    </clipPath>
    <clipPath
       clipPathUnits="userSpaceOnUse"
       id="clipPath1235">
      <path
         d="M 0,1875.172 H 1365.919 V 0 H 0 Z"
         transform="translate(-707.25669,-1736.0505)"
         id="path1235" />
    </clipPath>
    <clipPath
       clipPathUnits="userSpaceOnUse"
       id="clipPath1237">
      <path
         d="M 0,1875.172 H 1365.919 V 0 H 0 Z"
         transform="translate(-707.25669,-1736.0505)"
         id="path1237" />
    </clipPath>
    <clipPath
       clipPathUnits="userSpaceOnUse"
       id="clipPath1239">
      <path
         d="M 0,1875.172 H 1365.919 V 0 H 0 Z"
         transform="translate(0,2.5000001e-5)"
         id="path1239" />
    </clipPath>
    <clipPath
       clipPathUnits="userSpaceOnUse"
       id="clipPath1241">
      <path
         d="M 0,1875.172 H 1365.919 V 0 H 0 Z"
         transform="translate(0,2.5000001e-5)"
         id="path1241" />
    </clipPath>
    <clipPath
       clipPathUnits="userSpaceOnUse"
       id="clipPath1243">
      <path
         d="M 0,1875.172 H 1365.919 V 0 H 0 Z"
         transform="translate(-694.12794,-1703.7836)"
         id="path1243" />
    </clipPath>
    <clipPath
       clipPathUnits="userSpaceOnUse"
       id="clipPath1245">
      <path
         d="M 0,1875.172 H 1365.919 V 0 H 0 Z"
         transform="translate(-694.12794,-1703.7836)"
         id="path1245" />
    </clipPath>
    <clipPath
       clipPathUnits="userSpaceOnUse"
       id="clipPath1247">
      <path
         d="M 0,1875.172 H 1365.919 V 0 H 0 Z"
         transform="translate(-677.10602,-1707.1306)"
         id="path1247" />
    </clipPath>
    <clipPath
       clipPathUnits="userSpaceOnUse"
       id="clipPath1249">
      <path
         d="M 0,1875.172 H 1365.919 V 0 H 0 Z"
         transform="translate(-677.10602,-1707.1306)"
         id="path1249" />
    </clipPath>
    <clipPath
       clipPathUnits="userSpaceOnUse"
       id="clipPath1251">
      <path
         d="M 0,1875.172 H 1365.919 V 0 H 0 Z"
         transform="translate(-710.32194,-1707.0935)"
         id="path1251" />
    </clipPath>
    <clipPath
       clipPathUnits="userSpaceOnUse"
       id="clipPath1253">
      <path
         d="M 0,1875.172 H 1365.919 V 0 H 0 Z"
         transform="translate(-710.32202,-1707.0935)"
         id="path1253" />
    </clipPath>
    <clipPath
       clipPathUnits="userSpaceOnUse"
       id="clipPath1255">
      <path
         d="M 0,1875.172 H 1365.919 V 0 H 0 Z"
         transform="translate(-716.36739,-1700.5208)"
         id="path1255" />
    </clipPath>
    <clipPath
       clipPathUnits="userSpaceOnUse"
       id="clipPath1257">
      <path
         d="M 0,1875.172 H 1365.919 V 0 H 0 Z"
         transform="translate(-716.36739,-1700.5208)"
         id="path1257" />
    </clipPath>
  </defs>
  <sodipodi:namedview
     id="namedview1"
     pagecolor="#ffffff"
     bordercolor="#000000"
     borderopacity="0.25"
     inkscape:showpageshadow="2"
     inkscape:pageopacity="0.0"
     inkscape:pagecheckerboard="0"
     inkscape:deskcolor="#d1d1d1"
     showgrid="false">
    <inkscape:page
       x="4.0743148e-06"
       y="2.5949269e-06"
       width="178.03711"
       height="177.98399"
       id="page2"
       margin="0"
       bleed="0" />
  </sodipodi:namedview>
  <g
     id="layer-MC0"
     inkscape:groupmode="layer"
     inkscape:label="Capa 1"
     transform="translate(-4506.2836,-151.05428)">
    <path
       id="path1224"
       d="M 0,0 C 0,35.128 28.477,63.605 63.605,63.605 98.733,63.605 127.21,35.128 127.21,0 127.21,-35.128 98.733,-63.605 63.605,-63.605 28.477,-63.605 0,-35.128 0,0 m 130.369,0 c 0,36.872 -29.892,66.763 -66.764,66.763 C 26.732,66.763 -3.159,36.872 -3.159,0 c 0,-36.357 29.067,-65.905 65.227,-66.725 h 3.075 c 36.159,0.82 65.226,30.368 65.226,66.725"
       style="fill:#009bdb;fill-opacity:1;fill-rule:nonzero;stroke:none"
       transform="matrix(1.3333333,0,0,-1.3333333,4510.4955,240.0716)"
       clip-path="url(#clipPath1225)" />
    <path
       id="path1226"
       d="m 0,0 h 23.602 c 1.629,0 2.95,-1.347 2.95,-3.008 0,-1.662 -1.321,-3.009 -2.95,-3.009 H 5.9 c -0.543,0 -0.983,-0.449 -0.983,-1.002 0,-0.554 0.44,-1.003 0.983,-1.003 h 17.702 c 2.715,0 4.916,2.245 4.916,5.014 0,2.769 -2.201,5.013 -4.916,5.013 L 0,2.005 C -1.774,1.991 -3.513,1.507 -5.049,0.602 l -27.83,-13.638 c -0.499,-0.217 -0.731,-0.807 -0.518,-1.316 0.213,-0.509 0.791,-0.746 1.29,-0.529 0.028,0.012 0.055,0.025 0.081,0.04 L -4.13,-1.171 C -2.878,-0.418 -1.454,-0.014 0,0"
       style="fill:#009bdb;fill-opacity:1;fill-rule:evenodd;stroke:none"
       transform="matrix(1.3333333,0,0,-1.3333333,4579.1251,255.11693)"
       clip-path="url(#clipPath1227)" />
    <path
       id="path1228"
       d="m 0,0 c -0.901,0.02 -1.787,-0.232 -2.544,-0.723 l -16.734,-9.668 c -0.469,-0.271 -0.631,-0.874 -0.363,-1.347 0.269,-0.473 0.867,-0.637 1.336,-0.366 l 16.797,9.705 c 0.448,0.292 0.974,0.441 1.508,0.426 1.621,0 2.936,-1.325 2.936,-2.96 -0.039,-0.875 -0.409,-1.702 -1.034,-2.31 l -26.833,-19.781 c -0.514,-0.39 -1.138,-0.602 -1.781,-0.606 h -18.302 c -10.009,0 -18.145,-3.086 -24.179,-9.175 -0.388,-0.378 -0.399,-1.003 -0.024,-1.395 0.376,-0.392 0.995,-0.403 1.384,-0.024 0.008,0.008 0.016,0.016 0.024,0.024 5.654,5.702 13.324,8.593 22.795,8.593 h 18.299 c 1.054,0.004 2.08,0.347 2.927,0.98 L 3.131,-8.79 3.246,-8.692 c 1.026,0.98 1.622,2.332 1.657,3.757 C 4.9,-2.208 2.705,0.002 0,0"
       style="fill:#009bdb;fill-opacity:1;fill-rule:evenodd;stroke:none"
       transform="matrix(1.3333333,0,0,-1.3333333,4645.4171,242.00307)"
       clip-path="url(#clipPath1229)" />
    <path
       id="path1230"
       d="M 0,0 1.007,-5.046 H 2.308 L 1.007,1.479 -32.252,-5.035 c -0.035,-0.007 -0.035,-0.012 0,-0.012 h 6.486 z"
       style="fill:#009bdb;fill-opacity:1;fill-rule:evenodd;stroke:none"
       transform="matrix(1.3333333,0,0,-1.3333333,4637.9999,194.81307)"
       clip-path="url(#clipPath1231)" />
    <path
       id="path1232"
       d="M 0,0 1.007,-5.046 H 2.308 L 1.007,1.479 -32.252,-5.035 c -0.035,-0.007 -0.035,-0.012 0,-0.012 h 6.486 z"
       style="fill:#009bdb;fill-opacity:1;fill-rule:nonzero;stroke:none"
       transform="matrix(1.3333333,0,0,-1.3333333,4637.9997,194.81307)"
       clip-path="url(#clipPath1233)" />
    <path
       id="path1234"
       d="m 0,0 1.915,-4.799 1.271,0.255 -2.479,6.211 -33.401,-13.692 c -0.017,-0.007 -0.015,-0.012 0,-0.012 h 3.326 z"
       style="fill:#009bdb;fill-opacity:1;fill-rule:evenodd;stroke:none"
       transform="matrix(1.3333333,0,0,-1.3333333,4628.1289,185.49267)"
       clip-path="url(#clipPath1235)" />
    <path
       id="path1236"
       d="m 0,0 1.915,-4.799 1.271,0.255 -2.479,6.211 -33.401,-13.692 c -0.017,-0.007 -0.015,-0.012 0,-0.012 h 3.326 z"
       style="fill:#009bdb;fill-opacity:1;fill-rule:nonzero;stroke:none"
       transform="matrix(1.3333333,0,0,-1.3333333,4628.1289,185.49267)"
       clip-path="url(#clipPath1237)" />
    <path
       id="path1238"
       d="m 721.536,1722.056 h -55.469 v -25.451 h 55.469 z m -1.26,-24.178 h -52.948 v 22.905 h 52.948 z"
       style="fill:#009bdb;fill-opacity:1;fill-rule:evenodd;stroke:none"
       transform="matrix(1.3333333,0,0,-1.3333333,3685.12,2500.2267)"
       clip-path="url(#clipPath1239)" />
    <path
       id="path1240"
       d="m 721.536,1722.056 h -55.469 v -25.451 h 55.469 z m -1.26,-24.178 h -52.948 v 22.905 h 52.948 z"
       style="fill:#009bdb;fill-opacity:1;fill-rule:nonzero;stroke:none"
       transform="matrix(1.3333333,0,0,-1.3333333,3685.12,2500.2267)"
       clip-path="url(#clipPath1241)" />
    <path
       id="path1242"
       d="m 0,0 c 2.523,0 4.568,2.483 4.568,5.547 0,3.064 -2.045,5.547 -4.568,5.547 -2.523,0 -4.568,-2.483 -4.568,-5.547 C -4.568,2.483 -2.523,0 0,0 m 0,9.861 c 1.82,0 3.299,-1.935 3.299,-4.314 0,-2.379 -1.48,-4.314 -3.299,-4.314 -1.819,0 -3.299,1.935 -3.299,4.314 0,2.379 1.48,4.314 3.299,4.314"
       style="fill:#009bdb;fill-opacity:1;fill-rule:evenodd;stroke:none"
       transform="matrix(1.3333333,0,0,-1.3333333,4610.6239,228.5152)"
       clip-path="url(#clipPath1243)" />
    <path
       id="path1244"
       d="m 0,0 c 2.523,0 4.568,2.483 4.568,5.547 0,3.064 -2.045,5.547 -4.568,5.547 -2.523,0 -4.568,-2.483 -4.568,-5.547 C -4.568,2.483 -2.523,0 0,0 m 0,9.861 c 1.82,0 3.299,-1.935 3.299,-4.314 0,-2.379 -1.48,-4.314 -3.299,-4.314 -1.819,0 -3.299,1.935 -3.299,4.314 0,2.379 1.48,4.314 3.299,4.314"
       style="fill:#009bdb;fill-opacity:1;fill-rule:nonzero;stroke:none"
       transform="matrix(1.3333333,0,0,-1.3333333,4610.6239,228.5152)"
       clip-path="url(#clipPath1245)" />
    <path
       id="path1246"
       d="M 0,0 C 1.393,-0.338 2.836,0.376 3.223,1.595 3.35,1.995 3.35,2.419 3.222,2.82 2.983,3.589 2.296,4.19 1.417,4.4 0.024,4.739 -1.419,4.026 -1.807,2.807 -1.935,2.405 -1.935,1.981 -1.807,1.579 -1.567,0.81 -0.879,0.209 0,0 m 0.706,3.342 c 0.72,0 1.304,-0.511 1.304,-1.141 0,-0.63 -0.584,-1.141 -1.304,-1.141 -0.721,0 -1.305,0.511 -1.305,1.141 0,0.63 0.584,1.141 1.305,1.141"
       style="fill:#009bdb;fill-opacity:1;fill-rule:evenodd;stroke:none"
       transform="matrix(1.3333333,0,0,-1.3333333,4587.928,224.05253)"
       clip-path="url(#clipPath1247)" />
    <path
       id="path1248"
       d="M 0,0 C 1.393,-0.338 2.836,0.376 3.223,1.595 3.35,1.995 3.35,2.419 3.222,2.82 2.983,3.589 2.296,4.19 1.417,4.4 0.024,4.739 -1.419,4.026 -1.807,2.807 -1.935,2.405 -1.935,1.981 -1.807,1.579 -1.567,0.81 -0.879,0.209 0,0 m 0.706,3.342 c 0.72,0 1.304,-0.511 1.304,-1.141 0,-0.63 -0.584,-1.141 -1.304,-1.141 -0.721,0 -1.305,0.511 -1.305,1.141 0,0.63 0.584,1.141 1.305,1.141"
       style="fill:#009bdb;fill-opacity:1;fill-rule:nonzero;stroke:none"
       transform="matrix(1.3333333,0,0,-1.3333333,4587.928,224.05253)"
       clip-path="url(#clipPath1249)" />
    <path
       id="path1250"
       d="M 0,0 C 1.238,0.252 2.105,1.225 2.078,2.334 2.094,3.086 1.646,3.788 0.903,4.17 -0.334,4.845 -1.965,4.518 -2.74,3.438 -2.999,3.077 -3.138,2.66 -3.142,2.234 c 0,-1.26 1.171,-2.281 2.614,-2.281 0.178,0 0.354,0.016 0.528,0.047 m -0.532,3.371 c 0.72,0 1.305,-0.51 1.305,-1.139 0,-0.629 -0.585,-1.138 -1.305,-1.138 -0.721,0 -1.305,0.509 -1.305,1.138 0,0.629 0.584,1.139 1.305,1.139"
       style="fill:#009bdb;fill-opacity:1;fill-rule:evenodd;stroke:none"
       transform="matrix(1.3333333,0,0,-1.3333333,4632.2159,224.102)"
       clip-path="url(#clipPath1251)" />
    <path
       id="path1252"
       d="M 0,0 C 1.238,0.252 2.105,1.225 2.078,2.334 2.094,3.086 1.646,3.788 0.903,4.17 -0.334,4.845 -1.965,4.518 -2.74,3.438 -2.999,3.077 -3.138,2.66 -3.143,2.234 c 10e-4,-1.26 1.171,-2.281 2.615,-2.281 0.178,0 0.354,0.016 0.528,0.047 m -0.532,3.371 c 0.72,0 1.305,-0.51 1.305,-1.139 0,-0.629 -0.585,-1.138 -1.305,-1.138 -0.721,0 -1.305,0.509 -1.305,1.138 0,0.629 0.584,1.139 1.305,1.139"
       style="fill:#009bdb;fill-opacity:1;fill-rule:nonzero;stroke:none"
       transform="matrix(1.3333333,0,0,-1.3333333,4632.216,224.102)"
       clip-path="url(#clipPath1253)" />
    <path
       id="path1254"
       d="M 0,0 1.906,1.888 V 15.732 L 0,17.62 h -43.844 l -2.541,-2.517 V 2.517 L -43.844,0 Z m -45.114,14.58 1.798,1.781 h 42.79 l 1.161,-1.15 V 2.408 L -0.526,1.259 h -42.79 l -1.798,1.778 z"
       style="fill:#009bdb;fill-opacity:1;fill-rule:evenodd;stroke:none"
       transform="matrix(1.3333333,0,0,-1.3333333,4640.2765,232.8656)"
       clip-path="url(#clipPath1255)" />
    <path
       id="path1256"
       d="M 0,0 1.906,1.888 V 15.732 L 0,17.62 h -43.844 l -2.541,-2.517 V 2.517 L -43.844,0 Z m -45.114,14.58 1.798,1.781 h 42.79 l 1.161,-1.15 V 2.408 L -0.526,1.259 h -42.79 l -1.798,1.778 z"
       style="fill:#009bdb;fill-opacity:1;fill-rule:nonzero;stroke:none"
       transform="matrix(1.3333333,0,0,-1.3333333,4640.2765,232.8656)"
       clip-path="url(#clipPath1257)" />
  </g>
</svg>
