<?xml version="1.0" encoding="UTF-8" standalone="no"?>
<!-- Created with Inkscape (http://www.inkscape.org/) -->

<svg
   version="1.1"
   id="svg1"
   width="178.03711"
   height="177.98399"
   viewBox="0 0 178.03711 177.98399"
   sodipodi:docname="boceto-bink-1.ai"
   xmlns:inkscape="http://www.inkscape.org/namespaces/inkscape"
   xmlns:sodipodi="http://sodipodi.sourceforge.net/DTD/sodipodi-0.dtd"
   xmlns="http://www.w3.org/2000/svg"
   xmlns:svg="http://www.w3.org/2000/svg">
  <defs
     id="defs1">
    <clipPath
       clipPathUnits="userSpaceOnUse"
       id="clipPath1500">
      <path
         d="M 0,1875.172 H 1365.919 V 0 H 0 Z"
         transform="translate(-618.40724,-1695.1163)"
         id="path1500" />
    </clipPath>
    <clipPath
       clipPathUnits="userSpaceOnUse"
       id="clipPath1502">
      <path
         d="M 0,1875.172 H 1365.919 V 0 H 0 Z"
         transform="translate(2.5e-5,2.5000001e-5)"
         id="path1502" />
    </clipPath>
    <clipPath
       clipPathUnits="userSpaceOnUse"
       id="clipPath1504">
      <path
         d="M 0,1875.172 H 1365.919 V 0 H 0 Z"
         transform="translate(2.5e-5,2.5000001e-5)"
         id="path1504" />
    </clipPath>
    <clipPath
       clipPathUnits="userSpaceOnUse"
       id="clipPath1506">
      <path
         d="M 0,1875.172 H 1365.919 V 0 H 0 Z"
         transform="translate(2.5e-5,2.5000001e-5)"
         id="path1506" />
    </clipPath>
    <clipPath
       clipPathUnits="userSpaceOnUse"
       id="clipPath1508">
      <path
         d="M 0,1875.172 H 1365.919 V 0 H 0 Z"
         transform="translate(2.5e-5,2.5000001e-5)"
         id="path1508" />
    </clipPath>
    <clipPath
       clipPathUnits="userSpaceOnUse"
       id="clipPath1510">
      <path
         d="M 0,1875.172 H 1365.919 V 0 H 0 Z"
         transform="translate(2.5e-5,2.5000001e-5)"
         id="path1510" />
    </clipPath>
    <clipPath
       clipPathUnits="userSpaceOnUse"
       id="clipPath1512">
      <path
         d="M 0,1875.172 H 1365.919 V 0 H 0 Z"
         transform="translate(-655.75402,-1734.6997)"
         id="path1512" />
    </clipPath>
    <clipPath
       clipPathUnits="userSpaceOnUse"
       id="clipPath1514">
      <path
         d="M 0,1875.172 H 1365.919 V 0 H 0 Z"
         transform="translate(-675.82589,-1711.743)"
         id="path1514" />
    </clipPath>
  </defs>
  <sodipodi:namedview
     id="namedview1"
     pagecolor="#ffffff"
     bordercolor="#000000"
     borderopacity="0.25"
     inkscape:showpageshadow="2"
     inkscape:pageopacity="0.0"
     inkscape:pagecheckerboard="0"
     inkscape:deskcolor="#d1d1d1"
     showgrid="false">
    <inkscape:page
       x="2.2341175e-05"
       y="2.5949269e-06"
       width="178.03711"
       height="177.98399"
       id="page2"
       margin="0"
       bleed="0" />
  </sodipodi:namedview>
  <g
     id="layer-MC0"
     inkscape:groupmode="layer"
     inkscape:label="Capa 1"
     transform="translate(-8187.9041,-151.05428)">
    <path
       id="path1499"
       d="M 0,0 C 0,35.128 28.477,63.605 63.605,63.605 98.733,63.605 127.21,35.128 127.21,0 127.21,-35.128 98.733,-63.605 63.605,-63.605 28.477,-63.605 0,-35.128 0,0 m 130.369,0 c 0,36.872 -29.892,66.763 -66.764,66.763 C 26.732,66.763 -3.159,36.872 -3.159,0 c 0,-36.357 29.067,-65.905 65.227,-66.725 h 3.075 c 36.159,0.82 65.226,30.368 65.226,66.725"
       style="fill:#009bdb;fill-opacity:1;fill-rule:nonzero;stroke:none"
       transform="matrix(1.3333333,0,0,-1.3333333,8192.1163,240.0716)"
       clip-path="url(#clipPath1500)" />
    <path
       id="path1501"
       d="m 664.89,1700.766 h 38.502 v 1.958 H 664.89 Z"
       style="fill:#009bdb;fill-opacity:1;fill-rule:evenodd;stroke:none"
       transform="matrix(1.3333333,0,0,-1.3333333,7367.5733,2500.2267)"
       clip-path="url(#clipPath1502)" />
    <path
       id="path1503"
       d="m 664.89,1692.935 h 38.502 v 1.958 H 664.89 Z"
       style="fill:#009bdb;fill-opacity:1;fill-rule:evenodd;stroke:none"
       transform="matrix(1.3333333,0,0,-1.3333333,7367.5733,2500.2267)"
       clip-path="url(#clipPath1504)" />
    <path
       id="path1505"
       d="m 664.89,1685.756 h 38.502 v 1.958 H 664.89 Z"
       style="fill:#009bdb;fill-opacity:1;fill-rule:evenodd;stroke:none"
       transform="matrix(1.3333333,0,0,-1.3333333,7367.5733,2500.2267)"
       clip-path="url(#clipPath1506)" />
    <path
       id="path1507"
       d="m 664.89,1677.925 h 38.502 v 1.958 H 664.89 Z"
       style="fill:#009bdb;fill-opacity:1;fill-rule:evenodd;stroke:none"
       transform="matrix(1.3333333,0,0,-1.3333333,7367.5733,2500.2267)"
       clip-path="url(#clipPath1508)" />
    <path
       id="path1509"
       d="m 664.89,1670.094 h 38.502 v 1.958 H 664.89 Z"
       style="fill:#009bdb;fill-opacity:1;fill-rule:evenodd;stroke:none"
       transform="matrix(1.3333333,0,0,-1.3333333,7367.5733,2500.2267)"
       clip-path="url(#clipPath1510)" />
    <path
       id="path1511"
       d="m 0,0 v -75.699 h 56.774 v 55.273 L 36.349,0 Z m 36.919,-3.247 16.609,-16.608 c 0.003,-0.004 0.003,-0.01 0,-0.013 -0.002,-0.002 -0.005,-0.003 -0.007,-0.003 H 36.903 v 16.618 c 0,0.005 0.005,0.009 0.01,0.009 0.002,0 0.005,-10e-4 0.006,-0.003 M 1.892,-73.807 v 71.914 h 33.119 v -19.871 h 19.871 v -52.043 z"
       style="fill:#009bdb;fill-opacity:1;fill-rule:evenodd;stroke:none"
       transform="matrix(1.3333333,0,0,-1.3333333,8241.912,187.29373)"
       clip-path="url(#clipPath1512)" />
    <path
       id="path1513"
       d="m 0,0 c 0.79,0.098 1.444,0.441 1.959,1.028 0.516,0.587 0.774,1.314 0.774,2.18 0,0.738 -0.183,1.33 -0.548,1.779 C 1.82,5.434 1.092,5.836 0,6.189 Z M -1.197,14.051 C -1.988,13.93 -2.611,13.614 -3.067,13.102 -3.522,12.59 -3.75,11.984 -3.75,11.284 c 0,-0.694 0.194,-1.273 0.582,-1.739 0.388,-0.468 1.045,-0.841 1.971,-1.119 z m 0,-17.801 v 2.034 c -1.017,0.127 -1.843,0.355 -2.479,0.683 -0.637,0.327 -1.186,0.856 -1.649,1.587 -0.464,0.73 -0.733,1.622 -0.808,2.677 l 2.044,0.383 C -3.931,2.523 -3.652,1.72 -3.253,1.209 -2.681,0.486 -1.996,0.083 -1.197,0 v 6.472 c -0.836,0.158 -1.691,0.482 -2.564,0.972 -0.648,0.361 -1.147,0.861 -1.497,1.502 -0.35,0.64 -0.525,1.366 -0.525,2.179 0,1.446 0.512,2.617 1.536,3.513 0.685,0.602 1.702,0.971 3.05,1.107 v 0.971 H 0 V 15.745 C 1.182,15.632 2.119,15.286 2.812,14.706 3.701,13.968 4.235,12.955 4.416,11.667 L 2.315,11.352 C 2.195,12.149 1.944,12.761 1.564,13.187 1.184,13.612 0.662,13.892 0,14.028 V 8.167 C 1.024,7.91 1.702,7.711 2.033,7.568 2.665,7.289 3.181,6.95 3.58,6.551 3.979,6.152 4.286,5.678 4.501,5.128 4.715,4.578 4.823,3.984 4.823,3.343 4.823,1.935 4.374,0.76 3.478,-0.18 2.582,-1.122 1.423,-1.626 0,-1.694 V -3.75 Z"
       style="fill:#009bdb;fill-opacity:1;fill-rule:nonzero;stroke:none"
       transform="matrix(1.3333333,0,0,-1.3333333,8268.6745,217.90267)"
       clip-path="url(#clipPath1514)" />
  </g>
</svg>
