<?xml version="1.0" encoding="UTF-8" standalone="no"?>
<!-- Created with Inkscape (http://www.inkscape.org/) -->

<svg
   version="1.1"
   id="svg1"
   width="14.137451"
   height="17.5"
   viewBox="0 0 14.137451 17.5"
   sodipodi:docname="dispositivos.svg"
   inkscape:version="1.3 (0e150ed, 2023-07-21)"
   xmlns:inkscape="http://www.inkscape.org/namespaces/inkscape"
   xmlns:sodipodi="http://sodipodi.sourceforge.net/DTD/sodipodi-0.dtd"
   xmlns="http://www.w3.org/2000/svg"
   xmlns:svg="http://www.w3.org/2000/svg">
  <defs
     id="defs1">
    <clipPath
       clipPathUnits="userSpaceOnUse"
       id="clipPath35">
      <path
         d="M 0,679.471 H 1365.919 V 0 H 0 Z"
         transform="translate(-551.59732,-186.59971)"
         id="path35" />
    </clipPath>
    <clipPath
       clipPathUnits="userSpaceOnUse"
       id="clipPath37">
      <path
         d="M 0,679.471 H 1365.919 V 0 H 0 Z"
         transform="translate(-545.02222,-194.6855)"
         id="path37" />
    </clipPath>
  </defs>
  <sodipodi:namedview
     id="namedview1"
     pagecolor="#ffffff"
     bordercolor="#000000"
     borderopacity="0.25"
     inkscape:showpageshadow="2"
     inkscape:pageopacity="0.0"
     inkscape:pagecheckerboard="0"
     inkscape:deskcolor="#d1d1d1"
     inkscape:zoom="5.6275387"
     inkscape:cx="-22.389895"
     inkscape:cy="16.17048"
     inkscape:window-width="1440"
     inkscape:window-height="449"
     inkscape:window-x="0"
     inkscape:window-y="25"
     inkscape:window-maximized="0"
     inkscape:current-layer="layer-MC0">
    <inkscape:page
       x="-0.00036494186"
       y="-5.4950749e-07"
       width="14.137451"
       height="17.5"
       id="page2"
       margin="0"
       bleed="0" />
  </sodipodi:namedview>
  <g
     id="layer-MC0"
     inkscape:groupmode="layer"
     inkscape:label="Capa 1"
     transform="translate(-722.03182,-645.646)">
    <g
       id="g1148">
      <path
         id="path34"
         d="m 0,0 c 0,-0.33 -0.05,-0.66 -0.142,-0.985 h -2.1 v -2.71 l -0.064,0.043 c -1.026,0.707 -1.737,1.66 -2.024,2.667 h 2.088 v 2.647 l 0.006,0.006 0.082,-0.076 C -1.583,1.068 -0.87,0.724 -0.103,0.604 L 0,0.587 Z M 0.248,1.092 C -0.616,1.16 -1.421,1.552 -2.005,2.189 -2.115,2.316 -2.308,2.33 -2.436,2.22 -2.447,2.211 -2.458,2.2 -2.468,2.189 -3.052,1.552 -3.857,1.16 -4.72,1.092 -4.881,1.077 -5.003,0.942 -5.002,0.782 V 0 c 0,-1.7 1.087,-3.255 2.596,-4.217 0.103,-0.067 0.236,-0.067 0.34,0 C -0.557,-3.255 0.529,-1.7 0.529,0 V 0.782 C 0.53,0.942 0.408,1.077 0.248,1.092"
         style="fill:#009bdb;fill-opacity:1;fill-rule:nonzero;stroke:none"
         transform="matrix(1.3333333,0,0,-1.3333333,735.46307,657.16173)"
         clip-path="url(#clipPath35)" />
      <path
         id="path36"
         d="m 0,0 h 1.095 c 0.08,0 0.145,-0.065 0.145,-0.145 0,-0.08 -0.065,-0.144 -0.145,-0.144 H 0 c -0.08,0 -0.145,0.064 -0.145,0.144 C -0.145,-0.065 -0.08,0 0,0 m 1.684,0.118 c 0.143,0 0.259,-0.116 0.259,-0.259 0,-0.143 -0.116,-0.259 -0.259,-0.259 -0.143,0 -0.259,0.116 -0.259,0.259 0,0.143 0.116,0.259 0.259,0.259 M -1.755,-11.87 c -0.523,0 -0.948,0.424 -0.948,0.947 v 9.803 c 0,0.523 0.425,0.947 0.948,0.947 h 0.546 0.023 c 0.087,0 0.159,-0.071 0.159,-0.158 0,-0.002 -0.001,-0.003 -0.001,-0.005 h 0.001 v -0.003 c 0,-0.228 0.185,-0.413 0.413,-0.413 h 3.028 c 0.228,0 0.414,0.185 0.414,0.413 v 0.003 0 c 0,0.002 0,0.003 0,0.005 0,0.086 0.069,0.157 0.155,0.158 v 0 h 0.555 c 0.524,0 0.949,-0.424 0.949,-0.947 v -3.715 c 0.056,-0.023 0.11,-0.054 0.153,-0.104 0.191,-0.208 0.4,-0.396 0.625,-0.562 v 1.062 c 0,0.009 -0.008,0.017 -0.018,0.017 H 5.203 v 3.694 c 0,0.706 -0.565,1.279 -1.261,1.279 h -6.1 c -0.696,0 -1.261,-0.573 -1.261,-1.279 V -2.83 h -0.063 c -0.009,0 -0.017,-0.008 -0.017,-0.018 v -0.579 c 0,-0.01 0.008,-0.018 0.017,-0.018 h 0.063 v -0.573 h -0.063 c -0.009,0 -0.017,-0.007 -0.017,-0.017 v -1.194 c 0,-0.01 0.008,-0.018 0.017,-0.018 h 0.063 v -0.301 h -0.063 c -0.009,0 -0.017,-0.008 -0.017,-0.017 V -6.76 c 0,-0.009 0.008,-0.017 0.017,-0.017 h 0.063 v -4.518 c 0,-0.706 0.565,-1.279 1.261,-1.279 h 5.34 c -0.259,0.221 -0.5,0.456 -0.726,0.704 z"
         style="fill:#009bdb;fill-opacity:1;fill-rule:nonzero;stroke:none"
         transform="matrix(1.3333333,0,0,-1.3333333,726.69627,646.38067)"
         clip-path="url(#clipPath37)" />
    </g>
  </g>
</svg>
