<?xml version="1.0" encoding="UTF-8" standalone="no"?>
<!-- Created with Inkscape (http://www.inkscape.org/) -->

<svg
   width="130"
   height="130"
   viewBox="0 0 34.395832 34.395832"
   version="1.1"
   id="svg1"
   inkscape:version="1.3 (0e150ed, 2023-07-21)"
   sodipodi:docname="documentación.svg"
   xmlns:inkscape="http://www.inkscape.org/namespaces/inkscape"
   xmlns:sodipodi="http://sodipodi.sourceforge.net/DTD/sodipodi-0.dtd"
   xmlns="http://www.w3.org/2000/svg"
   xmlns:svg="http://www.w3.org/2000/svg">
  <sodipodi:namedview
     id="namedview1"
     pagecolor="#ffffff"
     bordercolor="#000000"
     borderopacity="0.25"
     inkscape:showpageshadow="2"
     inkscape:pageopacity="0.0"
     inkscape:pagecheckerboard="false"
     inkscape:deskcolor="#d1d1d1"
     inkscape:document-units="px"
     inkscape:zoom="2.0442811"
     inkscape:cx="43.780672"
     inkscape:cy="88.784268"
     inkscape:window-width="1440"
     inkscape:window-height="784"
     inkscape:window-x="0"
     inkscape:window-y="25"
     inkscape:window-maximized="0"
     inkscape:current-layer="layer1" />
  <defs
     id="defs1" />
  <g
     inkscape:label="Capa 1"
     inkscape:groupmode="layer"
     id="layer1">
    <path
       class="st0"
       d="m 17.336413,1.7250466 c -8.6254159,0 -15.6104156,6.9849997 -15.6104156,15.6104154 0,8.625416 6.9849997,15.610416 15.6104156,15.610416 8.625416,0 15.610416,-6.985 15.610416,-15.610416 0,-8.6254157 -6.985,-15.6104154 -15.610416,-15.6104154 z m 0,30.4535394 c -8.2020826,0 -14.8695823,-6.641041 -14.8695823,-14.869582 0,-8.2285407 6.6674997,-14.8431241 14.8695823,-14.8431241 8.202083,0 14.869583,6.6410414 14.869583,14.8695821 0,8.228541 -6.6675,14.843124 -14.869583,14.843124 z"
       id="path108"
       style="fill:#f7f7f8;stroke-width:0.264583" />
    <g
       id="g115"
       transform="matrix(0.26458332,0,0,0.26458332,-35.580251,-17.907036)">&#10;		<path
   class="st0"
   d="m 218.9,120.9 c -0.2,-1 -0.7,-2 -1.5,-2.8 l -10.8,-10.8 c -0.9,-0.9 -1.9,-1.4 -3,-1.6 h -0.3 -16.5 c -3.1,0 -5.6,2.5 -5.6,5.6 v 12.5 0 0.7 0 26.2 c 0,3.1 2.5,5.6 5.6,5.6 v 0 h 3.3 0.9 v 0 h 22.3 c 3.1,0 5.6,-2.5 5.6,-5.6 v -29.4 z m -3.3,29.7 c 0,1.2 -1,2.3 -2.3,2.3 H 191 v 0 h -4.2 c -1.2,0 -2.3,-1 -2.3,-2.3 v -24.1 c 0,0 0,0 0,0 0,-0.4 0,-0.8 0,-1.2 v -0.9 0 c 0,-7.8 0,-13.2 0,-13.2 0,-1.2 1,-2.3 2.3,-2.3 h 14.8 v 8.2 c 0,3.1 2.5,5.6 5.6,5.6 h 8.4 z"
   id="path109"
   style="fill:#f7f7f8" />
&#10;		<path
   class="st0"
   d="m 188.1,117 h 10.5 v -3.4 h -10.5 c -0.9,0 -1.7,0.8 -1.7,1.7 0,1 0.8,1.7 1.7,1.7 z"
   id="path110"
   style="fill:#f7f7f8" />
&#10;		<path
   class="st0"
   d="m 188.1,122.9 h 11.6 c -0.7,-0.9 -1.1,-2.1 -1.1,-3.4 h -10.5 c -0.9,0 -1.7,0.8 -1.7,1.7 0,0.9 0.8,1.7 1.7,1.7 z"
   id="path111"
   style="fill:#f7f7f8" />
&#10;		<path
   class="st0"
   d="m 190.3,125.4 h -2.2 c -0.9,0 -1.7,0.8 -1.7,1.7 0,0.9 0.7,1.7 1.7,1.7 h 10.5 v 0 h 13.6 c 0.9,0 1.7,-0.8 1.7,-1.7 0,-0.9 -0.8,-1.7 -1.7,-1.7 z"
   id="path112"
   style="fill:#f7f7f8" />
&#10;		<path
   class="st0"
   d="m 212.2,131.3 h -21.9 c 0,0 0,0 0,0 h -2.2 c -0.9,0 -1.7,0.8 -1.7,1.7 0,0.9 0.7,1.7 1.7,1.7 h 10.5 v 0 h 13.6 c 0.9,0 1.7,-0.8 1.7,-1.7 0,-1 -0.8,-1.7 -1.7,-1.7 z"
   id="path113"
   style="fill:#f7f7f8" />
&#10;		<path
   class="st0"
   d="m 212.2,137 h -21.9 c 0,0 0,0 0,0 h -2.2 c -0.9,0 -1.7,0.8 -1.7,1.7 0,0.9 0.7,1.7 1.7,1.7 h 10.5 v 0 h 13.6 c 0.9,0 1.7,-0.8 1.7,-1.7 0,-0.9 -0.8,-1.7 -1.7,-1.7 z"
   id="path114"
   style="fill:#f7f7f8" />
&#10;		<path
   class="st0"
   d="m 212.2,142.9 h -21.9 c 0,0 0,0 0,0 h -2.2 c -0.9,0 -1.7,0.8 -1.7,1.7 0,0.9 0.7,1.7 1.7,1.7 h 10.5 v 0 h 13.6 c 0.9,0 1.7,-0.8 1.7,-1.7 0,-0.9 -0.8,-1.7 -1.7,-1.7 z"
   id="path115"
   style="fill:#f7f7f8" />
&#10;	</g>
  </g>
</svg>
