<?xml version="1.0" encoding="UTF-8" standalone="no"?>
<!-- Created with Inkscape (http://www.inkscape.org/) -->

<svg
   width="200"
   height="200"
   viewBox="0 0 52.916665 52.916667"
   version="1.1"
   id="svg1"
   inkscape:version="1.3 (0e150ed, 2023-07-21)"
   sodipodi:docname="domicilio.svg"
   xmlns:inkscape="http://www.inkscape.org/namespaces/inkscape"
   xmlns:sodipodi="http://sodipodi.sourceforge.net/DTD/sodipodi-0.dtd"
   xmlns="http://www.w3.org/2000/svg"
   xmlns:svg="http://www.w3.org/2000/svg">
  <sodipodi:namedview
     id="namedview1"
     pagecolor="#ffffff"
     bordercolor="#000000"
     borderopacity="0.25"
     inkscape:showpageshadow="2"
     inkscape:pageopacity="0.0"
     inkscape:pagecheckerboard="0"
     inkscape:deskcolor="#d1d1d1"
     inkscape:document-units="px"
     showguides="false"
     inkscape:zoom="1.9752512"
     inkscape:cx="71.130192"
     inkscape:cy="103.02487"
     inkscape:window-width="1440"
     inkscape:window-height="784"
     inkscape:window-x="0"
     inkscape:window-y="25"
     inkscape:window-maximized="0"
     inkscape:current-layer="layer1" />
  <defs
     id="defs1" />
  <g
     inkscape:label="Capa 1"
     inkscape:groupmode="layer"
     id="layer1">
    <path
       class="st0"
       d="m 50.924253,26.52942 c 0,-13.414375 -10.874375,-24.2887494 -24.28875,-24.2887494 -13.414375,0 -24.2887495,10.8743744 -24.2887495,24.2887494 0,13.229167 10.5833335,23.97125 23.7331245,24.28875 h 1.11125 c 13.17625,-0.3175 23.733125,-11.059583 23.733125,-24.28875 z m -47.4133329,0 c 0,-12.779375 10.3716669,-23.1510411 23.1510409,-23.1510411 12.779375,0 23.151042,10.3716661 23.151042,23.1510411 0,12.779375 -10.371667,23.151042 -23.151042,23.151042 -12.805833,0 -23.1510409,-10.371667 -23.1510409,-23.151042 z"
       id="path1"
       style="fill:#009bdb;stroke-width:0.264583" />
    <g
       id="g41"
       transform="matrix(0.26458333,0,0,0.26458333,-13.184288,2.0025456)">&#10;		<path
   class="st0"
   d="m 182.6,80.5 -9.5,-9.6 c -1.2,-1.2 -3.2,-1.3 -4.4,0 L 147,92.1 132.9,77.8 c -1.2,-1.2 -3.2,-1.3 -4.4,0 l -10.1,9.9 c -1.2,1.2 -1.3,3.2 0,4.4 l 16.3,16.6 9.5,9.6 v 0 c 1.2,1.2 3.2,1.3 4.4,0 v 0 l 10.1,-9.9 24,-23.5 c 1.1,-1.2 1.1,-3.2 -0.1,-4.4 z"
   id="path40"
   style="fill:#009bdb" />
&#10;		<path
   class="st0"
   d="m 150.5,37.7 c -30.4,0 -55,24.6 -55,55 0,30.4 24.6,55 55,55 30.4,0 55,-24.6 55,-55 0,-30.4 -24.6,-55 -55,-55 z m 0,99 c -24.3,0 -44,-19.7 -44,-44 0,-24.3 19.7,-44 44,-44 24.3,0 44,19.7 44,44 0,24.3 -19.7,44 -44,44 z"
   id="path41"
   style="fill:#009bdb" />
&#10;	</g>
  </g>
</svg>
