<?xml version="1.0" encoding="utf-8"?>
<!-- Generator: Adobe Illustrator 27.1.1, SVG Export Plug-In . SVG Version: 6.00 Build 0)  -->
<svg version="1.1" id="Capa_1" xmlns="http://www.w3.org/2000/svg" xmlns:xlink="http://www.w3.org/1999/xlink" x="0px" y="0px"
	 viewBox="0 0 106 40.1" style="enable-background:new 0 0 106 40.1;" xml:space="preserve">
<style type="text/css">
	.st0{fill:#B90E7C;}
	.st1{fill:#0F9BD8;}
	.st2{fill:url(#SVGID_1_);}
	.st3{fill:url(#SVGID_00000111165377572040537160000012223389475563041664_);}
	.st4{fill:url(#SVGID_00000139273441844407172690000008015602877832297876_);}
	.st5{fill:url(#SVGID_00000082364791621426361940000001625397864425053847_);}
</style>
<g>
	<path class="st0" d="M26,26.5h1.6c0.1-0.5,0.1-1.1,0.1-1.6c0-7-5.7-12.6-12.6-12.6c-7,0-12.6,5.7-12.6,12.6c0,7,5.7,12.6,12.6,12.6
		c5.2,0,9.7-3.2,11.7-7.7H23c-1.7,2.7-4.6,4.5-8,4.5c-4.6,0-8.5-3.3-9.2-7.7L26,26.5L26,26.5z M15,15.5c4.6,0,8.5,3.4,9.2,7.8H5.8
		C6.6,18.8,10.4,15.5,15,15.5z"/>
	<g>
		<path class="st1" d="M41.5,12.2c-3.7,0-7.1,1.6-9.4,4.2V2.8h-3.2v21.5c0,0.2,0,0.4,0,0.6c0,7,5.7,12.6,12.6,12.6
			c7,0,12.6-5.7,12.6-12.6S48.5,12.2,41.5,12.2z M41.5,34.3c-5.2,0-9.4-4.2-9.4-9.4s4.2-9.4,9.4-9.4s9.4,4.2,9.4,9.4
			S46.7,34.3,41.5,34.3z"/>
		<path class="st1" d="M80.6,24.7c-0.1-6.9-5.7-12.5-12.6-12.5c-6.9,0-12.6,5.6-12.6,12.5h0v12.8h3.2V24.7l0,0
			c0.1-5.1,4.3-9.2,9.4-9.2s9.3,4.1,9.4,9.2l0,0v12.8h3.2L80.6,24.7L80.6,24.7z"/>
		<rect x="81.9" y="2.8" class="st1" width="3.2" height="34.7"/>
		<g>
			<polygon class="st1" points="87.5,23 85.1,25.1 99,37.5 103.8,37.5 			"/>
		</g>
		<linearGradient id="SVGID_1_" gradientUnits="userSpaceOnUse" x1="99.9927" y1="10.4299" x2="91.1126" y2="25.8106">
			<stop  offset="0.6198" style="stop-color:#0F9BD8"/>
			<stop  offset="1" style="stop-color:#0B7792"/>
		</linearGradient>
		<polygon class="st2" points="99.1,12.7 87.5,23 90,25.1 103.9,12.7 		"/>
		<g>
			
				<linearGradient id="SVGID_00000002359813761344538950000004677847587726115501_" gradientUnits="userSpaceOnUse" x1="28.8312" y1="24.6169" x2="28.8457" y2="24.6169">
				<stop  offset="0" style="stop-color:#0B7792"/>
				<stop  offset="0.2781" style="stop-color:#0F9BD8"/>
			</linearGradient>
			<path style="fill:url(#SVGID_00000002359813761344538950000004677847587726115501_);" d="M28.8,24.9v-0.6
				C28.8,24.5,28.8,24.7,28.8,24.9C28.8,24.9,28.8,24.9,28.8,24.9L28.8,24.9z"/>
			
				<linearGradient id="SVGID_00000075145270840882258050000003612890910232229512_" gradientUnits="userSpaceOnUse" x1="32.0899" y1="18.5831" x2="54.1118" y2="18.5831">
				<stop  offset="0" style="stop-color:#0B7792"/>
				<stop  offset="0.2781" style="stop-color:#0F9BD8"/>
			</linearGradient>
			<path style="fill:url(#SVGID_00000075145270840882258050000003612890910232229512_);" d="M32.1,24.9L32.1,24.9
				C32.1,24.9,32.1,24.9,32.1,24.9c0-5.2,4.2-9.4,9.4-9.4s9.4,4.2,9.4,9.4c0,0,0,0,0,0.1h3.3c0,0,0,0,0-0.1c0-7-5.7-12.6-12.6-12.6
				c-3.7,0-7.1,1.6-9.4,4.2V24.9z"/>
		</g>
	</g>
	
		<linearGradient id="SVGID_00000137854734080851638910000007482864043492088486_" gradientUnits="userSpaceOnUse" x1="5.6394" y1="24.8819" x2="24.3999" y2="24.8819">
		<stop  offset="0" style="stop-color:#6D1B58"/>
		<stop  offset="0.3459" style="stop-color:#B90E7C"/>
	</linearGradient>
	<path style="fill:url(#SVGID_00000137854734080851638910000007482864043492088486_);" d="M5.8,26.5h18.5c0.1-0.5,0.1-1.1,0.1-1.6
		c0-0.5,0-1.1-0.1-1.6H5.8c0,0,0,0,0,0h0c-0.1,0.5-0.1,1.1-0.1,1.6C5.6,25.4,5.7,26,5.8,26.5L5.8,26.5C5.8,26.5,5.8,26.5,5.8,26.5z"
		/>
</g>
</svg>
