<?xml version="1.0" encoding="UTF-8" standalone="no"?>
<!-- Created with Inkscape (http://www.inkscape.org/) -->

<svg
   width="200"
   height="200"
   viewBox="0 0 52.916665 52.916667"
   version="1.1"
   id="svg1"
   inkscape:version="1.3 (0e150ed, 2023-07-21)"
   sodipodi:docname="historial.svg"
   xmlns:inkscape="http://www.inkscape.org/namespaces/inkscape"
   xmlns:sodipodi="http://sodipodi.sourceforge.net/DTD/sodipodi-0.dtd"
   xmlns="http://www.w3.org/2000/svg"
   xmlns:svg="http://www.w3.org/2000/svg">
  <sodipodi:namedview
     id="namedview1"
     pagecolor="#ffffff"
     bordercolor="#000000"
     borderopacity="0.25"
     inkscape:showpageshadow="2"
     inkscape:pageopacity="0.0"
     inkscape:pagecheckerboard="0"
     inkscape:deskcolor="#d1d1d1"
     inkscape:document-units="px"
     showguides="false"
     inkscape:zoom="1.9752512"
     inkscape:cx="71.130192"
     inkscape:cy="103.02487"
     inkscape:window-width="1440"
     inkscape:window-height="784"
     inkscape:window-x="0"
     inkscape:window-y="25"
     inkscape:window-maximized="0"
     inkscape:current-layer="layer1" />
  <defs
     id="defs1" />
  <g
     inkscape:label="Capa 1"
     inkscape:groupmode="layer"
     id="layer1">
    <path
       class="st0"
       d="m 50.906992,26.542058 c 0,-13.414375 -10.874375,-24.2887499 -24.28875,-24.2887499 -13.414375,0 -24.3152078,10.8743749 -24.3152078,24.2887499 0,13.229166 10.5833328,23.971249 23.7331248,24.288749 h 1.11125 c 13.17625,-0.3175 23.759583,-11.059583 23.759583,-24.288749 z m -47.4397908,0 c 0,-12.779375 10.3716658,-23.1510419 23.1510408,-23.1510419 12.779375,0 23.151042,10.3716669 23.151042,23.1510419 0,12.779375 -10.371667,23.151041 -23.151042,23.151041 -12.805833,0 -23.1510408,-10.371666 -23.1510408,-23.151041 z"
       id="path1"
       style="fill:#009bdb;stroke-width:0.264583" />
    <path
       class="st0"
       d="m 29.766784,15.297266 c 0,1.772708 -1.42875,3.201458 -3.201458,3.201458 -1.772709,0 -3.201459,-1.42875 -3.201459,-3.201458 0,-1.772708 1.42875,-3.201458 3.201459,-3.201458 1.772708,0.02646 3.201458,1.455208 3.201458,3.201458 z m 7.3025,-0.343958 c -0.555625,-0.661458 -1.613959,-0.529167 -2.354792,0.05292 0,0 -0.820208,0.555624 -2.143125,1.561041 -1.508125,1.164167 -3.704166,2.54 -6.164791,2.566458 -2.196042,0 -4.365625,-1.455208 -5.87375,-2.645833 -1.243542,-0.978958 -2.116667,-1.613958 -2.116667,-1.613958 -0.767292,-0.529167 -1.666875,-0.635 -2.2225,0 -0.555625,0.661458 -0.502708,1.640416 0.15875,2.196041 0,0 0.661458,0.529167 1.640417,1.243542 1.322916,0.978958 3.175,2.328333 4.339166,3.677708 0.926042,1.058334 0.9525,2.143125 0.9525,2.725209 v 5.767916 8.916459 c 0,0.846666 0.687917,1.561041 1.561042,1.561041 0.846667,0 1.561042,-0.687916 1.561042,-1.561041 v -8.916459 h 0.423333 v 8.916459 c 0,0.846666 0.687917,1.561041 1.561042,1.561041 0.846666,0 1.561041,-0.687916 1.561041,-1.561041 v -8.916459 -5.662083 c 0,-0.79375 0.185209,-2.116667 1.27,-3.33375 1.058334,-1.164167 2.619375,-2.248958 3.81,-3.069167 1.084792,-0.767291 1.878542,-1.349375 1.878542,-1.349375 0.582083,-0.582083 0.714375,-1.481666 0.15875,-2.116666 z"
       id="path25"
       style="fill:#009bdb;stroke-width:0.264583" />
  </g>
</svg>
