<?xml version="1.0" encoding="UTF-8" standalone="no"?>
<!-- Created with Inkscape (http://www.inkscape.org/) -->

<svg
   version="1.1"
   id="svg1"
   width="97.840027"
   height="97.840088"
   viewBox="0 0 97.840029 97.840088"
   sodipodi:docname="boceto-bink-1.ai"
   xmlns:inkscape="http://www.inkscape.org/namespaces/inkscape"
   xmlns:sodipodi="http://sodipodi.sourceforge.net/DTD/sodipodi-0.dtd"
   xmlns="http://www.w3.org/2000/svg"
   xmlns:svg="http://www.w3.org/2000/svg">
  <defs
     id="defs1">
    <clipPath
       clipPathUnits="userSpaceOnUse"
       id="clipPath101">
      <path
         d="M 0,2490.482 H 1366.919 V 0 H 0 Z"
         transform="translate(-682.25042,-951.02342)"
         id="path101" />
    </clipPath>
    <clipPath
       clipPathUnits="userSpaceOnUse"
       id="clipPath103">
      <path
         d="M 0,2490.482 H 1366.919 V 0 H 0 Z"
         transform="translate(-691.91282,-975.1066)"
         id="path103" />
    </clipPath>
    <clipPath
       clipPathUnits="userSpaceOnUse"
       id="clipPath105">
      <path
         d="M 0,2490.482 H 1366.919 V 0 H 0 Z"
         transform="translate(-674.82392,-996.00955)"
         id="path105" />
    </clipPath>
    <clipPath
       clipPathUnits="userSpaceOnUse"
       id="clipPath107">
      <path
         d="M 0,2490.482 H 1366.919 V 0 H 0 Z"
         transform="translate(-674.82392,-992.36132)"
         id="path107" />
    </clipPath>
    <clipPath
       clipPathUnits="userSpaceOnUse"
       id="clipPath109">
      <path
         d="M 0,2490.482 H 1366.919 V 0 H 0 Z"
         transform="translate(-676.19771,-990.7996)"
         id="path109" />
    </clipPath>
    <clipPath
       clipPathUnits="userSpaceOnUse"
       id="clipPath111">
      <path
         d="M 0,2490.482 H 1366.919 V 0 H 0 Z"
         transform="translate(-689.83172,-987.14425)"
         id="path111" />
    </clipPath>
    <clipPath
       clipPathUnits="userSpaceOnUse"
       id="clipPath113">
      <path
         d="M 0,2490.482 H 1366.919 V 0 H 0 Z"
         transform="translate(-689.83172,-983.54642)"
         id="path113" />
    </clipPath>
    <clipPath
       clipPathUnits="userSpaceOnUse"
       id="clipPath115">
      <path
         d="M 0,2490.482 H 1366.919 V 0 H 0 Z"
         transform="translate(-689.83172,-979.8907)"
         id="path115" />
    </clipPath>
  </defs>
  <sodipodi:namedview
     id="namedview1"
     pagecolor="#ffffff"
     bordercolor="#000000"
     borderopacity="0.25"
     inkscape:showpageshadow="2"
     inkscape:pageopacity="0.0"
     inkscape:pagecheckerboard="0"
     inkscape:deskcolor="#d1d1d1" />
  <g
     id="layer-MC0"
     inkscape:groupmode="layer"
     inkscape:label="Capa 1"
     transform="translate(-860.74717,-1957.0835)">
    <path
       id="path100"
       d="m 0,0 c -19.305,0 -34.954,15.649 -34.954,34.954 0,19.305 15.649,34.954 34.954,34.954 19.305,0 34.954,-15.649 34.954,-34.954 C 34.954,15.649 19.305,0 0,0 m 0,71.644 c -20.263,0 -36.69,-16.427 -36.69,-36.69 0,-20.263 16.427,-36.69 36.69,-36.69 20.263,0 36.69,16.427 36.69,36.69 0,20.263 -16.427,36.69 -36.69,36.69"
       style="fill:#ffffff;fill-opacity:1;fill-rule:nonzero;stroke:none"
       transform="matrix(1.3333333,0,0,-1.3333333,909.6672,2052.6088)"
       clip-path="url(#clipPath101)" />
    <path
       id="path102"
       d="m 0,0 c -0.001,-0.776 -0.629,-1.401 -1.403,-1.403 h -13.87 -0.005 -2.637 c -0.774,0.002 -1.402,0.627 -1.403,1.403 v 15.006 c 0,10e-4 0,10e-4 0,10e-4 0,0.248 0,0.491 0,0.733 v 0.534 h -10e-4 c -0.003,4.859 -0.007,8.198 -0.007,8.198 0.002,0.775 0.629,1.404 1.404,1.404 h 9.224 v -5.13 c 0,-1.928 1.562,-3.49 3.491,-3.49 H 0 Z m 2.066,18.507 c -0.13,0.646 -0.451,1.269 -0.95,1.77 l -6.712,6.702 c -0.532,0.531 -1.2,0.854 -1.885,0.971 l -0.173,0.014 h -10.268 c -1.928,-10e-4 -3.491,-1.563 -3.491,-3.492 v -7.768 h 0.003 v -0.43 h -0.002 V 0 c 0.002,-1.929 1.563,-3.49 3.492,-3.49 h 0.005 2.047 0.59 0.005 13.87 c 1.929,0 3.49,1.561 3.491,3.49 v 18.299 z"
       style="fill:#ffffff;fill-opacity:1;fill-rule:nonzero;stroke:none"
       transform="matrix(1.3333333,0,0,-1.3333333,922.5504,2020.4979)"
       clip-path="url(#clipPath103)" />
    <path
       id="path104"
       d="M 0,0 H 6.52 V 2.087 H 0 C -0.577,2.087 -1.043,1.62 -1.043,1.043 -1.043,0.468 -0.577,0 0,0"
       style="fill:#ffffff;fill-opacity:1;fill-rule:nonzero;stroke:none"
       transform="matrix(1.3333333,0,0,-1.3333333,899.7652,1992.6273)"
       clip-path="url(#clipPath105)" />
    <path
       id="path106"
       d="M 0,0 H 7.214 C 6.778,0.582 6.521,1.304 6.52,2.087 H 0 C -0.577,2.087 -1.043,1.62 -1.043,1.043 -1.043,0.468 -0.577,0 0,0"
       style="fill:#ffffff;fill-opacity:1;fill-rule:nonzero;stroke:none"
       transform="matrix(1.3333333,0,0,-1.3333333,899.7652,1997.4916)"
       clip-path="url(#clipPath107)" />
    <path
       id="path108"
       d="m 0,0 h -1.374 c -0.577,0 -1.043,-0.467 -1.043,-1.044 0,-0.575 0.466,-1.043 1.043,-1.043 h 6.521 v 0 h 8.487 c 0.576,0 1.044,0.469 1.044,1.043 C 14.678,-0.467 14.21,0 13.634,0 H -0.001 C 0,0 0,0 0,0"
       style="fill:#ffffff;fill-opacity:1;fill-rule:nonzero;stroke:none"
       transform="matrix(1.3333333,0,0,-1.3333333,901.59693,1999.5739)"
       clip-path="url(#clipPath109)" />
    <path
       id="path110"
       d="m 0,0 h -13.635 c 10e-4,0 10e-4,0 10e-4,0 h -1.374 c -0.577,0 -1.043,-0.468 -1.043,-1.044 0,-0.575 0.466,-1.043 1.043,-1.043 h 6.521 v 0 H 0 c 0.576,0 1.044,0.468 1.044,1.043 C 1.044,-0.467 0.576,0 0,0"
       style="fill:#ffffff;fill-opacity:1;fill-rule:nonzero;stroke:none"
       transform="matrix(1.3333333,0,0,-1.3333333,919.7756,2004.4477)"
       clip-path="url(#clipPath111)" />
    <path
       id="path112"
       d="m 0,0 h -13.635 c 10e-4,0 10e-4,0 10e-4,0 h -1.374 c -0.577,0 -1.043,-0.468 -1.043,-1.044 0,-0.575 0.466,-1.043 1.043,-1.043 h 6.521 v 0 H 0 c 0.576,0 1.044,0.468 1.044,1.043 C 1.044,-0.467 0.576,0 0,0"
       style="fill:#ffffff;fill-opacity:1;fill-rule:nonzero;stroke:none"
       transform="matrix(1.3333333,0,0,-1.3333333,919.7756,2009.2448)"
       clip-path="url(#clipPath113)" />
    <path
       id="path114"
       d="m 0,0 h -13.635 c 10e-4,0 10e-4,0 10e-4,0 h -1.374 c -0.577,0 -1.043,-0.468 -1.043,-1.044 0,-0.575 0.466,-1.043 1.043,-1.043 h 6.521 v 0 H 0 c 0.576,0 1.044,0.468 1.044,1.043 C 1.044,-0.467 0.576,0 0,0"
       style="fill:#ffffff;fill-opacity:1;fill-rule:nonzero;stroke:none"
       transform="matrix(1.3333333,0,0,-1.3333333,919.7756,2014.1191)"
       clip-path="url(#clipPath115)" />
  </g>
</svg>
