<?xml version="1.0" encoding="UTF-8" standalone="no"?>
<!-- Created with Inkscape (http://www.inkscape.org/) -->

<svg
   version="1.1"
   id="svg1"
   width="97.839966"
   height="97.840088"
   viewBox="0 0 97.839968 97.840088"
   sodipodi:docname="boceto-bink-1.ai"
   xmlns:inkscape="http://www.inkscape.org/namespaces/inkscape"
   xmlns:sodipodi="http://sodipodi.sourceforge.net/DTD/sodipodi-0.dtd"
   xmlns="http://www.w3.org/2000/svg"
   xmlns:svg="http://www.w3.org/2000/svg">
  <defs
     id="defs1">
    <clipPath
       clipPathUnits="userSpaceOnUse"
       id="clipPath93">
      <path
         d="M 0,2490.482 H 1366.919 V 0 H 0 Z"
         transform="translate(-375.29491,-951.02342)"
         id="path93" />
    </clipPath>
    <clipPath
       clipPathUnits="userSpaceOnUse"
       id="clipPath95">
      <path
         d="M 0,2490.482 H 1366.919 V 0 H 0 Z"
         transform="translate(-363.95961,-972.99272)"
         id="path95" />
    </clipPath>
    <clipPath
       clipPathUnits="userSpaceOnUse"
       id="clipPath97">
      <path
         d="M 0,2490.482 H 1366.919 V 0 H 0 Z"
         transform="translate(-389.93251,-996.33242)"
         id="path97" />
    </clipPath>
  </defs>
  <sodipodi:namedview
     id="namedview1"
     pagecolor="#ffffff"
     bordercolor="#000000"
     borderopacity="0.25"
     inkscape:showpageshadow="2"
     inkscape:pageopacity="0.0"
     inkscape:pagecheckerboard="0"
     inkscape:deskcolor="#d1d1d1" />
  <g
     id="layer-MC0"
     inkscape:groupmode="layer"
     inkscape:label="Capa 1"
     transform="translate(-451.4732,-1957.0835)">
    <path
       id="path92"
       d="m 0,0 c -19.305,0 -34.954,15.649 -34.954,34.954 0,19.305 15.649,34.954 34.954,34.954 19.305,0 34.954,-15.649 34.954,-34.954 C 34.954,15.649 19.305,0 0,0 m 0,71.644 c -20.263,0 -36.69,-16.427 -36.69,-36.69 0,-20.263 16.427,-36.69 36.69,-36.69 20.263,0 36.69,16.427 36.69,36.69 0,20.263 -16.427,36.69 -36.69,36.69"
       style="fill:#ffffff;fill-opacity:1;fill-rule:nonzero;stroke:none"
       transform="matrix(1.3333333,0,0,-1.3333333,500.3932,2052.6088)"
       clip-path="url(#clipPath93)" />
    <path
       id="path94"
       d="m 0,0 -2.002,2.072 1.155,3.882 4.94,-5.107 z m -2.777,7.949 0.044,-0.045 -1.787,-10.091 10.501,1.082 0.034,-0.034 16.782,16.231 -8.791,9.09 z"
       style="fill:#ffffff;fill-opacity:1;fill-rule:nonzero;stroke:none"
       transform="matrix(1.3333333,0,0,-1.3333333,485.27947,2023.3164)"
       clip-path="url(#clipPath95)" />
    <path
       id="path96"
       d="M 0,0 -3.621,3.742 C -5.047,5.218 -7.162,5.49 -8.345,4.347 -9.525,3.204 -10.483,2.278 -10.483,2.278 l 8.792,-9.089 2.139,2.068 C 1.628,-3.601 1.429,-1.477 0,0"
       style="fill:#ffffff;fill-opacity:1;fill-rule:nonzero;stroke:none"
       transform="matrix(1.3333333,0,0,-1.3333333,519.91,1992.1968)"
       clip-path="url(#clipPath97)" />
  </g>
</svg>
