<?xml version="1.0" encoding="UTF-8" standalone="no"?>
<!-- Created with Inkscape (http://www.inkscape.org/) -->

<svg
   width="200"
   height="200"
   viewBox="0 0 52.916665 52.916667"
   version="1.1"
   id="svg1"
   inkscape:version="1.3 (0e150ed, 2023-07-21)"
   sodipodi:docname="identificacion.svg"
   xmlns:inkscape="http://www.inkscape.org/namespaces/inkscape"
   xmlns:sodipodi="http://sodipodi.sourceforge.net/DTD/sodipodi-0.dtd"
   xmlns="http://www.w3.org/2000/svg"
   xmlns:svg="http://www.w3.org/2000/svg">
  <sodipodi:namedview
     id="namedview1"
     pagecolor="#ffffff"
     bordercolor="#000000"
     borderopacity="0.25"
     inkscape:showpageshadow="2"
     inkscape:pageopacity="0.0"
     inkscape:pagecheckerboard="0"
     inkscape:deskcolor="#d1d1d1"
     inkscape:document-units="px"
     showguides="false"
     inkscape:zoom="1.9752512"
     inkscape:cx="71.130192"
     inkscape:cy="103.02487"
     inkscape:window-width="1440"
     inkscape:window-height="784"
     inkscape:window-x="0"
     inkscape:window-y="25"
     inkscape:window-maximized="0"
     inkscape:current-layer="layer1" />
  <defs
     id="defs1" />
  <g
     inkscape:label="Capa 1"
     inkscape:groupmode="layer"
     id="layer1">
    <path
       class="st0"
       d="m 50.790304,26.797318 c 0,-13.414375 -10.874375,-24.288749 -24.28875,-24.288749 -13.414375,0 -24.2887501,10.874374 -24.2887501,24.288749 0,13.229167 10.5833331,23.97125 23.7331251,24.28875 h 1.11125 c 13.149791,-0.3175 23.733125,-11.059583 23.733125,-24.28875 z m -47.4397917,0 c 0,-12.779375 10.3716667,-23.1510407 23.1510417,-23.1510407 12.779375,0 23.151041,10.3716657 23.151041,23.1510407 0,12.779375 -10.371666,23.151042 -23.151041,23.151042 -12.779375,0 -23.1510417,-10.371667 -23.1510417,-23.151042 z"
       id="path1"
       style="fill:#009bdb;stroke-width:0.264583" />
    <g
       id="g43"
       transform="matrix(0.26458333,0,0,0.26458333,-13.371154,2.270444)">&#10;		<circle
   class="st0"
   cx="150.7"
   cy="66"
   r="25.799999"
   id="circle42"
   style="fill:#009bdb" />
&#10;		<path
   class="st0"
   d="m 191.6,104.7 c 0,-9.5 -7.7,-17.1 -17.1,-17.1 h -2.2 c -5.5,5.5 -13.1,8.9 -21.5,8.9 -8.4,0 -16,-3.4 -21.5,-8.9 H 127 c -9.5,0 -17.1,7.7 -17.1,17.1 l -3,23.3 c 0,9.5 7.7,17.1 17.1,17.1 h 53.4 c 9.5,0 17.1,-7.7 17.1,-17.1 z"
   id="path43"
   style="fill:#009bdb" />
&#10;	</g>
  </g>
</svg>
