<?xml version="1.0" encoding="UTF-8" standalone="no"?>
<!-- Created with Inkscape (http://www.inkscape.org/) -->

<svg
   version="1.1"
   id="svg1"
   width="15.606629"
   height="15.606659"
   viewBox="0 0 15.60663 15.606659"
   sodipodi:docname="idioma.svg"
   inkscape:version="1.3 (0e150ed, 2023-07-21)"
   xmlns:inkscape="http://www.inkscape.org/namespaces/inkscape"
   xmlns:sodipodi="http://sodipodi.sourceforge.net/DTD/sodipodi-0.dtd"
   xmlns="http://www.w3.org/2000/svg"
   xmlns:svg="http://www.w3.org/2000/svg">
  <defs
     id="defs1">
    <clipPath
       clipPathUnits="userSpaceOnUse"
       id="clipPath27">
      <path
         d="M 0,679.471 H 1365.919 V 0 H 0 Z"
         transform="translate(-546.54502,-330.57251)"
         id="path27" />
    </clipPath>
  </defs>
  <sodipodi:namedview
     id="namedview1"
     pagecolor="#ffffff"
     bordercolor="#000000"
     borderopacity="0.25"
     inkscape:showpageshadow="2"
     inkscape:pageopacity="0.0"
     inkscape:pagecheckerboard="0"
     inkscape:deskcolor="#d1d1d1"
     inkscape:zoom="5.6571324"
     inkscape:cx="-7.2474881"
     inkscape:cy="11.843456"
     inkscape:window-width="1440"
     inkscape:window-height="449"
     inkscape:window-x="0"
     inkscape:window-y="25"
     inkscape:window-maximized="0"
     inkscape:current-layer="layer-MC0">
    <inkscape:page
       x="0.00056243595"
       y="-2.2414952e-06"
       width="15.606629"
       height="15.606659"
       id="page2"
       margin="0"
       bleed="0" />
  </sodipodi:namedview>
  <g
     id="layer-MC0"
     inkscape:groupmode="layer"
     inkscape:label="Capa 1"
     transform="translate(-720.06307,-450.01401)">
    <g
       id="g1145">
      <path
         id="path26"
         d="M 0,0 C 0.617,1.611 0.983,3.48 0.989,5.489 H 4.928 C 4.904,2.65 2.76,0.319 0,0 m -1.295,0.001 c -0.65,1.59 -1.034,3.466 -1.04,5.488 H 0.658 C 0.653,3.456 0.264,1.568 -0.392,-0.028 -0.477,-0.031 -0.56,-0.04 -0.646,-0.04 c -0.22,0 -0.436,0.016 -0.649,0.041 m -4.924,5.488 h 3.554 C -2.66,3.506 -2.302,1.659 -1.7,0.062 -4.26,0.553 -6.197,2.791 -6.219,5.489 M -1.7,11.008 C -2.276,9.48 -2.62,7.721 -2.654,5.835 h -3.552 c 0.137,2.583 2.027,4.698 4.506,5.173 m 1.308,0.09 C 0.236,9.57 0.61,7.77 0.646,5.835 h -2.969 c 0.036,1.924 0.406,3.713 1.028,5.235 0.213,0.025 0.429,0.041 0.649,0.041 0.086,0 0.169,-0.009 0.254,-0.013 M 4.915,5.835 H 0.977 C 0.943,7.747 0.591,9.529 0,11.071 2.677,10.761 4.77,8.558 4.915,5.835 m -5.561,5.553 c -3.232,0 -5.852,-2.62 -5.852,-5.853 0,-3.232 2.62,-5.852 5.852,-5.852 3.232,0 5.853,2.62 5.853,5.852 0,3.233 -2.621,5.853 -5.853,5.853"
         style="fill:#009bdb;fill-opacity:1;fill-rule:nonzero;stroke:none"
         transform="matrix(1.3333333,0,0,-1.3333333,728.72667,465.198)"
         clip-path="url(#clipPath27)" />
    </g>
  </g>
</svg>
