<?xml version="1.0" encoding="UTF-8" standalone="no"?>
<!-- Created with Inkscape (http://www.inkscape.org/) -->

<svg
   width="200"
   height="200"
   viewBox="0 0 52.916665 52.916667"
   version="1.1"
   id="svg1"
   inkscape:version="1.3 (0e150ed, 2023-07-21)"
   sodipodi:docname="ingresos.svg"
   xmlns:inkscape="http://www.inkscape.org/namespaces/inkscape"
   xmlns:sodipodi="http://sodipodi.sourceforge.net/DTD/sodipodi-0.dtd"
   xmlns="http://www.w3.org/2000/svg"
   xmlns:svg="http://www.w3.org/2000/svg">
  <sodipodi:namedview
     id="namedview1"
     pagecolor="#ffffff"
     bordercolor="#000000"
     borderopacity="0.25"
     inkscape:showpageshadow="2"
     inkscape:pageopacity="0.0"
     inkscape:pagecheckerboard="0"
     inkscape:deskcolor="#d1d1d1"
     inkscape:document-units="px"
     showguides="false"
     inkscape:zoom="1.9752512"
     inkscape:cx="71.130192"
     inkscape:cy="103.02487"
     inkscape:window-width="1440"
     inkscape:window-height="784"
     inkscape:window-x="0"
     inkscape:window-y="25"
     inkscape:window-maximized="0"
     inkscape:current-layer="layer1" />
  <defs
     id="defs1" />
  <g
     inkscape:label="Capa 1"
     inkscape:groupmode="layer"
     id="layer1">
    <path
       class="st0"
       d="m 51.004539,26.601729 c 0,-13.414375 -10.874375,-24.2887496 -24.28875,-24.2887496 -13.414375,0 -24.2887498,10.8743746 -24.2887498,24.2887496 0,13.229166 10.5833338,23.971249 23.7331248,24.288749 h 1.11125 c 13.149792,-0.3175 23.733125,-11.059583 23.733125,-24.288749 z m -47.4397918,0 c 0,-12.779375 10.3716668,-23.1510416 23.1510418,-23.1510416 12.779375,0 23.151042,10.3716666 23.151042,23.1510416 0,12.779375 -10.371667,23.151041 -23.151042,23.151041 -12.779375,0 -23.1510418,-10.371666 -23.1510418,-23.151041 z"
       id="path1"
       style="fill:#009bdb;stroke-width:0.264583" />
    <path
       class="st0"
       d="m 39.415789,21.706937 c 0,-1.296458 -1.058333,-2.354792 -2.38125,-2.354792 h -6.958541 -0.105834 v -4.365624 c 0,-1.296459 -1.058333,-2.354792 -2.38125,-2.354792 h -6.958541 -0.105834 c -0.47625,0.07937 -0.926041,0.291042 -1.27,0.661458 l -4.577291,4.524375 c -0.343959,0.343958 -0.555625,0.767292 -0.635,1.190625 l -0.02646,0.132292 v 12.329583 c 0,1.296458 1.058334,2.354792 2.38125,2.354792 h 7.064375 v 4.365625 c 0,1.296458 1.058334,2.354791 2.38125,2.354791 h 11.218333 c 1.296459,0 2.38125,-1.005416 2.354792,-2.275416 -0.02646,-9.260417 -0.02646,-0.02646 0,-9.2075 z m -13.096875,3.466042 h -0.820208 l 3.862917,-3.836459 v 0.820209 2.090208 c 0,0.529167 -0.423334,0.9525 -0.9525,0.9525 v 0 H 26.318914 Z M 19.915998,14.616104 v 0.820208 2.090208 c 0,0.529167 -0.423334,0.9525 -0.9525,0.9525 v 0 h -2.090209 -0.820208 z m 4.206875,9.921875 c -0.343959,0.343958 -0.555625,0.767291 -0.635,1.190625 l -0.02646,0.132291 v 6.561667 h -7.064375 c -0.529166,0 -0.9525,-0.423333 -0.9525,-0.9525 V 19.828395 h 3.545417 c 1.296458,0 2.38125,-1.058333 2.38125,-2.354791 v -3.439583 h 6.270625 c 0.529167,0 0.9525,0.423333 0.9525,0.9525 v 5.132916 z m 13.864166,4.497916 c -0.02646,9.260417 -0.02646,-0.02646 0,9.260417 0,0.47625 -0.449792,0.846667 -0.9525,0.846667 H 25.816206 c -0.529167,0 -0.9525,-0.423334 -0.9525,-0.9525 V 26.548812 h 3.545417 c 1.296458,0 2.38125,-1.058333 2.38125,-2.354792 v -3.439583 h 6.270624 c 0.529167,0 0.9525,0.423333 0.9525,0.9525 v 7.328958 z"
       id="path23"
       style="fill:#009bdb;stroke-width:0.264583" />
  </g>
</svg>
