<?xml version="1.0" encoding="UTF-8" standalone="no"?>
<!-- Created with Inkscape (http://www.inkscape.org/) -->

<svg
   version="1.1"
   id="svg1"
   width="15.608032"
   height="15.606628"
   viewBox="0 0 15.608032 15.606628"
   sodipodi:docname="password.svg"
   inkscape:version="1.3 (0e150ed, 2023-07-21)"
   xmlns:inkscape="http://www.inkscape.org/namespaces/inkscape"
   xmlns:sodipodi="http://sodipodi.sourceforge.net/DTD/sodipodi-0.dtd"
   xmlns="http://www.w3.org/2000/svg"
   xmlns:svg="http://www.w3.org/2000/svg">
  <defs
     id="defs1">
    <clipPath
       clipPathUnits="userSpaceOnUse"
       id="clipPath29">
      <path
         d="M 0,679.471 H 1365.919 V 0 H 0 Z"
         transform="translate(-545.89931,-247.53761)"
         id="path29" />
    </clipPath>
    <clipPath
       clipPathUnits="userSpaceOnUse"
       id="clipPath31">
      <path
         d="M 0,679.471 H 1365.919 V 0 H 0 Z"
         transform="translate(-548.17051,-254.31791)"
         id="path31" />
    </clipPath>
  </defs>
  <sodipodi:namedview
     id="namedview1"
     pagecolor="#ffffff"
     bordercolor="#000000"
     borderopacity="0.25"
     inkscape:showpageshadow="2"
     inkscape:pageopacity="0.0"
     inkscape:pagecheckerboard="0"
     inkscape:deskcolor="#d1d1d1"
     inkscape:zoom="7.9187039"
     inkscape:cx="5.0513317"
     inkscape:cy="4.9250484"
     inkscape:window-width="1440"
     inkscape:window-height="449"
     inkscape:window-x="0"
     inkscape:window-y="25"
     inkscape:window-maximized="0"
     inkscape:current-layer="layer-MC0">
    <inkscape:page
       x="-0.00040670673"
       y="1.4538494e-05"
       width="15.608032"
       height="15.606628"
       id="page2"
       margin="0"
       bleed="0" />
  </sodipodi:namedview>
  <g
     id="layer-MC0"
     inkscape:groupmode="layer"
     inkscape:label="Capa 1"
     transform="translate(-720.06112,-560.67389)">
    <g
       id="g1146">
      <path
         id="path28"
         d="m 0,0 c -3.079,0 -5.576,2.496 -5.576,5.576 0,3.079 2.497,5.575 5.576,5.575 3.079,0 5.576,-2.496 5.576,-5.575 C 5.576,2.496 3.079,0 0,0 m 0,11.428 c -3.232,0 -5.853,-2.62 -5.853,-5.852 0,-3.233 2.621,-5.853 5.853,-5.853 3.232,0 5.853,2.62 5.853,5.853 0,3.232 -2.621,5.852 -5.853,5.852"
         style="fill:#009bdb;fill-opacity:1;fill-rule:nonzero;stroke:none"
         transform="matrix(1.3333333,0,0,-1.3333333,727.86573,575.9112)"
         clip-path="url(#clipPath29)" />
      <path
         id="path30"
         d="m 0,0 c -0.134,0 -0.282,-0.031 -0.444,-0.092 -0.162,-0.061 -0.259,-0.103 -0.292,-0.126 -0.057,-0.022 -0.146,-0.063 -0.268,-0.125 -0.124,-0.061 -0.257,-0.126 -0.402,-0.193 -0.145,-0.066 -0.282,-0.128 -0.41,-0.184 -0.129,-0.055 -0.215,-0.095 -0.26,-0.117 l 0.151,1.975 c 0,0.223 -0.058,0.377 -0.175,0.46 -0.117,0.084 -0.233,0.126 -0.343,0.126 -0.158,0 -0.286,-0.053 -0.385,-0.159 -0.101,-0.106 -0.151,-0.237 -0.151,-0.394 0,-0.1 0.008,-0.239 0.025,-0.417 0.016,-0.179 0.033,-0.369 0.05,-0.57 0.017,-0.2 0.036,-0.393 0.058,-0.577 0.023,-0.185 0.039,-0.333 0.051,-0.444 -0.436,0.201 -0.778,0.358 -1.03,0.469 -0.25,0.111 -0.446,0.195 -0.585,0.251 -0.14,0.055 -0.24,0.089 -0.302,0.101 C -4.774,-0.005 -4.832,0 -4.887,0 c -0.09,0 -0.193,-0.042 -0.31,-0.125 -0.117,-0.084 -0.176,-0.216 -0.176,-0.393 0,-0.158 0.076,-0.294 0.226,-0.411 0.151,-0.117 0.471,-0.226 0.963,-0.326 0.044,-0.012 0.12,-0.028 0.226,-0.051 0.105,-0.022 0.222,-0.047 0.351,-0.075 0.128,-0.027 0.248,-0.053 0.36,-0.076 0.112,-0.021 0.19,-0.039 0.234,-0.049 -0.112,-0.112 -0.249,-0.257 -0.41,-0.435 -0.162,-0.179 -0.321,-0.36 -0.477,-0.544 -0.156,-0.185 -0.291,-0.357 -0.401,-0.519 -0.112,-0.162 -0.168,-0.293 -0.168,-0.394 0,-0.1 0.048,-0.209 0.142,-0.326 0.095,-0.117 0.232,-0.176 0.411,-0.176 0.066,0 0.13,0.014 0.192,0.042 0.061,0.028 0.103,0.053 0.125,0.075 0.045,0.045 0.089,0.098 0.134,0.16 0.044,0.061 0.106,0.152 0.184,0.276 0.078,0.123 0.182,0.295 0.31,0.518 0.128,0.224 0.304,0.525 0.528,0.904 0.078,-0.144 0.192,-0.346 0.343,-0.602 0.15,-0.257 0.354,-0.569 0.61,-0.937 0.156,-0.224 0.279,-0.352 0.369,-0.385 0.089,-0.034 0.161,-0.051 0.217,-0.051 0.145,0 0.27,0.051 0.376,0.151 0.107,0.1 0.159,0.223 0.159,0.368 0,0.056 -0.013,0.117 -0.041,0.185 -0.028,0.066 -0.092,0.164 -0.193,0.292 -0.1,0.128 -0.248,0.302 -0.443,0.519 -0.195,0.217 -0.46,0.511 -0.795,0.879 0.535,0.1 0.957,0.189 1.264,0.267 0.306,0.078 0.538,0.154 0.694,0.226 0.156,0.073 0.256,0.149 0.302,0.227 0.044,0.078 0.066,0.167 0.066,0.268 0,0.188 -0.061,0.323 -0.183,0.401 C 0.178,-0.039 0.078,0 0,0"
         style="fill:#009bdb;fill-opacity:1;fill-rule:nonzero;stroke:none"
         transform="matrix(1.3333333,0,0,-1.3333333,730.894,566.8708)"
         clip-path="url(#clipPath31)" />
    </g>
  </g>
</svg>
