<?xml version="1.0" encoding="UTF-8" standalone="no"?>
<!-- Created with Inkscape (http://www.inkscape.org/) -->

<svg
   version="1.1"
   id="svg1"
   width="14.020081"
   height="16.631287"
   viewBox="0 0 14.020081 16.631287"
   sodipodi:docname="privacidad.svg"
   inkscape:version="1.3 (0e150ed, 2023-07-21)"
   xmlns:inkscape="http://www.inkscape.org/namespaces/inkscape"
   xmlns:sodipodi="http://sodipodi.sourceforge.net/DTD/sodipodi-0.dtd"
   xmlns="http://www.w3.org/2000/svg"
   xmlns:svg="http://www.w3.org/2000/svg">
  <defs
     id="defs1">
    <clipPath
       clipPathUnits="userSpaceOnUse"
       id="clipPath33">
      <path
         d="M 0,679.471 H 1365.919 V 0 H 0 Z"
         transform="translate(-541.68352,-221.00251)"
         id="path33" />
    </clipPath>
  </defs>
  <sodipodi:namedview
     id="namedview1"
     pagecolor="#ffffff"
     bordercolor="#000000"
     borderopacity="0.25"
     inkscape:showpageshadow="2"
     inkscape:pageopacity="0.0"
     inkscape:pagecheckerboard="0"
     inkscape:deskcolor="#d1d1d1"
     inkscape:zoom="5.1545195"
     inkscape:cx="-20.758482"
     inkscape:cy="5.6261307"
     inkscape:window-width="1440"
     inkscape:window-height="449"
     inkscape:window-x="0"
     inkscape:window-y="25"
     inkscape:window-maximized="0"
     inkscape:current-layer="layer-MC0">
    <inkscape:page
       x="0.00039725858"
       y="-1.4250715e-05"
       width="14.020081"
       height="16.631287"
       id="page2"
       margin="0"
       bleed="0" />
  </sodipodi:namedview>
  <g
     id="layer-MC0"
     inkscape:groupmode="layer"
     inkscape:label="Capa 1"
     transform="translate(-720.54159,-602.97937)">
    <g
       id="g1147">
      <path
         id="path32"
         d="M 0,0 H 3.969 V 5.033 L 3.981,5.043 4.138,4.899 C 5.223,3.903 6.58,3.249 8.037,3.02 L 8.233,2.989 V 1.872 C 8.233,1.245 8.138,0.617 7.962,0 H 3.969 V -5.153 L 3.849,-5.07 C 1.898,-3.727 0.545,-1.915 0,0 M 8.703,3.948 C 7.062,4.078 5.531,4.824 4.42,6.034 4.211,6.275 3.845,6.302 3.602,6.094 3.581,6.075 3.56,6.055 3.542,6.034 2.431,4.824 0.9,4.078 -0.741,3.948 -1.046,3.92 -1.279,3.664 -1.276,3.359 V 1.872 c 0,-3.231 2.065,-6.188 4.934,-8.017 0.197,-0.126 0.45,-0.126 0.647,0 2.868,1.83 4.934,4.786 4.934,8.017 V 3.359 C 9.241,3.664 9.009,3.92 8.703,3.948"
         style="fill:#009bdb;fill-opacity:1;fill-rule:evenodd;stroke:none"
         transform="matrix(1.3333333,0,0,-1.3333333,722.24467,611.29133)"
         clip-path="url(#clipPath33)" />
    </g>
  </g>
</svg>
