<?xml version="1.0" encoding="utf-8"?>
<!-- Generator: Adobe Illustrator 27.1.1, SVG Export Plug-In . SVG Version: 6.00 Build 0)  -->
<svg version="1.1" id="Capa_1" xmlns="http://www.w3.org/2000/svg" xmlns:xlink="http://www.w3.org/1999/xlink" x="0px" y="0px"
	 viewBox="0 0 300 300" style="enable-background:new 0 0 300 300;" xml:space="preserve">
<style type="text/css">
	.st0{fill:#F7F7F8;}
	.st1{fill-rule:evenodd;clip-rule:evenodd;fill:#F7F7F8;}
</style>
<g>
	<g>
		<path class="st0" d="M297,148.8C297,67.3,231,1.3,149.5,1.3S2,67.3,2,148.8c0,80.3,64.2,145.6,144.1,147.4h6.8
			C232.8,294.4,297,229.1,297,148.8z M9,148.8C9,71.2,71.9,8.2,149.5,8.2C227.1,8.2,290,71.2,290,148.8s-62.9,140.5-140.5,140.5
			C71.9,289.3,9,226.4,9,148.8z"/>
	</g>
	<g>
		<path class="st1" d="M221.3,135.9c0,4.8-3.9,8.7-8.7,8.7h-4.5c-7,0-12.8-5.7-12.8-12.8V123l-10.3-45.4h23.8l12.5,45.7V135.9z
			 M212.7,216h-15.1v-54.1h-45.4V216H82.9v-67h4.5c6.2,0,11.9-3.4,14.9-8.8c3,5.4,8.7,8.8,14.9,8.8h0.4c6.2,0,11.9-3.4,14.9-8.8
			c3,5.4,8.7,8.8,14.9,8.8h0.4c6.2,0,11.9-3.4,14.9-8.8c3,5.4,8.7,8.8,14.9,8.8h0.4c6.2,0,11.9-3.4,14.9-8.8c3,5.4,8.7,8.8,14.9,8.8
			h4.5V216z M156.5,216v-49.7h36.8V216H156.5z M100.2,123v8.9c0,7-5.7,12.8-12.8,12.8h-4.5c-4.8,0-8.7-3.9-8.7-8.7v-12.7l12.5-45.7
			h23.8l-10.2,44.9L100.2,123z M134.6,77.5l-4.1,45.4v8.9c0,7-5.7,12.8-12.8,12.8h-0.4c-7,0-12.8-5.7-12.8-12.8v-8.6l10.4-45.7
			H134.6z M160.8,131.8c0,7-5.7,12.8-12.8,12.8h-0.4c-7,0-12.8-5.7-12.8-12.8v-8.8l4.1-45.5h17.7l4.1,45.4V131.8z M165.1,122.8
			L161,77.5h19.7l10.4,45.7v8.6c0,7-5.7,12.8-12.8,12.8h-0.4c-7,0-12.8-5.7-12.8-12.8V123V122.8z M212.2,73.2H83.4L70,122.4
			l-0.1,13.5c0,5.5,3.5,10.4,8.7,12.2v72.1H217v-72.1c5.2-1.8,8.6-6.7,8.7-12.2v-13L212.2,73.2z"/>
		<path class="st1" d="M103,165.6h27.6v28.7H103V165.6z M98.8,198.7h36v-37.5h-36V198.7z"/>
	</g>
</g>
</svg>
