<?xml version="1.0" encoding="UTF-8" standalone="no"?>
<!-- Created with Inkscape (http://www.inkscape.org/) -->

<svg
   width="130"
   height="130"
   viewBox="0 0 34.395832 34.395832"
   version="1.1"
   id="svg1"
   inkscape:version="1.3 (0e150ed, 2023-07-21)"
   sodipodi:docname="solicitud.svg"
   xmlns:inkscape="http://www.inkscape.org/namespaces/inkscape"
   xmlns:sodipodi="http://sodipodi.sourceforge.net/DTD/sodipodi-0.dtd"
   xmlns="http://www.w3.org/2000/svg"
   xmlns:svg="http://www.w3.org/2000/svg">
  <sodipodi:namedview
     id="namedview1"
     pagecolor="#ffffff"
     bordercolor="#000000"
     borderopacity="0.25"
     inkscape:showpageshadow="2"
     inkscape:pageopacity="0.0"
     inkscape:pagecheckerboard="false"
     inkscape:deskcolor="#d1d1d1"
     inkscape:document-units="px"
     inkscape:zoom="2.0442811"
     inkscape:cx="43.780672"
     inkscape:cy="88.784268"
     inkscape:window-width="1440"
     inkscape:window-height="784"
     inkscape:window-x="0"
     inkscape:window-y="25"
     inkscape:window-maximized="0"
     inkscape:current-layer="layer1" />
  <defs
     id="defs1" />
  <g
     inkscape:label="Capa 1"
     inkscape:groupmode="layer"
     id="layer1">
    <path
       class="st0"
       d="m 17.206987,1.4661944 c -8.6254161,0 -15.6104157,6.9849997 -15.6104157,15.6104156 0,8.625416 6.9849996,15.610416 15.6104157,15.610416 8.625416,0 15.610416,-6.985 15.610416,-15.610416 0,-8.6254159 -7.011458,-15.6104156 -15.610416,-15.6104156 z m 0,30.4535396 c -8.2020827,0 -14.8695824,-6.641041 -14.8695824,-14.869582 0,-8.2285409 6.6674997,-14.8431243 14.8695824,-14.8431243 8.202083,0 14.869583,6.6410414 14.869583,14.8695823 0,8.228541 -6.6675,14.843124 -14.869583,14.843124 z"
       id="path85"
       style="fill:#f7f7f8;stroke-width:0.264583" />
    <g
       id="g87"
       transform="matrix(0.26458332,0,0,0.26458332,-36.265302,-18.165888)">&#10;		<path
   class="st0"
   d="m 179.4,141.2 v 0 l -2.8,16.3 16.9,-1.7 0.1,0.1 27,-26.1 -14.1,-14.6 z m 4.5,12.8 -3.2,-3.3 1.9,-6.2 7.9,8.2 z"
   id="path86"
   style="fill:#f7f7f8" />
&#10;		<path
   class="st0"
   d="m 225.6,116.5 -5.8,-6 c -2.3,-2.4 -5.7,-2.8 -7.6,-1 -1.9,1.8 -3.4,3.3 -3.4,3.3 l 14.1,14.6 3.4,-3.3 c 1.9,-1.8 1.6,-5.2 -0.7,-7.6 z"
   id="path87"
   style="fill:#f7f7f8" />
&#10;	</g>
  </g>
</svg>
