<?xml version="1.0" encoding="UTF-8" standalone="no"?>
<!-- Created with Inkscape (http://www.inkscape.org/) -->

<svg
   version="1.1"
   id="svg1"
   width="246.69922"
   height="155.36533"
   viewBox="0 0 246.69922 155.36533"
   sodipodi:docname="boceto-bink-1.ai"
   xmlns:inkscape="http://www.inkscape.org/namespaces/inkscape"
   xmlns:sodipodi="http://sodipodi.sourceforge.net/DTD/sodipodi-0.dtd"
   xmlns="http://www.w3.org/2000/svg"
   xmlns:svg="http://www.w3.org/2000/svg">
  <defs
     id="defs1">
    <clipPath
       clipPathUnits="userSpaceOnUse"
       id="clipPath874">
      <path
         d="M 0,654.027 H 1365.919 V 0 H 0 Z"
         transform="translate(-636.21702,-363.24181)"
         id="path874" />
    </clipPath>
    <mask
       maskUnits="userSpaceOnUse"
       x="0"
       y="0"
       width="1"
       height="1"
       id="mask874">
      <path
         id="path875"
         d="M -32768,32767 H 32767 V -32768 H -32768 Z"
         style="fill:url(#linearGradient875);stroke:none" />
    </mask>
    <linearGradient
       x1="0"
       y1="0"
       x2="1"
       y2="0"
       gradientUnits="userSpaceOnUse"
       gradientTransform="matrix(185.02225,0,0,-185.02225,591.22736,359.84882)"
       spreadMethod="pad"
       id="linearGradient875">
      <stop
         style="stop-opacity:0.04998856;stop-color:#ffffff"
         offset="0"
         id="stop874" />
      <stop
         style="stop-opacity:0.6;stop-color:#ffffff"
         offset="1"
         id="stop875" />
    </linearGradient>
    <linearGradient
       x1="0"
       y1="0"
       x2="1"
       y2="0"
       gradientUnits="userSpaceOnUse"
       gradientTransform="matrix(185.02225,0,0,-185.02225,591.22736,359.84882)"
       spreadMethod="pad"
       id="linearGradient877">
      <stop
         style="stop-opacity:1;stop-color:#009bdb"
         offset="0"
         id="stop876" />
      <stop
         style="stop-opacity:1;stop-color:#009bdb"
         offset="1"
         id="stop877" />
    </linearGradient>
    <clipPath
       clipPathUnits="userSpaceOnUse"
       id="clipPath878">
      <path
         d="m 599.753,418.11 c -4.708,0 -8.526,-3.816 -8.526,-8.524 v 0 -99.475 c 0,-4.708 3.818,-8.524 8.526,-8.524 v 0 h 167.971 c 4.708,0 8.526,3.816 8.526,8.524 v 0 99.475 c 0,4.708 -3.818,8.524 -8.526,8.524 v 0 z"
         transform="matrix(1.3333333,0,0,-1.3333333,18412.267,872.036)"
         id="path878" />
    </clipPath>
    <linearGradient
       x1="0"
       y1="0"
       x2="1"
       y2="0"
       gradientUnits="userSpaceOnUse"
       gradientTransform="matrix(-19.921457,20.253477,20.253477,19.921457,631.03345,358.32541)"
       spreadMethod="pad"
       id="linearGradient884">
      <stop
         style="stop-opacity:1;stop-color:#6d6d6d"
         offset="0"
         id="stop878" />
      <stop
         style="stop-opacity:1;stop-color:#b4b4b4"
         offset="0.238806"
         id="stop879" />
      <stop
         style="stop-opacity:1;stop-color:#e8e8e8"
         offset="0.40796"
         id="stop880" />
      <stop
         style="stop-opacity:1;stop-color:#ffffff"
         offset="0.597015"
         id="stop881" />
      <stop
         style="stop-opacity:1;stop-color:#cccccc"
         offset="0.776119"
         id="stop882" />
      <stop
         style="stop-opacity:1;stop-color:#3b3b3b"
         offset="0.980099"
         id="stop883" />
      <stop
         style="stop-opacity:1;stop-color:#3b3b3b"
         offset="1"
         id="stop884" />
    </linearGradient>
    <linearGradient
       x1="0"
       y1="0"
       x2="1"
       y2="0"
       gradientUnits="userSpaceOnUse"
       gradientTransform="matrix(-19.872066,20.203262,20.203262,19.872066,631.96008,359.64603)"
       spreadMethod="pad"
       id="linearGradient891">
      <stop
         style="stop-opacity:1;stop-color:#6d6d6d"
         offset="0"
         id="stop885" />
      <stop
         style="stop-opacity:1;stop-color:#b4b4b4"
         offset="0.238806"
         id="stop886" />
      <stop
         style="stop-opacity:1;stop-color:#e8e8e8"
         offset="0.40796"
         id="stop887" />
      <stop
         style="stop-opacity:1;stop-color:#ffffff"
         offset="0.597015"
         id="stop888" />
      <stop
         style="stop-opacity:1;stop-color:#cccccc"
         offset="0.776119"
         id="stop889" />
      <stop
         style="stop-opacity:1;stop-color:#3b3b3b"
         offset="0.980099"
         id="stop890" />
      <stop
         style="stop-opacity:1;stop-color:#3b3b3b"
         offset="1"
         id="stop891" />
    </linearGradient>
    <linearGradient
       x1="0"
       y1="0"
       x2="1"
       y2="0"
       gradientUnits="userSpaceOnUse"
       gradientTransform="matrix(-19.788727,20.118536,20.118536,19.788727,636.15118,364.23544)"
       spreadMethod="pad"
       id="linearGradient898">
      <stop
         style="stop-opacity:1;stop-color:#6d6d6d"
         offset="0"
         id="stop892" />
      <stop
         style="stop-opacity:1;stop-color:#b4b4b4"
         offset="0.238806"
         id="stop893" />
      <stop
         style="stop-opacity:1;stop-color:#e8e8e8"
         offset="0.40796"
         id="stop894" />
      <stop
         style="stop-opacity:1;stop-color:#ffffff"
         offset="0.597015"
         id="stop895" />
      <stop
         style="stop-opacity:1;stop-color:#cccccc"
         offset="0.776119"
         id="stop896" />
      <stop
         style="stop-opacity:1;stop-color:#3b3b3b"
         offset="0.980099"
         id="stop897" />
      <stop
         style="stop-opacity:1;stop-color:#3b3b3b"
         offset="1"
         id="stop898" />
    </linearGradient>
    <linearGradient
       x1="0"
       y1="0"
       x2="1"
       y2="0"
       gradientUnits="userSpaceOnUse"
       gradientTransform="matrix(-19.972456,20.305325,20.305325,19.972456,628.58862,355.4845)"
       spreadMethod="pad"
       id="linearGradient905">
      <stop
         style="stop-opacity:1;stop-color:#6d6d6d"
         offset="0"
         id="stop899" />
      <stop
         style="stop-opacity:1;stop-color:#b4b4b4"
         offset="0.238806"
         id="stop900" />
      <stop
         style="stop-opacity:1;stop-color:#e8e8e8"
         offset="0.40796"
         id="stop901" />
      <stop
         style="stop-opacity:1;stop-color:#ffffff"
         offset="0.597015"
         id="stop902" />
      <stop
         style="stop-opacity:1;stop-color:#cccccc"
         offset="0.776119"
         id="stop903" />
      <stop
         style="stop-opacity:1;stop-color:#3b3b3b"
         offset="0.980099"
         id="stop904" />
      <stop
         style="stop-opacity:1;stop-color:#3b3b3b"
         offset="1"
         id="stop905" />
    </linearGradient>
    <linearGradient
       x1="0"
       y1="0"
       x2="1"
       y2="0"
       gradientUnits="userSpaceOnUse"
       gradientTransform="matrix(-19.97002,20.302851,20.302851,19.97002,640.01794,368.19873)"
       spreadMethod="pad"
       id="linearGradient912">
      <stop
         style="stop-opacity:1;stop-color:#6d6d6d"
         offset="0"
         id="stop906" />
      <stop
         style="stop-opacity:1;stop-color:#b4b4b4"
         offset="0.238806"
         id="stop907" />
      <stop
         style="stop-opacity:1;stop-color:#e8e8e8"
         offset="0.40796"
         id="stop908" />
      <stop
         style="stop-opacity:1;stop-color:#ffffff"
         offset="0.597015"
         id="stop909" />
      <stop
         style="stop-opacity:1;stop-color:#cccccc"
         offset="0.776119"
         id="stop910" />
      <stop
         style="stop-opacity:1;stop-color:#3b3b3b"
         offset="0.980099"
         id="stop911" />
      <stop
         style="stop-opacity:1;stop-color:#3b3b3b"
         offset="1"
         id="stop912" />
    </linearGradient>
    <linearGradient
       x1="0"
       y1="0"
       x2="1"
       y2="0"
       gradientUnits="userSpaceOnUse"
       gradientTransform="matrix(-20.627075,20.970856,20.970856,20.627075,633.06067,359.68503)"
       spreadMethod="pad"
       id="linearGradient919">
      <stop
         style="stop-opacity:1;stop-color:#6d6d6d"
         offset="0"
         id="stop913" />
      <stop
         style="stop-opacity:1;stop-color:#b4b4b4"
         offset="0.238806"
         id="stop914" />
      <stop
         style="stop-opacity:1;stop-color:#e8e8e8"
         offset="0.40796"
         id="stop915" />
      <stop
         style="stop-opacity:1;stop-color:#ffffff"
         offset="0.597015"
         id="stop916" />
      <stop
         style="stop-opacity:1;stop-color:#cccccc"
         offset="0.776119"
         id="stop917" />
      <stop
         style="stop-opacity:1;stop-color:#3b3b3b"
         offset="0.980099"
         id="stop918" />
      <stop
         style="stop-opacity:1;stop-color:#3b3b3b"
         offset="1"
         id="stop919" />
    </linearGradient>
    <linearGradient
       x1="0"
       y1="0"
       x2="1"
       y2="0"
       gradientUnits="userSpaceOnUse"
       gradientTransform="matrix(-19.970625,20.303465,20.303465,19.970625,636.95532,364.47412)"
       spreadMethod="pad"
       id="linearGradient926">
      <stop
         style="stop-opacity:1;stop-color:#6d6d6d"
         offset="0"
         id="stop920" />
      <stop
         style="stop-opacity:1;stop-color:#b4b4b4"
         offset="0.238806"
         id="stop921" />
      <stop
         style="stop-opacity:1;stop-color:#e8e8e8"
         offset="0.40796"
         id="stop922" />
      <stop
         style="stop-opacity:1;stop-color:#ffffff"
         offset="0.597015"
         id="stop923" />
      <stop
         style="stop-opacity:1;stop-color:#cccccc"
         offset="0.776119"
         id="stop924" />
      <stop
         style="stop-opacity:1;stop-color:#3b3b3b"
         offset="0.980099"
         id="stop925" />
      <stop
         style="stop-opacity:1;stop-color:#3b3b3b"
         offset="1"
         id="stop926" />
    </linearGradient>
    <linearGradient
       x1="0"
       y1="0"
       x2="1"
       y2="0"
       gradientUnits="userSpaceOnUse"
       gradientTransform="matrix(-19.75132,20.080503,20.080503,19.75132,638.62781,366.56403)"
       spreadMethod="pad"
       id="linearGradient933">
      <stop
         style="stop-opacity:1;stop-color:#6d6d6d"
         offset="0"
         id="stop927" />
      <stop
         style="stop-opacity:1;stop-color:#b4b4b4"
         offset="0.238806"
         id="stop928" />
      <stop
         style="stop-opacity:1;stop-color:#e8e8e8"
         offset="0.40796"
         id="stop929" />
      <stop
         style="stop-opacity:1;stop-color:#ffffff"
         offset="0.597015"
         id="stop930" />
      <stop
         style="stop-opacity:1;stop-color:#cccccc"
         offset="0.776119"
         id="stop931" />
      <stop
         style="stop-opacity:1;stop-color:#3b3b3b"
         offset="0.980099"
         id="stop932" />
      <stop
         style="stop-opacity:1;stop-color:#3b3b3b"
         offset="1"
         id="stop933" />
    </linearGradient>
    <linearGradient
       x1="0"
       y1="0"
       x2="1"
       y2="0"
       gradientUnits="userSpaceOnUse"
       gradientTransform="matrix(-19.752005,20.0812,20.0812,19.752005,626.72107,353.59204)"
       spreadMethod="pad"
       id="linearGradient940">
      <stop
         style="stop-opacity:1;stop-color:#6d6d6d"
         offset="0"
         id="stop934" />
      <stop
         style="stop-opacity:1;stop-color:#b4b4b4"
         offset="0.238806"
         id="stop935" />
      <stop
         style="stop-opacity:1;stop-color:#e8e8e8"
         offset="0.40796"
         id="stop936" />
      <stop
         style="stop-opacity:1;stop-color:#ffffff"
         offset="0.597015"
         id="stop937" />
      <stop
         style="stop-opacity:1;stop-color:#cccccc"
         offset="0.776119"
         id="stop938" />
      <stop
         style="stop-opacity:1;stop-color:#3b3b3b"
         offset="0.980099"
         id="stop939" />
      <stop
         style="stop-opacity:1;stop-color:#3b3b3b"
         offset="1"
         id="stop940" />
    </linearGradient>
    <linearGradient
       x1="0"
       y1="0"
       x2="1"
       y2="0"
       gradientUnits="userSpaceOnUse"
       gradientTransform="matrix(-19.920587,20.252592,20.252592,19.920587,634.4649,361.67853)"
       spreadMethod="pad"
       id="linearGradient947">
      <stop
         style="stop-opacity:1;stop-color:#6d6d6d"
         offset="0"
         id="stop941" />
      <stop
         style="stop-opacity:1;stop-color:#b4b4b4"
         offset="0.238806"
         id="stop942" />
      <stop
         style="stop-opacity:1;stop-color:#e8e8e8"
         offset="0.40796"
         id="stop943" />
      <stop
         style="stop-opacity:1;stop-color:#ffffff"
         offset="0.597015"
         id="stop944" />
      <stop
         style="stop-opacity:1;stop-color:#cccccc"
         offset="0.776119"
         id="stop945" />
      <stop
         style="stop-opacity:1;stop-color:#3b3b3b"
         offset="0.980099"
         id="stop946" />
      <stop
         style="stop-opacity:1;stop-color:#3b3b3b"
         offset="1"
         id="stop947" />
    </linearGradient>
    <linearGradient
       x1="0"
       y1="0"
       x2="1"
       y2="0"
       gradientUnits="userSpaceOnUse"
       gradientTransform="matrix(-19.354839,19.677416,19.677416,19.354839,629.56842,356.49991)"
       spreadMethod="pad"
       id="linearGradient954">
      <stop
         style="stop-opacity:1;stop-color:#6d6d6d"
         offset="0"
         id="stop948" />
      <stop
         style="stop-opacity:1;stop-color:#b4b4b4"
         offset="0.238806"
         id="stop949" />
      <stop
         style="stop-opacity:1;stop-color:#e8e8e8"
         offset="0.40796"
         id="stop950" />
      <stop
         style="stop-opacity:1;stop-color:#ffffff"
         offset="0.597015"
         id="stop951" />
      <stop
         style="stop-opacity:1;stop-color:#cccccc"
         offset="0.776119"
         id="stop952" />
      <stop
         style="stop-opacity:1;stop-color:#3b3b3b"
         offset="0.980099"
         id="stop953" />
      <stop
         style="stop-opacity:1;stop-color:#3b3b3b"
         offset="1"
         id="stop954" />
    </linearGradient>
    <clipPath
       clipPathUnits="userSpaceOnUse"
       id="clipPath955">
      <path
         d="M 600.518,356.813 H 766.699 V 284.295 H 600.518 Z"
         transform="translate(-717.97827,-311.00131)"
         id="path955" />
    </clipPath>
    <clipPath
       clipPathUnits="userSpaceOnUse"
       id="clipPath956">
      <path
         d="M 600.518,356.813 H 766.699 V 284.295 H 600.518 Z"
         transform="translate(-2.5000001e-4)"
         id="path956" />
    </clipPath>
    <clipPath
       clipPathUnits="userSpaceOnUse"
       id="clipPath957">
      <path
         d="M 600.518,356.813 H 766.699 V 284.295 H 600.518 Z"
         transform="translate(-732.56127,-314.62371)"
         id="path957" />
    </clipPath>
    <linearGradient
       x1="0"
       y1="0"
       x2="1"
       y2="0"
       gradientUnits="userSpaceOnUse"
       gradientTransform="matrix(-18.533243,-32.100517,-32.100517,18.533243,758.54401,340.82596)"
       spreadMethod="pad"
       id="linearGradient959">
      <stop
         style="stop-opacity:1;stop-color:#009bdb"
         offset="0"
         id="stop957" />
      <stop
         style="stop-opacity:1;stop-color:#009bdb"
         offset="0.619833"
         id="stop958" />
      <stop
         style="stop-opacity:1;stop-color:#027691"
         offset="1"
         id="stop959" />
    </linearGradient>
    <clipPath
       clipPathUnits="userSpaceOnUse"
       id="clipPath959">
      <path
         d="M 600.518,356.813 H 766.699 V 284.295 H 600.518 Z"
         transform="translate(-626.89902,-291.11191)"
         id="path959" />
    </clipPath>
    <linearGradient
       x1="0"
       y1="0"
       x2="1"
       y2="0"
       gradientUnits="userSpaceOnUse"
       gradientTransform="matrix(0.0302219,0,0,-0.0302219,600.51825,311.21686)"
       spreadMethod="pad"
       id="linearGradient962">
      <stop
         style="stop-opacity:1;stop-color:#700156"
         offset="0"
         id="stop960" />
      <stop
         style="stop-opacity:1;stop-color:#ba007c"
         offset="0.345887"
         id="stop961" />
      <stop
         style="stop-opacity:1;stop-color:#ba007c"
         offset="1"
         id="stop962" />
    </linearGradient>
    <linearGradient
       x1="0"
       y1="0"
       x2="1"
       y2="0"
       gradientUnits="userSpaceOnUse"
       gradientTransform="matrix(45.960926,0,0,-45.960926,607.31934,323.80969)"
       spreadMethod="pad"
       id="linearGradient965">
      <stop
         style="stop-opacity:1;stop-color:#700156"
         offset="0"
         id="stop963" />
      <stop
         style="stop-opacity:1;stop-color:#ba007c"
         offset="0.345887"
         id="stop964" />
      <stop
         style="stop-opacity:1;stop-color:#ba007c"
         offset="1"
         id="stop965" />
    </linearGradient>
    <clipPath
       clipPathUnits="userSpaceOnUse"
       id="clipPath965">
      <path
         d="M 600.518,356.813 H 766.699 V 284.295 H 600.518 Z"
         transform="translate(-2.5000001e-4)"
         id="path965" />
    </clipPath>
    <clipPath
       clipPathUnits="userSpaceOnUse"
       id="clipPath966">
      <path
         d="M 600.518,356.813 H 766.699 V 284.295 H 600.518 Z"
         transform="translate(-2.5000001e-4)"
         id="path966" />
    </clipPath>
    <clipPath
       clipPathUnits="userSpaceOnUse"
       id="clipPath967">
      <path
         d="M 600.518,356.813 H 766.699 V 284.295 H 600.518 Z"
         transform="translate(-2.5000001e-4)"
         id="path967" />
    </clipPath>
    <clipPath
       clipPathUnits="userSpaceOnUse"
       id="clipPath978">
      <path
         d="m 599.753,418.11 c -4.708,0 -8.526,-3.816 -8.526,-8.524 v 0 -99.475 c 0,-4.708 3.818,-8.524 8.526,-8.524 v 0 h 167.971 c 4.708,0 8.526,3.816 8.526,8.524 v 0 99.475 c 0,4.708 -3.818,8.524 -8.526,8.524 v 0 z"
         transform="matrix(1.3333333,0,0,-1.3333333,18412.267,872.036)"
         id="path978" />
    </clipPath>
    <clipPath
       clipPathUnits="userSpaceOnUse"
       id="clipPath980">
      <path
         d="M 0,654.027 H 1365.919 V 0 H 0 Z"
         transform="translate(-766.07577,-313.62891)"
         id="path980" />
    </clipPath>
    <clipPath
       clipPathUnits="userSpaceOnUse"
       id="clipPath982">
      <path
         d="M 0,654.027 H 1365.919 V 0 H 0 Z"
         transform="translate(-756.66102,-322.12121)"
         id="path982" />
    </clipPath>
    <clipPath
       clipPathUnits="userSpaceOnUse"
       id="clipPath984">
      <path
         d="M 0,654.027 H 1365.919 V 0 H 0 Z"
         transform="translate(-744.64752,-321.88241)"
         id="path984" />
    </clipPath>
    <clipPath
       clipPathUnits="userSpaceOnUse"
       id="clipPath986">
      <path
         d="M 0,654.027 H 1365.919 V 0 H 0 Z"
         transform="translate(-743.31777,-309.06601)"
         id="path986" />
    </clipPath>
    <clipPath
       clipPathUnits="userSpaceOnUse"
       id="clipPath988">
      <path
         d="M 0,654.027 H 1365.919 V 0 H 0 Z"
         transform="translate(-633.51702,-398.90021)"
         id="path988" />
    </clipPath>
    <clipPath
       clipPathUnits="userSpaceOnUse"
       id="clipPath990">
      <path
         d="M 0,654.027 H 1365.919 V 0 H 0 Z"
         transform="translate(-2.5000001e-4)"
         id="path990" />
    </clipPath>
    <clipPath
       clipPathUnits="userSpaceOnUse"
       id="clipPath992">
      <path
         d="M 0,654.027 H 1365.919 V 0 H 0 Z"
         transform="translate(-637.02477,-399.77171)"
         id="path992" />
    </clipPath>
    <linearGradient
       x1="0"
       y1="0"
       x2="1"
       y2="0"
       gradientUnits="userSpaceOnUse"
       gradientTransform="matrix(-4.4588456,-7.7229471,-7.7229471,4.4588456,643.27618,406.07559)"
       spreadMethod="pad"
       id="linearGradient994">
      <stop
         style="stop-opacity:1;stop-color:#009bdb"
         offset="0"
         id="stop992" />
      <stop
         style="stop-opacity:1;stop-color:#009bdb"
         offset="0.619833"
         id="stop993" />
      <stop
         style="stop-opacity:1;stop-color:#027691"
         offset="1"
         id="stop994" />
    </linearGradient>
    <clipPath
       clipPathUnits="userSpaceOnUse"
       id="clipPath996">
      <path
         d="M 0,654.027 H 1365.919 V 0 H 0 Z"
         transform="translate(-611.60427,-394.11511)"
         id="path996" />
    </clipPath>
    <linearGradient
       x1="0"
       y1="0"
       x2="1"
       y2="0"
       gradientUnits="userSpaceOnUse"
       gradientTransform="matrix(0.007271,0,0,-0.007271,605.25739,398.95206)"
       spreadMethod="pad"
       id="linearGradient998">
      <stop
         style="stop-opacity:1;stop-color:#700156"
         offset="0"
         id="stop996" />
      <stop
         style="stop-opacity:1;stop-color:#ba007c"
         offset="0.345887"
         id="stop997" />
      <stop
         style="stop-opacity:1;stop-color:#ba007c"
         offset="1"
         id="stop998" />
    </linearGradient>
    <linearGradient
       x1="0"
       y1="0"
       x2="1"
       y2="0"
       gradientUnits="userSpaceOnUse"
       gradientTransform="matrix(11.057572,0,0,-11.057572,606.89362,401.98172)"
       spreadMethod="pad"
       id="linearGradient1001">
      <stop
         style="stop-opacity:1;stop-color:#700156"
         offset="0"
         id="stop999" />
      <stop
         style="stop-opacity:1;stop-color:#ba007c"
         offset="0.345887"
         id="stop1000" />
      <stop
         style="stop-opacity:1;stop-color:#ba007c"
         offset="1"
         id="stop1001" />
    </linearGradient>
    <clipPath
       clipPathUnits="userSpaceOnUse"
       id="clipPath1003">
      <path
         d="M 0,654.027 H 1365.919 V 0 H 0 Z"
         transform="translate(-2.5000001e-4)"
         id="path1003" />
    </clipPath>
    <clipPath
       clipPathUnits="userSpaceOnUse"
       id="clipPath1005">
      <path
         d="M 0,654.027 H 1365.919 V 0 H 0 Z"
         transform="translate(-2.5000001e-4)"
         id="path1005" />
    </clipPath>
    <clipPath
       clipPathUnits="userSpaceOnUse"
       id="clipPath1007">
      <path
         d="M 0,654.027 H 1365.919 V 0 H 0 Z"
         transform="translate(-2.5000001e-4)"
         id="path1007" />
    </clipPath>
    <clipPath
       clipPathUnits="userSpaceOnUse"
       id="clipPath1027">
      <path
         d="M 0,654.027 H 1365.919 V 0 H 0 Z"
         transform="translate(-614.03802,-343.47161)"
         id="path1027" />
    </clipPath>
    <clipPath
       clipPathUnits="userSpaceOnUse"
       id="clipPath1029">
      <path
         d="M 0,654.027 H 1365.919 V 0 H 0 Z"
         transform="translate(-622.07577,-343.47161)"
         id="path1029" />
    </clipPath>
    <clipPath
       clipPathUnits="userSpaceOnUse"
       id="clipPath1031">
      <path
         d="M 0,654.027 H 1365.919 V 0 H 0 Z"
         transform="translate(-630.11427,-343.47161)"
         id="path1031" />
    </clipPath>
    <clipPath
       clipPathUnits="userSpaceOnUse"
       id="clipPath1033">
      <path
         d="M 0,654.027 H 1365.919 V 0 H 0 Z"
         transform="translate(-638.15202,-343.47161)"
         id="path1033" />
    </clipPath>
    <clipPath
       clipPathUnits="userSpaceOnUse"
       id="clipPath1035">
      <path
         d="M 0,654.027 H 1365.919 V 0 H 0 Z"
         transform="translate(-654.22827,-343.47161)"
         id="path1035" />
    </clipPath>
    <clipPath
       clipPathUnits="userSpaceOnUse"
       id="clipPath1037">
      <path
         d="M 0,654.027 H 1365.919 V 0 H 0 Z"
         transform="translate(-662.26602,-343.47161)"
         id="path1037" />
    </clipPath>
    <clipPath
       clipPathUnits="userSpaceOnUse"
       id="clipPath1039">
      <path
         d="M 0,654.027 H 1365.919 V 0 H 0 Z"
         transform="translate(-670.30452,-343.47161)"
         id="path1039" />
    </clipPath>
    <clipPath
       clipPathUnits="userSpaceOnUse"
       id="clipPath1041">
      <path
         d="M 0,654.027 H 1365.919 V 0 H 0 Z"
         transform="translate(-678.34227,-343.47161)"
         id="path1041" />
    </clipPath>
    <clipPath
       clipPathUnits="userSpaceOnUse"
       id="clipPath1043">
      <path
         d="M 0,654.027 H 1365.919 V 0 H 0 Z"
         transform="translate(-694.41852,-343.47161)"
         id="path1043" />
    </clipPath>
    <clipPath
       clipPathUnits="userSpaceOnUse"
       id="clipPath1045">
      <path
         d="M 0,654.027 H 1365.919 V 0 H 0 Z"
         transform="translate(-702.45702,-343.47161)"
         id="path1045" />
    </clipPath>
    <clipPath
       clipPathUnits="userSpaceOnUse"
       id="clipPath1047">
      <path
         d="M 0,654.027 H 1365.919 V 0 H 0 Z"
         transform="translate(-710.49477,-343.47161)"
         id="path1047" />
    </clipPath>
    <clipPath
       clipPathUnits="userSpaceOnUse"
       id="clipPath1049">
      <path
         d="M 0,654.027 H 1365.919 V 0 H 0 Z"
         transform="translate(-718.53252,-343.47161)"
         id="path1049" />
    </clipPath>
    <clipPath
       clipPathUnits="userSpaceOnUse"
       id="clipPath1051">
      <path
         d="M 0,654.027 H 1365.919 V 0 H 0 Z"
         transform="translate(-658.08552,-314.29191)"
         id="path1051" />
    </clipPath>
    <clipPath
       clipPathUnits="userSpaceOnUse"
       id="clipPath1053">
      <path
         d="M 0,654.027 H 1365.919 V 0 H 0 Z"
         transform="translate(-665.10477,-314.29191)"
         id="path1053" />
    </clipPath>
    <clipPath
       clipPathUnits="userSpaceOnUse"
       id="clipPath1055">
      <path
         d="M 0,654.027 H 1365.919 V 0 H 0 Z"
         transform="translate(-672.12552,-314.29191)"
         id="path1055" />
    </clipPath>
    <clipPath
       clipPathUnits="userSpaceOnUse"
       id="clipPath1056">
      <path
         d="m 612.026,323.488 h 59.294 v -3.79 h -59.294 z"
         transform="translate(-613.44627,-319.76071)"
         id="path1056" />
    </clipPath>
    <clipPath
       clipPathUnits="userSpaceOnUse"
       id="clipPath1057">
      <path
         d="m 612.026,323.488 h 59.294 v -3.79 h -59.294 z"
         transform="translate(-615.99702,-321.26561)"
         id="path1057" />
    </clipPath>
    <clipPath
       clipPathUnits="userSpaceOnUse"
       id="clipPath1058">
      <path
         d="m 612.026,323.488 h 59.294 v -3.79 h -59.294 z"
         transform="translate(-618.64527,-319.76071)"
         id="path1058" />
    </clipPath>
    <clipPath
       clipPathUnits="userSpaceOnUse"
       id="clipPath1059">
      <path
         d="m 612.026,323.488 h 59.294 v -3.79 h -59.294 z"
         transform="translate(-2.5000001e-4)"
         id="path1059" />
    </clipPath>
    <clipPath
       clipPathUnits="userSpaceOnUse"
       id="clipPath1060">
      <path
         d="m 612.026,323.488 h 59.294 v -3.79 h -59.294 z"
         transform="translate(-623.23677,-320.19231)"
         id="path1060" />
    </clipPath>
    <clipPath
       clipPathUnits="userSpaceOnUse"
       id="clipPath1061">
      <path
         d="m 612.026,323.488 h 59.294 v -3.79 h -59.294 z"
         transform="translate(-628.52877,-319.76071)"
         id="path1061" />
    </clipPath>
    <clipPath
       clipPathUnits="userSpaceOnUse"
       id="clipPath1062">
      <path
         d="m 612.026,323.488 h 59.294 v -3.79 h -59.294 z"
         transform="translate(-630.64677,-319.76071)"
         id="path1062" />
    </clipPath>
    <clipPath
       clipPathUnits="userSpaceOnUse"
       id="clipPath1063">
      <path
         d="m 612.026,323.488 h 59.294 v -3.79 h -59.294 z"
         transform="translate(-634.73127,-321.80761)"
         id="path1063" />
    </clipPath>
    <clipPath
       clipPathUnits="userSpaceOnUse"
       id="clipPath1064">
      <path
         d="m 612.026,323.488 h 59.294 v -3.79 h -59.294 z"
         transform="translate(-640.24977,-323.42571)"
         id="path1064" />
    </clipPath>
    <clipPath
       clipPathUnits="userSpaceOnUse"
       id="clipPath1065">
      <path
         d="m 612.026,323.488 h 59.294 v -3.79 h -59.294 z"
         transform="translate(-664.02477,-321.04581)"
         id="path1065" />
    </clipPath>
    <clipPath
       clipPathUnits="userSpaceOnUse"
       id="clipPath1066">
      <path
         d="m 612.026,323.488 h 59.294 v -3.79 h -59.294 z"
         transform="translate(-666.06177,-319.76071)"
         id="path1066" />
    </clipPath>
    <clipPath
       clipPathUnits="userSpaceOnUse"
       id="clipPath1067">
      <path
         d="m 612.026,323.488 h 59.294 v -3.79 h -59.294 z"
         transform="translate(-669.38652,-319.76071)"
         id="path1067" />
    </clipPath>
    <clipPath
       clipPathUnits="userSpaceOnUse"
       id="clipPath1080">
      <path
         d="M 0,654.027 H 1365.919 V 0 H 0 Z"
         transform="matrix(1.3333333,0,0,-1.3333333,18412.267,872.036)"
         id="path1080" />
    </clipPath>
    <clipPath
       clipPathUnits="userSpaceOnUse"
       id="clipPath1106">
      <path
         d="M 0,654.027 H 1365.919 V 0 H 0 Z"
         transform="translate(-613.73427,-350.34571)"
         id="path1106" />
    </clipPath>
  </defs>
  <sodipodi:namedview
     id="namedview1"
     pagecolor="#ffffff"
     bordercolor="#000000"
     borderopacity="0.25"
     inkscape:showpageshadow="2"
     inkscape:pageopacity="0.0"
     inkscape:pagecheckerboard="0"
     inkscape:deskcolor="#d1d1d1">
    <inkscape:page
       x="2.6843538e-06"
       y="-8.5124857e-06"
       width="246.69922"
       height="155.36533"
       id="page2"
       margin="0"
       bleed="0" />
  </sodipodi:namedview>
  <g
     id="layer-MC0"
     inkscape:groupmode="layer"
     inkscape:label="Capa 1"
     transform="translate(-19200.569,-314.55493)">
    <path
       id="path873"
       d="m 0,0 c 0,-1.967 -1.595,-3.561 -3.561,-3.561 h -17.272 c -1.966,0 -3.562,1.594 -3.562,3.561 v 11.473 c 0,1.967 1.596,3.561 3.562,3.561 H -3.561 C -1.595,15.034 0,13.44 0,11.473 Z M 131.507,54.869 H -36.464 c -4.708,0 -8.526,-3.816 -8.526,-8.524 v -99.476 c 0,-4.708 3.818,-8.524 8.526,-8.524 h 167.971 c 4.708,0 8.526,3.816 8.526,8.524 v 99.476 c 0,4.708 -3.818,8.524 -8.526,8.524"
       style="fill:#ffffff;fill-opacity:1;fill-rule:nonzero;stroke:none"
       transform="matrix(1.3333333,0,0,-1.3333333,19260.556,387.7136)"
       clip-path="url(#clipPath874)"
       inkscape:export-filename="../assets/img/tarjeta_apagada.svg"
       inkscape:export-xdpi="1412.7385"
       inkscape:export-ydpi="1412.7385" />
    <g
       mask="url(#mask874)"
       id="g877"
       clip-path="url(#clipPath878)">
      <path
         d="m 599.753,418.11 c -4.708,0 -8.526,-3.816 -8.526,-8.524 v 0 -99.475 c 0,-4.708 3.818,-8.524 8.526,-8.524 v 0 h 167.971 c 4.708,0 8.526,3.816 8.526,8.524 v 0 99.475 c 0,4.708 -3.818,8.524 -8.526,8.524 v 0 z"
         transform="matrix(1.3333333,0,0,-1.3333333,18412.267,872.036)"
         style="fill:url(#linearGradient877);stroke:none"
         id="path877" />
    </g>
    <path
       id="path884"
       d="m 611.773,374.433 v -3.223 h 7.317 c 0.505,1.429 1.472,2.582 2.687,3.223 v 0 z"
       transform="matrix(1.3333333,0,0,-1.3333333,18412.267,872.036)"
       style="fill:url(#linearGradient884);stroke:none" />
    <path
       id="path891"
       d="m 614.814,378.292 c -1.622,0 -2.936,-1.466 -3.024,-3.31 v 0 h 6.914 v 3.31 z"
       transform="matrix(1.3333333,0,0,-1.3333333,18412.267,872.036)"
       style="fill:url(#linearGradient891);stroke:none" />
    <path
       id="path898"
       d="m 619.182,374.982 h 9.541 v 3.31 h -9.541 z"
       transform="matrix(1.3333333,0,0,-1.3333333,18412.267,872.036)"
       style="fill:url(#linearGradient898);stroke:none" />
    <path
       id="path905"
       d="m 611.773,370.66 v -3.428 h 7.15 c -0.141,0.543 -0.219,1.117 -0.219,1.714 v 0 c 0,0.596 0.078,1.17 0.219,1.714 v 0 z"
       transform="matrix(1.3333333,0,0,-1.3333333,18412.267,872.036)"
       style="fill:url(#linearGradient905);stroke:none" />
    <path
       id="path912"
       d="m 629.201,378.292 v -3.31 h 6.914 c -0.088,1.844 -1.402,3.31 -3.025,3.31 v 0 z"
       transform="matrix(1.3333333,0,0,-1.3333333,18412.267,872.036)"
       style="fill:url(#linearGradient912);stroke:none" />
    <path
       id="path919"
       d="m 619.182,368.946 c 0,-3.026 2.139,-5.488 4.77,-5.488 v 0 c 2.631,0 4.771,2.462 4.771,5.488 v 0 c 0,3.026 -2.14,5.487 -4.771,5.487 v 0 c -2.631,0 -4.77,-2.461 -4.77,-5.487"
       transform="matrix(1.3333333,0,0,-1.3333333,18412.267,872.036)"
       style="fill:url(#linearGradient919);stroke:none" />
    <path
       id="path926"
       d="m 628.982,370.66 c 0.14,-0.544 0.219,-1.118 0.219,-1.714 v 0 c 0,-0.597 -0.079,-1.171 -0.219,-1.714 v 0 h 7.15 v 3.428 z"
       transform="matrix(1.3333333,0,0,-1.3333333,18412.267,872.036)"
       style="fill:url(#linearGradient926);stroke:none" />
    <path
       id="path933"
       d="m 626.127,374.433 c 1.215,-0.641 2.182,-1.794 2.687,-3.223 v 0 h 7.318 v 3.223 z"
       transform="matrix(1.3333333,0,0,-1.3333333,18412.267,872.036)"
       style="fill:url(#linearGradient933);stroke:none" />
    <path
       id="path940"
       d="m 611.773,366.682 v -3.224 h 10.004 c -1.215,0.64 -2.182,1.794 -2.687,3.224 v 0 z"
       transform="matrix(1.3333333,0,0,-1.3333333,18412.267,872.036)"
       style="fill:url(#linearGradient940);stroke:none" />
    <path
       id="path947"
       d="m 628.815,366.682 c -0.506,-1.43 -1.473,-2.584 -2.688,-3.224 v 0 h 10.005 v 3.224 z"
       transform="matrix(1.3333333,0,0,-1.3333333,18412.267,872.036)"
       style="fill:url(#linearGradient947);stroke:none" />
    <path
       id="path954"
       d="m 629.201,362.908 v -3.244 h -0.478 v 3.244 h -9.541 v -3.244 h -0.478 v 3.244 h -6.914 c 0.088,-1.843 1.403,-3.309 3.024,-3.309 v 0 h 18.276 c 1.623,0 2.937,1.466 3.025,3.309 v 0 z"
       transform="matrix(1.3333333,0,0,-1.3333333,18412.267,872.036)"
       style="fill:url(#linearGradient954);stroke:none" />
    <g
       opacity="0.199997"
       id="g977"
       clip-path="url(#clipPath978)">
      <path
         d="M 0,0 C -0.168,14.425 -11.908,26.069 -26.373,26.069 -40.838,26.069 -52.578,14.425 -52.746,0 h 0.008 v -26.693 h 6.771 V 0 0.009 c 0.167,10.667 8.886,19.256 19.594,19.256 10.707,0 19.435,-8.553 19.602,-19.22 L -6.769,0 V -26.693 H 0.002 V 0 Z"
         style="fill:#009bdb;fill-opacity:1;fill-rule:nonzero;stroke:none"
         transform="matrix(1.3333333,0,0,-1.3333333,19369.571,457.3676)"
         clip-path="url(#clipPath955)"
         id="path968" />
      <path
         d="m 720.747,284.308 h 6.771 v 72.504 h -6.771 z"
         style="fill:#009bdb;fill-opacity:1;fill-rule:nonzero;stroke:none"
         transform="matrix(1.3333333,0,0,-1.3333333,18412.267,872.036)"
         clip-path="url(#clipPath956)"
         id="path969" />
      <path
         d="m 0,0 -5.043,-4.509 28.87,-25.82 h 10.078 z"
         style="fill:#009bdb;fill-opacity:1;fill-rule:nonzero;stroke:none"
         transform="matrix(1.3333333,0,0,-1.3333333,19389.015,452.53773)"
         clip-path="url(#clipPath957)"
         id="path970" />
      <path
         d="m 756.587,336.118 -24.06,-21.522 5.071,-4.478 29.101,26 z"
         transform="matrix(1.3333333,0,0,-1.3333333,18412.267,872.036)"
         style="fill:url(#linearGradient959);stroke:none"
         id="path971" />
      <path
         d="m 0,0 c -10.812,0 -19.577,8.765 -19.577,19.577 0,10.812 8.765,19.577 19.577,19.577 10.812,0 19.577,-8.765 19.577,-19.577 C 19.577,8.765 10.812,0 0,0 m 0,45.958 c -7.769,0 -14.752,-3.359 -19.58,-8.703 v 28.446 h -6.771 V 20.774 c -0.018,-0.397 -0.03,-0.796 -0.03,-1.197 0,-14.57 11.811,-26.381 26.381,-26.381 14.57,0 26.381,11.811 26.381,26.381 0,14.57 -11.811,26.381 -26.381,26.381"
         style="fill:#ba007c;fill-opacity:1;fill-rule:nonzero;stroke:none"
         transform="matrix(1.3333333,0,0,-1.3333333,19248.132,483.8868)"
         clip-path="url(#clipPath959)"
         id="path972" />
      <path
         d="m 600.548,310.549 v 1.335 c -0.017,-0.396 -0.03,-0.794 -0.03,-1.195 0,-0.047 0.003,-0.093 0.004,-0.14 z"
         transform="matrix(1.3333333,0,0,-1.3333333,18412.267,872.036)"
         style="fill:url(#linearGradient962);stroke:none"
         id="path973" />
      <path
         d="m 607.319,310.549 h 0.007 c -10e-4,0.047 -0.004,0.093 -0.004,0.14 0,10.812 8.765,19.577 19.577,19.577 10.812,0 19.577,-8.765 19.577,-19.577 0,-0.047 -0.003,-0.093 -0.003,-0.14 h 6.804 c 0,0.047 0.003,0.093 0.003,0.14 0,14.57 -11.811,26.381 -26.381,26.381 -7.769,0 -14.752,-3.359 -19.58,-8.703 z"
         transform="matrix(1.3333333,0,0,-1.3333333,18412.267,872.036)"
         style="fill:url(#linearGradient965);stroke:none"
         id="path974" />
      <path
         d="m 671.973,335.994 h -6.771 v -51.699 h 6.771 z"
         style="fill:#009bdb;fill-opacity:1;fill-rule:nonzero;stroke:none"
         transform="matrix(1.3333333,0,0,-1.3333333,18412.267,872.036)"
         clip-path="url(#clipPath965)"
         id="path975" />
      <path
         d="m 662.435,335.994 h -6.771 v -51.699 h 6.771 z"
         style="fill:#009bdb;fill-opacity:1;fill-rule:nonzero;stroke:none"
         transform="matrix(1.3333333,0,0,-1.3333333,18412.267,872.036)"
         clip-path="url(#clipPath966)"
         id="path976" />
      <path
         d="m 662.465,335.994 h -6.771 v -51.699 h 6.771 z"
         style="fill:#009bdb;fill-opacity:1;fill-rule:nonzero;stroke:none"
         transform="matrix(1.3333333,0,0,-1.3333333,18412.267,872.036)"
         clip-path="url(#clipPath967)"
         id="path977" />
    </g>
    <path
       id="path979"
       d="m 0,0 c -0.329,1.579 -0.654,3.136 -0.979,4.693 l -0.04,0.008 C -1.585,3.14 -2.151,1.578 -2.723,0 Z M 4.043,-4.555 H 0.954 c -0.113,0.543 -0.234,1.074 -0.33,1.61 -0.04,0.222 -0.111,0.309 -0.359,0.306 -1.239,-0.016 -2.478,-0.013 -3.717,-0.003 -0.187,0.002 -0.262,-0.06 -0.319,-0.231 -0.171,-0.511 -0.357,-1.016 -0.548,-1.52 -0.026,-0.068 -0.112,-0.162 -0.171,-0.162 -1.116,-0.01 -2.233,-0.007 -3.382,-0.007 0.209,0.504 0.408,0.985 0.609,1.465 1.44,3.436 2.88,6.87 4.32,10.305 0.312,0.744 0.78,1.056 1.584,1.056 0.897,0 1.793,0 2.712,0 C 1.443,7.845 1.533,7.433 1.62,7.019 2.328,3.624 3.035,0.229 3.745,-3.165 3.836,-3.6 3.944,-4.031 4.043,-4.464 Z"
       style="fill:#ffffff;fill-opacity:1;fill-rule:nonzero;stroke:none"
       transform="matrix(1.3333333,0,0,-1.3333333,19433.701,453.86413)"
       clip-path="url(#clipPath980)" />
    <path
       id="path981"
       d="m 0,0 c 0.408,-0.076 0.818,-0.138 1.222,-0.231 0.369,-0.085 0.729,-0.203 1.121,-0.315 -0.198,-0.923 -0.39,-1.823 -0.579,-2.705 -0.516,0.152 -1.01,0.326 -1.517,0.438 -0.694,0.153 -1.406,0.212 -2.1,0.018 -0.282,-0.078 -0.568,-0.229 -0.79,-0.42 -0.381,-0.326 -0.386,-0.796 -0.022,-1.139 0.251,-0.237 0.548,-0.431 0.846,-0.61 0.675,-0.406 1.385,-0.76 2.042,-1.194 0.774,-0.511 1.338,-1.214 1.456,-2.165 0.21,-1.681 -0.412,-3.005 -1.824,-3.942 -0.888,-0.589 -1.893,-0.852 -2.94,-0.95 -1.462,-0.136 -2.895,0.028 -4.292,0.487 -0.094,0.031 -0.185,0.069 -0.276,0.107 -0.028,0.011 -0.051,0.03 -0.093,0.056 0.197,0.925 0.395,1.85 0.598,2.802 0.238,-0.104 0.462,-0.209 0.69,-0.301 1.092,-0.439 2.219,-0.641 3.387,-0.422 0.304,0.057 0.614,0.191 0.871,0.364 0.559,0.375 0.613,1.079 0.104,1.519 -0.335,0.29 -0.737,0.503 -1.118,0.735 -0.595,0.363 -1.228,0.672 -1.791,1.078 -0.722,0.52 -1.245,1.214 -1.345,2.136 -0.148,1.381 0.364,2.502 1.424,3.373 0.922,0.758 2.017,1.094 3.183,1.235 0.065,0.008 0.128,0.03 0.192,0.046 z"
       style="fill:#ffffff;fill-opacity:1;fill-rule:nonzero;stroke:none"
       transform="matrix(1.3333333,0,0,-1.3333333,19421.148,442.54107)"
       clip-path="url(#clipPath982)" />
    <path
       id="path983"
       d="m 0,0 c -0.174,-0.418 -0.338,-0.816 -0.504,-1.213 -1.59,-3.793 -3.182,-7.585 -4.766,-11.381 -0.075,-0.18 -0.167,-0.228 -0.351,-0.226 -1.003,0.008 -2.007,0.011 -3.01,-0.003 -0.213,-0.003 -0.282,0.072 -0.331,0.263 -0.851,3.315 -1.716,6.627 -2.557,9.945 -0.155,0.608 -0.463,1.024 -1.043,1.279 -0.928,0.409 -1.892,0.696 -2.876,0.93 -0.043,0.01 -0.087,0.021 -0.127,0.032 0.004,0.384 0.004,0.384 0.37,0.384 1.757,0 3.513,10e-4 5.269,0 0.833,0 1.434,-0.484 1.592,-1.308 0.446,-2.334 0.882,-4.67 1.322,-7.005 0.02,-0.102 0.041,-0.204 0.071,-0.348 0.045,0.086 0.077,0.134 0.098,0.186 1.09,2.759 2.182,5.518 3.267,8.279 0.059,0.151 0.132,0.202 0.295,0.201 C -2.262,0.006 -1.244,0.011 -0.225,0.01 -0.159,0.01 -0.093,0.004 0,0"
       style="fill:#ffffff;fill-opacity:1;fill-rule:nonzero;stroke:none"
       transform="matrix(1.3333333,0,0,-1.3333333,19405.13,442.85947)"
       clip-path="url(#clipPath984)" />
    <path
       id="path985"
       d="M 0,0 C 0.917,4.288 1.828,8.545 2.742,12.813 H 6.069 C 5.931,12.163 5.795,11.525 5.659,10.888 4.905,7.363 4.148,3.838 3.403,0.311 3.351,0.066 3.264,-0.012 3.01,-0.007 2.098,0.011 1.186,0 0.273,0 Z"
       style="fill:#ffffff;fill-opacity:1;fill-rule:nonzero;stroke:none"
       transform="matrix(1.3333333,0,0,-1.3333333,19403.357,459.948)"
       clip-path="url(#clipPath986)" />
    <path
       id="path987"
       d="M 0,0 C -0.04,3.471 -2.865,6.272 -6.345,6.272 -9.825,6.272 -12.65,3.471 -12.69,0 h 0.002 v -6.422 h 1.629 V 0 0.002 c 0.04,2.567 2.138,4.633 4.714,4.633 2.576,0 4.676,-2.058 4.716,-4.624 V 0 -6.422 H 0 Z"
       style="fill:#009bdb;fill-opacity:1;fill-rule:nonzero;stroke:none"
       transform="matrix(1.3333333,0,0,-1.3333333,19256.956,340.16907)"
       clip-path="url(#clipPath988)" />
    <path
       id="path989"
       d="m 634.183,392.478 h 1.629 v 17.444 h -1.629 z"
       style="fill:#009bdb;fill-opacity:1;fill-rule:nonzero;stroke:none"
       transform="matrix(1.3333333,0,0,-1.3333333,18412.267,872.036)"
       clip-path="url(#clipPath990)" />
    <path
       id="path991"
       d="M 0,0 -1.213,-1.085 5.732,-7.297 H 8.157 Z"
       style="fill:#009bdb;fill-opacity:1;fill-rule:nonzero;stroke:none"
       transform="matrix(1.3333333,0,0,-1.3333333,19261.633,339.00707)"
       clip-path="url(#clipPath992)" />
    <path
       id="path994"
       d="m 642.805,404.943 -5.789,-5.178 1.221,-1.078 7.001,6.256 z"
       transform="matrix(1.3333333,0,0,-1.3333333,18412.267,872.036)"
       style="fill:url(#linearGradient994);stroke:none" />
    <path
       id="path995"
       d="m 0,0 c -2.601,0 -4.71,2.109 -4.71,4.71 0,2.601 2.109,4.71 4.71,4.71 2.601,0 4.71,-2.109 4.71,-4.71 C 4.71,2.109 2.601,0 0,0 m 0,11.057 c -1.869,0 -3.549,-0.808 -4.711,-2.094 v 6.844 H -6.34 V 4.998 C -6.344,4.902 -6.347,4.807 -6.347,4.71 c 0,-3.505 2.842,-6.347 6.347,-6.347 3.505,0 6.347,2.842 6.347,6.347 0,3.505 -2.842,6.347 -6.347,6.347"
       style="fill:#ba007c;fill-opacity:1;fill-rule:nonzero;stroke:none"
       transform="matrix(1.3333333,0,0,-1.3333333,19227.739,346.5492)"
       clip-path="url(#clipPath996)" />
    <path
       id="path998"
       d="m 605.257,398.825 c 0,-0.012 0.001,-0.022 0.001,-0.033 v 0 h 0.006 v 0.32 c -0.003,-0.095 -0.007,-0.191 -0.007,-0.287"
       transform="matrix(1.3333333,0,0,-1.3333333,18412.267,872.036)"
       style="fill:url(#linearGradient998);stroke:none" />
    <path
       id="path1001"
       d="m 606.893,403.078 v -4.286 h 0.002 c 0,0.011 -10e-4,0.021 -10e-4,0.033 v 0 c 0,2.601 2.109,4.71 4.71,4.71 v 0 c 2.602,0 4.711,-2.109 4.711,-4.71 v 0 c 0,-0.012 -0.001,-0.022 -0.001,-0.033 v 0 h 1.636 c 10e-4,0.011 10e-4,0.021 10e-4,0.033 v 0 c 0,3.506 -2.842,6.347 -6.347,6.347 v 0 c -1.868,0 -3.549,-0.808 -4.711,-2.094"
       transform="matrix(1.3333333,0,0,-1.3333333,18412.267,872.036)"
       style="fill:url(#linearGradient1001);stroke:none" />
    <path
       id="path1002"
       d="m 622.448,404.913 h -1.629 v -12.438 h 1.629 z"
       style="fill:#009bdb;fill-opacity:1;fill-rule:nonzero;stroke:none"
       transform="matrix(1.3333333,0,0,-1.3333333,18412.267,872.036)"
       clip-path="url(#clipPath1003)" />
    <path
       id="path1004"
       d="m 620.154,404.913 h -1.629 v -12.438 h 1.629 z"
       style="fill:#009bdb;fill-opacity:1;fill-rule:nonzero;stroke:none"
       transform="matrix(1.3333333,0,0,-1.3333333,18412.267,872.036)"
       clip-path="url(#clipPath1005)" />
    <path
       id="path1006"
       d="m 620.161,404.913 h -1.629 v -12.438 h 1.629 z"
       style="fill:#009bdb;fill-opacity:1;fill-rule:nonzero;stroke:none"
       transform="matrix(1.3333333,0,0,-1.3333333,18412.267,872.036)"
       clip-path="url(#clipPath1007)" />
    <path
       id="path1026"
       d="m 0,0 -1.647,1.408 c -0.15,0.125 -0.31,0.285 -0.31,0.492 0,0.321 0.24,0.607 0.572,0.607 0.184,0 0.332,-0.103 0.458,-0.218 L 0.298,1.236 v 1.671 c 0,0.366 0.16,0.572 0.572,0.572 0.412,0 0.572,-0.206 0.572,-0.572 V 1.236 L 2.667,2.289 C 2.793,2.404 2.941,2.507 3.124,2.507 3.456,2.507 3.696,2.221 3.696,1.9 3.696,1.693 3.536,1.533 3.388,1.408 L 1.739,0 l 1.5,-1.281 c 0.195,-0.16 0.457,-0.356 0.457,-0.629 0,-0.321 -0.24,-0.596 -0.572,-0.596 -0.24,0 -0.446,0.206 -0.617,0.356 l -1.065,0.914 v -1.647 c 0,-0.367 -0.16,-0.572 -0.572,-0.572 -0.412,0 -0.572,0.205 -0.572,0.572 v 1.647 L -0.767,-2.15 c -0.171,-0.15 -0.378,-0.356 -0.618,-0.356 -0.332,0 -0.572,0.275 -0.572,0.596 0,0.273 0.264,0.469 0.458,0.629 z"
       style="fill:#ffffff;fill-opacity:1;fill-rule:nonzero;stroke:none"
       transform="matrix(1.3333333,0,0,-1.3333333,19230.984,414.07387)"
       clip-path="url(#clipPath1027)" />
    <path
       id="path1028"
       d="m 0,0 -1.647,1.408 c -0.15,0.125 -0.31,0.285 -0.31,0.492 0,0.321 0.24,0.607 0.572,0.607 0.184,0 0.332,-0.103 0.458,-0.218 L 0.298,1.236 v 1.671 c 0,0.366 0.16,0.572 0.572,0.572 0.412,0 0.572,-0.206 0.572,-0.572 V 1.236 L 2.667,2.289 C 2.792,2.404 2.941,2.507 3.124,2.507 3.456,2.507 3.696,2.221 3.696,1.9 3.696,1.693 3.536,1.533 3.388,1.408 L 1.739,0 l 1.5,-1.281 c 0.195,-0.16 0.457,-0.356 0.457,-0.629 0,-0.321 -0.24,-0.596 -0.572,-0.596 -0.24,0 -0.446,0.206 -0.617,0.356 l -1.065,0.914 v -1.647 c 0,-0.367 -0.16,-0.572 -0.572,-0.572 -0.412,0 -0.572,0.205 -0.572,0.572 v 1.647 L -0.767,-2.15 c -0.171,-0.15 -0.378,-0.356 -0.618,-0.356 -0.332,0 -0.572,0.275 -0.572,0.596 0,0.273 0.264,0.469 0.458,0.629 z"
       style="fill:#ffffff;fill-opacity:1;fill-rule:nonzero;stroke:none"
       transform="matrix(1.3333333,0,0,-1.3333333,19241.701,414.07387)"
       clip-path="url(#clipPath1029)" />
    <path
       id="path1030"
       d="m 0,0 -1.647,1.408 c -0.15,0.125 -0.31,0.285 -0.31,0.492 0,0.321 0.24,0.607 0.572,0.607 0.184,0 0.332,-0.103 0.458,-0.218 L 0.298,1.236 v 1.671 c 0,0.366 0.16,0.572 0.572,0.572 0.412,0 0.572,-0.206 0.572,-0.572 V 1.236 L 2.667,2.289 C 2.793,2.404 2.941,2.507 3.124,2.507 3.456,2.507 3.696,2.221 3.696,1.9 3.696,1.693 3.536,1.533 3.388,1.408 L 1.739,0 l 1.5,-1.281 c 0.195,-0.16 0.457,-0.356 0.457,-0.629 0,-0.321 -0.24,-0.596 -0.572,-0.596 -0.24,0 -0.446,0.206 -0.617,0.356 l -1.065,0.914 v -1.647 c 0,-0.367 -0.16,-0.572 -0.572,-0.572 -0.412,0 -0.572,0.205 -0.572,0.572 v 1.647 L -0.767,-2.15 c -0.171,-0.15 -0.378,-0.356 -0.618,-0.356 -0.332,0 -0.572,0.275 -0.572,0.596 0,0.273 0.264,0.469 0.458,0.629 z"
       style="fill:#ffffff;fill-opacity:1;fill-rule:nonzero;stroke:none"
       transform="matrix(1.3333333,0,0,-1.3333333,19252.419,414.07387)"
       clip-path="url(#clipPath1031)" />
    <path
       id="path1032"
       d="m 0,0 -1.647,1.408 c -0.15,0.125 -0.31,0.285 -0.31,0.492 0,0.321 0.24,0.607 0.572,0.607 0.184,0 0.332,-0.103 0.458,-0.218 L 0.298,1.236 v 1.671 c 0,0.366 0.16,0.572 0.572,0.572 0.412,0 0.572,-0.206 0.572,-0.572 V 1.236 L 2.667,2.289 C 2.792,2.404 2.941,2.507 3.124,2.507 3.456,2.507 3.696,2.221 3.696,1.9 3.696,1.693 3.536,1.533 3.388,1.408 L 1.739,0 l 1.5,-1.281 c 0.195,-0.16 0.457,-0.356 0.457,-0.629 0,-0.321 -0.24,-0.596 -0.572,-0.596 -0.24,0 -0.446,0.206 -0.617,0.356 l -1.065,0.914 v -1.647 c 0,-0.367 -0.16,-0.572 -0.572,-0.572 -0.412,0 -0.572,0.205 -0.572,0.572 v 1.647 L -0.767,-2.15 c -0.171,-0.15 -0.378,-0.356 -0.618,-0.356 -0.332,0 -0.572,0.275 -0.572,0.596 0,0.273 0.264,0.469 0.458,0.629 z"
       style="fill:#ffffff;fill-opacity:1;fill-rule:nonzero;stroke:none"
       transform="matrix(1.3333333,0,0,-1.3333333,19263.136,414.07387)"
       clip-path="url(#clipPath1033)" />
    <path
       id="path1034"
       d="m 0,0 -1.647,1.408 c -0.15,0.125 -0.31,0.285 -0.31,0.492 0,0.321 0.24,0.607 0.572,0.607 0.184,0 0.332,-0.103 0.458,-0.218 L 0.298,1.236 v 1.671 c 0,0.366 0.16,0.572 0.572,0.572 0.412,0 0.572,-0.206 0.572,-0.572 V 1.236 L 2.667,2.289 C 2.792,2.404 2.941,2.507 3.124,2.507 3.456,2.507 3.696,2.221 3.696,1.9 3.696,1.693 3.536,1.533 3.388,1.408 L 1.739,0 l 1.5,-1.281 c 0.195,-0.16 0.457,-0.356 0.457,-0.629 0,-0.321 -0.24,-0.596 -0.572,-0.596 -0.24,0 -0.446,0.206 -0.617,0.356 l -1.065,0.914 v -1.647 c 0,-0.367 -0.16,-0.572 -0.572,-0.572 -0.412,0 -0.572,0.205 -0.572,0.572 v 1.647 L -0.767,-2.15 c -0.171,-0.15 -0.378,-0.356 -0.618,-0.356 -0.332,0 -0.572,0.275 -0.572,0.596 0,0.273 0.264,0.469 0.458,0.629 z"
       style="fill:#ffffff;fill-opacity:1;fill-rule:nonzero;stroke:none"
       transform="matrix(1.3333333,0,0,-1.3333333,19284.571,414.07387)"
       clip-path="url(#clipPath1035)" />
    <path
       id="path1036"
       d="m 0,0 -1.647,1.408 c -0.15,0.125 -0.31,0.285 -0.31,0.492 0,0.321 0.24,0.607 0.572,0.607 0.184,0 0.332,-0.103 0.458,-0.218 L 0.298,1.236 v 1.671 c 0,0.366 0.16,0.572 0.572,0.572 0.412,0 0.572,-0.206 0.572,-0.572 V 1.236 L 2.667,2.289 C 2.793,2.404 2.941,2.507 3.124,2.507 3.456,2.507 3.696,2.221 3.696,1.9 3.696,1.693 3.536,1.533 3.388,1.408 L 1.739,0 l 1.5,-1.281 c 0.195,-0.16 0.457,-0.356 0.457,-0.629 0,-0.321 -0.24,-0.596 -0.572,-0.596 -0.24,0 -0.446,0.206 -0.617,0.356 l -1.065,0.914 v -1.647 c 0,-0.367 -0.16,-0.572 -0.572,-0.572 -0.412,0 -0.572,0.205 -0.572,0.572 v 1.647 L -0.767,-2.15 c -0.171,-0.15 -0.378,-0.356 -0.618,-0.356 -0.332,0 -0.572,0.275 -0.572,0.596 0,0.273 0.264,0.469 0.458,0.629 z"
       style="fill:#ffffff;fill-opacity:1;fill-rule:nonzero;stroke:none"
       transform="matrix(1.3333333,0,0,-1.3333333,19295.288,414.07387)"
       clip-path="url(#clipPath1037)" />
    <path
       id="path1038"
       d="m 0,0 -1.647,1.408 c -0.15,0.125 -0.31,0.285 -0.31,0.492 0,0.321 0.24,0.607 0.572,0.607 0.184,0 0.332,-0.103 0.458,-0.218 L 0.298,1.236 v 1.671 c 0,0.366 0.16,0.572 0.572,0.572 0.412,0 0.572,-0.206 0.572,-0.572 V 1.236 L 2.667,2.289 C 2.792,2.404 2.941,2.507 3.124,2.507 3.456,2.507 3.696,2.221 3.696,1.9 3.696,1.693 3.536,1.533 3.388,1.408 L 1.739,0 l 1.5,-1.281 c 0.195,-0.16 0.457,-0.356 0.457,-0.629 0,-0.321 -0.24,-0.596 -0.572,-0.596 -0.24,0 -0.446,0.206 -0.617,0.356 l -1.065,0.914 v -1.647 c 0,-0.367 -0.16,-0.572 -0.572,-0.572 -0.412,0 -0.572,0.205 -0.572,0.572 v 1.647 L -0.767,-2.15 c -0.171,-0.15 -0.378,-0.356 -0.618,-0.356 -0.332,0 -0.572,0.275 -0.572,0.596 0,0.273 0.264,0.469 0.458,0.629 z"
       style="fill:#ffffff;fill-opacity:1;fill-rule:nonzero;stroke:none"
       transform="matrix(1.3333333,0,0,-1.3333333,19306.006,414.07387)"
       clip-path="url(#clipPath1039)" />
    <path
       id="path1040"
       d="m 0,0 -1.647,1.408 c -0.15,0.125 -0.31,0.285 -0.31,0.492 0,0.321 0.24,0.607 0.572,0.607 0.184,0 0.332,-0.103 0.458,-0.218 L 0.298,1.236 v 1.671 c 0,0.366 0.16,0.572 0.572,0.572 0.412,0 0.572,-0.206 0.572,-0.572 V 1.236 L 2.667,2.289 C 2.793,2.404 2.941,2.507 3.124,2.507 3.456,2.507 3.696,2.221 3.696,1.9 3.696,1.693 3.536,1.533 3.388,1.408 L 1.739,0 l 1.5,-1.281 c 0.195,-0.16 0.457,-0.356 0.457,-0.629 0,-0.321 -0.24,-0.596 -0.572,-0.596 -0.24,0 -0.446,0.206 -0.617,0.356 l -1.065,0.914 v -1.647 c 0,-0.367 -0.16,-0.572 -0.572,-0.572 -0.412,0 -0.572,0.205 -0.572,0.572 v 1.647 L -0.767,-2.15 c -0.171,-0.15 -0.378,-0.356 -0.618,-0.356 -0.332,0 -0.572,0.275 -0.572,0.596 0,0.273 0.264,0.469 0.458,0.629 z"
       style="fill:#ffffff;fill-opacity:1;fill-rule:nonzero;stroke:none"
       transform="matrix(1.3333333,0,0,-1.3333333,19316.723,414.07387)"
       clip-path="url(#clipPath1041)" />
    <path
       id="path1042"
       d="m 0,0 -1.647,1.408 c -0.15,0.125 -0.31,0.285 -0.31,0.492 0,0.321 0.24,0.607 0.572,0.607 0.184,0 0.332,-0.103 0.458,-0.218 L 0.298,1.236 v 1.671 c 0,0.366 0.16,0.572 0.572,0.572 0.412,0 0.572,-0.206 0.572,-0.572 V 1.236 L 2.667,2.289 C 2.793,2.404 2.941,2.507 3.124,2.507 3.456,2.507 3.696,2.221 3.696,1.9 3.696,1.693 3.536,1.533 3.388,1.408 L 1.739,0 l 1.5,-1.281 c 0.195,-0.16 0.457,-0.356 0.457,-0.629 0,-0.321 -0.24,-0.596 -0.572,-0.596 -0.24,0 -0.446,0.206 -0.617,0.356 l -1.065,0.914 v -1.647 c 0,-0.367 -0.16,-0.572 -0.572,-0.572 -0.412,0 -0.572,0.205 -0.572,0.572 v 1.647 L -0.767,-2.15 c -0.171,-0.15 -0.378,-0.356 -0.618,-0.356 -0.332,0 -0.572,0.275 -0.572,0.596 0,0.273 0.264,0.469 0.458,0.629 z"
       style="fill:#ffffff;fill-opacity:1;fill-rule:nonzero;stroke:none"
       transform="matrix(1.3333333,0,0,-1.3333333,19338.158,414.07387)"
       clip-path="url(#clipPath1043)" />
    <path
       id="path1044"
       d="m 0,0 -1.647,1.408 c -0.15,0.125 -0.31,0.285 -0.31,0.492 0,0.321 0.24,0.607 0.572,0.607 0.184,0 0.332,-0.103 0.458,-0.218 L 0.298,1.236 v 1.671 c 0,0.366 0.16,0.572 0.572,0.572 0.412,0 0.572,-0.206 0.572,-0.572 V 1.236 L 2.667,2.289 C 2.792,2.404 2.941,2.507 3.124,2.507 3.456,2.507 3.696,2.221 3.696,1.9 3.696,1.693 3.536,1.533 3.388,1.408 L 1.739,0 l 1.5,-1.281 c 0.195,-0.16 0.457,-0.356 0.457,-0.629 0,-0.321 -0.24,-0.596 -0.572,-0.596 -0.24,0 -0.446,0.206 -0.617,0.356 l -1.065,0.914 v -1.647 c 0,-0.367 -0.16,-0.572 -0.572,-0.572 -0.412,0 -0.572,0.205 -0.572,0.572 v 1.647 L -0.767,-2.15 c -0.171,-0.15 -0.378,-0.356 -0.618,-0.356 -0.332,0 -0.572,0.275 -0.572,0.596 0,0.273 0.264,0.469 0.458,0.629 z"
       style="fill:#ffffff;fill-opacity:1;fill-rule:nonzero;stroke:none"
       transform="matrix(1.3333333,0,0,-1.3333333,19348.876,414.07387)"
       clip-path="url(#clipPath1045)" />
    <path
       id="path1046"
       d="m 0,0 -1.647,1.408 c -0.15,0.125 -0.31,0.285 -0.31,0.492 0,0.321 0.24,0.607 0.572,0.607 0.184,0 0.332,-0.103 0.458,-0.218 L 0.298,1.236 v 1.671 c 0,0.366 0.16,0.572 0.572,0.572 0.412,0 0.572,-0.206 0.572,-0.572 V 1.236 L 2.667,2.289 C 2.793,2.404 2.941,2.507 3.124,2.507 3.456,2.507 3.696,2.221 3.696,1.9 3.696,1.693 3.536,1.533 3.388,1.408 L 1.739,0 l 1.5,-1.281 c 0.195,-0.16 0.457,-0.356 0.457,-0.629 0,-0.321 -0.24,-0.596 -0.572,-0.596 -0.24,0 -0.446,0.206 -0.617,0.356 l -1.065,0.914 v -1.647 c 0,-0.367 -0.16,-0.572 -0.572,-0.572 -0.412,0 -0.572,0.205 -0.572,0.572 v 1.647 L -0.767,-2.15 c -0.171,-0.15 -0.378,-0.356 -0.618,-0.356 -0.332,0 -0.572,0.275 -0.572,0.596 0,0.273 0.264,0.469 0.458,0.629 z"
       style="fill:#ffffff;fill-opacity:1;fill-rule:nonzero;stroke:none"
       transform="matrix(1.3333333,0,0,-1.3333333,19359.593,414.07387)"
       clip-path="url(#clipPath1047)" />
    <path
       id="path1048"
       d="m 0,0 -1.647,1.408 c -0.15,0.125 -0.31,0.285 -0.31,0.492 0,0.321 0.24,0.607 0.572,0.607 0.184,0 0.332,-0.103 0.458,-0.218 L 0.298,1.236 v 1.671 c 0,0.366 0.16,0.572 0.572,0.572 0.412,0 0.572,-0.206 0.572,-0.572 V 1.236 L 2.667,2.289 C 2.792,2.404 2.941,2.507 3.124,2.507 3.456,2.507 3.696,2.221 3.696,1.9 3.696,1.693 3.536,1.533 3.388,1.408 L 1.739,0 l 1.5,-1.281 c 0.195,-0.16 0.457,-0.356 0.457,-0.629 0,-0.321 -0.24,-0.596 -0.572,-0.596 -0.24,0 -0.446,0.206 -0.617,0.356 l -1.065,0.914 v -1.647 c 0,-0.367 -0.16,-0.572 -0.572,-0.572 -0.412,0 -0.572,0.205 -0.572,0.572 v 1.647 L -0.767,-2.15 c -0.171,-0.15 -0.378,-0.356 -0.618,-0.356 -0.332,0 -0.572,0.275 -0.572,0.596 0,0.273 0.264,0.469 0.458,0.629 z"
       style="fill:#ffffff;fill-opacity:1;fill-rule:nonzero;stroke:none"
       transform="matrix(1.3333333,0,0,-1.3333333,19370.31,414.07387)"
       clip-path="url(#clipPath1049)" />
    <path
       id="path1050"
       d="m 0,0 -1.439,1.23 c -0.13,0.11 -0.271,0.249 -0.271,0.43 0,0.279 0.21,0.529 0.5,0.529 0.16,0 0.29,-0.089 0.4,-0.189 L 0.26,1.08 v 1.459 c 0,0.32 0.139,0.5 0.499,0.5 0.36,0 0.5,-0.18 0.5,-0.5 V 1.08 L 2.328,2 c 0.11,0.1 0.24,0.189 0.401,0.189 0.289,0 0.499,-0.25 0.499,-0.529 0,-0.181 -0.14,-0.32 -0.27,-0.43 L 1.519,0 2.828,-1.119 c 0.17,-0.14 0.4,-0.31 0.4,-0.549 0,-0.281 -0.21,-0.52 -0.499,-0.52 -0.21,0 -0.391,0.18 -0.541,0.309 l -0.929,0.8 v -1.439 c 0,-0.32 -0.14,-0.5 -0.5,-0.5 -0.36,0 -0.499,0.18 -0.499,0.5 v 1.439 l -0.93,-0.8 C -0.82,-2.008 -1,-2.188 -1.21,-2.188 c -0.29,0 -0.5,0.239 -0.5,0.52 0,0.239 0.231,0.409 0.4,0.549 z"
       style="fill:#ffffff;fill-opacity:1;fill-rule:nonzero;stroke:none"
       transform="matrix(1.3333333,0,0,-1.3333333,19289.714,452.98013)"
       clip-path="url(#clipPath1051)" />
    <path
       id="path1052"
       d="m 0,0 -1.439,1.23 c -0.13,0.11 -0.271,0.249 -0.271,0.43 0,0.279 0.21,0.529 0.5,0.529 0.16,0 0.29,-0.089 0.4,-0.189 L 0.26,1.08 v 1.459 c 0,0.32 0.139,0.5 0.499,0.5 0.36,0 0.5,-0.18 0.5,-0.5 V 1.08 L 2.328,2 c 0.11,0.1 0.24,0.189 0.401,0.189 0.289,0 0.499,-0.25 0.499,-0.529 0,-0.181 -0.14,-0.32 -0.27,-0.43 L 1.519,0 2.828,-1.119 c 0.17,-0.14 0.4,-0.31 0.4,-0.549 0,-0.281 -0.21,-0.52 -0.499,-0.52 -0.21,0 -0.391,0.18 -0.541,0.309 l -0.929,0.8 v -1.439 c 0,-0.32 -0.14,-0.5 -0.5,-0.5 -0.36,0 -0.499,0.18 -0.499,0.5 v 1.439 l -0.93,-0.8 C -0.82,-2.008 -1,-2.188 -1.21,-2.188 c -0.29,0 -0.5,0.239 -0.5,0.52 0,0.239 0.231,0.409 0.4,0.549 z"
       style="fill:#ffffff;fill-opacity:1;fill-rule:nonzero;stroke:none"
       transform="matrix(1.3333333,0,0,-1.3333333,19299.073,452.98013)"
       clip-path="url(#clipPath1053)" />
    <path
       id="path1054"
       d="m 0,0 -1.439,1.23 c -0.13,0.11 -0.271,0.249 -0.271,0.43 0,0.279 0.21,0.529 0.5,0.529 0.16,0 0.29,-0.089 0.4,-0.189 L 0.26,1.08 v 1.459 c 0,0.32 0.139,0.5 0.499,0.5 0.36,0 0.5,-0.18 0.5,-0.5 V 1.08 L 2.328,2 c 0.11,0.1 0.24,0.189 0.401,0.189 0.289,0 0.499,-0.25 0.499,-0.529 0,-0.181 -0.14,-0.32 -0.27,-0.43 L 1.519,0 2.828,-1.119 c 0.17,-0.14 0.4,-0.31 0.4,-0.549 0,-0.281 -0.21,-0.52 -0.499,-0.52 -0.21,0 -0.391,0.18 -0.541,0.309 l -0.929,0.8 v -1.439 c 0,-0.32 -0.14,-0.5 -0.5,-0.5 -0.36,0 -0.499,0.18 -0.499,0.5 v 1.439 l -0.93,-0.8 C -0.82,-2.008 -1,-2.188 -1.21,-2.188 c -0.29,0 -0.5,0.239 -0.5,0.52 0,0.239 0.231,0.409 0.4,0.549 z"
       style="fill:#ffffff;fill-opacity:1;fill-rule:nonzero;stroke:none"
       transform="matrix(1.3333333,0,0,-1.3333333,19308.434,452.98013)"
       clip-path="url(#clipPath1055)" />
    <g
       opacity="0.270004"
       id="g1079"
       clip-path="url(#clipPath1080)">
      <path
         d="m 0,0 -1.42,3.665 h 0.525 L 0.058,1.002 c 0.077,-0.213 0.141,-0.413 0.192,-0.6 0.057,0.2 0.123,0.401 0.198,0.6 l 0.99,2.663 H 1.934 L 0.498,0 Z"
         style="fill:#009bdb;fill-opacity:1;fill-rule:nonzero;stroke:none"
         transform="matrix(1.3333333,0,0,-1.3333333,19230.195,445.6884)"
         clip-path="url(#clipPath1056)"
         id="path1068" />
      <path
         d="M 0,0 H 1.243 L 0.86,1.015 C 0.744,1.323 0.657,1.577 0.601,1.775 0.554,1.54 0.488,1.307 0.403,1.075 Z M -1.058,-1.505 0.351,2.16 h 0.522 l 1.5,-3.665 H 1.82 L 1.394,-0.396 H -0.14 l -0.402,-1.109 z"
         style="fill:#009bdb;fill-opacity:1;fill-rule:nonzero;stroke:none"
         transform="matrix(1.3333333,0,0,-1.3333333,19233.596,443.68187)"
         clip-path="url(#clipPath1057)"
         id="path1069" />
      <path
         d="M 0,0 V 3.665 H 0.485 V 0.432 H 2.29 V 0 Z"
         style="fill:#009bdb;fill-opacity:1;fill-rule:nonzero;stroke:none"
         transform="matrix(1.3333333,0,0,-1.3333333,19237.127,445.6884)"
         clip-path="url(#clipPath1058)"
         id="path1070" />
      <path
         d="m 621.504,323.426 h 0.485 v -3.665 h -0.485 z"
         style="fill:#009bdb;fill-opacity:1;fill-rule:nonzero;stroke:none"
         transform="matrix(1.3333333,0,0,-1.3333333,18412.267,872.036)"
         clip-path="url(#clipPath1059)"
         id="path1071" />
      <path
         d="m 0,0 h 0.783 c 0.241,0 0.431,0.023 0.569,0.068 0.137,0.045 0.247,0.108 0.329,0.19 0.115,0.115 0.204,0.269 0.268,0.464 0.065,0.194 0.097,0.429 0.097,0.706 0,0.384 -0.064,0.678 -0.19,0.885 C 1.731,2.518 1.578,2.656 1.398,2.727 1.268,2.775 1.059,2.801 0.771,2.801 H 0 Z M -0.484,-0.432 V 3.233 H 0.778 C 1.063,3.233 1.28,3.217 1.431,3.182 1.641,3.133 1.819,3.045 1.968,2.918 2.161,2.756 2.306,2.547 2.402,2.292 2.498,2.038 2.546,1.748 2.546,1.421 2.546,1.143 2.514,0.896 2.448,0.681 2.383,0.465 2.3,0.287 2.198,0.146 2.097,0.006 1.985,-0.105 1.864,-0.186 1.743,-0.267 1.598,-0.328 1.427,-0.369 1.256,-0.411 1.06,-0.432 0.838,-0.432 Z"
         style="fill:#009bdb;fill-opacity:1;fill-rule:nonzero;stroke:none"
         transform="matrix(1.3333333,0,0,-1.3333333,19243.249,445.11293)"
         clip-path="url(#clipPath1060)"
         id="path1072" />
      <path
         d="M 0,0 V 3.232 H -1.208 V 3.665 H 1.697 V 3.232 H 0.484 V 0 Z"
         style="fill:#009bdb;fill-opacity:1;fill-rule:nonzero;stroke:none"
         transform="matrix(1.3333333,0,0,-1.3333333,19250.305,445.6884)"
         clip-path="url(#clipPath1061)"
         id="path1073" />
      <path
         d="M 0,0 V 3.665 H 0.485 V 2.16 H 2.391 V 3.665 H 2.875 V 0 H 2.391 V 1.728 H 0.485 V 0 Z"
         style="fill:#009bdb;fill-opacity:1;fill-rule:nonzero;stroke:none"
         transform="matrix(1.3333333,0,0,-1.3333333,19253.129,445.6884)"
         clip-path="url(#clipPath1062)"
         id="path1074" />
      <path
         d="M 0,0 H 1.043 C 1.265,0 1.437,0.023 1.562,0.069 1.687,0.115 1.783,0.188 1.848,0.289 1.913,0.391 1.945,0.5 1.945,0.618 1.945,0.791 1.883,0.934 1.757,1.046 1.631,1.157 1.432,1.213 1.16,1.213 H 0 Z M -0.485,-2.047 V 1.618 H 1.141 C 1.467,1.618 1.715,1.586 1.886,1.52 2.056,1.453 2.191,1.338 2.293,1.171 2.395,1.004 2.445,0.82 2.445,0.618 2.445,0.357 2.361,0.139 2.193,-0.039 2.024,-0.218 1.765,-0.331 1.413,-0.379 1.541,-0.441 1.639,-0.502 1.705,-0.562 1.847,-0.691 1.981,-0.854 2.107,-1.05 L 2.745,-2.047 H 2.136 L 1.65,-1.285 C 1.509,-1.064 1.392,-0.896 1.3,-0.779 1.209,-0.663 1.126,-0.581 1.054,-0.535 0.981,-0.488 0.907,-0.455 0.833,-0.437 0.777,-0.426 0.687,-0.42 0.562,-0.42 H 0 v -1.627 z"
         style="fill:#009bdb;fill-opacity:1;fill-rule:nonzero;stroke:none"
         transform="matrix(1.3333333,0,0,-1.3333333,19258.575,442.9592)"
         clip-path="url(#clipPath1063)"
         id="path1075" />
      <path
         d="m 0,0 h 0.484 v -2.118 c 0,-0.368 -0.041,-0.66 -0.125,-0.877 -0.083,-0.217 -0.233,-0.393 -0.451,-0.529 -0.217,-0.136 -0.503,-0.204 -0.856,-0.204 -0.343,0 -0.624,0.059 -0.843,0.178 -0.218,0.117 -0.374,0.289 -0.467,0.514 -0.094,0.223 -0.14,0.529 -0.14,0.918 V 0 h 0.485 v -2.115 c 0,-0.319 0.029,-0.554 0.089,-0.704 0.058,-0.151 0.161,-0.268 0.304,-0.349 0.145,-0.081 0.321,-0.122 0.53,-0.122 0.356,0 0.61,0.08 0.762,0.242 C -0.076,-2.886 0,-2.575 0,-2.115 Z"
         style="fill:#009bdb;fill-opacity:1;fill-rule:nonzero;stroke:none"
         transform="matrix(1.3333333,0,0,-1.3333333,19265.933,440.80173)"
         clip-path="url(#clipPath1064)"
         id="path1076" />
      <path
         d="M 0,0 0.485,-0.123 C 0.383,-0.521 0.2,-0.825 -0.063,-1.034 c -0.265,-0.21 -0.588,-0.314 -0.97,-0.314 -0.395,0 -0.716,0.08 -0.964,0.241 -0.247,0.162 -0.436,0.394 -0.565,0.699 -0.129,0.304 -0.194,0.633 -0.194,0.982 0,0.383 0.073,0.715 0.219,1 0.146,0.283 0.353,0.5 0.623,0.647 0.268,0.148 0.565,0.221 0.889,0.221 0.367,0 0.674,-0.092 0.924,-0.28 C 0.149,1.976 0.324,1.713 0.423,1.375 L -0.055,1.262 C -0.141,1.529 -0.264,1.723 -0.425,1.845 -0.587,1.967 -0.79,2.027 -1.035,2.027 -1.317,2.027 -1.553,1.96 -1.742,1.825 -1.931,1.689 -2.063,1.509 -2.141,1.281 -2.217,1.054 -2.256,0.818 -2.256,0.577 c 0,-0.311 0.046,-0.584 0.137,-0.816 0.091,-0.233 0.232,-0.407 0.424,-0.522 0.191,-0.114 0.399,-0.173 0.622,-0.173 0.272,0 0.502,0.079 0.69,0.236 C -0.194,-0.541 -0.066,-0.309 0,0"
         style="fill:#009bdb;fill-opacity:1;fill-rule:nonzero;stroke:none"
         transform="matrix(1.3333333,0,0,-1.3333333,19297.633,443.97493)"
         clip-path="url(#clipPath1065)"
         id="path1077" />
      <path
         d="m 0,0 -1.42,3.665 h 0.525 L 0.058,1.002 c 0.077,-0.213 0.141,-0.413 0.192,-0.6 0.057,0.2 0.123,0.401 0.198,0.6 l 0.99,2.663 H 1.934 L 0.498,0 Z"
         style="fill:#009bdb;fill-opacity:1;fill-rule:nonzero;stroke:none"
         transform="matrix(1.3333333,0,0,-1.3333333,19300.349,445.6884)"
         clip-path="url(#clipPath1066)"
         id="path1078" />
      <path
         d="m 0,0 -1.42,3.665 h 0.525 L 0.058,1.002 c 0.077,-0.213 0.141,-0.413 0.192,-0.6 0.057,0.2 0.123,0.401 0.198,0.6 l 0.99,2.663 H 1.934 L 0.498,0 Z"
         style="fill:#009bdb;fill-opacity:1;fill-rule:nonzero;stroke:none"
         transform="matrix(1.3333333,0,0,-1.3333333,19304.782,445.6884)"
         clip-path="url(#clipPath1067)"
         id="path1079" />
    </g>
    <path
       id="path1105"
       d="M 0,0 V 0 H 145.303 Z"
       style="fill:none;stroke:#000000;stroke-width:1.095;stroke-linecap:butt;stroke-linejoin:miter;stroke-miterlimit:10;stroke-dasharray:none;stroke-opacity:1"
       transform="matrix(1.3333333,0,0,-1.3333333,19230.579,404.9084)"
       clip-path="url(#clipPath1106)" />
  </g>
</svg>
