<?xml version="1.0" encoding="utf-8"?>
<!-- Generator: Adobe Illustrator 27.9.0, SVG Export Plug-In . SVG Version: 6.00 Build 0)  -->
<svg version="1.1" id="Capa_1" xmlns="http://www.w3.org/2000/svg" xmlns:xlink="http://www.w3.org/1999/xlink" x="0px" y="0px"
	 viewBox="0 0 482.1 406.9" style="enable-background:new 0 0 482.1 406.9;" xml:space="preserve">
<style type="text/css">
	.st0{fill:url(#SVGID_1_);}
	.st1{fill:#FFFFFF;}
	.st2{fill:url(#SVGID_00000009580087305727353440000000713553807431511175_);}
	.st3{fill:url(#SVGID_00000041981465006047512570000014890040488060131478_);}
	.st4{fill:url(#SVGID_00000020362391055735387800000010599797034490029721_);}
	.st5{fill:url(#SVGID_00000177472800620228282810000003053548510226738821_);}
	.st6{fill:url(#SVGID_00000178188914749513580850000008831231965076593052_);}
	.st7{fill:url(#SVGID_00000139276712036214501470000007998433024684981890_);}
	.st8{fill:url(#SVGID_00000005986297152029384870000003958619080891540919_);}
	.st9{fill:url(#SVGID_00000170271225152322625650000003524381605781421984_);}
	.st10{fill:url(#SVGID_00000086680912791363604790000001912063221661196165_);}
	.st11{fill:url(#SVGID_00000131363868057310191640000000548649101732085385_);}
	.st12{fill:url(#SVGID_00000000935667583285025870000015441129413579442617_);}
	.st13{fill:url(#SVGID_00000055694846983090139250000001719398824790103950_);}
	.st14{opacity:0.2;clip-path:url(#SVGID_00000026843381839903538570000001702734809126012053_);}
	.st15{fill:#009BDB;}
	.st16{fill:url(#SVGID_00000010289158501128416870000005879282459778767015_);}
	.st17{fill:#BA007C;}
	.st18{fill:url(#SVGID_00000150823947252109962570000008569929395316766112_);}
	.st19{fill:url(#SVGID_00000183211267972831728480000004581396819738002091_);}
	.st20{fill:url(#SVGID_00000067226263148839083910000015333789697687188379_);}
	.st21{fill:url(#SVGID_00000082341246527033126090000017912149384178694043_);}
	.st22{fill:url(#SVGID_00000169544825986033199820000012346408994211335299_);}
	.st23{opacity:0.27;}
</style>
<g>
	
		<linearGradient id="SVGID_1_" gradientUnits="userSpaceOnUse" x1="53.2463" y1="-576.2533" x2="485.9319" y2="-576.2533" gradientTransform="matrix(0.9854 0.17 -0.17 0.9854 -125.1628 727.769)">
		<stop  offset="0.2476" style="stop-color:#009BDB"/>
		<stop  offset="0.5026" style="stop-color:#0187B3"/>
		<stop  offset="0.7072" style="stop-color:#027B9A"/>
		<stop  offset="0.8313" style="stop-color:#027691"/>
	</linearGradient>
	<path class="st0" d="M451.2,165.1L125.9,20.8c-9.1-4-19.8,0.1-23.8,9.2L16.6,222.6c-4,9.1,0.1,19.8,9.2,23.8l325.3,144.3
		c9.1,4,19.8-0.1,23.8-9.2l85.5-192.6C464.4,179.8,460.3,169.1,451.2,165.1z"/>
	<g>
		<g>
			<path class="st1" d="M453.4,164.2L128.3,19.3c-9.1-4.1-19.8,0-23.9,9.1L18.6,221c-4.1,9.1,0,19.8,9.1,23.9l325.1,144.9
				c9.1,4.1,19.8,0,23.9-9.1l85.8-192.6C466.6,179,462.5,168.3,453.4,164.2z M151.5,157c-1.7,3.8-6.2,5.5-10,3.8l-33.4-14.9
				c-3.8-1.7-5.5-6.2-3.8-10l9.9-22.2c1.7-3.8,6.2-5.5,10-3.8l33.4,14.9c3.8,1.7,5.5,6.2,3.8,10L151.5,157z"/>
			
				<linearGradient id="SVGID_00000060742006031488078140000002156428462834525870_" gradientUnits="userSpaceOnUse" x1="-7.6522" y1="-2499.2332" x2="384.4733" y2="-2499.2332" gradientTransform="matrix(0.9134 0.4071 -0.4071 0.9134 -949.0595 2410.5459)">
				<stop  offset="0" style="stop-color:#009BDB;stop-opacity:5.000000e-02"/>
				<stop  offset="1" style="stop-color:#009BDB;stop-opacity:0.6"/>
			</linearGradient>
			<path style="fill:url(#SVGID_00000060742006031488078140000002156428462834525870_);" d="M453.4,164.2L128.3,19.3
				c-9.1-4.1-19.8,0-23.9,9.1L18.6,221c-4.1,9.1,0,19.8,9.1,23.9l325.1,144.9c9.1,4.1,19.8,0,23.9-9.1l85.8-192.6
				C466.6,179,462.5,168.3,453.4,164.2z"/>
			<g>
				
					<linearGradient id="SVGID_00000074411301872464381710000017400478683034690484_" gradientUnits="userSpaceOnUse" x1="76.7105" y1="-2496.0044" x2="34.4902" y2="-2538.9285" gradientTransform="matrix(0.9134 0.4071 -0.4071 0.9134 -949.0595 2410.5459)">
					<stop  offset="0" style="stop-color:#6D6D6D"/>
					<stop  offset="0.2388" style="stop-color:#B4B4B4"/>
					<stop  offset="0.408" style="stop-color:#E8E8E8"/>
					<stop  offset="0.597" style="stop-color:#FFFFFF"/>
					<stop  offset="0.7761" style="stop-color:#CCCCCC"/>
					<stop  offset="0.9801" style="stop-color:#3B3B3B"/>
				</linearGradient>
				<path style="fill:url(#SVGID_00000074411301872464381710000017400478683034690484_);" d="M133.2,122.9l-19.4-8.6l-2.8,6.2
					l14.2,6.3C127.5,124.4,130.3,123,133.2,122.9z"/>
				
					<linearGradient id="SVGID_00000076584923536889270060000000536519362871594424_" gradientUnits="userSpaceOnUse" x1="78.6744" y1="-2498.8032" x2="36.5587" y2="-2541.6208" gradientTransform="matrix(0.9134 0.4071 -0.4071 0.9134 -949.0595 2410.5459)">
					<stop  offset="0" style="stop-color:#6D6D6D"/>
					<stop  offset="0.2388" style="stop-color:#B4B4B4"/>
					<stop  offset="0.408" style="stop-color:#E8E8E8"/>
					<stop  offset="0.597" style="stop-color:#FFFFFF"/>
					<stop  offset="0.7761" style="stop-color:#CCCCCC"/>
					<stop  offset="0.9801" style="stop-color:#3B3B3B"/>
				</linearGradient>
				<path style="fill:url(#SVGID_00000076584923536889270060000000536519362871594424_);" d="M127.8,119.1l2.9-6.4l-7.5-3.4
					c-3.1-1.4-7,0.3-8.7,3.8L127.8,119.1z"/>
				
					<linearGradient id="SVGID_00000036963574329009172680000014774356089185217423_" gradientUnits="userSpaceOnUse" x1="87.5567" y1="-2508.5298" x2="45.6176" y2="-2551.168" gradientTransform="matrix(0.9134 0.4071 -0.4071 0.9134 -949.0595 2410.5459)">
					<stop  offset="0" style="stop-color:#6D6D6D"/>
					<stop  offset="0.2388" style="stop-color:#B4B4B4"/>
					<stop  offset="0.408" style="stop-color:#E8E8E8"/>
					<stop  offset="0.597" style="stop-color:#FFFFFF"/>
					<stop  offset="0.7761" style="stop-color:#CCCCCC"/>
					<stop  offset="0.9801" style="stop-color:#3B3B3B"/>
				</linearGradient>
				<polygon style="fill:url(#SVGID_00000036963574329009172680000014774356089185217423_);" points="147.1,127.8 150,121.4 
					131.5,113.1 128.7,119.6 				"/>
				
					<linearGradient id="SVGID_00000091709467712462691340000013615066796156421044_" gradientUnits="userSpaceOnUse" x1="71.5291" y1="-2489.9836" x2="29.2006" y2="-2533.0176" gradientTransform="matrix(0.9134 0.4071 -0.4071 0.9134 -949.0595 2410.5459)">
					<stop  offset="0" style="stop-color:#6D6D6D"/>
					<stop  offset="0.2388" style="stop-color:#B4B4B4"/>
					<stop  offset="0.408" style="stop-color:#E8E8E8"/>
					<stop  offset="0.597" style="stop-color:#FFFFFF"/>
					<stop  offset="0.7761" style="stop-color:#CCCCCC"/>
					<stop  offset="0.9801" style="stop-color:#3B3B3B"/>
				</linearGradient>
				<path style="fill:url(#SVGID_00000091709467712462691340000013615066796156421044_);" d="M122.5,130.8c0.5-1.2,1.2-2.2,1.9-3.1
					l-13.8-6.2l-3,6.6l13.8,6.2C121.7,133.2,122,132,122.5,130.8z"/>
				
					<linearGradient id="SVGID_00000080895847103332990620000000872611361581819015_" gradientUnits="userSpaceOnUse" x1="95.7517" y1="-2516.9294" x2="53.4284" y2="-2559.958" gradientTransform="matrix(0.9134 0.4071 -0.4071 0.9134 -949.0595 2410.5459)">
					<stop  offset="0" style="stop-color:#6D6D6D"/>
					<stop  offset="0.2388" style="stop-color:#B4B4B4"/>
					<stop  offset="0.408" style="stop-color:#E8E8E8"/>
					<stop  offset="0.597" style="stop-color:#FFFFFF"/>
					<stop  offset="0.7761" style="stop-color:#CCCCCC"/>
					<stop  offset="0.9801" style="stop-color:#3B3B3B"/>
				</linearGradient>
				<path style="fill:url(#SVGID_00000080895847103332990620000000872611361581819015_);" d="M161.5,134.2c1.4-3.6,0.1-7.6-3-9
					l-7.5-3.4l-2.9,6.4L161.5,134.2z"/>
				
					<linearGradient id="SVGID_00000026162289416728807440000017562852713549230992_" gradientUnits="userSpaceOnUse" x1="81.0069" y1="-2498.886" x2="37.291" y2="-2543.3303" gradientTransform="matrix(0.9134 0.4071 -0.4071 0.9134 -949.0595 2410.5459)">
					<stop  offset="0" style="stop-color:#6D6D6D"/>
					<stop  offset="0.2388" style="stop-color:#B4B4B4"/>
					<stop  offset="0.408" style="stop-color:#E8E8E8"/>
					<stop  offset="0.597" style="stop-color:#FFFFFF"/>
					<stop  offset="0.7761" style="stop-color:#CCCCCC"/>
					<stop  offset="0.9801" style="stop-color:#3B3B3B"/>
				</linearGradient>
				<path style="fill:url(#SVGID_00000026162289416728807440000017562852713549230992_);" d="M123.5,131.2
					c-2.6,5.9-0.6,12.5,4.5,14.7c5.1,2.3,11.4-0.7,14-6.5s0.6-12.5-4.5-14.7C132.3,122.5,126.1,125.4,123.5,131.2z"/>
				
					<linearGradient id="SVGID_00000093888214361733425650000002987398232293238190_" gradientUnits="userSpaceOnUse" x1="89.261" y1="-2509.0356" x2="46.9364" y2="-2552.0657" gradientTransform="matrix(0.9134 0.4071 -0.4071 0.9134 -949.0595 2410.5459)">
					<stop  offset="0" style="stop-color:#6D6D6D"/>
					<stop  offset="0.2388" style="stop-color:#B4B4B4"/>
					<stop  offset="0.408" style="stop-color:#E8E8E8"/>
					<stop  offset="0.597" style="stop-color:#FFFFFF"/>
					<stop  offset="0.7761" style="stop-color:#CCCCCC"/>
					<stop  offset="0.9801" style="stop-color:#3B3B3B"/>
				</linearGradient>
				<path style="fill:url(#SVGID_00000093888214361733425650000002987398232293238190_);" d="M142.9,139.9c-0.5,1.2-1.2,2.2-1.9,3.1
					l13.8,6.2l3-6.6l-13.8-6.2C143.7,137.5,143.4,138.7,142.9,139.9z"/>
				
					<linearGradient id="SVGID_00000164503235479038001160000014922882281337581742_" gradientUnits="userSpaceOnUse" x1="92.8056" y1="-2513.4648" x2="50.9458" y2="-2556.0225" gradientTransform="matrix(0.9134 0.4071 -0.4071 0.9134 -949.0595 2410.5459)">
					<stop  offset="0" style="stop-color:#6D6D6D"/>
					<stop  offset="0.2388" style="stop-color:#B4B4B4"/>
					<stop  offset="0.408" style="stop-color:#E8E8E8"/>
					<stop  offset="0.597" style="stop-color:#FFFFFF"/>
					<stop  offset="0.7761" style="stop-color:#CCCCCC"/>
					<stop  offset="0.9801" style="stop-color:#3B3B3B"/>
				</linearGradient>
				<path style="fill:url(#SVGID_00000164503235479038001160000014922882281337581742_);" d="M144.1,135.2l14.2,6.3l2.8-6.2
					l-19.4-8.6C143.4,128.9,144.3,132,144.1,135.2z"/>
				
					<linearGradient id="SVGID_00000000196308584902527640000016849552545237745323_" gradientUnits="userSpaceOnUse" x1="67.5711" y1="-2485.9729" x2="25.7098" y2="-2528.5317" gradientTransform="matrix(0.9134 0.4071 -0.4071 0.9134 -949.0595 2410.5459)">
					<stop  offset="0" style="stop-color:#6D6D6D"/>
					<stop  offset="0.2388" style="stop-color:#B4B4B4"/>
					<stop  offset="0.408" style="stop-color:#E8E8E8"/>
					<stop  offset="0.597" style="stop-color:#FFFFFF"/>
					<stop  offset="0.7761" style="stop-color:#CCCCCC"/>
					<stop  offset="0.9801" style="stop-color:#3B3B3B"/>
				</linearGradient>
				<path style="fill:url(#SVGID_00000000196308584902527640000016849552545237745323_);" d="M121.3,135.5l-14.2-6.3l-2.8,6.2
					l19.4,8.6C122,141.8,121.1,138.7,121.3,135.5z"/>
				
					<linearGradient id="SVGID_00000003071594067982227060000011348483550738030977_" gradientUnits="userSpaceOnUse" x1="83.9829" y1="-2503.1108" x2="41.7643" y2="-2546.033" gradientTransform="matrix(0.9134 0.4071 -0.4071 0.9134 -949.0595 2410.5459)">
					<stop  offset="0" style="stop-color:#6D6D6D"/>
					<stop  offset="0.2388" style="stop-color:#B4B4B4"/>
					<stop  offset="0.408" style="stop-color:#E8E8E8"/>
					<stop  offset="0.597" style="stop-color:#FFFFFF"/>
					<stop  offset="0.7761" style="stop-color:#CCCCCC"/>
					<stop  offset="0.9801" style="stop-color:#3B3B3B"/>
				</linearGradient>
				<path style="fill:url(#SVGID_00000003071594067982227060000011348483550738030977_);" d="M132.2,147.9l19.4,8.6l2.8-6.2
					l-14.2-6.3C137.9,146.3,135.1,147.7,132.2,147.9z"/>
				
					<linearGradient id="SVGID_00000112605236702580165370000011504563278280664721_" gradientUnits="userSpaceOnUse" x1="73.6056" y1="-2492.1355" x2="32.5861" y2="-2533.8386" gradientTransform="matrix(0.9134 0.4071 -0.4071 0.9134 -949.0595 2410.5459)">
					<stop  offset="0" style="stop-color:#6D6D6D"/>
					<stop  offset="0.2388" style="stop-color:#B4B4B4"/>
					<stop  offset="0.408" style="stop-color:#E8E8E8"/>
					<stop  offset="0.597" style="stop-color:#FFFFFF"/>
					<stop  offset="0.7761" style="stop-color:#CCCCCC"/>
					<stop  offset="0.9801" style="stop-color:#3B3B3B"/>
				</linearGradient>
				<path style="fill:url(#SVGID_00000112605236702580165370000011504563278280664721_);" d="M137.7,151.6l-2.8,6.3l-0.9-0.4
					l2.8-6.3l-18.5-8.2l-2.8,6.3l-0.9-0.4l2.8-6.3l-13.4-6c-1.4,3.6-0.1,7.6,3,9l35.4,15.8c3.1,1.4,7-0.3,8.7-3.8L137.7,151.6z"/>
			</g>
			<g>
				<defs>
					<path id="SVGID_00000181780718259006163220000009814974240894924725_" d="M453.4,164.2L128.3,19.3c-9.1-4.1-19.8,0-23.9,9.1
						L18.6,221c-4.1,9.1,0,19.8,9.1,23.9l325.1,144.9c9.1,4.1,19.8,0,23.9-9.1l85.8-192.6C466.6,179,462.5,168.3,453.4,164.2z"/>
				</defs>
				<clipPath id="SVGID_00000021090615440863353360000012436851529169749668_">
					<use xlink:href="#SVGID_00000181780718259006163220000009814974240894924725_"  style="overflow:visible;"/>
				</clipPath>
				<g style="opacity:0.2;clip-path:url(#SVGID_00000021090615440863353360000012436851529169749668_);">
					<path class="st15" d="M264.7,328.7c12.1-28.1-0.6-60.7-28.6-73.2c-28-12.5-60.8-0.1-73.5,27.7l0,0l-23,51.7l13.1,5.8l23-51.7
						l0,0c9.5-20.5,33.8-29.6,54.5-20.4c20.7,9.2,30.2,33.3,21.4,54.1l0,0.1l-23,51.7l13.1,5.8L264.7,328.7L264.7,328.7z"/>
					
						<rect x="208" y="308.3" transform="matrix(0.4071 -0.9134 0.9134 0.4071 -119.2398 447.2125)" class="st15" width="153.7" height="14.3"/>
					<g>
						<polygon class="st15" points="296.1,334.2 282.4,338.6 316,413.5 335.5,422.2 						"/>
					</g>
					
						<linearGradient id="SVGID_00000112624494374195828800000016113822654523038380_" gradientUnits="userSpaceOnUse" x1="346.9491" y1="-2458.9172" x2="307.6708" y2="-2390.885" gradientTransform="matrix(0.9134 0.4071 -0.4071 0.9134 -949.0595 2410.5459)">
						<stop  offset="0.6198" style="stop-color:#009BDB"/>
						<stop  offset="1" style="stop-color:#027691"/>
					</linearGradient>
					<polygon style="fill:url(#SVGID_00000112624494374195828800000016113822654523038380_);" points="361.1,313.3 296,334.2 
						301.9,347.3 380.7,322.1 					"/>
					<g>
						<path class="st17" d="M110.9,199.6c-15-6.7-31.5-6.2-45.4,0L90,144.5l-13.1-5.8l-38.8,87c-0.4,0.8-0.7,1.5-1.1,2.3
							c-12.6,28.2,0.1,61.3,28.3,73.8c28.2,12.6,61.3-0.1,73.8-28.3S139.1,212.2,110.9,199.6z M71.2,288.6
							c-20.9-9.3-30.3-33.9-21-54.8s33.9-30.3,54.8-21s30.3,33.9,21,54.8S92.2,297.9,71.2,288.6z"/>
						<g>
							
								<linearGradient id="SVGID_00000124148635026456251040000005418516323949505198_" gradientUnits="userSpaceOnUse" x1="12.0383" y1="-2396.1653" x2="12.1024" y2="-2396.1653" gradientTransform="matrix(0.9134 0.4071 -0.4071 0.9134 -949.0595 2410.5459)">
								<stop  offset="0" style="stop-color:#700156"/>
								<stop  offset="0.3459" style="stop-color:#BA007C"/>
							</linearGradient>
							<path style="fill:url(#SVGID_00000124148635026456251040000005418516323949505198_);" d="M37,228.2l1.2-2.6
								c-0.4,0.8-0.7,1.5-1.1,2.3C37,228,37,228.1,37,228.2L37,228.2z"/>
							
								<linearGradient id="SVGID_00000047018270224719015340000013790938378813199257_" gradientUnits="userSpaceOnUse" x1="26.4522" y1="-2422.8538" x2="123.8591" y2="-2422.8538" gradientTransform="matrix(0.9134 0.4071 -0.4071 0.9134 -949.0595 2410.5459)">
								<stop  offset="0" style="stop-color:#700156"/>
								<stop  offset="0.3459" style="stop-color:#BA007C"/>
							</linearGradient>
							<path style="fill:url(#SVGID_00000047018270224719015340000013790938378813199257_);" d="M50.1,234L50.1,234
								c0.1-0.1,0.1-0.2,0.1-0.3c9.3-20.9,33.9-30.3,54.8-21s30.3,33.9,21,54.8c0,0.1-0.1,0.2-0.1,0.3l13.2,5.9
								c0-0.1,0.1-0.2,0.1-0.3c12.6-28.2-0.1-61.3-28.3-73.8c-15-6.7-31.5-6.2-45.4,0L50.1,234z"/>
						</g>
					</g>
					
						<rect x="113.6" y="280.5" transform="matrix(0.4071 -0.9134 0.9134 0.4071 -162.9499 324.3369)" class="st15" width="109.6" height="14.3"/>
					
						<rect x="95.1" y="272.3" transform="matrix(0.4071 -0.9134 0.9134 0.4071 -166.3785 302.5948)" class="st15" width="109.6" height="14.3"/>
					
						<rect x="95.2" y="272.3" transform="matrix(0.4071 -0.9134 0.9134 0.4071 -166.3676 302.6638)" class="st15" width="109.6" height="14.3"/>
				</g>
			</g>
			<g>
				<path class="st1" d="M364,377.4c-2-0.9-4-1.8-6-2.7c0.2-1.1,0.5-2.3,0.8-3.4c0.1-0.5,0.1-0.7-0.4-0.9c-2.4-1-4.8-2.1-7.2-3.2
					c-0.4-0.2-0.6-0.1-0.8,0.2c-0.8,0.8-1.6,1.7-2.4,2.5c-0.1,0.1-0.4,0.2-0.5,0.2c-2.2-0.9-4.3-1.9-6.6-2.9
					c0.8-0.8,1.6-1.6,2.4-2.3c5.8-5.4,11.5-10.8,17.3-16.2c1.2-1.2,2.4-1.4,4-0.7c1.7,0.8,3.5,1.5,5.3,2.3c-0.2,0.9-0.4,1.8-0.6,2.6
					c-1.6,7.2-3.1,14.4-4.7,21.5c-0.2,0.9-0.4,1.8-0.5,2.8C364,377.3,364,377.3,364,377.4z M360.1,365.1c0.7-3.3,1.4-6.6,2.2-9.9
					c0,0,0,0-0.1,0c-2.4,2.5-4.9,5.1-7.4,7.6C356.6,363.5,358.3,364.3,360.1,365.1z"/>
				<path class="st1" d="M349.2,340.5c0.7,0.5,1.5,1,2.2,1.5c0.6,0.5,1.2,1,1.9,1.6c-1.2,1.6-2.3,3.2-3.5,4.7
					c-0.9-0.7-1.7-1.5-2.6-2.2c-1.2-0.9-2.5-1.6-4-1.8c-0.6-0.1-1.3,0-1.9,0.1c-1,0.3-1.4,1.2-1,2.2c0.3,0.7,0.7,1.3,1.1,1.9
					c1,1.4,2,2.7,2.9,4.1c1.1,1.7,1.5,3.5,1,5.4c-1,3.4-3.4,5.5-6.9,6.1c-2.2,0.4-4.4,0-6.5-0.7c-2.9-1-5.6-2.6-7.9-4.6
					c-0.2-0.1-0.3-0.3-0.4-0.4c0,0-0.1-0.1-0.1-0.2c1.2-1.6,2.4-3.2,3.6-4.9c0.4,0.4,0.7,0.8,1.1,1.2c1.7,1.8,3.7,3.2,6.2,3.7
					c0.6,0.2,1.4,0.2,2,0c1.4-0.2,2.1-1.6,1.5-2.9c-0.4-0.8-1-1.6-1.5-2.4c-0.8-1.2-1.8-2.4-2.5-3.6c-0.9-1.6-1.4-3.4-0.8-5.3
					c0.9-2.8,2.9-4.5,5.7-5.3c2.4-0.7,4.8-0.4,7.2,0.4c0.1,0,0.3,0.1,0.4,0.1C347.2,339.6,348.2,340.1,349.2,340.5z"/>
				<path class="st1" d="M325.7,330.6c-0.7,0.7-1.4,1.3-2,1.9c-6.4,6-12.7,11.9-19,17.9c-0.3,0.3-0.5,0.3-0.9,0.1
					c-1.9-0.9-3.9-1.8-5.8-2.6c-0.4-0.2-0.5-0.4-0.4-0.8c1.2-7.2,2.4-14.3,3.6-21.5c0.2-1.3,0-2.4-0.9-3.4c-1.4-1.6-3.1-3-4.8-4.3
					c-0.1-0.1-0.1-0.1-0.2-0.2c0.3-0.7,0.3-0.7,1-0.4c3.4,1.5,6.8,3,10.2,4.5c1.6,0.7,2.4,2.2,2,3.9c-1.2,4.9-2.3,9.8-3.5,14.7
					c-0.1,0.2-0.1,0.4-0.2,0.7c0.2-0.1,0.3-0.2,0.4-0.3c4.5-4.4,9-8.8,13.5-13.2c0.2-0.2,0.4-0.3,0.7-0.1c2,0.9,3.9,1.8,5.9,2.6
					C325.4,330.4,325.5,330.5,325.7,330.6z"/>
				<path class="st1" d="M312.1,354.3c5.5-7.5,10.9-15,16.4-22.4c2.2,1,4.3,1.9,6.4,2.9c-0.8,1.1-1.6,2.3-2.5,3.4
					c-4.5,6.2-9,12.3-13.5,18.5c-0.3,0.4-0.5,0.5-1,0.3c-1.8-0.8-3.5-1.6-5.3-2.4C312.5,354.4,312.3,354.4,312.1,354.3z"/>
			</g>
			<g>
				<path class="st15" d="M177.1,85.6c2.9-6.8-0.1-14.6-6.9-17.6c-6.7-3-14.6,0-17.7,6.7l0,0L147,87.1l3.2,1.4l5.5-12.4l0,0
					c2.3-4.9,8.1-7.1,13.1-4.9c5,2.2,7.3,8,5.1,13l0,0l-5.5,12.4l3.2,1.4L177.1,85.6L177.1,85.6z"/>
				
					<rect x="163.4" y="80.7" transform="matrix(0.4071 -0.9134 0.9134 0.4071 32.5434 215.0329)" class="st15" width="37" height="3.5"/>
				<g>
					<polygon class="st15" points="184.6,87 181.3,88 189.4,106 194.1,108.1 					"/>
				</g>
				
					<linearGradient id="SVGID_00000100367940666529690590000015431141801998680198_" gradientUnits="userSpaceOnUse" x1="102.6571" y1="-2597.2034" x2="93.2073" y2="-2580.8359" gradientTransform="matrix(0.9134 0.4071 -0.4071 0.9134 -949.0595 2410.5459)">
					<stop  offset="0.6198" style="stop-color:#009BDB"/>
					<stop  offset="1" style="stop-color:#027691"/>
				</linearGradient>
				<polygon style="fill:url(#SVGID_00000100367940666529690590000015431141801998680198_);" points="200.3,81.9 184.6,87 186,90.1 
					205,84 				"/>
				<g>
					<path class="st17" d="M140.1,54.6c-3.6-1.6-7.6-1.5-10.9,0l5.9-13.2l-3.2-1.4l-9.3,20.9c-0.1,0.2-0.2,0.4-0.3,0.6
						c-3,6.8,0,14.7,6.8,17.8c6.8,3,14.7,0,17.8-6.8C149.9,65.6,146.8,57.6,140.1,54.6z M130.5,76c-5-2.2-7.3-8.1-5.1-13.2
						s8.1-7.3,13.2-5.1s7.3,8.1,5.1,13.2C141.5,76,135.6,78.2,130.5,76z"/>
					<g>
						
							<linearGradient id="SVGID_00000176039778688728270390000011624173837050435262_" gradientUnits="userSpaceOnUse" x1="22.0822" y1="-2582.1062" x2="22.0976" y2="-2582.1062" gradientTransform="matrix(0.9134 0.4071 -0.4071 0.9134 -949.0595 2410.5459)">
							<stop  offset="0" style="stop-color:#700156"/>
							<stop  offset="0.3459" style="stop-color:#BA007C"/>
						</linearGradient>
						<path style="fill:url(#SVGID_00000176039778688728270390000011624173837050435262_);" d="M122.3,61.5l0.3-0.6
							C122.5,61,122.4,61.2,122.3,61.5C122.3,61.4,122.3,61.4,122.3,61.5L122.3,61.5z"/>
						
							<linearGradient id="SVGID_00000049198831249813258230000012148096429618239928_" gradientUnits="userSpaceOnUse" x1="25.5499" y1="-2588.5271" x2="48.9847" y2="-2588.5271" gradientTransform="matrix(0.9134 0.4071 -0.4071 0.9134 -949.0595 2410.5459)">
							<stop  offset="0" style="stop-color:#700156"/>
							<stop  offset="0.3459" style="stop-color:#BA007C"/>
						</linearGradient>
						<path style="fill:url(#SVGID_00000049198831249813258230000012148096429618239928_);" d="M125.4,62.9L125.4,62.9
							C125.4,62.8,125.5,62.8,125.4,62.9c2.3-5.1,8.2-7.4,13.2-5.1s7.3,8.1,5.1,13.2c0,0,0,0,0,0.1l3.2,1.4c0,0,0,0,0-0.1
							c3-6.8,0-14.7-6.8-17.8c-3.6-1.6-7.6-1.5-10.9,0L125.4,62.9z"/>
					</g>
				</g>
				
					<rect x="140.7" y="74" transform="matrix(0.4071 -0.9134 0.9134 0.4071 22.0273 185.4706)" class="st15" width="26.4" height="3.5"/>
				
					<rect x="136.3" y="72.1" transform="matrix(0.4071 -0.9134 0.9134 0.4071 21.2024 180.2398)" class="st15" width="26.4" height="3.5"/>
				
					<rect x="136.3" y="72.1" transform="matrix(0.4071 -0.9134 0.9134 0.4071 21.205 180.2564)" class="st15" width="26.4" height="3.5"/>
			</g>
		</g>
		<g>
			<g>
				<g>
					<g>
						<path class="st1" d="M70.4,227.1c0.9,0.4,1.2,1.4,0.9,2.2l-4,8.9c-0.4,0.9-1.4,1.3-2.2,0.9l-4.6-2c-0.9-0.4-1.2-1.4-0.9-2.2
							l4-9c0.4-0.9,1.4-1.2,2.2-0.9L70.4,227.1z M65.7,237.6l4-8.9l-4.6-2l-4,8.9L65.7,237.6z"/>
						<path class="st1" d="M75.2,231.2c-0.4-0.2-0.7-0.6-0.4-1.1c0.2-0.6,0.7-0.6,1.1-0.4l5.3,2.4c0.9,0.4,1.3,1.4,0.9,2.2l-1.3,3
							c-0.3,0.6-0.6,1-1.3,1.2c0.3,0.6,0.2,1.2-0.1,1.8l-1.3,3c-0.4,0.9-1.4,1.3-2.2,0.9l-5.3-2.4c-0.4-0.2-0.7-0.6-0.4-1.1
							c0.2-0.6,0.7-0.6,1.1-0.4l5.3,2.4l1.1-2.6c0.4-0.9,0.2-1.3-0.3-1.5l-3-1.4c-0.4-0.2-0.7-0.6-0.4-1.1c0.2-0.6,0.7-0.6,1.1-0.4
							l3,1.4c0.4,0.2,0.9,0.1,1.3-0.8l1.1-2.6L75.2,231.2z"/>
						<path class="st1" d="M82.4,246.3c-0.3,0.2-0.6,0.4-1,0.2c-0.4-0.2-0.6-0.7-0.4-1.1c0.1-0.3,0.4-0.5,0.7-0.7l10.2-7.3
							c0.3-0.2,0.6-0.4,1-0.2c0.4,0.2,0.6,0.7,0.4,1.1c-0.1,0.2-0.3,0.4-0.4,0.5L82.4,246.3z"/>
						<path class="st1" d="M93.7,250.2l5.3,2.4c0.4,0.2,0.7,0.6,0.4,1.1c-0.2,0.6-0.7,0.6-1.1,0.4l-6.9-3.1l2.2-5
							c0.5-1.2,1.4-1.5,2.5-1l4.4,1.9l1.6-3.7l-5.3-2.4c-0.4-0.2-0.7-0.6-0.4-1.1s0.7-0.6,1.1-0.4l5.1,2.3c0.5,0.2,0.8,0.5,1.1,1
							c0.3,0.6,0.1,1-0.1,1.6l-1.4,3.2c-0.2,0.6-0.5,1-1.1,1.2c-0.5,0.2-0.9,0.1-1.4-0.1l-4.4-1.9L93.7,250.2z"/>
						<path class="st1" d="M106.4,251.1l5.2,2.3c0.8,0.3,0.8,0.7,0.5,1.5l-1.5,3.5c-0.3,0.7-0.7,0.8-1.4,0.5l-5.6-2.5
							c-0.7-0.3-0.9-0.7-0.6-1.4l4.6-10.3c0.2-0.4,0.5-0.7,1-0.5l0.9,0.4c0.4,0.2,0.6,0.7,0.4,1.1c-0.2,0.5-0.7,0.6-1.1,0.4
							L106.4,251.1z M105.7,252.6l-1.1,2.4l4.6,2l1.1-2.4L105.7,252.6z"/>
					</g>
				</g>
			</g>
		</g>
		<g>
			<g>
				<path class="st1" d="M335.5,281.7l-7.6-3.4c-0.6-0.3-0.9-1-0.6-1.6l2.5-5.7c0.3-0.6,1-0.9,1.6-0.6l8.7,3.9
					c0.6,0.3,0.9,1,0.6,1.6l-6.7,15c-0.3,0.6-0.9,0.9-1.6,0.6l-1.1-0.5c-0.7-0.3-0.9-1-0.6-1.6c0.3-0.7,1-0.9,1.6-0.6L335.5,281.7z
					 M336.5,279.5l1.5-3.5l-6.5-2.9l-1.5,3.5L336.5,279.5z"/>
				<path class="st1" d="M349.3,289.7l2.9-6.4c0.2-0.6,0.8-1,1.6-0.6c0.8,0.4,0.9,1,0.6,1.6l-2.9,6.4c0.6,0.3,1,0.8,0.6,1.6
					c-0.4,0.8-1,0.9-1.6,0.6l-2,4.5c-0.3,0.7-0.8,1-1.6,0.6c-0.8-0.4-0.9-0.9-0.6-1.6l2-4.5l-6.5-2.9l4.7-10.5
					c0.2-0.6,0.8-1,1.6-0.6s0.9,1,0.6,1.6l-3.7,8.3L349.3,289.7z"/>
				<path class="st1" d="M356.9,299.8l7.6,3.4c0.6,0.3,1,0.8,0.6,1.6c-0.4,0.8-1,0.9-1.6,0.6l-9.8-4.4l3.2-7.2
					c0.7-1.7,2-2.1,3.6-1.4l6.2,2.8l2.4-5.3l-7.6-3.4c-0.6-0.3-1-0.8-0.6-1.6c0.4-0.8,1-0.9,1.6-0.6l7.4,3.3
					c0.7,0.3,1.2,0.7,1.5,1.4c0.4,0.9,0.2,1.5-0.2,2.3l-2,4.5c-0.4,0.8-0.7,1.4-1.6,1.7c-0.8,0.3-1.3,0.1-2.1-0.2l-6.2-2.8
					L356.9,299.8z"/>
				<path class="st1" d="M377.1,293.4c-0.6-0.3-1-0.8-0.6-1.6c0.4-0.8,1-0.9,1.6-0.6l7.6,3.4c1.3,0.6,1.8,1.9,1.2,3.2l-1.9,4.3
					c-0.4,0.9-0.9,1.4-1.8,1.8c0.4,0.9,0.3,1.6-0.1,2.5l-1.9,4.3c-0.6,1.3-1.9,1.8-3.2,1.2l-7.6-3.4c-0.6-0.3-1-0.8-0.6-1.6
					c0.4-0.8,1-0.9,1.6-0.6l7.6,3.4l1.6-3.7c0.6-1.2,0.2-1.8-0.4-2.1l-4.3-1.9c-0.6-0.3-1-0.8-0.6-1.6c0.4-0.8,1-0.9,1.6-0.6
					l4.3,1.9c0.6,0.3,1.3,0.1,1.8-1.1l1.6-3.7L377.1,293.4z"/>
			</g>
		</g>
		<g>
			<g>
				<path class="st1" d="M91.5,176.1l-2-4.1c-0.2-0.4-0.4-0.8-0.2-1.2c0.3-0.6,1-1,1.6-0.7c0.4,0.2,0.6,0.5,0.7,0.8l1.5,3.1l1.4-3.2
					c0.3-0.7,0.8-1,1.6-0.6c0.8,0.4,0.9,0.9,0.6,1.6l-1.4,3.2l3.3-1c0.3-0.1,0.7-0.2,1.1,0c0.6,0.3,0.9,1,0.6,1.7
					c-0.2,0.4-0.6,0.6-1,0.7l-4.4,1.3l1.8,3.8c0.2,0.5,0.6,1.1,0.3,1.6c-0.3,0.6-1,0.9-1.6,0.7c-0.5-0.2-0.7-0.8-0.9-1.2l-1.3-2.7
					l-1.4,3.2c-0.3,0.7-0.8,1-1.6,0.6c-0.8-0.4-0.9-0.9-0.6-1.6l1.4-3.2l-2.9,0.9c-0.5,0.1-1,0.4-1.5,0.2c-0.6-0.3-0.9-1-0.6-1.6
					c0.2-0.5,0.9-0.7,1.4-0.8L91.5,176.1z"/>
				<path class="st1" d="M107.1,183l-2-4.1c-0.2-0.4-0.4-0.8-0.2-1.2c0.3-0.6,1-1,1.6-0.7c0.4,0.2,0.6,0.5,0.7,0.8l1.5,3.1l1.4-3.2
					c0.3-0.7,0.8-1,1.6-0.6c0.8,0.4,0.9,0.9,0.6,1.6l-1.4,3.2l3.3-1c0.3-0.1,0.7-0.2,1.1,0c0.6,0.3,0.9,1,0.6,1.7
					c-0.2,0.4-0.6,0.6-1,0.7l-4.4,1.3l1.8,3.8c0.2,0.5,0.6,1.1,0.3,1.6c-0.3,0.6-1,0.9-1.6,0.7c-0.5-0.2-0.7-0.8-0.9-1.2l-1.3-2.7
					l-1.4,3.2c-0.3,0.7-0.8,1-1.6,0.6c-0.8-0.4-0.9-0.9-0.6-1.6l1.4-3.2l-2.9,0.9c-0.5,0.1-1,0.4-1.5,0.2c-0.6-0.3-0.9-1-0.6-1.6
					c0.2-0.5,0.9-0.7,1.4-0.8L107.1,183z"/>
				<path class="st1" d="M122.7,190l-2-4.1c-0.2-0.4-0.4-0.8-0.2-1.2c0.3-0.6,1-1,1.6-0.7c0.4,0.2,0.6,0.5,0.7,0.8l1.5,3.1l1.4-3.2
					c0.3-0.7,0.8-1,1.6-0.6c0.8,0.4,0.9,0.9,0.6,1.6l-1.4,3.2l3.3-1c0.3-0.1,0.7-0.2,1.1,0c0.6,0.3,0.9,1,0.6,1.7
					c-0.2,0.4-0.6,0.6-1,0.7l-4.4,1.3l1.8,3.8c0.2,0.5,0.6,1.1,0.3,1.6c-0.3,0.6-1,0.9-1.6,0.7c-0.5-0.2-0.7-0.8-0.9-1.2l-1.3-2.7
					l-1.4,3.2c-0.3,0.7-0.8,1-1.6,0.6c-0.8-0.4-0.9-0.9-0.6-1.6l1.4-3.2l-2.9,0.9c-0.5,0.1-1,0.4-1.5,0.2c-0.6-0.3-0.9-1-0.6-1.6
					c0.2-0.5,0.9-0.7,1.4-0.8L122.7,190z"/>
				<path class="st1" d="M138.2,196.9l-2-4.1c-0.2-0.4-0.4-0.8-0.2-1.2c0.3-0.6,1-1,1.6-0.7c0.4,0.2,0.6,0.5,0.7,0.8l1.5,3.1
					l1.4-3.2c0.3-0.7,0.8-1,1.6-0.6c0.8,0.4,0.9,0.9,0.6,1.6l-1.4,3.2l3.3-1c0.3-0.1,0.7-0.2,1.1,0c0.6,0.3,0.9,1,0.6,1.7
					c-0.2,0.4-0.6,0.6-1,0.7l-4.4,1.3l1.8,3.8c0.2,0.5,0.6,1.1,0.3,1.6c-0.3,0.6-1,0.9-1.6,0.7c-0.5-0.2-0.7-0.8-0.9-1.2l-1.3-2.7
					l-1.4,3.2c-0.3,0.7-0.8,1-1.6,0.6c-0.8-0.4-0.9-0.9-0.6-1.6l1.4-3.2l-2.9,0.9c-0.5,0.1-1,0.4-1.5,0.2c-0.6-0.3-0.9-1-0.6-1.6
					c0.2-0.5,0.9-0.7,1.4-0.8L138.2,196.9z"/>
				<path class="st1" d="M169.3,210.8l-2-4.1c-0.2-0.4-0.4-0.8-0.2-1.2c0.3-0.6,1-1,1.6-0.7c0.4,0.2,0.6,0.5,0.7,0.8l1.5,3.1
					l1.4-3.2c0.3-0.7,0.8-1,1.6-0.6c0.8,0.4,0.9,0.9,0.6,1.6l-1.4,3.2l3.3-1c0.3-0.1,0.7-0.2,1.1,0c0.6,0.3,0.9,1,0.6,1.7
					c-0.2,0.4-0.6,0.6-1,0.7l-4.4,1.3l1.8,3.8c0.2,0.5,0.6,1.1,0.3,1.6c-0.3,0.6-1,0.9-1.6,0.7c-0.5-0.2-0.7-0.8-0.9-1.2l-1.3-2.7
					l-1.4,3.2c-0.3,0.7-0.8,1-1.6,0.6c-0.8-0.4-0.9-0.9-0.6-1.6l1.4-3.2l-2.9,0.9c-0.5,0.1-1,0.4-1.5,0.2c-0.6-0.3-0.9-1-0.6-1.6
					c0.2-0.5,0.9-0.7,1.4-0.8L169.3,210.8z"/>
				<path class="st1" d="M184.9,217.7l-2-4.1c-0.2-0.4-0.4-0.8-0.2-1.2c0.3-0.6,1-1,1.6-0.7c0.4,0.2,0.6,0.5,0.7,0.8l1.5,3.1
					l1.4-3.2c0.3-0.7,0.8-1,1.6-0.6c0.8,0.4,0.9,0.9,0.6,1.6l-1.4,3.2l3.3-1c0.3-0.1,0.7-0.2,1.1,0c0.6,0.3,0.9,1,0.6,1.7
					c-0.2,0.4-0.6,0.6-1,0.7l-4.4,1.3l1.8,3.8c0.2,0.5,0.6,1.1,0.3,1.6c-0.3,0.6-1,0.9-1.6,0.7c-0.5-0.2-0.7-0.8-0.9-1.2l-1.3-2.7
					l-1.4,3.2c-0.3,0.7-0.8,1-1.6,0.6c-0.8-0.4-0.9-0.9-0.6-1.6l1.4-3.2l-2.9,0.9c-0.5,0.1-1,0.4-1.5,0.2c-0.6-0.3-0.9-1-0.6-1.6
					c0.2-0.5,0.9-0.7,1.4-0.8L184.9,217.7z"/>
				<path class="st1" d="M200.4,224.7l-2-4.1c-0.2-0.4-0.4-0.8-0.2-1.2c0.3-0.6,1-1,1.6-0.7c0.4,0.2,0.6,0.5,0.7,0.8l1.5,3.1
					l1.4-3.2c0.3-0.7,0.8-1,1.6-0.6c0.8,0.4,0.9,0.9,0.6,1.6l-1.4,3.2l3.3-1c0.3-0.1,0.7-0.2,1.1,0c0.6,0.3,0.9,1,0.6,1.7
					c-0.2,0.4-0.6,0.6-1,0.7l-4.4,1.3l1.8,3.8c0.2,0.5,0.6,1.1,0.3,1.6c-0.3,0.6-1,0.9-1.6,0.7c-0.5-0.2-0.7-0.8-0.9-1.2l-1.3-2.7
					l-1.4,3.2c-0.3,0.7-0.8,1-1.6,0.6c-0.8-0.4-0.9-0.9-0.6-1.6l1.4-3.2l-2.9,0.9c-0.5,0.1-1,0.4-1.5,0.2c-0.6-0.3-0.9-1-0.6-1.6
					c0.2-0.5,0.9-0.7,1.4-0.8L200.4,224.7z"/>
				<path class="st1" d="M216,231.6l-2-4.1c-0.2-0.4-0.4-0.8-0.2-1.2c0.3-0.6,1-1,1.6-0.7c0.4,0.2,0.6,0.5,0.7,0.8l1.5,3.1l1.4-3.2
					c0.3-0.7,0.8-1,1.6-0.6c0.8,0.4,0.9,0.9,0.6,1.6l-1.4,3.2l3.3-1c0.3-0.1,0.7-0.2,1.1,0c0.6,0.3,0.9,1,0.6,1.7
					c-0.2,0.4-0.6,0.6-1,0.7l-4.4,1.3l1.8,3.8c0.2,0.5,0.6,1.1,0.3,1.6c-0.3,0.6-1,0.9-1.6,0.7c-0.5-0.2-0.7-0.8-0.9-1.2l-1.3-2.7
					l-1.4,3.2c-0.3,0.7-0.8,1-1.6,0.6c-0.8-0.4-0.9-0.9-0.6-1.6l1.4-3.2l-2.9,0.9c-0.5,0.1-1,0.4-1.5,0.2c-0.6-0.3-0.9-1-0.6-1.6
					c0.2-0.5,0.9-0.7,1.4-0.8L216,231.6z"/>
				<path class="st1" d="M247.1,245.5l-2-4.1c-0.2-0.4-0.4-0.8-0.2-1.2c0.3-0.6,1-1,1.6-0.7c0.4,0.2,0.6,0.5,0.7,0.8l1.5,3.1
					l1.4-3.2c0.3-0.7,0.8-1,1.6-0.6c0.8,0.4,0.9,0.9,0.6,1.6l-1.4,3.2l3.3-1c0.3-0.1,0.7-0.2,1.1,0c0.6,0.3,0.9,1,0.6,1.7
					c-0.2,0.4-0.6,0.6-1,0.7l-4.4,1.3l1.8,3.8c0.2,0.5,0.6,1.1,0.3,1.6c-0.3,0.6-1,0.9-1.6,0.7c-0.5-0.2-0.7-0.8-0.9-1.2l-1.3-2.7
					l-1.4,3.2c-0.3,0.7-0.8,1-1.6,0.6c-0.8-0.4-0.9-0.9-0.6-1.6l1.4-3.2l-2.9,0.9c-0.5,0.1-1,0.4-1.5,0.2c-0.6-0.3-0.9-1-0.6-1.6
					c0.2-0.5,0.9-0.7,1.4-0.8L247.1,245.5z"/>
				<path class="st1" d="M262.7,252.4l-2-4.1c-0.2-0.4-0.4-0.8-0.2-1.2c0.3-0.6,1-1,1.6-0.7c0.4,0.2,0.6,0.5,0.7,0.8l1.5,3.1
					l1.4-3.2c0.3-0.7,0.8-1,1.6-0.6c0.8,0.4,0.9,0.9,0.6,1.6l-1.4,3.2l3.3-1c0.3-0.1,0.7-0.2,1.1,0c0.6,0.3,0.9,1,0.6,1.7
					c-0.2,0.4-0.6,0.6-1,0.7l-4.4,1.3l1.8,3.8c0.2,0.5,0.6,1.1,0.3,1.6c-0.3,0.6-1,0.9-1.6,0.7c-0.5-0.2-0.7-0.8-0.9-1.2l-1.3-2.7
					l-1.4,3.2c-0.3,0.7-0.8,1-1.6,0.6c-0.8-0.4-0.9-0.9-0.6-1.6l1.4-3.2l-2.9,0.9c-0.5,0.1-1,0.4-1.5,0.2c-0.6-0.3-0.9-1-0.6-1.6
					c0.2-0.5,0.9-0.7,1.4-0.8L262.7,252.4z"/>
				<path class="st1" d="M278.2,259.3l-2-4.1c-0.2-0.4-0.4-0.8-0.2-1.2c0.3-0.6,1-1,1.6-0.7c0.4,0.2,0.6,0.5,0.7,0.8l1.5,3.1
					l1.4-3.2c0.3-0.7,0.8-1,1.6-0.6s0.9,0.9,0.6,1.6l-1.4,3.2l3.3-1c0.3-0.1,0.7-0.2,1.1,0c0.6,0.3,0.9,1,0.6,1.7
					c-0.2,0.4-0.6,0.6-1,0.7l-4.4,1.3l1.8,3.8c0.2,0.5,0.6,1.1,0.3,1.6c-0.3,0.6-1,0.9-1.6,0.7c-0.5-0.2-0.7-0.8-0.9-1.2L280,263
					l-1.4,3.2c-0.3,0.7-0.8,1-1.6,0.6s-0.9-0.9-0.6-1.6l1.4-3.2l-2.9,0.9c-0.5,0.1-1,0.4-1.5,0.2c-0.6-0.3-0.9-1-0.6-1.6
					c0.2-0.5,0.9-0.7,1.4-0.8L278.2,259.3z"/>
				<path class="st1" d="M293.8,266.3l-2-4.1c-0.2-0.4-0.4-0.8-0.2-1.2c0.3-0.6,1-1,1.6-0.7c0.4,0.2,0.6,0.5,0.7,0.8l1.5,3.1
					l1.4-3.2c0.3-0.7,0.8-1,1.6-0.6c0.8,0.4,0.9,0.9,0.6,1.6l-1.4,3.2l3.3-1c0.3-0.1,0.7-0.2,1.1,0c0.6,0.3,0.9,1,0.6,1.7
					c-0.2,0.4-0.6,0.6-1,0.7l-4.4,1.3l1.8,3.8c0.2,0.5,0.6,1.1,0.3,1.6c-0.3,0.6-1,0.9-1.6,0.7c-0.5-0.2-0.7-0.8-0.9-1.2l-1.3-2.7
					l-1.4,3.2c-0.3,0.7-0.8,1-1.6,0.6c-0.8-0.4-0.9-0.9-0.6-1.6l1.4-3.2l-2.9,0.9c-0.5,0.1-1,0.4-1.5,0.2c-0.6-0.3-0.9-1-0.6-1.6
					c0.2-0.5,0.9-0.7,1.4-0.8L293.8,266.3z"/>
			</g>
		</g>
		<g>
			<g>
				<path class="st1" d="M151.6,270.6l-1.7-3.6c-0.2-0.3-0.3-0.7-0.2-1.1c0.2-0.5,0.9-0.8,1.4-0.6c0.3,0.1,0.5,0.4,0.6,0.7l1.3,2.7
					l1.3-2.8c0.3-0.6,0.7-0.8,1.4-0.5c0.7,0.3,0.8,0.8,0.5,1.4l-1.3,2.8l2.9-0.9c0.3-0.1,0.6-0.2,0.9,0c0.6,0.2,0.8,0.9,0.5,1.5
					c-0.2,0.3-0.5,0.5-0.9,0.6l-3.8,1.1l1.6,3.3c0.2,0.4,0.5,0.9,0.3,1.4c-0.2,0.5-0.9,0.8-1.4,0.6c-0.4-0.2-0.6-0.7-0.8-1.1
					l-1.1-2.4l-1.2,2.8c-0.3,0.6-0.7,0.8-1.4,0.5c-0.7-0.3-0.8-0.8-0.5-1.4l1.2-2.8l-2.5,0.7c-0.4,0.1-0.9,0.3-1.3,0.1
					c-0.6-0.3-0.8-0.9-0.5-1.4c0.2-0.5,0.8-0.6,1.2-0.7L151.6,270.6z"/>
				<path class="st1" d="M165.2,276.7l-1.7-3.6c-0.2-0.3-0.3-0.7-0.2-1.1c0.2-0.5,0.9-0.8,1.4-0.6c0.3,0.1,0.5,0.4,0.6,0.7l1.3,2.7
					l1.3-2.8c0.3-0.6,0.7-0.8,1.4-0.5c0.7,0.3,0.8,0.8,0.5,1.4l-1.3,2.8l2.9-0.9c0.3-0.1,0.6-0.2,0.9,0c0.6,0.3,0.8,0.9,0.5,1.5
					c-0.2,0.3-0.5,0.5-0.9,0.6l-3.8,1.1l1.6,3.3c0.2,0.4,0.5,0.9,0.3,1.4c-0.2,0.5-0.9,0.8-1.4,0.6c-0.4-0.2-0.6-0.7-0.8-1.1
					l-1.1-2.4l-1.2,2.8c-0.3,0.6-0.7,0.8-1.4,0.5c-0.7-0.3-0.8-0.8-0.5-1.4l1.2-2.8l-2.5,0.7c-0.4,0.1-0.9,0.3-1.3,0.1
					c-0.6-0.2-0.8-0.9-0.5-1.4c0.2-0.5,0.8-0.6,1.2-0.7L165.2,276.7z"/>
				<path class="st1" d="M178.8,282.7l-1.7-3.6c-0.2-0.3-0.3-0.7-0.2-1.1c0.2-0.5,0.9-0.8,1.4-0.6c0.3,0.1,0.5,0.4,0.6,0.7l1.3,2.7
					l1.3-2.8c0.3-0.6,0.7-0.8,1.4-0.5c0.7,0.3,0.8,0.8,0.5,1.4l-1.3,2.8l2.9-0.9c0.3-0.1,0.6-0.2,0.9,0c0.6,0.2,0.8,0.9,0.5,1.5
					c-0.2,0.3-0.5,0.5-0.9,0.6l-3.8,1.1l1.6,3.3c0.2,0.4,0.5,0.9,0.3,1.4c-0.2,0.5-0.9,0.8-1.4,0.6c-0.4-0.2-0.6-0.7-0.8-1.1
					l-1.1-2.4l-1.2,2.8c-0.3,0.6-0.7,0.8-1.4,0.5c-0.7-0.3-0.8-0.8-0.5-1.4l1.2-2.8l-2.5,0.7c-0.4,0.1-0.9,0.3-1.3,0.1
					c-0.6-0.3-0.8-0.9-0.5-1.4c0.2-0.5,0.8-0.6,1.2-0.7L178.8,282.7z"/>
			</g>
		</g>
		<g class="st23">
			<path class="st15" d="M69.9,221.5l0.4-8.3l1,0.5l-0.5,6c0,0.5-0.1,0.9-0.1,1.3c0.3-0.3,0.6-0.7,0.9-1l4.2-4.3l1,0.4l-5.9,5.9
				L69.9,221.5z"/>
			<path class="st15" d="M72.8,222.8l5.9-5.9l1,0.5l-0.3,8.4l-1.1-0.5l0.1-2.5l-3-1.3l-1.7,1.8L72.8,222.8z M76.2,220.8l2.4,1.1
				l0.1-2.3c0-0.7,0.1-1.3,0.2-1.7c-0.3,0.4-0.6,0.8-1,1.2L76.2,220.8z"/>
			<path class="st15" d="M80,226l3.2-7.1l0.9,0.4l-2.8,6.3l3.5,1.6l-0.4,0.8L80,226z"/>
			<path class="st15" d="M85.5,228.5l3.2-7.1l0.9,0.4l-3.2,7.1L85.5,228.5z"/>
			<path class="st15" d="M87.9,229.5l3.2-7.1l2.4,1.1c0.6,0.2,1,0.5,1.2,0.7c0.4,0.3,0.6,0.6,0.8,1c0.2,0.5,0.3,1,0.3,1.6
				c0,0.6-0.2,1.2-0.5,1.8c-0.2,0.5-0.5,1-0.8,1.3c-0.3,0.4-0.6,0.6-0.9,0.8c-0.3,0.2-0.6,0.3-0.9,0.4c-0.3,0.1-0.6,0-1,0
				c-0.4-0.1-0.8-0.2-1.2-0.4L87.9,229.5z M89.3,229.1l1.5,0.7c0.5,0.2,0.9,0.3,1.2,0.4c0.3,0,0.6,0,0.8-0.1
				c0.3-0.1,0.6-0.3,0.9-0.7c0.3-0.3,0.6-0.7,0.8-1.3c0.3-0.7,0.5-1.4,0.4-1.9c-0.1-0.5-0.2-0.9-0.5-1.2c-0.2-0.2-0.6-0.4-1.2-0.7
				l-1.5-0.7L89.3,229.1z"/>
			<path class="st15" d="M99.1,234.5l2.8-6.3l-2.3-1l0.4-0.8l5.6,2.5l-0.4,0.8l-2.3-1l-2.8,6.3L99.1,234.5z"/>
			<path class="st15" d="M103.2,236.3l3.2-7.1l0.9,0.4l-1.3,2.9l3.7,1.6l1.3-2.9l0.9,0.4l-3.2,7.1l-0.9-0.4l1.5-3.3l-3.7-1.6
				l-1.5,3.3L103.2,236.3z"/>
			<path class="st15" d="M110.2,239.4l3.2-7.1l3.1,1.4c0.6,0.3,1.1,0.6,1.4,0.8c0.3,0.3,0.4,0.6,0.5,1c0.1,0.4,0,0.8-0.2,1.2
				c-0.2,0.5-0.6,0.9-1.1,1.1c-0.5,0.2-1.1,0.2-1.8,0c0.2,0.2,0.3,0.4,0.4,0.6c0.2,0.4,0.3,0.8,0.4,1.3l0.4,2.5l-1.2-0.5l-0.3-1.9
				c-0.1-0.5-0.2-1-0.2-1.3c-0.1-0.3-0.2-0.5-0.3-0.7c-0.1-0.2-0.2-0.3-0.3-0.4c-0.1-0.1-0.3-0.2-0.5-0.3l-1.1-0.5l-1.4,3.2
				L110.2,239.4z M112.9,235.9l2,0.9c0.4,0.2,0.8,0.3,1.1,0.3c0.3,0,0.5,0,0.7-0.2c0.2-0.1,0.4-0.3,0.5-0.6c0.1-0.3,0.2-0.7,0-1
				c-0.1-0.3-0.5-0.6-1-0.8l-2.2-1L112.9,235.9z"/>
			<path class="st15" d="M125,237.5l0.9,0.4l-1.8,4.1c-0.3,0.7-0.7,1.2-1,1.6c-0.3,0.3-0.8,0.6-1.3,0.6c-0.5,0.1-1.1,0-1.8-0.3
				c-0.7-0.3-1.2-0.7-1.5-1.1s-0.5-0.9-0.5-1.4c0-0.5,0.2-1.1,0.5-1.9l1.8-4.1l0.9,0.4l-1.8,4.1c-0.3,0.6-0.4,1.1-0.4,1.4
				c0,0.3,0.1,0.7,0.3,0.9c0.2,0.3,0.5,0.5,0.9,0.7c0.7,0.3,1.3,0.4,1.7,0.2c0.4-0.2,0.8-0.7,1.2-1.6L125,237.5z"/>
			<path class="st15" d="M168.9,262.7l0.8,0.7c-0.5,0.7-1.2,1.1-1.8,1.3c-0.7,0.2-1.4,0.1-2.1-0.2c-0.8-0.3-1.3-0.8-1.7-1.3
				c-0.3-0.5-0.5-1.1-0.5-1.8c0-0.7,0.2-1.4,0.5-2.1c0.3-0.7,0.8-1.3,1.3-1.7c0.5-0.4,1.1-0.7,1.8-0.7c0.6-0.1,1.3,0.1,1.9,0.3
				c0.7,0.3,1.2,0.8,1.5,1.3c0.3,0.6,0.4,1.2,0.3,2l-1-0.2c0.1-0.6,0-1.1-0.2-1.4s-0.5-0.7-1-0.9c-0.5-0.2-1.1-0.3-1.5-0.2
				s-0.9,0.3-1.2,0.7c-0.3,0.4-0.6,0.8-0.8,1.3c-0.3,0.6-0.4,1.2-0.4,1.7c0,0.5,0.1,1,0.4,1.4c0.3,0.4,0.6,0.7,1.1,0.9
				c0.5,0.2,1,0.3,1.5,0.1C168.1,263.5,168.5,263.2,168.9,262.7z"/>
			<path class="st15" d="M171.8,266.9l0.4-8.3l1,0.5l-0.5,6c0,0.5-0.1,0.9-0.1,1.3c0.3-0.3,0.6-0.7,0.9-1l4.2-4.3l1,0.4l-5.9,5.9
				L171.8,266.9z"/>
			<path class="st15" d="M178.2,269.8l0.4-8.3l1,0.5l-0.5,6c0,0.5-0.1,0.9-0.1,1.3c0.3-0.3,0.6-0.7,0.9-1l4.2-4.3l1,0.4l-5.9,5.9
				L178.2,269.8z"/>
		</g>
	</g>
</g>
</svg>
