<?xml version="1.0" encoding="UTF-8" standalone="no"?>
<!-- Created with Inkscape (http://www.inkscape.org/) -->

<svg
   version="1.1"
   id="svg1"
   width="246.69727"
   height="155.36533"
   viewBox="0 0 246.69727 155.36533"
   sodipodi:docname="boceto-bink-1.ai"
   xmlns:inkscape="http://www.inkscape.org/namespaces/inkscape"
   xmlns:sodipodi="http://sodipodi.sourceforge.net/DTD/sodipodi-0.dtd"
   xmlns:xlink="http://www.w3.org/1999/xlink"
   xmlns="http://www.w3.org/2000/svg"
   xmlns:svg="http://www.w3.org/2000/svg">
  <defs
     id="defs1">
    <clipPath
       clipPathUnits="userSpaceOnUse"
       id="clipPath194">
      <path
         d="M 0,654.027 H 1365.919 V 0 H 0 Z"
         transform="translate(-636.21694,-363.24181)"
         id="path194" />
    </clipPath>
    <mask
       maskUnits="userSpaceOnUse"
       x="0"
       y="0"
       width="1"
       height="1"
       id="mask194">
      <path
         id="path195"
         d="M -32768,32767 H 32767 V -32768 H -32768 Z"
         style="fill:url(#linearGradient195);stroke:none" />
    </mask>
    <linearGradient
       x1="0"
       y1="0"
       x2="1"
       y2="0"
       gradientUnits="userSpaceOnUse"
       gradientTransform="matrix(185.02225,0,0,-185.02225,591.22736,359.84882)"
       spreadMethod="pad"
       id="linearGradient195">
      <stop
         style="stop-opacity:0.04998856;stop-color:#ffffff"
         offset="0"
         id="stop194" />
      <stop
         style="stop-opacity:0.6;stop-color:#ffffff"
         offset="1"
         id="stop195" />
    </linearGradient>
    <linearGradient
       x1="0"
       y1="0"
       x2="1"
       y2="0"
       gradientUnits="userSpaceOnUse"
       gradientTransform="matrix(185.02225,0,0,-185.02225,591.22736,359.84882)"
       spreadMethod="pad"
       id="linearGradient197">
      <stop
         style="stop-opacity:1;stop-color:#009bdb"
         offset="0"
         id="stop196" />
      <stop
         style="stop-opacity:1;stop-color:#009bdb"
         offset="1"
         id="stop197" />
    </linearGradient>
    <clipPath
       clipPathUnits="userSpaceOnUse"
       id="clipPath198">
      <path
         d="m 599.753,418.11 c -4.708,0 -8.526,-3.816 -8.526,-8.524 v 0 -99.475 c 0,-4.708 3.818,-8.524 8.526,-8.524 v 0 h 167.971 c 4.708,0 8.526,3.816 8.526,8.524 v 0 99.475 c 0,4.708 -3.818,8.524 -8.526,8.524 v 0 z"
         transform="matrix(1.3333333,0,0,-1.3333333,1841.2267,872.036)"
         id="path198" />
    </clipPath>
    <linearGradient
       x1="0"
       y1="0"
       x2="1"
       y2="0"
       gradientUnits="userSpaceOnUse"
       gradientTransform="matrix(-19.921457,20.253477,20.253477,19.921457,631.03345,358.32541)"
       spreadMethod="pad"
       id="linearGradient204">
      <stop
         style="stop-opacity:1;stop-color:#6d6d6d"
         offset="0"
         id="stop198" />
      <stop
         style="stop-opacity:1;stop-color:#b4b4b4"
         offset="0.238806"
         id="stop199" />
      <stop
         style="stop-opacity:1;stop-color:#e8e8e8"
         offset="0.40796"
         id="stop200" />
      <stop
         style="stop-opacity:1;stop-color:#ffffff"
         offset="0.597015"
         id="stop201" />
      <stop
         style="stop-opacity:1;stop-color:#cccccc"
         offset="0.776119"
         id="stop202" />
      <stop
         style="stop-opacity:1;stop-color:#3b3b3b"
         offset="0.980099"
         id="stop203" />
      <stop
         style="stop-opacity:1;stop-color:#3b3b3b"
         offset="1"
         id="stop204" />
    </linearGradient>
    <linearGradient
       x1="0"
       y1="0"
       x2="1"
       y2="0"
       gradientUnits="userSpaceOnUse"
       gradientTransform="matrix(-19.872066,20.203262,20.203262,19.872066,631.96008,359.64603)"
       spreadMethod="pad"
       id="linearGradient211">
      <stop
         style="stop-opacity:1;stop-color:#6d6d6d"
         offset="0"
         id="stop205" />
      <stop
         style="stop-opacity:1;stop-color:#b4b4b4"
         offset="0.238806"
         id="stop206" />
      <stop
         style="stop-opacity:1;stop-color:#e8e8e8"
         offset="0.40796"
         id="stop207" />
      <stop
         style="stop-opacity:1;stop-color:#ffffff"
         offset="0.597015"
         id="stop208" />
      <stop
         style="stop-opacity:1;stop-color:#cccccc"
         offset="0.776119"
         id="stop209" />
      <stop
         style="stop-opacity:1;stop-color:#3b3b3b"
         offset="0.980099"
         id="stop210" />
      <stop
         style="stop-opacity:1;stop-color:#3b3b3b"
         offset="1"
         id="stop211" />
    </linearGradient>
    <linearGradient
       x1="0"
       y1="0"
       x2="1"
       y2="0"
       gradientUnits="userSpaceOnUse"
       gradientTransform="matrix(-19.788727,20.118536,20.118536,19.788727,636.15118,364.23544)"
       spreadMethod="pad"
       id="linearGradient218">
      <stop
         style="stop-opacity:1;stop-color:#6d6d6d"
         offset="0"
         id="stop212" />
      <stop
         style="stop-opacity:1;stop-color:#b4b4b4"
         offset="0.238806"
         id="stop213" />
      <stop
         style="stop-opacity:1;stop-color:#e8e8e8"
         offset="0.40796"
         id="stop214" />
      <stop
         style="stop-opacity:1;stop-color:#ffffff"
         offset="0.597015"
         id="stop215" />
      <stop
         style="stop-opacity:1;stop-color:#cccccc"
         offset="0.776119"
         id="stop216" />
      <stop
         style="stop-opacity:1;stop-color:#3b3b3b"
         offset="0.980099"
         id="stop217" />
      <stop
         style="stop-opacity:1;stop-color:#3b3b3b"
         offset="1"
         id="stop218" />
    </linearGradient>
    <linearGradient
       x1="0"
       y1="0"
       x2="1"
       y2="0"
       gradientUnits="userSpaceOnUse"
       gradientTransform="matrix(-19.972456,20.305325,20.305325,19.972456,628.58862,355.4845)"
       spreadMethod="pad"
       id="linearGradient225">
      <stop
         style="stop-opacity:1;stop-color:#6d6d6d"
         offset="0"
         id="stop219" />
      <stop
         style="stop-opacity:1;stop-color:#b4b4b4"
         offset="0.238806"
         id="stop220" />
      <stop
         style="stop-opacity:1;stop-color:#e8e8e8"
         offset="0.40796"
         id="stop221" />
      <stop
         style="stop-opacity:1;stop-color:#ffffff"
         offset="0.597015"
         id="stop222" />
      <stop
         style="stop-opacity:1;stop-color:#cccccc"
         offset="0.776119"
         id="stop223" />
      <stop
         style="stop-opacity:1;stop-color:#3b3b3b"
         offset="0.980099"
         id="stop224" />
      <stop
         style="stop-opacity:1;stop-color:#3b3b3b"
         offset="1"
         id="stop225" />
    </linearGradient>
    <linearGradient
       x1="0"
       y1="0"
       x2="1"
       y2="0"
       gradientUnits="userSpaceOnUse"
       gradientTransform="matrix(-19.97002,20.302851,20.302851,19.97002,640.01794,368.19873)"
       spreadMethod="pad"
       id="linearGradient232">
      <stop
         style="stop-opacity:1;stop-color:#6d6d6d"
         offset="0"
         id="stop226" />
      <stop
         style="stop-opacity:1;stop-color:#b4b4b4"
         offset="0.238806"
         id="stop227" />
      <stop
         style="stop-opacity:1;stop-color:#e8e8e8"
         offset="0.40796"
         id="stop228" />
      <stop
         style="stop-opacity:1;stop-color:#ffffff"
         offset="0.597015"
         id="stop229" />
      <stop
         style="stop-opacity:1;stop-color:#cccccc"
         offset="0.776119"
         id="stop230" />
      <stop
         style="stop-opacity:1;stop-color:#3b3b3b"
         offset="0.980099"
         id="stop231" />
      <stop
         style="stop-opacity:1;stop-color:#3b3b3b"
         offset="1"
         id="stop232" />
    </linearGradient>
    <linearGradient
       x1="0"
       y1="0"
       x2="1"
       y2="0"
       gradientUnits="userSpaceOnUse"
       gradientTransform="matrix(-20.627075,20.970856,20.970856,20.627075,633.06067,359.68503)"
       spreadMethod="pad"
       id="linearGradient239">
      <stop
         style="stop-opacity:1;stop-color:#6d6d6d"
         offset="0"
         id="stop233" />
      <stop
         style="stop-opacity:1;stop-color:#b4b4b4"
         offset="0.238806"
         id="stop234" />
      <stop
         style="stop-opacity:1;stop-color:#e8e8e8"
         offset="0.40796"
         id="stop235" />
      <stop
         style="stop-opacity:1;stop-color:#ffffff"
         offset="0.597015"
         id="stop236" />
      <stop
         style="stop-opacity:1;stop-color:#cccccc"
         offset="0.776119"
         id="stop237" />
      <stop
         style="stop-opacity:1;stop-color:#3b3b3b"
         offset="0.980099"
         id="stop238" />
      <stop
         style="stop-opacity:1;stop-color:#3b3b3b"
         offset="1"
         id="stop239" />
    </linearGradient>
    <linearGradient
       x1="0"
       y1="0"
       x2="1"
       y2="0"
       gradientUnits="userSpaceOnUse"
       gradientTransform="matrix(-19.970625,20.303465,20.303465,19.970625,636.95532,364.47412)"
       spreadMethod="pad"
       id="linearGradient246">
      <stop
         style="stop-opacity:1;stop-color:#6d6d6d"
         offset="0"
         id="stop240" />
      <stop
         style="stop-opacity:1;stop-color:#b4b4b4"
         offset="0.238806"
         id="stop241" />
      <stop
         style="stop-opacity:1;stop-color:#e8e8e8"
         offset="0.40796"
         id="stop242" />
      <stop
         style="stop-opacity:1;stop-color:#ffffff"
         offset="0.597015"
         id="stop243" />
      <stop
         style="stop-opacity:1;stop-color:#cccccc"
         offset="0.776119"
         id="stop244" />
      <stop
         style="stop-opacity:1;stop-color:#3b3b3b"
         offset="0.980099"
         id="stop245" />
      <stop
         style="stop-opacity:1;stop-color:#3b3b3b"
         offset="1"
         id="stop246" />
    </linearGradient>
    <linearGradient
       x1="0"
       y1="0"
       x2="1"
       y2="0"
       gradientUnits="userSpaceOnUse"
       gradientTransform="matrix(-19.75132,20.080503,20.080503,19.75132,638.62781,366.56403)"
       spreadMethod="pad"
       id="linearGradient253">
      <stop
         style="stop-opacity:1;stop-color:#6d6d6d"
         offset="0"
         id="stop247" />
      <stop
         style="stop-opacity:1;stop-color:#b4b4b4"
         offset="0.238806"
         id="stop248" />
      <stop
         style="stop-opacity:1;stop-color:#e8e8e8"
         offset="0.40796"
         id="stop249" />
      <stop
         style="stop-opacity:1;stop-color:#ffffff"
         offset="0.597015"
         id="stop250" />
      <stop
         style="stop-opacity:1;stop-color:#cccccc"
         offset="0.776119"
         id="stop251" />
      <stop
         style="stop-opacity:1;stop-color:#3b3b3b"
         offset="0.980099"
         id="stop252" />
      <stop
         style="stop-opacity:1;stop-color:#3b3b3b"
         offset="1"
         id="stop253" />
    </linearGradient>
    <linearGradient
       x1="0"
       y1="0"
       x2="1"
       y2="0"
       gradientUnits="userSpaceOnUse"
       gradientTransform="matrix(-19.752005,20.0812,20.0812,19.752005,626.72107,353.59204)"
       spreadMethod="pad"
       id="linearGradient260">
      <stop
         style="stop-opacity:1;stop-color:#6d6d6d"
         offset="0"
         id="stop254" />
      <stop
         style="stop-opacity:1;stop-color:#b4b4b4"
         offset="0.238806"
         id="stop255" />
      <stop
         style="stop-opacity:1;stop-color:#e8e8e8"
         offset="0.40796"
         id="stop256" />
      <stop
         style="stop-opacity:1;stop-color:#ffffff"
         offset="0.597015"
         id="stop257" />
      <stop
         style="stop-opacity:1;stop-color:#cccccc"
         offset="0.776119"
         id="stop258" />
      <stop
         style="stop-opacity:1;stop-color:#3b3b3b"
         offset="0.980099"
         id="stop259" />
      <stop
         style="stop-opacity:1;stop-color:#3b3b3b"
         offset="1"
         id="stop260" />
    </linearGradient>
    <linearGradient
       x1="0"
       y1="0"
       x2="1"
       y2="0"
       gradientUnits="userSpaceOnUse"
       gradientTransform="matrix(-19.920587,20.252592,20.252592,19.920587,634.4649,361.67853)"
       spreadMethod="pad"
       id="linearGradient267">
      <stop
         style="stop-opacity:1;stop-color:#6d6d6d"
         offset="0"
         id="stop261" />
      <stop
         style="stop-opacity:1;stop-color:#b4b4b4"
         offset="0.238806"
         id="stop262" />
      <stop
         style="stop-opacity:1;stop-color:#e8e8e8"
         offset="0.40796"
         id="stop263" />
      <stop
         style="stop-opacity:1;stop-color:#ffffff"
         offset="0.597015"
         id="stop264" />
      <stop
         style="stop-opacity:1;stop-color:#cccccc"
         offset="0.776119"
         id="stop265" />
      <stop
         style="stop-opacity:1;stop-color:#3b3b3b"
         offset="0.980099"
         id="stop266" />
      <stop
         style="stop-opacity:1;stop-color:#3b3b3b"
         offset="1"
         id="stop267" />
    </linearGradient>
    <linearGradient
       x1="0"
       y1="0"
       x2="1"
       y2="0"
       gradientUnits="userSpaceOnUse"
       gradientTransform="matrix(-19.354839,19.677416,19.677416,19.354839,629.56842,356.49991)"
       spreadMethod="pad"
       id="linearGradient274">
      <stop
         style="stop-opacity:1;stop-color:#6d6d6d"
         offset="0"
         id="stop268" />
      <stop
         style="stop-opacity:1;stop-color:#b4b4b4"
         offset="0.238806"
         id="stop269" />
      <stop
         style="stop-opacity:1;stop-color:#e8e8e8"
         offset="0.40796"
         id="stop270" />
      <stop
         style="stop-opacity:1;stop-color:#ffffff"
         offset="0.597015"
         id="stop271" />
      <stop
         style="stop-opacity:1;stop-color:#cccccc"
         offset="0.776119"
         id="stop272" />
      <stop
         style="stop-opacity:1;stop-color:#3b3b3b"
         offset="0.980099"
         id="stop273" />
      <stop
         style="stop-opacity:1;stop-color:#3b3b3b"
         offset="1"
         id="stop274" />
    </linearGradient>
    <clipPath
       clipPathUnits="userSpaceOnUse"
       id="clipPath275">
      <path
         d="M 600.518,356.813 H 766.699 V 284.295 H 600.518 Z"
         transform="translate(-717.97864,-311.00131)"
         id="path275" />
    </clipPath>
    <clipPath
       clipPathUnits="userSpaceOnUse"
       id="clipPath276">
      <path
         d="M 600.518,356.813 H 766.699 V 284.295 H 600.518 Z"
         transform="translate(-2.5000001e-5)"
         id="path276" />
    </clipPath>
    <clipPath
       clipPathUnits="userSpaceOnUse"
       id="clipPath277">
      <path
         d="M 600.518,356.813 H 766.699 V 284.295 H 600.518 Z"
         transform="translate(-732.56134,-314.62371)"
         id="path277" />
    </clipPath>
    <linearGradient
       x1="0"
       y1="0"
       x2="1"
       y2="0"
       gradientUnits="userSpaceOnUse"
       gradientTransform="matrix(-18.533243,-32.100517,-32.100517,18.533243,758.54401,340.82596)"
       spreadMethod="pad"
       id="linearGradient279">
      <stop
         style="stop-opacity:1;stop-color:#009bdb"
         offset="0"
         id="stop277" />
      <stop
         style="stop-opacity:1;stop-color:#009bdb"
         offset="0.619833"
         id="stop278" />
      <stop
         style="stop-opacity:1;stop-color:#027691"
         offset="1"
         id="stop279" />
    </linearGradient>
    <clipPath
       clipPathUnits="userSpaceOnUse"
       id="clipPath279">
      <path
         d="M 600.518,356.813 H 766.699 V 284.295 H 600.518 Z"
         transform="translate(-626.89932,-291.11191)"
         id="path279" />
    </clipPath>
    <linearGradient
       x1="0"
       y1="0"
       x2="1"
       y2="0"
       gradientUnits="userSpaceOnUse"
       gradientTransform="matrix(0.0302219,0,0,-0.0302219,600.51825,311.21686)"
       spreadMethod="pad"
       id="linearGradient282">
      <stop
         style="stop-opacity:1;stop-color:#700156"
         offset="0"
         id="stop280" />
      <stop
         style="stop-opacity:1;stop-color:#ba007c"
         offset="0.345887"
         id="stop281" />
      <stop
         style="stop-opacity:1;stop-color:#ba007c"
         offset="1"
         id="stop282" />
    </linearGradient>
    <linearGradient
       x1="0"
       y1="0"
       x2="1"
       y2="0"
       gradientUnits="userSpaceOnUse"
       gradientTransform="matrix(45.960926,0,0,-45.960926,607.31934,323.80969)"
       spreadMethod="pad"
       id="linearGradient285">
      <stop
         style="stop-opacity:1;stop-color:#700156"
         offset="0"
         id="stop283" />
      <stop
         style="stop-opacity:1;stop-color:#ba007c"
         offset="0.345887"
         id="stop284" />
      <stop
         style="stop-opacity:1;stop-color:#ba007c"
         offset="1"
         id="stop285" />
    </linearGradient>
    <clipPath
       clipPathUnits="userSpaceOnUse"
       id="clipPath285">
      <path
         d="M 600.518,356.813 H 766.699 V 284.295 H 600.518 Z"
         transform="translate(-2.5000001e-5)"
         id="path285" />
    </clipPath>
    <clipPath
       clipPathUnits="userSpaceOnUse"
       id="clipPath286">
      <path
         d="M 600.518,356.813 H 766.699 V 284.295 H 600.518 Z"
         transform="translate(-2.5000001e-5)"
         id="path286" />
    </clipPath>
    <clipPath
       clipPathUnits="userSpaceOnUse"
       id="clipPath287">
      <path
         d="M 600.518,356.813 H 766.699 V 284.295 H 600.518 Z"
         transform="translate(-2.5000001e-5)"
         id="path287" />
    </clipPath>
    <clipPath
       clipPathUnits="userSpaceOnUse"
       id="clipPath298">
      <path
         d="m 599.753,418.11 c -4.708,0 -8.526,-3.816 -8.526,-8.524 v 0 -99.475 c 0,-4.708 3.818,-8.524 8.526,-8.524 v 0 h 167.971 c 4.708,0 8.526,3.816 8.526,8.524 v 0 99.475 c 0,4.708 -3.818,8.524 -8.526,8.524 v 0 z"
         transform="matrix(1.3333333,0,0,-1.3333333,1841.2267,872.036)"
         id="path298" />
    </clipPath>
    <clipPath
       clipPathUnits="userSpaceOnUse"
       id="clipPath300">
      <path
         d="M 0,654.027 H 1365.919 V 0 H 0 Z"
         transform="translate(-766.07592,-313.62891)"
         id="path300" />
    </clipPath>
    <clipPath
       clipPathUnits="userSpaceOnUse"
       id="clipPath302">
      <path
         d="M 0,654.027 H 1365.919 V 0 H 0 Z"
         transform="translate(-756.66094,-322.12121)"
         id="path302" />
    </clipPath>
    <clipPath
       clipPathUnits="userSpaceOnUse"
       id="clipPath304">
      <path
         d="M 0,654.027 H 1365.919 V 0 H 0 Z"
         transform="translate(-744.64744,-321.88241)"
         id="path304" />
    </clipPath>
    <clipPath
       clipPathUnits="userSpaceOnUse"
       id="clipPath306">
      <path
         d="M 0,654.027 H 1365.919 V 0 H 0 Z"
         transform="translate(-743.31739,-309.06601)"
         id="path306" />
    </clipPath>
    <clipPath
       clipPathUnits="userSpaceOnUse"
       id="clipPath308">
      <path
         d="M 0,654.027 H 1365.919 V 0 H 0 Z"
         transform="translate(-633.51672,-398.90021)"
         id="path308" />
    </clipPath>
    <clipPath
       clipPathUnits="userSpaceOnUse"
       id="clipPath310">
      <path
         d="M 0,654.027 H 1365.919 V 0 H 0 Z"
         transform="translate(-2.5000001e-5)"
         id="path310" />
    </clipPath>
    <clipPath
       clipPathUnits="userSpaceOnUse"
       id="clipPath312">
      <path
         d="M 0,654.027 H 1365.919 V 0 H 0 Z"
         transform="translate(-637.02514,-399.77171)"
         id="path312" />
    </clipPath>
    <linearGradient
       x1="0"
       y1="0"
       x2="1"
       y2="0"
       gradientUnits="userSpaceOnUse"
       gradientTransform="matrix(-4.4588456,-7.7229471,-7.7229471,4.4588456,643.27618,406.07559)"
       spreadMethod="pad"
       id="linearGradient314">
      <stop
         style="stop-opacity:1;stop-color:#009bdb"
         offset="0"
         id="stop312" />
      <stop
         style="stop-opacity:1;stop-color:#009bdb"
         offset="0.619833"
         id="stop313" />
      <stop
         style="stop-opacity:1;stop-color:#027691"
         offset="1"
         id="stop314" />
    </linearGradient>
    <clipPath
       clipPathUnits="userSpaceOnUse"
       id="clipPath316">
      <path
         d="M 0,654.027 H 1365.919 V 0 H 0 Z"
         transform="translate(-611.60434,-394.11511)"
         id="path316" />
    </clipPath>
    <linearGradient
       x1="0"
       y1="0"
       x2="1"
       y2="0"
       gradientUnits="userSpaceOnUse"
       gradientTransform="matrix(0.007271,0,0,-0.007271,605.25739,398.95206)"
       spreadMethod="pad"
       id="linearGradient318">
      <stop
         style="stop-opacity:1;stop-color:#700156"
         offset="0"
         id="stop316" />
      <stop
         style="stop-opacity:1;stop-color:#ba007c"
         offset="0.345887"
         id="stop317" />
      <stop
         style="stop-opacity:1;stop-color:#ba007c"
         offset="1"
         id="stop318" />
    </linearGradient>
    <linearGradient
       x1="0"
       y1="0"
       x2="1"
       y2="0"
       gradientUnits="userSpaceOnUse"
       gradientTransform="matrix(11.057572,0,0,-11.057572,606.89362,401.98172)"
       spreadMethod="pad"
       id="linearGradient321">
      <stop
         style="stop-opacity:1;stop-color:#700156"
         offset="0"
         id="stop319" />
      <stop
         style="stop-opacity:1;stop-color:#ba007c"
         offset="0.345887"
         id="stop320" />
      <stop
         style="stop-opacity:1;stop-color:#ba007c"
         offset="1"
         id="stop321" />
    </linearGradient>
    <clipPath
       clipPathUnits="userSpaceOnUse"
       id="clipPath323">
      <path
         d="M 0,654.027 H 1365.919 V 0 H 0 Z"
         transform="translate(-2.5000001e-5)"
         id="path323" />
    </clipPath>
    <clipPath
       clipPathUnits="userSpaceOnUse"
       id="clipPath325">
      <path
         d="M 0,654.027 H 1365.919 V 0 H 0 Z"
         transform="translate(-2.5000001e-5)"
         id="path325" />
    </clipPath>
    <clipPath
       clipPathUnits="userSpaceOnUse"
       id="clipPath327">
      <path
         d="M 0,654.027 H 1365.919 V 0 H 0 Z"
         transform="translate(-2.5000001e-5)"
         id="path327" />
    </clipPath>
    <clipPath
       clipPathUnits="userSpaceOnUse"
       id="clipPath329">
      <path
         d="M 0,654.027 H 1365.919 V 0 H 0 Z"
         transform="translate(-2.5000001e-5)"
         id="path329" />
    </clipPath>
    <clipPath
       clipPathUnits="userSpaceOnUse"
       id="clipPath331">
      <path
         d="M 0,654.027 H 1365.919 V 0 H 0 Z"
         transform="translate(-617.58649,-316.61031)"
         id="path331" />
    </clipPath>
    <clipPath
       clipPathUnits="userSpaceOnUse"
       id="clipPath333">
      <path
         d="M 0,654.027 H 1365.919 V 0 H 0 Z"
         transform="translate(-623.59444,-311.46871)"
         id="path333" />
    </clipPath>
    <clipPath
       clipPathUnits="userSpaceOnUse"
       id="clipPath335">
      <path
         d="M 0,654.027 H 1365.919 V 0 H 0 Z"
         transform="translate(-629.21839,-311.98821)"
         id="path335" />
    </clipPath>
    <clipPath
       clipPathUnits="userSpaceOnUse"
       id="clipPath337">
      <path
         d="M 0,654.027 H 1365.919 V 0 H 0 Z"
         transform="translate(-2.5000001e-5)"
         id="path337" />
    </clipPath>
    <clipPath
       clipPathUnits="userSpaceOnUse"
       id="clipPath339">
      <path
         d="M 0,654.027 H 1365.919 V 0 H 0 Z"
         transform="translate(-2.5000001e-5)"
         id="path339" />
    </clipPath>
    <clipPath
       clipPathUnits="userSpaceOnUse"
       id="clipPath341">
      <path
         d="M 0,654.027 H 1365.919 V 0 H 0 Z"
         transform="translate(-746.93809,-344.05761)"
         id="path341" />
    </clipPath>
    <clipPath
       clipPathUnits="userSpaceOnUse"
       id="clipPath343">
      <path
         d="M 0,654.027 H 1365.919 V 0 H 0 Z"
         transform="translate(-752.18419,-341.15131)"
         id="path343" />
    </clipPath>
    <clipPath
       clipPathUnits="userSpaceOnUse"
       id="clipPath345">
      <path
         d="M 0,654.027 H 1365.919 V 0 H 0 Z"
         transform="translate(-759.64999,-347.76651)"
         id="path345" />
    </clipPath>
    <clipPath
       clipPathUnits="userSpaceOnUse"
       id="clipPath347">
      <path
         d="M 0,654.027 H 1365.919 V 0 H 0 Z"
         transform="translate(-614.03772,-343.47161)"
         id="path347" />
    </clipPath>
    <clipPath
       clipPathUnits="userSpaceOnUse"
       id="clipPath349">
      <path
         d="M 0,654.027 H 1365.919 V 0 H 0 Z"
         transform="translate(-622.07584,-343.47161)"
         id="path349" />
    </clipPath>
    <clipPath
       clipPathUnits="userSpaceOnUse"
       id="clipPath351">
      <path
         d="M 0,654.027 H 1365.919 V 0 H 0 Z"
         transform="translate(-630.11389,-343.47161)"
         id="path351" />
    </clipPath>
    <clipPath
       clipPathUnits="userSpaceOnUse"
       id="clipPath353">
      <path
         d="M 0,654.027 H 1365.919 V 0 H 0 Z"
         transform="translate(-638.15202,-343.47161)"
         id="path353" />
    </clipPath>
    <clipPath
       clipPathUnits="userSpaceOnUse"
       id="clipPath355">
      <path
         d="M 0,654.027 H 1365.919 V 0 H 0 Z"
         transform="translate(-654.22812,-343.47161)"
         id="path355" />
    </clipPath>
    <clipPath
       clipPathUnits="userSpaceOnUse"
       id="clipPath357">
      <path
         d="M 0,654.027 H 1365.919 V 0 H 0 Z"
         transform="translate(-662.26624,-343.47161)"
         id="path357" />
    </clipPath>
    <clipPath
       clipPathUnits="userSpaceOnUse"
       id="clipPath359">
      <path
         d="M 0,654.027 H 1365.919 V 0 H 0 Z"
         transform="translate(-670.30429,-343.47161)"
         id="path359" />
    </clipPath>
    <clipPath
       clipPathUnits="userSpaceOnUse"
       id="clipPath361">
      <path
         d="M 0,654.027 H 1365.919 V 0 H 0 Z"
         transform="translate(-678.34242,-343.47161)"
         id="path361" />
    </clipPath>
    <clipPath
       clipPathUnits="userSpaceOnUse"
       id="clipPath363">
      <path
         d="M 0,654.027 H 1365.919 V 0 H 0 Z"
         transform="translate(-694.41859,-343.47161)"
         id="path363" />
    </clipPath>
    <clipPath
       clipPathUnits="userSpaceOnUse"
       id="clipPath365">
      <path
         d="M 0,654.027 H 1365.919 V 0 H 0 Z"
         transform="translate(-702.45672,-343.47161)"
         id="path365" />
    </clipPath>
    <clipPath
       clipPathUnits="userSpaceOnUse"
       id="clipPath367">
      <path
         d="M 0,654.027 H 1365.919 V 0 H 0 Z"
         transform="translate(-710.49484,-343.47161)"
         id="path367" />
    </clipPath>
    <clipPath
       clipPathUnits="userSpaceOnUse"
       id="clipPath369">
      <path
         d="M 0,654.027 H 1365.919 V 0 H 0 Z"
         transform="translate(-718.53282,-343.47161)"
         id="path369" />
    </clipPath>
    <clipPath
       clipPathUnits="userSpaceOnUse"
       id="clipPath371">
      <path
         d="M 0,654.027 H 1365.919 V 0 H 0 Z"
         transform="translate(-658.08559,-314.29191)"
         id="path371" />
    </clipPath>
    <clipPath
       clipPathUnits="userSpaceOnUse"
       id="clipPath373">
      <path
         d="M 0,654.027 H 1365.919 V 0 H 0 Z"
         transform="translate(-665.10514,-314.29191)"
         id="path373" />
    </clipPath>
    <clipPath
       clipPathUnits="userSpaceOnUse"
       id="clipPath375">
      <path
         d="M 0,654.027 H 1365.919 V 0 H 0 Z"
         transform="translate(-672.12559,-314.29191)"
         id="path375" />
    </clipPath>
    <clipPath
       clipPathUnits="userSpaceOnUse"
       id="clipPath376">
      <path
         d="m 612.026,323.488 h 59.294 v -3.79 h -59.294 z"
         transform="translate(-613.44589,-319.76071)"
         id="path376" />
    </clipPath>
    <clipPath
       clipPathUnits="userSpaceOnUse"
       id="clipPath377">
      <path
         d="m 612.026,323.488 h 59.294 v -3.79 h -59.294 z"
         transform="translate(-615.99672,-321.26561)"
         id="path377" />
    </clipPath>
    <clipPath
       clipPathUnits="userSpaceOnUse"
       id="clipPath378">
      <path
         d="m 612.026,323.488 h 59.294 v -3.79 h -59.294 z"
         transform="translate(-618.64512,-319.76071)"
         id="path378" />
    </clipPath>
    <clipPath
       clipPathUnits="userSpaceOnUse"
       id="clipPath379">
      <path
         d="m 612.026,323.488 h 59.294 v -3.79 h -59.294 z"
         transform="translate(-2.5000001e-5)"
         id="path379" />
    </clipPath>
    <clipPath
       clipPathUnits="userSpaceOnUse"
       id="clipPath380">
      <path
         d="m 612.026,323.488 h 59.294 v -3.79 h -59.294 z"
         transform="translate(-623.23692,-320.19231)"
         id="path380" />
    </clipPath>
    <clipPath
       clipPathUnits="userSpaceOnUse"
       id="clipPath381">
      <path
         d="m 612.026,323.488 h 59.294 v -3.79 h -59.294 z"
         transform="translate(-628.52892,-319.76071)"
         id="path381" />
    </clipPath>
    <clipPath
       clipPathUnits="userSpaceOnUse"
       id="clipPath382">
      <path
         d="m 612.026,323.488 h 59.294 v -3.79 h -59.294 z"
         transform="translate(-630.64714,-319.76071)"
         id="path382" />
    </clipPath>
    <clipPath
       clipPathUnits="userSpaceOnUse"
       id="clipPath383">
      <path
         d="m 612.026,323.488 h 59.294 v -3.79 h -59.294 z"
         transform="translate(-634.73112,-321.80761)"
         id="path383" />
    </clipPath>
    <clipPath
       clipPathUnits="userSpaceOnUse"
       id="clipPath384">
      <path
         d="m 612.026,323.488 h 59.294 v -3.79 h -59.294 z"
         transform="translate(-640.24962,-323.42571)"
         id="path384" />
    </clipPath>
    <clipPath
       clipPathUnits="userSpaceOnUse"
       id="clipPath385">
      <path
         d="m 612.026,323.488 h 59.294 v -3.79 h -59.294 z"
         transform="translate(-664.02499,-321.04581)"
         id="path385" />
    </clipPath>
    <clipPath
       clipPathUnits="userSpaceOnUse"
       id="clipPath386">
      <path
         d="m 612.026,323.488 h 59.294 v -3.79 h -59.294 z"
         transform="translate(-666.06214,-319.76071)"
         id="path386" />
    </clipPath>
    <clipPath
       clipPathUnits="userSpaceOnUse"
       id="clipPath387">
      <path
         d="m 612.026,323.488 h 59.294 v -3.79 h -59.294 z"
         transform="translate(-669.38644,-319.76071)"
         id="path387" />
    </clipPath>
    <clipPath
       clipPathUnits="userSpaceOnUse"
       id="clipPath400">
      <path
         d="M 0,654.027 H 1365.919 V 0 H 0 Z"
         transform="matrix(1.3333333,0,0,-1.3333333,1841.2267,872.036)"
         id="path400" />
    </clipPath>
    <clipPath
       clipPathUnits="userSpaceOnUse"
       id="clipPath426">
      <path
         d="M 0,654.027 H 1365.919 V 0 H 0 Z"
         transform="translate(-613.73442,-350.34571)"
         id="path426" />
    </clipPath>
    <linearGradient
       inkscape:collect="always"
       xlink:href="#linearGradient197"
       id="linearGradient2"
       gradientUnits="userSpaceOnUse"
       gradientTransform="matrix(185.02225,0,0,-185.02225,591.22736,359.84882)"
       x1="0"
       y1="0"
       x2="1"
       y2="0"
       spreadMethod="pad" />
    <linearGradient
       inkscape:collect="always"
       xlink:href="#linearGradient197"
       id="linearGradient3"
       gradientUnits="userSpaceOnUse"
       gradientTransform="matrix(185.02225,0,0,-185.02225,591.22736,359.84882)"
       x1="0"
       y1="0"
       x2="1"
       y2="0"
       spreadMethod="pad" />
  </defs>
  <sodipodi:namedview
     id="namedview1"
     pagecolor="#ffffff"
     bordercolor="#000000"
     borderopacity="0.25"
     inkscape:showpageshadow="2"
     inkscape:pageopacity="0.0"
     inkscape:pagecheckerboard="0"
     inkscape:deskcolor="#d1d1d1">
    <inkscape:page
       x="-7.3013744e-06"
       y="-8.5124857e-06"
       width="246.69727"
       height="155.36533"
       id="page2"
       margin="0"
       bleed="0" />
  </sodipodi:namedview>
  <g
     id="layer-MC0"
     inkscape:groupmode="layer"
     inkscape:label="Capa 1"
     transform="translate(-2629.5293,-314.55493)">
    <path
       id="path193"
       d="m 0,0 c 0,-1.967 -1.595,-3.561 -3.561,-3.561 h -17.272 c -1.966,0 -3.562,1.594 -3.562,3.561 v 11.473 c 0,1.967 1.596,3.561 3.562,3.561 H -3.561 C -1.595,15.034 0,13.44 0,11.473 Z M 131.507,54.869 H -36.464 c -4.708,0 -8.526,-3.816 -8.526,-8.524 v -99.476 c 0,-4.708 3.818,-8.524 8.526,-8.524 h 167.971 c 4.708,0 8.526,3.816 8.526,8.524 v 99.476 c 0,4.708 -3.818,8.524 -8.526,8.524"
       style="fill:#ffffff;fill-opacity:1;fill-rule:nonzero;stroke:none"
       transform="matrix(1.3333333,0,0,-1.3333333,2689.5159,387.7136)"
       clip-path="url(#clipPath194)" />
    <g
       mask="url(#mask194)"
       id="g197"
       clip-path="url(#clipPath198)"
       style="display:none">
      <path
         d="m 599.753,418.11 c -4.708,0 -8.526,-3.816 -8.526,-8.524 v 0 -99.475 c 0,-4.708 3.818,-8.524 8.526,-8.524 v 0 h 167.971 c 4.708,0 8.526,3.816 8.526,8.524 v 0 99.475 c 0,4.708 -3.818,8.524 -8.526,8.524 v 0 z"
         transform="matrix(1.3333333,0,0,-1.3333333,1841.2267,872.036)"
         style="fill:url(#linearGradient2);stroke:none"
         id="path197" />
    </g>
    <path
       d="m 599.753,418.11 c -4.708,0 -8.526,-3.816 -8.526,-8.524 v 0 -99.475 c 0,-4.708 3.818,-8.524 8.526,-8.524 v 0 h 167.971 c 4.708,0 8.526,3.816 8.526,8.524 v 0 99.475 c 0,4.708 -3.818,8.524 -8.526,8.524 v 0 z"
       transform="matrix(1.3333333,0,0,-1.3333333,1841.2267,872.036)"
       style="display:inline;opacity:0.55102;fill:url(#linearGradient3);stroke:none"
       id="path463" />
    <path
       id="path204"
       d="m 611.773,374.433 v -3.223 h 7.317 c 0.505,1.429 1.472,2.582 2.687,3.223 v 0 z"
       transform="matrix(1.3333333,0,0,-1.3333333,1841.2267,872.036)"
       style="fill:url(#linearGradient204);stroke:none" />
    <path
       id="path211"
       d="m 614.814,378.292 c -1.622,0 -2.936,-1.466 -3.024,-3.31 v 0 h 6.914 v 3.31 z"
       transform="matrix(1.3333333,0,0,-1.3333333,1841.2267,872.036)"
       style="fill:url(#linearGradient211);stroke:none" />
    <path
       id="path218"
       d="m 619.182,374.982 h 9.541 v 3.31 h -9.541 z"
       transform="matrix(1.3333333,0,0,-1.3333333,1841.2267,872.036)"
       style="fill:url(#linearGradient218);stroke:none" />
    <path
       id="path225"
       d="m 611.773,370.66 v -3.428 h 7.15 c -0.141,0.543 -0.219,1.117 -0.219,1.714 v 0 c 0,0.596 0.078,1.17 0.219,1.714 v 0 z"
       transform="matrix(1.3333333,0,0,-1.3333333,1841.2267,872.036)"
       style="fill:url(#linearGradient225);stroke:none" />
    <path
       id="path232"
       d="m 629.201,378.292 v -3.31 h 6.914 c -0.088,1.844 -1.402,3.31 -3.025,3.31 v 0 z"
       transform="matrix(1.3333333,0,0,-1.3333333,1841.2267,872.036)"
       style="fill:url(#linearGradient232);stroke:none" />
    <path
       id="path239"
       d="m 619.182,368.946 c 0,-3.026 2.139,-5.488 4.77,-5.488 v 0 c 2.631,0 4.771,2.462 4.771,5.488 v 0 c 0,3.026 -2.14,5.487 -4.771,5.487 v 0 c -2.631,0 -4.77,-2.461 -4.77,-5.487"
       transform="matrix(1.3333333,0,0,-1.3333333,1841.2267,872.036)"
       style="fill:url(#linearGradient239);stroke:none" />
    <path
       id="path246"
       d="m 628.982,370.66 c 0.14,-0.544 0.219,-1.118 0.219,-1.714 v 0 c 0,-0.597 -0.079,-1.171 -0.219,-1.714 v 0 h 7.15 v 3.428 z"
       transform="matrix(1.3333333,0,0,-1.3333333,1841.2267,872.036)"
       style="fill:url(#linearGradient246);stroke:none" />
    <path
       id="path253"
       d="m 626.127,374.433 c 1.215,-0.641 2.182,-1.794 2.687,-3.223 v 0 h 7.318 v 3.223 z"
       transform="matrix(1.3333333,0,0,-1.3333333,1841.2267,872.036)"
       style="fill:url(#linearGradient253);stroke:none" />
    <path
       id="path260"
       d="m 611.773,366.682 v -3.224 h 10.004 c -1.215,0.64 -2.182,1.794 -2.687,3.224 v 0 z"
       transform="matrix(1.3333333,0,0,-1.3333333,1841.2267,872.036)"
       style="fill:url(#linearGradient260);stroke:none" />
    <path
       id="path267"
       d="m 628.815,366.682 c -0.506,-1.43 -1.473,-2.584 -2.688,-3.224 v 0 h 10.005 v 3.224 z"
       transform="matrix(1.3333333,0,0,-1.3333333,1841.2267,872.036)"
       style="fill:url(#linearGradient267);stroke:none" />
    <path
       id="path274"
       d="m 629.201,362.908 v -3.244 h -0.478 v 3.244 h -9.541 v -3.244 h -0.478 v 3.244 h -6.914 c 0.088,-1.843 1.403,-3.309 3.024,-3.309 v 0 h 18.276 c 1.623,0 2.937,1.466 3.025,3.309 v 0 z"
       transform="matrix(1.3333333,0,0,-1.3333333,1841.2267,872.036)"
       style="fill:url(#linearGradient274);stroke:none" />
    <g
       opacity="0.199997"
       id="g297"
       clip-path="url(#clipPath298)">
      <path
         d="M 0,0 C -0.168,14.425 -11.908,26.069 -26.373,26.069 -40.838,26.069 -52.578,14.425 -52.746,0 h 0.008 v -26.693 h 6.771 V 0 0.009 c 0.167,10.667 8.886,19.256 19.594,19.256 10.707,0 19.435,-8.553 19.602,-19.22 L -6.769,0 V -26.693 H 0.002 V 0 Z"
         style="fill:#009bdb;fill-opacity:1;fill-rule:nonzero;stroke:none"
         transform="matrix(1.3333333,0,0,-1.3333333,2798.5315,457.3676)"
         clip-path="url(#clipPath275)"
         id="path288" />
      <path
         d="m 720.747,284.308 h 6.771 v 72.504 h -6.771 z"
         style="fill:#009bdb;fill-opacity:1;fill-rule:nonzero;stroke:none"
         transform="matrix(1.3333333,0,0,-1.3333333,1841.2267,872.036)"
         clip-path="url(#clipPath276)"
         id="path289" />
      <path
         d="m 0,0 -5.043,-4.509 28.87,-25.82 h 10.078 z"
         style="fill:#009bdb;fill-opacity:1;fill-rule:nonzero;stroke:none"
         transform="matrix(1.3333333,0,0,-1.3333333,2817.9751,452.53773)"
         clip-path="url(#clipPath277)"
         id="path290" />
      <path
         d="m 756.587,336.118 -24.06,-21.522 5.071,-4.478 29.101,26 z"
         transform="matrix(1.3333333,0,0,-1.3333333,1841.2267,872.036)"
         style="fill:url(#linearGradient279);stroke:none"
         id="path291" />
      <path
         d="m 0,0 c -10.812,0 -19.577,8.765 -19.577,19.577 0,10.812 8.765,19.577 19.577,19.577 10.812,0 19.577,-8.765 19.577,-19.577 C 19.577,8.765 10.812,0 0,0 m 0,45.958 c -7.769,0 -14.752,-3.359 -19.58,-8.703 v 28.446 h -6.771 V 20.774 c -0.018,-0.397 -0.03,-0.796 -0.03,-1.197 0,-14.57 11.811,-26.381 26.381,-26.381 14.57,0 26.381,11.811 26.381,26.381 0,14.57 -11.811,26.381 -26.381,26.381"
         style="fill:#ba007c;fill-opacity:1;fill-rule:nonzero;stroke:none"
         transform="matrix(1.3333333,0,0,-1.3333333,2677.0924,483.8868)"
         clip-path="url(#clipPath279)"
         id="path292" />
      <path
         d="m 600.548,310.549 v 1.335 c -0.017,-0.396 -0.03,-0.794 -0.03,-1.195 0,-0.047 0.003,-0.093 0.004,-0.14 z"
         transform="matrix(1.3333333,0,0,-1.3333333,1841.2267,872.036)"
         style="fill:url(#linearGradient282);stroke:none"
         id="path293" />
      <path
         d="m 607.319,310.549 h 0.007 c -10e-4,0.047 -0.004,0.093 -0.004,0.14 0,10.812 8.765,19.577 19.577,19.577 10.812,0 19.577,-8.765 19.577,-19.577 0,-0.047 -0.003,-0.093 -0.003,-0.14 h 6.804 c 0,0.047 0.003,0.093 0.003,0.14 0,14.57 -11.811,26.381 -26.381,26.381 -7.769,0 -14.752,-3.359 -19.58,-8.703 z"
         transform="matrix(1.3333333,0,0,-1.3333333,1841.2267,872.036)"
         style="fill:url(#linearGradient285);stroke:none"
         id="path294" />
      <path
         d="m 671.973,335.994 h -6.771 v -51.699 h 6.771 z"
         style="fill:#009bdb;fill-opacity:1;fill-rule:nonzero;stroke:none"
         transform="matrix(1.3333333,0,0,-1.3333333,1841.2267,872.036)"
         clip-path="url(#clipPath285)"
         id="path295" />
      <path
         d="m 662.435,335.994 h -6.771 v -51.699 h 6.771 z"
         style="fill:#009bdb;fill-opacity:1;fill-rule:nonzero;stroke:none"
         transform="matrix(1.3333333,0,0,-1.3333333,1841.2267,872.036)"
         clip-path="url(#clipPath286)"
         id="path296" />
      <path
         d="m 662.465,335.994 h -6.771 v -51.699 h 6.771 z"
         style="fill:#009bdb;fill-opacity:1;fill-rule:nonzero;stroke:none"
         transform="matrix(1.3333333,0,0,-1.3333333,1841.2267,872.036)"
         clip-path="url(#clipPath287)"
         id="path297" />
    </g>
    <path
       id="path299"
       d="m 0,0 c -0.329,1.579 -0.654,3.136 -0.979,4.693 l -0.04,0.008 C -1.585,3.14 -2.151,1.578 -2.723,0 Z M 4.043,-4.555 H 0.954 c -0.113,0.543 -0.234,1.074 -0.33,1.61 -0.04,0.222 -0.111,0.309 -0.359,0.306 -1.239,-0.016 -2.478,-0.013 -3.717,-0.003 -0.187,0.002 -0.262,-0.06 -0.319,-0.231 -0.171,-0.511 -0.357,-1.016 -0.548,-1.52 -0.026,-0.068 -0.112,-0.162 -0.171,-0.162 -1.116,-0.01 -2.233,-0.007 -3.382,-0.007 0.209,0.504 0.408,0.985 0.609,1.465 1.44,3.436 2.88,6.87 4.32,10.305 0.312,0.744 0.78,1.056 1.584,1.056 0.897,0 1.793,0 2.712,0 C 1.443,7.845 1.533,7.433 1.62,7.019 2.328,3.624 3.035,0.229 3.745,-3.165 3.836,-3.6 3.944,-4.031 4.043,-4.464 Z"
       style="fill:#ffffff;fill-opacity:1;fill-rule:nonzero;stroke:none"
       transform="matrix(1.3333333,0,0,-1.3333333,2862.6612,453.86413)"
       clip-path="url(#clipPath300)" />
    <path
       id="path301"
       d="m 0,0 c 0.408,-0.076 0.818,-0.138 1.222,-0.231 0.369,-0.085 0.729,-0.203 1.121,-0.315 -0.198,-0.923 -0.39,-1.823 -0.579,-2.705 -0.516,0.152 -1.01,0.326 -1.517,0.438 -0.694,0.153 -1.406,0.212 -2.1,0.018 -0.282,-0.078 -0.568,-0.229 -0.79,-0.42 -0.381,-0.326 -0.386,-0.796 -0.022,-1.139 0.251,-0.237 0.548,-0.431 0.846,-0.61 0.675,-0.406 1.385,-0.76 2.042,-1.194 0.774,-0.511 1.338,-1.214 1.456,-2.165 0.21,-1.681 -0.412,-3.005 -1.824,-3.942 -0.888,-0.589 -1.893,-0.852 -2.94,-0.95 -1.462,-0.136 -2.895,0.028 -4.292,0.487 -0.094,0.031 -0.185,0.069 -0.276,0.107 -0.028,0.011 -0.051,0.03 -0.093,0.056 0.197,0.925 0.395,1.85 0.598,2.802 0.238,-0.104 0.462,-0.209 0.69,-0.301 1.092,-0.439 2.219,-0.641 3.387,-0.422 0.304,0.057 0.614,0.191 0.871,0.364 0.559,0.375 0.613,1.079 0.104,1.519 -0.335,0.29 -0.737,0.503 -1.118,0.735 -0.595,0.363 -1.228,0.672 -1.791,1.078 -0.722,0.52 -1.245,1.214 -1.345,2.136 -0.148,1.381 0.364,2.502 1.424,3.373 0.922,0.758 2.017,1.094 3.183,1.235 0.065,0.008 0.128,0.03 0.192,0.046 z"
       style="fill:#ffffff;fill-opacity:1;fill-rule:nonzero;stroke:none"
       transform="matrix(1.3333333,0,0,-1.3333333,2850.1079,442.54107)"
       clip-path="url(#clipPath302)" />
    <path
       id="path303"
       d="m 0,0 c -0.174,-0.418 -0.338,-0.816 -0.504,-1.213 -1.59,-3.793 -3.182,-7.585 -4.766,-11.381 -0.075,-0.18 -0.167,-0.228 -0.351,-0.226 -1.003,0.008 -2.007,0.011 -3.01,-0.003 -0.213,-0.003 -0.282,0.072 -0.331,0.263 -0.851,3.315 -1.716,6.627 -2.557,9.945 -0.155,0.608 -0.463,1.024 -1.043,1.279 -0.928,0.409 -1.892,0.696 -2.876,0.93 -0.043,0.01 -0.087,0.021 -0.127,0.032 0.004,0.384 0.004,0.384 0.37,0.384 1.757,0 3.513,10e-4 5.269,0 0.833,0 1.434,-0.484 1.592,-1.308 0.446,-2.334 0.882,-4.67 1.322,-7.005 0.02,-0.102 0.041,-0.204 0.071,-0.348 0.045,0.086 0.077,0.134 0.098,0.186 1.09,2.759 2.182,5.518 3.267,8.279 0.059,0.151 0.132,0.202 0.295,0.201 C -2.262,0.006 -1.244,0.011 -0.225,0.01 -0.159,0.01 -0.093,0.004 0,0"
       style="fill:#ffffff;fill-opacity:1;fill-rule:nonzero;stroke:none"
       transform="matrix(1.3333333,0,0,-1.3333333,2834.0899,442.85947)"
       clip-path="url(#clipPath304)" />
    <path
       id="path305"
       d="M 0,0 C 0.917,4.288 1.828,8.545 2.742,12.813 H 6.069 C 5.931,12.163 5.795,11.525 5.659,10.888 4.905,7.363 4.148,3.838 3.403,0.311 3.351,0.066 3.264,-0.012 3.01,-0.007 2.098,0.011 1.186,0 0.273,0 Z"
       style="fill:#ffffff;fill-opacity:1;fill-rule:nonzero;stroke:none"
       transform="matrix(1.3333333,0,0,-1.3333333,2832.3165,459.948)"
       clip-path="url(#clipPath306)" />
    <path
       id="path307"
       d="M 0,0 C -0.04,3.471 -2.865,6.272 -6.345,6.272 -9.825,6.272 -12.65,3.471 -12.69,0 h 0.002 v -6.422 h 1.629 V 0 0.002 c 0.04,2.567 2.138,4.633 4.714,4.633 2.576,0 4.676,-2.058 4.716,-4.624 V 0 -6.422 H 0 Z"
       style="fill:#009bdb;fill-opacity:1;fill-rule:nonzero;stroke:none"
       transform="matrix(1.3333333,0,0,-1.3333333,2685.9156,340.16907)"
       clip-path="url(#clipPath308)" />
    <path
       id="path309"
       d="m 634.183,392.478 h 1.629 v 17.444 h -1.629 z"
       style="fill:#009bdb;fill-opacity:1;fill-rule:nonzero;stroke:none"
       transform="matrix(1.3333333,0,0,-1.3333333,1841.2267,872.036)"
       clip-path="url(#clipPath310)" />
    <path
       id="path311"
       d="M 0,0 -1.213,-1.085 5.732,-7.297 H 8.157 Z"
       style="fill:#009bdb;fill-opacity:1;fill-rule:nonzero;stroke:none"
       transform="matrix(1.3333333,0,0,-1.3333333,2690.5935,339.00707)"
       clip-path="url(#clipPath312)" />
    <path
       id="path314"
       d="m 642.805,404.943 -5.789,-5.178 1.221,-1.078 7.001,6.256 z"
       transform="matrix(1.3333333,0,0,-1.3333333,1841.2267,872.036)"
       style="fill:url(#linearGradient314);stroke:none" />
    <path
       id="path315"
       d="m 0,0 c -2.601,0 -4.71,2.109 -4.71,4.71 0,2.601 2.109,4.71 4.71,4.71 2.601,0 4.71,-2.109 4.71,-4.71 C 4.71,2.109 2.601,0 0,0 m 0,11.057 c -1.869,0 -3.549,-0.808 -4.711,-2.094 v 6.844 H -6.34 V 4.998 C -6.344,4.902 -6.347,4.807 -6.347,4.71 c 0,-3.505 2.842,-6.347 6.347,-6.347 3.505,0 6.347,2.842 6.347,6.347 0,3.505 -2.842,6.347 -6.347,6.347"
       style="fill:#ba007c;fill-opacity:1;fill-rule:nonzero;stroke:none"
       transform="matrix(1.3333333,0,0,-1.3333333,2656.6991,346.5492)"
       clip-path="url(#clipPath316)" />
    <path
       id="path318"
       d="m 605.257,398.825 c 0,-0.012 0.001,-0.022 0.001,-0.033 v 0 h 0.006 v 0.32 c -0.003,-0.095 -0.007,-0.191 -0.007,-0.287"
       transform="matrix(1.3333333,0,0,-1.3333333,1841.2267,872.036)"
       style="fill:url(#linearGradient318);stroke:none" />
    <path
       id="path321"
       d="m 606.893,403.078 v -4.286 h 0.002 c 0,0.011 -10e-4,0.021 -10e-4,0.033 v 0 c 0,2.601 2.109,4.71 4.71,4.71 v 0 c 2.602,0 4.711,-2.109 4.711,-4.71 v 0 c 0,-0.012 -0.001,-0.022 -0.001,-0.033 v 0 h 1.636 c 10e-4,0.011 10e-4,0.021 10e-4,0.033 v 0 c 0,3.506 -2.842,6.347 -6.347,6.347 v 0 c -1.868,0 -3.549,-0.808 -4.711,-2.094"
       transform="matrix(1.3333333,0,0,-1.3333333,1841.2267,872.036)"
       style="fill:url(#linearGradient321);stroke:none" />
    <path
       id="path322"
       d="m 622.448,404.913 h -1.629 v -12.438 h 1.629 z"
       style="fill:#009bdb;fill-opacity:1;fill-rule:nonzero;stroke:none"
       transform="matrix(1.3333333,0,0,-1.3333333,1841.2267,872.036)"
       clip-path="url(#clipPath323)" />
    <path
       id="path324"
       d="m 620.154,404.913 h -1.629 v -12.438 h 1.629 z"
       style="fill:#009bdb;fill-opacity:1;fill-rule:nonzero;stroke:none"
       transform="matrix(1.3333333,0,0,-1.3333333,1841.2267,872.036)"
       clip-path="url(#clipPath325)" />
    <path
       id="path326"
       d="m 620.161,404.913 h -1.629 v -12.438 h 1.629 z"
       style="fill:#009bdb;fill-opacity:1;fill-rule:nonzero;stroke:none"
       transform="matrix(1.3333333,0,0,-1.3333333,1841.2267,872.036)"
       clip-path="url(#clipPath327)" />
    <path
       id="path328"
       d="m 614.721,316.61 h -2.351 v -4.622 h 2.351 z m 0,0.799 c 0.44,0 0.8,-0.359 0.8,-0.799 v -4.622 c 0,-0.447 -0.344,-0.8 -0.8,-0.8 h -2.35 c -0.456,0 -0.8,0.353 -0.8,0.8 v 4.622 c 0,0.44 0.36,0.799 0.8,0.799 z"
       style="fill:#ffffff;fill-opacity:1;fill-rule:nonzero;stroke:none"
       transform="matrix(1.3333333,0,0,-1.3333333,1841.2267,872.036)"
       clip-path="url(#clipPath329)" />
    <path
       id="path330"
       d="m 0,0 c -0.208,0 -0.399,0.111 -0.399,0.399 0,0.288 0.191,0.4 0.399,0.4 h 2.75 c 0.457,0 0.8,-0.344 0.8,-0.799 v -1.535 c 0,-0.32 -0.064,-0.553 -0.312,-0.776 0.248,-0.224 0.312,-0.456 0.312,-0.776 v -1.535 c 0,-0.456 -0.343,-0.8 -0.8,-0.8 H 0 c -0.208,0 -0.399,0.112 -0.399,0.401 0,0.287 0.191,0.399 0.399,0.399 h 2.75 v 1.327 c 0,0.448 -0.175,0.584 -0.399,0.584 H 0.784 c -0.208,0 -0.4,0.111 -0.4,0.4 0,0.288 0.192,0.4 0.4,0.4 h 1.567 c 0.224,0 0.399,0.136 0.399,0.583 V 0 Z"
       style="fill:#ffffff;fill-opacity:1;fill-rule:nonzero;stroke:none"
       transform="matrix(1.3333333,0,0,-1.3333333,2664.6753,449.88893)"
       clip-path="url(#clipPath331)" />
    <path
       id="path332"
       d="m 0,0 c -0.096,-0.168 -0.192,-0.28 -0.392,-0.28 -0.2,0 -0.4,0.168 -0.4,0.377 0,0.151 0.096,0.287 0.176,0.415 L 2.375,5.637 C 2.471,5.797 2.566,5.94 2.766,5.94 2.974,5.94 3.158,5.772 3.158,5.565 3.158,5.437 3.118,5.341 3.07,5.253 Z"
       style="fill:#ffffff;fill-opacity:1;fill-rule:nonzero;stroke:none"
       transform="matrix(1.3333333,0,0,-1.3333333,2672.6859,456.7444)"
       clip-path="url(#clipPath333)" />
    <path
       id="path334"
       d="M 0,0 H 2.75 C 2.958,0 3.15,-0.112 3.15,-0.399 3.15,-0.687 2.958,-0.8 2.75,-0.8 H -0.8 v 2.608 c 0,0.599 0.304,0.903 0.904,0.903 H 2.351 V 4.622 H -0.4 c -0.208,0 -0.4,0.111 -0.4,0.399 0,0.289 0.192,0.4 0.4,0.4 H 2.254 C 2.519,5.421 2.702,5.382 2.902,5.197 3.126,4.989 3.15,4.773 3.15,4.485 V 2.847 C 3.15,2.559 3.126,2.343 2.902,2.136 2.702,1.951 2.519,1.911 2.254,1.911 H 0 Z"
       style="fill:#ffffff;fill-opacity:1;fill-rule:nonzero;stroke:none"
       transform="matrix(1.3333333,0,0,-1.3333333,2680.1845,456.05173)"
       clip-path="url(#clipPath335)" />
    <path
       id="path336"
       d="m 634.834,311.988 h 2.351 v 1.231 h -2.351 z m 0,2.031 h 2.671 c 0.399,0 0.479,-0.167 0.479,-0.536 v -1.791 c 0,-0.375 -0.16,-0.504 -0.52,-0.504 h -2.91 c -0.376,0 -0.519,0.137 -0.519,0.504 v 5.318 c 0,0.184 0.064,0.399 0.344,0.399 h 0.479 c 0.208,0 0.376,-0.191 0.376,-0.399 0,-0.24 -0.168,-0.4 -0.4,-0.4 z"
       style="fill:#ffffff;fill-opacity:1;fill-rule:nonzero;stroke:none"
       transform="matrix(1.3333333,0,0,-1.3333333,1841.2267,872.036)"
       clip-path="url(#clipPath337)" />
    <path
       id="path338"
       d="m 739.472,347.767 h -3.364 v -1.786 h 3.364 z m 0,-2.93 h -3.936 c -0.321,0 -0.572,0.273 -0.572,0.572 v 2.93 c 0,0.297 0.251,0.571 0.572,0.571 h 4.509 c 0.32,0 0.572,-0.274 0.572,-0.571 v -7.76 c 0,-0.309 -0.229,-0.572 -0.572,-0.572 h -0.573 c -0.342,0 -0.572,0.263 -0.572,0.572 0,0.344 0.241,0.572 0.572,0.572 z"
       style="fill:#ffffff;fill-opacity:1;fill-rule:nonzero;stroke:none"
       transform="matrix(1.3333333,0,0,-1.3333333,1841.2267,872.036)"
       clip-path="url(#clipPath339)" />
    <path
       id="path340"
       d="M 0,0 V 3.308 C 0,3.594 0.138,3.88 0.572,3.88 1.008,3.88 1.145,3.594 1.145,3.308 V 0 c 0.297,0 0.572,-0.16 0.572,-0.572 0,-0.412 -0.275,-0.573 -0.572,-0.573 V -3.479 C 1.145,-3.845 0.984,-4.051 0.572,-4.051 0.161,-4.051 0,-3.845 0,-3.479 v 2.334 h -3.364 v 5.426 c 0,0.285 0.137,0.572 0.572,0.572 0.435,0 0.572,-0.287 0.572,-0.572 L -2.22,0 Z"
       style="fill:#ffffff;fill-opacity:1;fill-rule:nonzero;stroke:none"
       transform="matrix(1.3333333,0,0,-1.3333333,2837.1441,413.29253)"
       clip-path="url(#clipPath341)" />
    <path
       id="path342"
       d="m 0,0 h 3.937 c 0.297,0 0.572,-0.16 0.572,-0.572 0,-0.412 -0.275,-0.573 -0.572,-0.573 h -5.082 v 3.731 c 0,0.858 0.436,1.293 1.293,1.293 h 3.216 v 2.736 h -3.936 c -0.298,0 -0.573,0.16 -0.573,0.572 0,0.412 0.275,0.572 0.573,0.572 h 3.8 c 0.377,0 0.64,-0.058 0.926,-0.321 C 4.475,7.141 4.509,6.832 4.509,6.42 V 4.074 C 4.509,3.662 4.475,3.354 4.154,3.056 3.868,2.793 3.605,2.734 3.228,2.734 H 0 Z"
       style="fill:#ffffff;fill-opacity:1;fill-rule:nonzero;stroke:none"
       transform="matrix(1.3333333,0,0,-1.3333333,2844.1389,417.1676)"
       clip-path="url(#clipPath343)" />
    <path
       id="path344"
       d="m 0,0 c -0.298,0 -0.572,0.16 -0.572,0.572 0,0.411 0.274,0.572 0.572,0.572 H 3.937 C 4.589,1.144 5.081,0.652 5.081,0 v -2.197 c 0,-0.459 -0.091,-0.791 -0.446,-1.112 0.355,-0.32 0.446,-0.652 0.446,-1.109 V -6.615 C 5.081,-7.268 4.589,-7.76 3.937,-7.76 H 0 c -0.298,0 -0.572,0.16 -0.572,0.573 0,0.412 0.274,0.572 0.572,0.572 h 3.937 v 1.899 c 0,0.642 -0.251,0.835 -0.573,0.835 H 1.122 c -0.298,0 -0.572,0.16 -0.572,0.572 0,0.413 0.274,0.573 0.572,0.573 h 2.242 c 0.322,0 0.573,0.195 0.573,0.836 V 0 Z"
       style="fill:#ffffff;fill-opacity:1;fill-rule:nonzero;stroke:none"
       transform="matrix(1.3333333,0,0,-1.3333333,2854.0933,408.34733)"
       clip-path="url(#clipPath345)" />
    <path
       id="path346"
       d="m 0,0 -1.647,1.408 c -0.15,0.125 -0.31,0.285 -0.31,0.492 0,0.321 0.24,0.607 0.572,0.607 0.184,0 0.332,-0.103 0.458,-0.218 L 0.298,1.236 v 1.671 c 0,0.366 0.16,0.572 0.572,0.572 0.412,0 0.572,-0.206 0.572,-0.572 V 1.236 L 2.667,2.289 C 2.793,2.404 2.941,2.507 3.124,2.507 3.456,2.507 3.696,2.221 3.696,1.9 3.696,1.693 3.536,1.533 3.388,1.408 L 1.739,0 l 1.5,-1.281 c 0.195,-0.16 0.457,-0.356 0.457,-0.629 0,-0.321 -0.24,-0.596 -0.572,-0.596 -0.24,0 -0.446,0.206 -0.617,0.356 l -1.065,0.914 v -1.647 c 0,-0.367 -0.16,-0.572 -0.572,-0.572 -0.412,0 -0.572,0.205 -0.572,0.572 v 1.647 L -0.767,-2.15 c -0.171,-0.15 -0.378,-0.356 -0.618,-0.356 -0.332,0 -0.572,0.275 -0.572,0.596 0,0.273 0.264,0.469 0.458,0.629 z"
       style="fill:#ffffff;fill-opacity:1;fill-rule:nonzero;stroke:none"
       transform="matrix(1.3333333,0,0,-1.3333333,2659.9436,414.07387)"
       clip-path="url(#clipPath347)" />
    <path
       id="path348"
       d="m 0,0 -1.647,1.408 c -0.15,0.125 -0.31,0.285 -0.31,0.492 0,0.321 0.24,0.607 0.572,0.607 0.184,0 0.332,-0.103 0.458,-0.218 L 0.298,1.236 v 1.671 c 0,0.366 0.16,0.572 0.572,0.572 0.412,0 0.572,-0.206 0.572,-0.572 V 1.236 L 2.667,2.289 C 2.792,2.404 2.941,2.507 3.124,2.507 3.456,2.507 3.696,2.221 3.696,1.9 3.696,1.693 3.536,1.533 3.388,1.408 L 1.739,0 l 1.5,-1.281 c 0.195,-0.16 0.457,-0.356 0.457,-0.629 0,-0.321 -0.24,-0.596 -0.572,-0.596 -0.24,0 -0.446,0.206 -0.617,0.356 l -1.065,0.914 v -1.647 c 0,-0.367 -0.16,-0.572 -0.572,-0.572 -0.412,0 -0.572,0.205 -0.572,0.572 v 1.647 L -0.767,-2.15 c -0.171,-0.15 -0.378,-0.356 -0.618,-0.356 -0.332,0 -0.572,0.275 -0.572,0.596 0,0.273 0.264,0.469 0.458,0.629 z"
       style="fill:#ffffff;fill-opacity:1;fill-rule:nonzero;stroke:none"
       transform="matrix(1.3333333,0,0,-1.3333333,2670.6611,414.07387)"
       clip-path="url(#clipPath349)" />
    <path
       id="path350"
       d="m 0,0 -1.647,1.408 c -0.15,0.125 -0.31,0.285 -0.31,0.492 0,0.321 0.24,0.607 0.572,0.607 0.184,0 0.332,-0.103 0.458,-0.218 L 0.298,1.236 v 1.671 c 0,0.366 0.16,0.572 0.572,0.572 0.412,0 0.572,-0.206 0.572,-0.572 V 1.236 L 2.667,2.289 C 2.793,2.404 2.941,2.507 3.124,2.507 3.456,2.507 3.696,2.221 3.696,1.9 3.696,1.693 3.536,1.533 3.388,1.408 L 1.739,0 l 1.5,-1.281 c 0.195,-0.16 0.457,-0.356 0.457,-0.629 0,-0.321 -0.24,-0.596 -0.572,-0.596 -0.24,0 -0.446,0.206 -0.617,0.356 l -1.065,0.914 v -1.647 c 0,-0.367 -0.16,-0.572 -0.572,-0.572 -0.412,0 -0.572,0.205 -0.572,0.572 v 1.647 L -0.767,-2.15 c -0.171,-0.15 -0.378,-0.356 -0.618,-0.356 -0.332,0 -0.572,0.275 -0.572,0.596 0,0.273 0.264,0.469 0.458,0.629 z"
       style="fill:#ffffff;fill-opacity:1;fill-rule:nonzero;stroke:none"
       transform="matrix(1.3333333,0,0,-1.3333333,2681.3785,414.07387)"
       clip-path="url(#clipPath351)" />
    <path
       id="path352"
       d="m 0,0 -1.647,1.408 c -0.15,0.125 -0.31,0.285 -0.31,0.492 0,0.321 0.24,0.607 0.572,0.607 0.184,0 0.332,-0.103 0.458,-0.218 L 0.298,1.236 v 1.671 c 0,0.366 0.16,0.572 0.572,0.572 0.412,0 0.572,-0.206 0.572,-0.572 V 1.236 L 2.667,2.289 C 2.792,2.404 2.941,2.507 3.124,2.507 3.456,2.507 3.696,2.221 3.696,1.9 3.696,1.693 3.536,1.533 3.388,1.408 L 1.739,0 l 1.5,-1.281 c 0.195,-0.16 0.457,-0.356 0.457,-0.629 0,-0.321 -0.24,-0.596 -0.572,-0.596 -0.24,0 -0.446,0.206 -0.617,0.356 l -1.065,0.914 v -1.647 c 0,-0.367 -0.16,-0.572 -0.572,-0.572 -0.412,0 -0.572,0.205 -0.572,0.572 v 1.647 L -0.767,-2.15 c -0.171,-0.15 -0.378,-0.356 -0.618,-0.356 -0.332,0 -0.572,0.275 -0.572,0.596 0,0.273 0.264,0.469 0.458,0.629 z"
       style="fill:#ffffff;fill-opacity:1;fill-rule:nonzero;stroke:none"
       transform="matrix(1.3333333,0,0,-1.3333333,2692.096,414.07387)"
       clip-path="url(#clipPath353)" />
    <path
       id="path354"
       d="m 0,0 -1.647,1.408 c -0.15,0.125 -0.31,0.285 -0.31,0.492 0,0.321 0.24,0.607 0.572,0.607 0.184,0 0.332,-0.103 0.458,-0.218 L 0.298,1.236 v 1.671 c 0,0.366 0.16,0.572 0.572,0.572 0.412,0 0.572,-0.206 0.572,-0.572 V 1.236 L 2.667,2.289 C 2.792,2.404 2.941,2.507 3.124,2.507 3.456,2.507 3.696,2.221 3.696,1.9 3.696,1.693 3.536,1.533 3.388,1.408 L 1.739,0 l 1.5,-1.281 c 0.195,-0.16 0.457,-0.356 0.457,-0.629 0,-0.321 -0.24,-0.596 -0.572,-0.596 -0.24,0 -0.446,0.206 -0.617,0.356 l -1.065,0.914 v -1.647 c 0,-0.367 -0.16,-0.572 -0.572,-0.572 -0.412,0 -0.572,0.205 -0.572,0.572 v 1.647 L -0.767,-2.15 c -0.171,-0.15 -0.378,-0.356 -0.618,-0.356 -0.332,0 -0.572,0.275 -0.572,0.596 0,0.273 0.264,0.469 0.458,0.629 z"
       style="fill:#ffffff;fill-opacity:1;fill-rule:nonzero;stroke:none"
       transform="matrix(1.3333333,0,0,-1.3333333,2713.5308,414.07387)"
       clip-path="url(#clipPath355)" />
    <path
       id="path356"
       d="m 0,0 -1.647,1.408 c -0.15,0.125 -0.31,0.285 -0.31,0.492 0,0.321 0.24,0.607 0.572,0.607 0.184,0 0.332,-0.103 0.458,-0.218 L 0.298,1.236 v 1.671 c 0,0.366 0.16,0.572 0.572,0.572 0.412,0 0.572,-0.206 0.572,-0.572 V 1.236 L 2.667,2.289 C 2.793,2.404 2.941,2.507 3.124,2.507 3.456,2.507 3.696,2.221 3.696,1.9 3.696,1.693 3.536,1.533 3.388,1.408 L 1.739,0 l 1.5,-1.281 c 0.195,-0.16 0.457,-0.356 0.457,-0.629 0,-0.321 -0.24,-0.596 -0.572,-0.596 -0.24,0 -0.446,0.206 -0.617,0.356 l -1.065,0.914 v -1.647 c 0,-0.367 -0.16,-0.572 -0.572,-0.572 -0.412,0 -0.572,0.205 -0.572,0.572 v 1.647 L -0.767,-2.15 c -0.171,-0.15 -0.378,-0.356 -0.618,-0.356 -0.332,0 -0.572,0.275 -0.572,0.596 0,0.273 0.264,0.469 0.458,0.629 z"
       style="fill:#ffffff;fill-opacity:1;fill-rule:nonzero;stroke:none"
       transform="matrix(1.3333333,0,0,-1.3333333,2724.2483,414.07387)"
       clip-path="url(#clipPath357)" />
    <path
       id="path358"
       d="m 0,0 -1.647,1.408 c -0.15,0.125 -0.31,0.285 -0.31,0.492 0,0.321 0.24,0.607 0.572,0.607 0.184,0 0.332,-0.103 0.458,-0.218 L 0.298,1.236 v 1.671 c 0,0.366 0.16,0.572 0.572,0.572 0.412,0 0.572,-0.206 0.572,-0.572 V 1.236 L 2.667,2.289 C 2.792,2.404 2.941,2.507 3.124,2.507 3.456,2.507 3.696,2.221 3.696,1.9 3.696,1.693 3.536,1.533 3.388,1.408 L 1.739,0 l 1.5,-1.281 c 0.195,-0.16 0.457,-0.356 0.457,-0.629 0,-0.321 -0.24,-0.596 -0.572,-0.596 -0.24,0 -0.446,0.206 -0.617,0.356 l -1.065,0.914 v -1.647 c 0,-0.367 -0.16,-0.572 -0.572,-0.572 -0.412,0 -0.572,0.205 -0.572,0.572 v 1.647 L -0.767,-2.15 c -0.171,-0.15 -0.378,-0.356 -0.618,-0.356 -0.332,0 -0.572,0.275 -0.572,0.596 0,0.273 0.264,0.469 0.458,0.629 z"
       style="fill:#ffffff;fill-opacity:1;fill-rule:nonzero;stroke:none"
       transform="matrix(1.3333333,0,0,-1.3333333,2734.9657,414.07387)"
       clip-path="url(#clipPath359)" />
    <path
       id="path360"
       d="m 0,0 -1.647,1.408 c -0.15,0.125 -0.31,0.285 -0.31,0.492 0,0.321 0.24,0.607 0.572,0.607 0.184,0 0.332,-0.103 0.458,-0.218 L 0.298,1.236 v 1.671 c 0,0.366 0.16,0.572 0.572,0.572 0.412,0 0.572,-0.206 0.572,-0.572 V 1.236 L 2.667,2.289 C 2.793,2.404 2.941,2.507 3.124,2.507 3.456,2.507 3.696,2.221 3.696,1.9 3.696,1.693 3.536,1.533 3.388,1.408 L 1.739,0 l 1.5,-1.281 c 0.195,-0.16 0.457,-0.356 0.457,-0.629 0,-0.321 -0.24,-0.596 -0.572,-0.596 -0.24,0 -0.446,0.206 -0.617,0.356 l -1.065,0.914 v -1.647 c 0,-0.367 -0.16,-0.572 -0.572,-0.572 -0.412,0 -0.572,0.205 -0.572,0.572 v 1.647 L -0.767,-2.15 c -0.171,-0.15 -0.378,-0.356 -0.618,-0.356 -0.332,0 -0.572,0.275 -0.572,0.596 0,0.273 0.264,0.469 0.458,0.629 z"
       style="fill:#ffffff;fill-opacity:1;fill-rule:nonzero;stroke:none"
       transform="matrix(1.3333333,0,0,-1.3333333,2745.6832,414.07387)"
       clip-path="url(#clipPath361)" />
    <path
       id="path362"
       d="m 0,0 -1.647,1.408 c -0.15,0.125 -0.31,0.285 -0.31,0.492 0,0.321 0.24,0.607 0.572,0.607 0.184,0 0.332,-0.103 0.458,-0.218 L 0.298,1.236 v 1.671 c 0,0.366 0.16,0.572 0.572,0.572 0.412,0 0.572,-0.206 0.572,-0.572 V 1.236 L 2.667,2.289 C 2.793,2.404 2.941,2.507 3.124,2.507 3.456,2.507 3.696,2.221 3.696,1.9 3.696,1.693 3.536,1.533 3.388,1.408 L 1.739,0 l 1.5,-1.281 c 0.195,-0.16 0.457,-0.356 0.457,-0.629 0,-0.321 -0.24,-0.596 -0.572,-0.596 -0.24,0 -0.446,0.206 -0.617,0.356 l -1.065,0.914 v -1.647 c 0,-0.367 -0.16,-0.572 -0.572,-0.572 -0.412,0 -0.572,0.205 -0.572,0.572 v 1.647 L -0.767,-2.15 c -0.171,-0.15 -0.378,-0.356 -0.618,-0.356 -0.332,0 -0.572,0.275 -0.572,0.596 0,0.273 0.264,0.469 0.458,0.629 z"
       style="fill:#ffffff;fill-opacity:1;fill-rule:nonzero;stroke:none"
       transform="matrix(1.3333333,0,0,-1.3333333,2767.1181,414.07387)"
       clip-path="url(#clipPath363)" />
    <path
       id="path364"
       d="m 0,0 -1.647,1.408 c -0.15,0.125 -0.31,0.285 -0.31,0.492 0,0.321 0.24,0.607 0.572,0.607 0.184,0 0.332,-0.103 0.458,-0.218 L 0.298,1.236 v 1.671 c 0,0.366 0.16,0.572 0.572,0.572 0.412,0 0.572,-0.206 0.572,-0.572 V 1.236 L 2.667,2.289 C 2.792,2.404 2.941,2.507 3.124,2.507 3.456,2.507 3.696,2.221 3.696,1.9 3.696,1.693 3.536,1.533 3.388,1.408 L 1.739,0 l 1.5,-1.281 c 0.195,-0.16 0.457,-0.356 0.457,-0.629 0,-0.321 -0.24,-0.596 -0.572,-0.596 -0.24,0 -0.446,0.206 -0.617,0.356 l -1.065,0.914 v -1.647 c 0,-0.367 -0.16,-0.572 -0.572,-0.572 -0.412,0 -0.572,0.205 -0.572,0.572 v 1.647 L -0.767,-2.15 c -0.171,-0.15 -0.378,-0.356 -0.618,-0.356 -0.332,0 -0.572,0.275 -0.572,0.596 0,0.273 0.264,0.469 0.458,0.629 z"
       style="fill:#ffffff;fill-opacity:1;fill-rule:nonzero;stroke:none"
       transform="matrix(1.3333333,0,0,-1.3333333,2777.8356,414.07387)"
       clip-path="url(#clipPath365)" />
    <path
       id="path366"
       d="m 0,0 -1.647,1.408 c -0.15,0.125 -0.31,0.285 -0.31,0.492 0,0.321 0.24,0.607 0.572,0.607 0.184,0 0.332,-0.103 0.458,-0.218 L 0.298,1.236 v 1.671 c 0,0.366 0.16,0.572 0.572,0.572 0.412,0 0.572,-0.206 0.572,-0.572 V 1.236 L 2.667,2.289 C 2.793,2.404 2.941,2.507 3.124,2.507 3.456,2.507 3.696,2.221 3.696,1.9 3.696,1.693 3.536,1.533 3.388,1.408 L 1.739,0 l 1.5,-1.281 c 0.195,-0.16 0.457,-0.356 0.457,-0.629 0,-0.321 -0.24,-0.596 -0.572,-0.596 -0.24,0 -0.446,0.206 -0.617,0.356 l -1.065,0.914 v -1.647 c 0,-0.367 -0.16,-0.572 -0.572,-0.572 -0.412,0 -0.572,0.205 -0.572,0.572 v 1.647 L -0.767,-2.15 c -0.171,-0.15 -0.378,-0.356 -0.618,-0.356 -0.332,0 -0.572,0.275 -0.572,0.596 0,0.273 0.264,0.469 0.458,0.629 z"
       style="fill:#ffffff;fill-opacity:1;fill-rule:nonzero;stroke:none"
       transform="matrix(1.3333333,0,0,-1.3333333,2788.5531,414.07387)"
       clip-path="url(#clipPath367)" />
    <path
       id="path368"
       d="m 0,0 -1.647,1.408 c -0.15,0.125 -0.31,0.285 -0.31,0.492 0,0.321 0.24,0.607 0.572,0.607 0.184,0 0.332,-0.103 0.458,-0.218 L 0.298,1.236 v 1.671 c 0,0.366 0.16,0.572 0.572,0.572 0.412,0 0.572,-0.206 0.572,-0.572 V 1.236 L 2.667,2.289 C 2.792,2.404 2.941,2.507 3.124,2.507 3.456,2.507 3.696,2.221 3.696,1.9 3.696,1.693 3.536,1.533 3.388,1.408 L 1.739,0 l 1.5,-1.281 c 0.195,-0.16 0.457,-0.356 0.457,-0.629 0,-0.321 -0.24,-0.596 -0.572,-0.596 -0.24,0 -0.446,0.206 -0.617,0.356 l -1.065,0.914 v -1.647 c 0,-0.367 -0.16,-0.572 -0.572,-0.572 -0.412,0 -0.572,0.205 -0.572,0.572 v 1.647 L -0.767,-2.15 c -0.171,-0.15 -0.378,-0.356 -0.618,-0.356 -0.332,0 -0.572,0.275 -0.572,0.596 0,0.273 0.264,0.469 0.458,0.629 z"
       style="fill:#ffffff;fill-opacity:1;fill-rule:nonzero;stroke:none"
       transform="matrix(1.3333333,0,0,-1.3333333,2799.2704,414.07387)"
       clip-path="url(#clipPath369)" />
    <path
       id="path370"
       d="m 0,0 -1.439,1.23 c -0.13,0.11 -0.271,0.249 -0.271,0.43 0,0.279 0.21,0.529 0.5,0.529 0.16,0 0.29,-0.089 0.4,-0.189 L 0.26,1.08 v 1.459 c 0,0.32 0.139,0.5 0.499,0.5 0.36,0 0.5,-0.18 0.5,-0.5 V 1.08 L 2.328,2 c 0.11,0.1 0.24,0.189 0.401,0.189 0.289,0 0.499,-0.25 0.499,-0.529 0,-0.181 -0.14,-0.32 -0.27,-0.43 L 1.519,0 2.828,-1.119 c 0.17,-0.14 0.4,-0.31 0.4,-0.549 0,-0.281 -0.21,-0.52 -0.499,-0.52 -0.21,0 -0.391,0.18 -0.541,0.309 l -0.929,0.8 v -1.439 c 0,-0.32 -0.14,-0.5 -0.5,-0.5 -0.36,0 -0.499,0.18 -0.499,0.5 v 1.439 l -0.93,-0.8 C -0.82,-2.008 -1,-2.188 -1.21,-2.188 c -0.29,0 -0.5,0.239 -0.5,0.52 0,0.239 0.231,0.409 0.4,0.549 z"
       style="fill:#ffffff;fill-opacity:1;fill-rule:nonzero;stroke:none"
       transform="matrix(1.3333333,0,0,-1.3333333,2718.6741,452.98013)"
       clip-path="url(#clipPath371)" />
    <path
       id="path372"
       d="m 0,0 -1.439,1.23 c -0.13,0.11 -0.271,0.249 -0.271,0.43 0,0.279 0.21,0.529 0.5,0.529 0.16,0 0.29,-0.089 0.4,-0.189 L 0.26,1.08 v 1.459 c 0,0.32 0.139,0.5 0.499,0.5 0.36,0 0.5,-0.18 0.5,-0.5 V 1.08 L 2.328,2 c 0.11,0.1 0.24,0.189 0.401,0.189 0.289,0 0.499,-0.25 0.499,-0.529 0,-0.181 -0.14,-0.32 -0.27,-0.43 L 1.519,0 2.828,-1.119 c 0.17,-0.14 0.4,-0.31 0.4,-0.549 0,-0.281 -0.21,-0.52 -0.499,-0.52 -0.21,0 -0.391,0.18 -0.541,0.309 l -0.929,0.8 v -1.439 c 0,-0.32 -0.14,-0.5 -0.5,-0.5 -0.36,0 -0.499,0.18 -0.499,0.5 v 1.439 l -0.93,-0.8 C -0.82,-2.008 -1,-2.188 -1.21,-2.188 c -0.29,0 -0.5,0.239 -0.5,0.52 0,0.239 0.231,0.409 0.4,0.549 z"
       style="fill:#ffffff;fill-opacity:1;fill-rule:nonzero;stroke:none"
       transform="matrix(1.3333333,0,0,-1.3333333,2728.0335,452.98013)"
       clip-path="url(#clipPath373)" />
    <path
       id="path374"
       d="m 0,0 -1.439,1.23 c -0.13,0.11 -0.271,0.249 -0.271,0.43 0,0.279 0.21,0.529 0.5,0.529 0.16,0 0.29,-0.089 0.4,-0.189 L 0.26,1.08 v 1.459 c 0,0.32 0.139,0.5 0.499,0.5 0.36,0 0.5,-0.18 0.5,-0.5 V 1.08 L 2.328,2 c 0.11,0.1 0.24,0.189 0.401,0.189 0.289,0 0.499,-0.25 0.499,-0.529 0,-0.181 -0.14,-0.32 -0.27,-0.43 L 1.519,0 2.828,-1.119 c 0.17,-0.14 0.4,-0.31 0.4,-0.549 0,-0.281 -0.21,-0.52 -0.499,-0.52 -0.21,0 -0.391,0.18 -0.541,0.309 l -0.929,0.8 v -1.439 c 0,-0.32 -0.14,-0.5 -0.5,-0.5 -0.36,0 -0.499,0.18 -0.499,0.5 v 1.439 l -0.93,-0.8 C -0.82,-2.008 -1,-2.188 -1.21,-2.188 c -0.29,0 -0.5,0.239 -0.5,0.52 0,0.239 0.231,0.409 0.4,0.549 z"
       style="fill:#ffffff;fill-opacity:1;fill-rule:nonzero;stroke:none"
       transform="matrix(1.3333333,0,0,-1.3333333,2737.3941,452.98013)"
       clip-path="url(#clipPath375)" />
    <g
       opacity="0.270004"
       id="g399"
       clip-path="url(#clipPath400)">
      <path
         d="m 0,0 -1.42,3.665 h 0.525 L 0.058,1.002 c 0.077,-0.213 0.141,-0.413 0.192,-0.6 0.057,0.2 0.123,0.401 0.198,0.6 l 0.99,2.663 H 1.934 L 0.498,0 Z"
         style="fill:#009bdb;fill-opacity:1;fill-rule:nonzero;stroke:none"
         transform="matrix(1.3333333,0,0,-1.3333333,2659.1545,445.6884)"
         clip-path="url(#clipPath376)"
         id="path388" />
      <path
         d="M 0,0 H 1.243 L 0.86,1.015 C 0.744,1.323 0.657,1.577 0.601,1.775 0.554,1.54 0.488,1.307 0.403,1.075 Z M -1.058,-1.505 0.351,2.16 h 0.522 l 1.5,-3.665 H 1.82 L 1.394,-0.396 H -0.14 l -0.402,-1.109 z"
         style="fill:#009bdb;fill-opacity:1;fill-rule:nonzero;stroke:none"
         transform="matrix(1.3333333,0,0,-1.3333333,2662.5556,443.68187)"
         clip-path="url(#clipPath377)"
         id="path389" />
      <path
         d="M 0,0 V 3.665 H 0.485 V 0.432 H 2.29 V 0 Z"
         style="fill:#009bdb;fill-opacity:1;fill-rule:nonzero;stroke:none"
         transform="matrix(1.3333333,0,0,-1.3333333,2666.0868,445.6884)"
         clip-path="url(#clipPath378)"
         id="path390" />
      <path
         d="m 621.504,323.426 h 0.485 v -3.665 h -0.485 z"
         style="fill:#009bdb;fill-opacity:1;fill-rule:nonzero;stroke:none"
         transform="matrix(1.3333333,0,0,-1.3333333,1841.2267,872.036)"
         clip-path="url(#clipPath379)"
         id="path391" />
      <path
         d="m 0,0 h 0.783 c 0.241,0 0.431,0.023 0.569,0.068 0.137,0.045 0.247,0.108 0.329,0.19 0.115,0.115 0.204,0.269 0.268,0.464 0.065,0.194 0.097,0.429 0.097,0.706 0,0.384 -0.064,0.678 -0.19,0.885 C 1.731,2.518 1.578,2.656 1.398,2.727 1.268,2.775 1.059,2.801 0.771,2.801 H 0 Z M -0.484,-0.432 V 3.233 H 0.778 C 1.063,3.233 1.28,3.217 1.431,3.182 1.641,3.133 1.819,3.045 1.968,2.918 2.161,2.756 2.306,2.547 2.402,2.292 2.498,2.038 2.546,1.748 2.546,1.421 2.546,1.143 2.514,0.896 2.448,0.681 2.383,0.465 2.3,0.287 2.198,0.146 2.097,0.006 1.985,-0.105 1.864,-0.186 1.743,-0.267 1.598,-0.328 1.427,-0.369 1.256,-0.411 1.06,-0.432 0.838,-0.432 Z"
         style="fill:#009bdb;fill-opacity:1;fill-rule:nonzero;stroke:none"
         transform="matrix(1.3333333,0,0,-1.3333333,2672.2092,445.11293)"
         clip-path="url(#clipPath380)"
         id="path392" />
      <path
         d="M 0,0 V 3.232 H -1.208 V 3.665 H 1.697 V 3.232 H 0.484 V 0 Z"
         style="fill:#009bdb;fill-opacity:1;fill-rule:nonzero;stroke:none"
         transform="matrix(1.3333333,0,0,-1.3333333,2679.2652,445.6884)"
         clip-path="url(#clipPath381)"
         id="path393" />
      <path
         d="M 0,0 V 3.665 H 0.485 V 2.16 H 2.391 V 3.665 H 2.875 V 0 H 2.391 V 1.728 H 0.485 V 0 Z"
         style="fill:#009bdb;fill-opacity:1;fill-rule:nonzero;stroke:none"
         transform="matrix(1.3333333,0,0,-1.3333333,2682.0895,445.6884)"
         clip-path="url(#clipPath382)"
         id="path394" />
      <path
         d="M 0,0 H 1.043 C 1.265,0 1.437,0.023 1.562,0.069 1.687,0.115 1.783,0.188 1.848,0.289 1.913,0.391 1.945,0.5 1.945,0.618 1.945,0.791 1.883,0.934 1.757,1.046 1.631,1.157 1.432,1.213 1.16,1.213 H 0 Z M -0.485,-2.047 V 1.618 H 1.141 C 1.467,1.618 1.715,1.586 1.886,1.52 2.056,1.453 2.191,1.338 2.293,1.171 2.395,1.004 2.445,0.82 2.445,0.618 2.445,0.357 2.361,0.139 2.193,-0.039 2.024,-0.218 1.765,-0.331 1.413,-0.379 1.541,-0.441 1.639,-0.502 1.705,-0.562 1.847,-0.691 1.981,-0.854 2.107,-1.05 L 2.745,-2.047 H 2.136 L 1.65,-1.285 C 1.509,-1.064 1.392,-0.896 1.3,-0.779 1.209,-0.663 1.126,-0.581 1.054,-0.535 0.981,-0.488 0.907,-0.455 0.833,-0.437 0.777,-0.426 0.687,-0.42 0.562,-0.42 H 0 v -1.627 z"
         style="fill:#009bdb;fill-opacity:1;fill-rule:nonzero;stroke:none"
         transform="matrix(1.3333333,0,0,-1.3333333,2687.5348,442.9592)"
         clip-path="url(#clipPath383)"
         id="path395" />
      <path
         d="m 0,0 h 0.484 v -2.118 c 0,-0.368 -0.041,-0.66 -0.125,-0.877 -0.083,-0.217 -0.233,-0.393 -0.451,-0.529 -0.217,-0.136 -0.503,-0.204 -0.856,-0.204 -0.343,0 -0.624,0.059 -0.843,0.178 -0.218,0.117 -0.374,0.289 -0.467,0.514 -0.094,0.223 -0.14,0.529 -0.14,0.918 V 0 h 0.485 v -2.115 c 0,-0.319 0.029,-0.554 0.089,-0.704 0.058,-0.151 0.161,-0.268 0.304,-0.349 0.145,-0.081 0.321,-0.122 0.53,-0.122 0.356,0 0.61,0.08 0.762,0.242 C -0.076,-2.886 0,-2.575 0,-2.115 Z"
         style="fill:#009bdb;fill-opacity:1;fill-rule:nonzero;stroke:none"
         transform="matrix(1.3333333,0,0,-1.3333333,2694.8928,440.80173)"
         clip-path="url(#clipPath384)"
         id="path396" />
      <path
         d="M 0,0 0.485,-0.123 C 0.383,-0.521 0.2,-0.825 -0.063,-1.034 c -0.265,-0.21 -0.588,-0.314 -0.97,-0.314 -0.395,0 -0.716,0.08 -0.964,0.241 -0.247,0.162 -0.436,0.394 -0.565,0.699 -0.129,0.304 -0.194,0.633 -0.194,0.982 0,0.383 0.073,0.715 0.219,1 0.146,0.283 0.353,0.5 0.623,0.647 0.268,0.148 0.565,0.221 0.889,0.221 0.367,0 0.674,-0.092 0.924,-0.28 C 0.149,1.976 0.324,1.713 0.423,1.375 L -0.055,1.262 C -0.141,1.529 -0.264,1.723 -0.425,1.845 -0.587,1.967 -0.79,2.027 -1.035,2.027 -1.317,2.027 -1.553,1.96 -1.742,1.825 -1.931,1.689 -2.063,1.509 -2.141,1.281 -2.217,1.054 -2.256,0.818 -2.256,0.577 c 0,-0.311 0.046,-0.584 0.137,-0.816 0.091,-0.233 0.232,-0.407 0.424,-0.522 0.191,-0.114 0.399,-0.173 0.622,-0.173 0.272,0 0.502,0.079 0.69,0.236 C -0.194,-0.541 -0.066,-0.309 0,0"
         style="fill:#009bdb;fill-opacity:1;fill-rule:nonzero;stroke:none"
         transform="matrix(1.3333333,0,0,-1.3333333,2726.5933,443.97493)"
         clip-path="url(#clipPath385)"
         id="path397" />
      <path
         d="m 0,0 -1.42,3.665 h 0.525 L 0.058,1.002 c 0.077,-0.213 0.141,-0.413 0.192,-0.6 0.057,0.2 0.123,0.401 0.198,0.6 l 0.99,2.663 H 1.934 L 0.498,0 Z"
         style="fill:#009bdb;fill-opacity:1;fill-rule:nonzero;stroke:none"
         transform="matrix(1.3333333,0,0,-1.3333333,2729.3095,445.6884)"
         clip-path="url(#clipPath386)"
         id="path398" />
      <path
         d="m 0,0 -1.42,3.665 h 0.525 L 0.058,1.002 c 0.077,-0.213 0.141,-0.413 0.192,-0.6 0.057,0.2 0.123,0.401 0.198,0.6 l 0.99,2.663 H 1.934 L 0.498,0 Z"
         style="fill:#009bdb;fill-opacity:1;fill-rule:nonzero;stroke:none"
         transform="matrix(1.3333333,0,0,-1.3333333,2733.7419,445.6884)"
         clip-path="url(#clipPath387)"
         id="path399" />
    </g>
    <path
       id="path424"
       d="M 4.4648187,0.00131094 H 6.3984125 V -13.147127 h 4.5117185 v -1.617187 H -0.0234625 v 1.617187 h 4.4882812 z m 14.2470703,0 C 18.582983,-0.72525156 18.536108,-1.6158766 18.536108,-2.5416578 v -3.9609375 c 0,-2.1328125 -0.785156,-4.3476567 -4.03125,-4.3476567 -1.335938,0 -2.601563,0.375 -3.480469,0.9492192 l 0.433594,1.265625 c 0.75,-0.4804688 1.78125,-0.7851563 2.765625,-0.7851563 2.167969,0 2.414062,1.5820313 2.414062,2.4492188 v 0.2226562 c -4.101562,-0.023437 -6.386718,1.3828125 -6.386718,3.9492188 0,1.5351562 1.101562,3.04687499 3.246093,3.04687499 1.511719,0 2.648438,-0.75 3.246094,-1.58203129 h 0.07031 l 0.152343,1.33593754 z M 16.672827,-3.5729078 c 0,0.1992187 -0.03516,0.421875 -0.105469,0.6210937 -0.304688,0.890625 -1.183594,1.7695313 -2.566406,1.7695313 -0.984375,0 -1.816407,-0.5859375 -1.816407,-1.8398438 0,-2.0625 2.390625,-2.4375 4.488282,-2.390625 z m 4.983398,3.57421874 h 1.898437 V -5.6471266 c 0,-0.3398437 0.04687,-0.6445312 0.09375,-0.9023437 0.257813,-1.453125 1.21875,-2.4726563 2.578125,-2.4726563 0.269532,0 0.46875,0.011719 0.65625,0.058594 v -1.8164064 c -0.175781,-0.04687 -0.328125,-0.07031 -0.539062,-0.07031 -1.300781,0 -2.460938,0.9023444 -2.941406,2.3320319 h -0.08203 l -0.07031,-2.0859379 h -1.6875 c 0.07031,0.9843754 0.09375,2.0625004 0.09375,3.3046879 z m 4.775391,4.58203126 c 1.03125,0 2.425781,-0.3515625 3.28125,-1.2070313 0.949218,-0.9609375 1.277343,-2.296875 1.277343,-4.35937496 V -10.604158 h -1.933593 v 8.8710939 c 0,2.54296879 -0.199219,3.375 -0.726563,3.9960938 -0.457031,0.5039062 -1.21875,0.7382812 -2.097656,0.8085937 z m 3.609375,-19.3710942 c -0.714844,0 -1.21875,0.527344 -1.21875,1.207032 0,0.632812 0.457031,1.183593 1.171875,1.183593 0.773437,0 1.230468,-0.550781 1.207031,-1.183593 0,-0.679688 -0.457031,-1.207032 -1.160156,-1.207032 z m 12.624023,9.8320317 c 0.02344,-0.1875 0.07031,-0.5039063 0.07031,-0.890625 0,-1.9570313 -0.925782,-5.0039067 -4.382813,-5.0039067 -3.09375,0 -4.980469,2.5195317 -4.980469,5.7187504 0,3.1992188 1.945313,5.35546879 5.214844,5.35546879 1.6875,0 2.847656,-0.3515625 3.527344,-0.65625 L 41.786108,-1.8150953 c -0.726563,0.3046875 -1.558594,0.5507812 -2.929688,0.5507812 -1.933593,0 -3.597656,-1.078125 -3.644531,-3.6914062 z m -7.429687,-1.3710938 c 0.152343,-1.3359375 1.007812,-3.140625 2.953125,-3.140625 2.179687,0 2.695312,1.9101563 2.683593,3.140625 z m 10.324218,-6.8203129 v 2.542969 H 43.91892 v 1.4648439 h 1.640625 v 5.7890625 c 0,1.2421875 0.199219,2.1914063 0.738282,2.76562504 0.46875,0.515625 1.183593,0.80859375 2.085937,0.80859375 0.75,0 1.335938,-0.1171875 1.710938,-0.26953125 L 50.01267,-1.4869703 c -0.246093,0.058594 -0.621093,0.1289062 -1.125,0.1289062 -1.066406,0 -1.441406,-0.75 -1.441406,-2.0625 v -5.71875 h 2.753906 v -1.4648439 h -2.753906 v -3.046875 z M 59.994116,0.00131094 C 59.865209,-0.72525156 59.818334,-1.6158766 59.818334,-2.5416578 v -3.9609375 c 0,-2.1328125 -0.785156,-4.3476567 -4.03125,-4.3476567 -1.335937,0 -2.601562,0.375 -3.480468,0.9492192 l 0.433593,1.265625 c 0.75,-0.4804688 1.78125,-0.7851563 2.765625,-0.7851563 2.167969,0 2.414063,1.5820313 2.414063,2.4492188 v 0.2226562 c -4.101563,-0.023437 -6.386719,1.3828125 -6.386719,3.9492188 0,1.5351562 1.101563,3.04687499 3.246094,3.04687499 1.511719,0 2.648437,-0.75 3.246094,-1.58203129 h 0.07031 L 58.24802,0.00131094 Z M 57.955053,-3.5729078 c 0,0.1992187 -0.03516,0.421875 -0.105469,0.6210937 -0.304687,0.890625 -1.183593,1.7695313 -2.566406,1.7695313 -0.984375,0 -1.816406,-0.5859375 -1.816406,-1.8398438 0,-2.0625 2.390625,-2.4375 4.488281,-2.390625 z m 17.24707,3.57421874 C 75.073217,-0.72525156 75.026342,-1.6158766 75.026342,-2.5416578 v -3.9609375 c 0,-2.1328125 -0.785156,-4.3476567 -4.03125,-4.3476567 -1.335937,0 -2.601562,0.375 -3.480469,0.9492192 l 0.433594,1.265625 c 0.75,-0.4804688 1.78125,-0.7851563 2.765625,-0.7851563 2.167969,0 2.414063,1.5820313 2.414063,2.4492188 v 0.2226562 c -4.101563,-0.023437 -6.386719,1.3828125 -6.386719,3.9492188 0,1.5351562 1.101562,3.04687499 3.246094,3.04687499 1.511718,0 2.648437,-0.75 3.246093,-1.58203129 h 0.07031 L 73.45603,0.00131094 Z M 73.163061,-3.5729078 c 0,0.1992187 -0.03516,0.421875 -0.105469,0.6210937 -0.304687,0.890625 -1.183594,1.7695313 -2.566406,1.7695313 -0.984375,0 -1.816406,-0.5859375 -1.816406,-1.8398438 0,-2.0625 2.390625,-2.4375 4.488281,-2.390625 z m 4.983398,7.9101562 h 1.898438 v -5.765625 h 0.04687 c 0.632812,1.05468754 1.863281,1.67578129 3.269531,1.67578129 2.496094,0 4.816406,-1.88671879 4.816406,-5.70703129 0,-3.2226562 -1.933593,-5.3906254 -4.488281,-5.3906254 -1.734375,0 -2.988281,0.773438 -3.773437,2.0625004 h -0.04687 l -0.08203,-1.8164064 h -1.734375 c 0.04687,1.0078127 0.09375,2.0976564 0.09375,3.4570314 z m 1.898438,-10.4765625 c 0,-0.2578125 0.07031,-0.5390625 0.128906,-0.7851562 0.375,-1.4414063 1.605469,-2.390625 2.917969,-2.390625 2.039062,0 3.152344,1.8164062 3.152344,3.9492187 0,2.4257813 -1.183594,4.1015625 -3.210938,4.1015625 -1.382812,0 -2.542969,-0.9257812 -2.894531,-2.2617187 -0.04687,-0.2460938 -0.09375,-0.5039063 -0.09375,-0.7851563 z m 18.1875,6.14062504 C 98.103491,-0.72525156 98.056616,-1.6158766 98.056616,-2.5416578 v -3.9609375 c 0,-2.1328125 -0.785157,-4.3476567 -4.03125,-4.3476567 -1.335938,0 -2.601563,0.375 -3.480469,0.9492192 l 0.433594,1.265625 c 0.75,-0.4804688 1.78125,-0.7851563 2.765625,-0.7851563 2.167968,0 2.414062,1.5820313 2.414062,2.4492188 v 0.2226562 c -4.101562,-0.023437 -6.386719,1.3828125 -6.386719,3.9492188 0,1.5351562 1.101563,3.04687499 3.246094,3.04687499 1.511719,0 2.648438,-0.75 3.246094,-1.58203129 h 0.07031 l 0.152344,1.33593754 z M 96.193334,-3.5729078 c 0,0.1992187 -0.03516,0.421875 -0.105468,0.6210937 -0.304688,0.890625 -1.183594,1.7695313 -2.566407,1.7695313 -0.984375,0 -1.816406,-0.5859375 -1.816406,-1.8398438 0,-2.0625 2.390625,-2.4375 4.488281,-2.390625 z m 12.424806,-7.0312502 -0.082,1.5937502 h -0.0469 c -0.45703,-0.8671875 -1.46484,-1.8398442 -3.30468,-1.8398442 -2.4375,0 -4.78125,2.0390629 -4.78125,5.6367192 0,2.9414062 1.88671,5.16796874 4.51171,5.16796874 1.65235,0 2.78907,-0.78515625 3.375,-1.76953124 h 0.0469 v 1.18359374 c 0,2.67187496 -1.44141,3.70312496 -3.42188,3.70312496 -1.3125,0 -2.40234,-0.3984375 -3.10546,-0.8320312 l -0.48047,1.4648437 c 0.85547,0.5742188 2.25,0.8789063 3.52734,0.8789063 1.33594,0 2.82422,-0.3046875 3.85547,-1.2773438 1.03125,-0.9140625 1.51172,-2.40234371 1.51172,-4.8398437 v -6.1523438 c 0,-1.3007812 0.0469,-2.15625 0.082,-2.9179689 z m -0.30469,6.0937502 c 0,0.328125 -0.0469,0.703125 -0.15234,1.03125 -0.41016,1.21875 -1.48828,1.96875 -2.67188,1.96875 -2.08593,0 -3.14062,-1.734375 -3.14062,-3.8085938 0,-2.4609375 1.32422,-4.0195312 3.16406,-4.0195312 1.39453,0 2.34375,0.9257812 2.69531,2.0390625 0.082,0.2695312 0.10547,0.5507812 0.10547,0.8789062 z m 12.73242,4.51171874 c -0.1289,-0.7265625 -0.17578,-1.61718754 -0.17578,-2.54296874 v -3.9609375 c 0,-2.1328125 -0.78515,-4.3476567 -4.03125,-4.3476567 -1.33594,0 -2.60156,0.375 -3.48047,0.9492192 l 0.4336,1.265625 c 0.75,-0.4804688 1.78125,-0.7851563 2.76562,-0.7851563 2.16797,0 2.41406,1.5820313 2.41406,2.4492188 v 0.2226562 c -4.10156,-0.023437 -6.38671,1.3828125 -6.38671,3.9492188 0,1.5351562 1.10156,3.04687499 3.24609,3.04687499 1.51172,0 2.64844,-0.75 3.24609,-1.58203129 h 0.0703 l 0.15234,1.33593754 z m -2.03906,-3.57421874 c 0,0.1992187 -0.0352,0.421875 -0.10547,0.6210937 -0.30469,0.890625 -1.18359,1.7695313 -2.5664,1.7695313 -0.98438,0 -1.81641,-0.5859375 -1.81641,-1.8398438 0,-2.0625 2.39062,-2.4375 4.48828,-2.390625 z m 12.21387,-11.9882812 v 6.3398437 h -0.0469 c -0.48047,-0.8554687 -1.58203,-1.6289067 -3.19922,-1.6289067 -2.58984,0 -4.78125,2.1679692 -4.75781,5.7070317 0,3.2109375 1.96875,5.39062499 4.53516,5.39062499 1.73437,0 3.02344,-0.90234375 3.62109,-2.08593749 h 0.0352 l 0.0937,1.83984374 h 1.73437 c -0.0703,-0.7265625 -0.0937,-1.79296874 -0.0937,-2.74218754 V -15.561189 Z m 0,11.1093749 c 0,0.3164063 -0.0234,0.5742188 -0.0937,0.8320313 -0.35156,1.453125 -1.53516,2.3085937 -2.82422,2.3085937 -2.08594,0 -3.14063,-1.78125 -3.14063,-3.9257812 0,-2.34375 1.1836,-4.1015625 3.1875,-4.1015625 1.44141,0 2.4961,1.0078125 2.77735,2.2382812 0.0703,0.2460938 0.0937,0.5742188 0.0937,0.8085938 z m 12.74414,4.45312504 c -0.12891,-0.7265625 -0.17578,-1.61718754 -0.17578,-2.54296874 v -3.9609375 c 0,-2.1328125 -0.78516,-4.3476567 -4.03125,-4.3476567 -1.33594,0 -2.60157,0.375 -3.48047,0.9492192 l 0.43359,1.265625 c 0.75,-0.4804688 1.78125,-0.7851563 2.76563,-0.7851563 2.16797,0 2.41406,1.5820313 2.41406,2.4492188 v 0.2226562 c -4.10156,-0.023437 -6.38672,1.3828125 -6.38672,3.9492188 0,1.5351562 1.10156,3.04687499 3.24609,3.04687499 1.51172,0 2.64844,-0.75 3.2461,-1.58203129 h 0.0703 l 0.15234,1.33593754 z m -2.03906,-3.57421874 c 0,0.1992187 -0.0352,0.421875 -0.10547,0.6210937 -0.30469,0.890625 -1.1836,1.7695313 -2.56641,1.7695313 -0.98437,0 -1.81641,-0.5859375 -1.81641,-1.8398438 0,-2.0625 2.39063,-2.4375 4.48829,-2.390625 z m 0,0"
       style="fill:#000000;fill-opacity:1;fill-rule:nonzero;stroke:none"
       aria-label="Tarjeta apagada"
       transform="matrix(1.3333333,0,0,1.3333333,2659.5392,401.98653)" />
    <path
       id="path425"
       d="M 0,0 V 0 H 145.303 Z"
       style="fill:none;stroke:#000000;stroke-width:1.095;stroke-linecap:butt;stroke-linejoin:miter;stroke-miterlimit:10;stroke-dasharray:none;stroke-opacity:1"
       transform="matrix(1.3333333,0,0,-1.3333333,2659.5392,404.9084)"
       clip-path="url(#clipPath426)" />
  </g>
</svg>
